<?xml version="1.0" encoding="utf-8" standalone="no"?>
<!DOCTYPE svg PUBLIC "-//W3C//DTD SVG 1.1//EN"
  "http://www.w3.org/Graphics/SVG/1.1/DTD/svg11.dtd">
<svg xmlns:xlink="http://www.w3.org/1999/xlink" width="720pt" height="360pt" viewBox="0 0 720 360" xmlns="http://www.w3.org/2000/svg" version="1.1">
 <metadata>
  <rdf:RDF xmlns:dc="http://purl.org/dc/elements/1.1/" xmlns:cc="http://creativecommons.org/ns#" xmlns:rdf="http://www.w3.org/1999/02/22-rdf-syntax-ns#">
   <cc:Work>
    <dc:type rdf:resource="http://purl.org/dc/dcmitype/StillImage"/>
    <dc:date>2022-11-29T15:54:30.581008</dc:date>
    <dc:format>image/svg+xml</dc:format>
    <dc:creator>
     <cc:Agent>
      <dc:title>Matplotlib v3.5.1, https://matplotlib.org/</dc:title>
     </cc:Agent>
    </dc:creator>
   </cc:Work>
  </rdf:RDF>
 </metadata>
 <defs>
  <style type="text/css">*{stroke-linejoin: round; stroke-linecap: butt}</style>
 </defs>
 <g id="figure_1">
  <g id="patch_1">
   <path d="M 0 360 
L 720 360 
L 720 0 
L 0 0 
z
" style="fill: #ffffff"/>
  </g>
  <g id="axes_1">
   <g id="patch_2">
    <path d="M 90 320.4 
L 648 320.4 
L 648 43.2 
L 90 43.2 
z
" style="fill: #ffffff"/>
   </g>
   <g id="matplotlib.axis_1">
    <g id="xtick_1">
     <g id="line2d_1">
      <defs>
       <path id="m55209c9f10" d="M 0 0 
L 0 -10 
" style="stroke: #000000; stroke-width: 0.8"/>
      </defs>
      <g>
       <use xlink:href="#m55209c9f10" x="115.363636" y="320.4" style="stroke: #000000; stroke-width: 0.8"/>
      </g>
     </g>
     <g id="text_1">
      <!-- 0 -->
      <g transform="translate(112.182386 331.498438)scale(0.1 -0.1)">
       <defs>
        <path id="DejaVuSans-30" d="M 2034 4250 
Q 1547 4250 1301 3770 
Q 1056 3291 1056 2328 
Q 1056 1369 1301 889 
Q 1547 409 2034 409 
Q 2525 409 2770 889 
Q 3016 1369 3016 2328 
Q 3016 3291 2770 3770 
Q 2525 4250 2034 4250 
z
M 2034 4750 
Q 2819 4750 3233 4129 
Q 3647 3509 3647 2328 
Q 3647 1150 3233 529 
Q 2819 -91 2034 -91 
Q 1250 -91 836 529 
Q 422 1150 422 2328 
Q 422 3509 836 4129 
Q 1250 4750 2034 4750 
z
" transform="scale(0.015625)"/>
       </defs>
       <use xlink:href="#DejaVuSans-30"/>
      </g>
     </g>
    </g>
    <g id="xtick_2">
     <g id="line2d_2">
      <g>
       <use xlink:href="#m55209c9f10" x="149.193095" y="320.4" style="stroke: #000000; stroke-width: 0.8"/>
      </g>
     </g>
     <g id="text_2">
      <!-- 200 -->
      <g transform="translate(139.649345 331.498438)scale(0.1 -0.1)">
       <defs>
        <path id="DejaVuSans-32" d="M 1228 531 
L 3431 531 
L 3431 0 
L 469 0 
L 469 531 
Q 828 903 1448 1529 
Q 2069 2156 2228 2338 
Q 2531 2678 2651 2914 
Q 2772 3150 2772 3378 
Q 2772 3750 2511 3984 
Q 2250 4219 1831 4219 
Q 1534 4219 1204 4116 
Q 875 4013 500 3803 
L 500 4441 
Q 881 4594 1212 4672 
Q 1544 4750 1819 4750 
Q 2544 4750 2975 4387 
Q 3406 4025 3406 3419 
Q 3406 3131 3298 2873 
Q 3191 2616 2906 2266 
Q 2828 2175 2409 1742 
Q 1991 1309 1228 531 
z
" transform="scale(0.015625)"/>
       </defs>
       <use xlink:href="#DejaVuSans-32"/>
       <use xlink:href="#DejaVuSans-30" x="63.623047"/>
       <use xlink:href="#DejaVuSans-30" x="127.246094"/>
      </g>
     </g>
    </g>
    <g id="xtick_3">
     <g id="line2d_3">
      <g>
       <use xlink:href="#m55209c9f10" x="183.022553" y="320.4" style="stroke: #000000; stroke-width: 0.8"/>
      </g>
     </g>
     <g id="text_3">
      <!-- 400 -->
      <g transform="translate(173.478803 331.498438)scale(0.1 -0.1)">
       <defs>
        <path id="DejaVuSans-34" d="M 2419 4116 
L 825 1625 
L 2419 1625 
L 2419 4116 
z
M 2253 4666 
L 3047 4666 
L 3047 1625 
L 3713 1625 
L 3713 1100 
L 3047 1100 
L 3047 0 
L 2419 0 
L 2419 1100 
L 313 1100 
L 313 1709 
L 2253 4666 
z
" transform="scale(0.015625)"/>
       </defs>
       <use xlink:href="#DejaVuSans-34"/>
       <use xlink:href="#DejaVuSans-30" x="63.623047"/>
       <use xlink:href="#DejaVuSans-30" x="127.246094"/>
      </g>
     </g>
    </g>
    <g id="xtick_4">
     <g id="line2d_4">
      <g>
       <use xlink:href="#m55209c9f10" x="216.852011" y="320.4" style="stroke: #000000; stroke-width: 0.8"/>
      </g>
     </g>
     <g id="text_4">
      <!-- 600 -->
      <g transform="translate(207.308261 331.498438)scale(0.1 -0.1)">
       <defs>
        <path id="DejaVuSans-36" d="M 2113 2584 
Q 1688 2584 1439 2293 
Q 1191 2003 1191 1497 
Q 1191 994 1439 701 
Q 1688 409 2113 409 
Q 2538 409 2786 701 
Q 3034 994 3034 1497 
Q 3034 2003 2786 2293 
Q 2538 2584 2113 2584 
z
M 3366 4563 
L 3366 3988 
Q 3128 4100 2886 4159 
Q 2644 4219 2406 4219 
Q 1781 4219 1451 3797 
Q 1122 3375 1075 2522 
Q 1259 2794 1537 2939 
Q 1816 3084 2150 3084 
Q 2853 3084 3261 2657 
Q 3669 2231 3669 1497 
Q 3669 778 3244 343 
Q 2819 -91 2113 -91 
Q 1303 -91 875 529 
Q 447 1150 447 2328 
Q 447 3434 972 4092 
Q 1497 4750 2381 4750 
Q 2619 4750 2861 4703 
Q 3103 4656 3366 4563 
z
" transform="scale(0.015625)"/>
       </defs>
       <use xlink:href="#DejaVuSans-36"/>
       <use xlink:href="#DejaVuSans-30" x="63.623047"/>
       <use xlink:href="#DejaVuSans-30" x="127.246094"/>
      </g>
     </g>
    </g>
    <g id="xtick_5">
     <g id="line2d_5">
      <g>
       <use xlink:href="#m55209c9f10" x="250.68147" y="320.4" style="stroke: #000000; stroke-width: 0.8"/>
      </g>
     </g>
     <g id="text_5">
      <!-- 800 -->
      <g transform="translate(241.13772 331.498438)scale(0.1 -0.1)">
       <defs>
        <path id="DejaVuSans-38" d="M 2034 2216 
Q 1584 2216 1326 1975 
Q 1069 1734 1069 1313 
Q 1069 891 1326 650 
Q 1584 409 2034 409 
Q 2484 409 2743 651 
Q 3003 894 3003 1313 
Q 3003 1734 2745 1975 
Q 2488 2216 2034 2216 
z
M 1403 2484 
Q 997 2584 770 2862 
Q 544 3141 544 3541 
Q 544 4100 942 4425 
Q 1341 4750 2034 4750 
Q 2731 4750 3128 4425 
Q 3525 4100 3525 3541 
Q 3525 3141 3298 2862 
Q 3072 2584 2669 2484 
Q 3125 2378 3379 2068 
Q 3634 1759 3634 1313 
Q 3634 634 3220 271 
Q 2806 -91 2034 -91 
Q 1263 -91 848 271 
Q 434 634 434 1313 
Q 434 1759 690 2068 
Q 947 2378 1403 2484 
z
M 1172 3481 
Q 1172 3119 1398 2916 
Q 1625 2713 2034 2713 
Q 2441 2713 2670 2916 
Q 2900 3119 2900 3481 
Q 2900 3844 2670 4047 
Q 2441 4250 2034 4250 
Q 1625 4250 1398 4047 
Q 1172 3844 1172 3481 
z
" transform="scale(0.015625)"/>
       </defs>
       <use xlink:href="#DejaVuSans-38"/>
       <use xlink:href="#DejaVuSans-30" x="63.623047"/>
       <use xlink:href="#DejaVuSans-30" x="127.246094"/>
      </g>
     </g>
    </g>
    <g id="xtick_6">
     <g id="line2d_6">
      <g>
       <use xlink:href="#m55209c9f10" x="284.510928" y="320.4" style="stroke: #000000; stroke-width: 0.8"/>
      </g>
     </g>
     <g id="text_6">
      <!-- 1000 -->
      <g transform="translate(271.785928 331.498438)scale(0.1 -0.1)">
       <defs>
        <path id="DejaVuSans-31" d="M 794 531 
L 1825 531 
L 1825 4091 
L 703 3866 
L 703 4441 
L 1819 4666 
L 2450 4666 
L 2450 531 
L 3481 531 
L 3481 0 
L 794 0 
L 794 531 
z
" transform="scale(0.015625)"/>
       </defs>
       <use xlink:href="#DejaVuSans-31"/>
       <use xlink:href="#DejaVuSans-30" x="63.623047"/>
       <use xlink:href="#DejaVuSans-30" x="127.246094"/>
       <use xlink:href="#DejaVuSans-30" x="190.869141"/>
      </g>
     </g>
    </g>
    <g id="xtick_7">
     <g id="line2d_7">
      <g>
       <use xlink:href="#m55209c9f10" x="318.340386" y="320.4" style="stroke: #000000; stroke-width: 0.8"/>
      </g>
     </g>
     <g id="text_7">
      <!-- 1200 -->
      <g transform="translate(305.615386 331.498438)scale(0.1 -0.1)">
       <use xlink:href="#DejaVuSans-31"/>
       <use xlink:href="#DejaVuSans-32" x="63.623047"/>
       <use xlink:href="#DejaVuSans-30" x="127.246094"/>
       <use xlink:href="#DejaVuSans-30" x="190.869141"/>
      </g>
     </g>
    </g>
    <g id="xtick_8">
     <g id="line2d_8">
      <g>
       <use xlink:href="#m55209c9f10" x="352.169844" y="320.4" style="stroke: #000000; stroke-width: 0.8"/>
      </g>
     </g>
     <g id="text_8">
      <!-- 1400 -->
      <g transform="translate(339.444844 331.498438)scale(0.1 -0.1)">
       <use xlink:href="#DejaVuSans-31"/>
       <use xlink:href="#DejaVuSans-34" x="63.623047"/>
       <use xlink:href="#DejaVuSans-30" x="127.246094"/>
       <use xlink:href="#DejaVuSans-30" x="190.869141"/>
      </g>
     </g>
    </g>
    <g id="xtick_9">
     <g id="line2d_9">
      <g>
       <use xlink:href="#m55209c9f10" x="385.999303" y="320.4" style="stroke: #000000; stroke-width: 0.8"/>
      </g>
     </g>
     <g id="text_9">
      <!-- 1600 -->
      <g transform="translate(373.274303 331.498438)scale(0.1 -0.1)">
       <use xlink:href="#DejaVuSans-31"/>
       <use xlink:href="#DejaVuSans-36" x="63.623047"/>
       <use xlink:href="#DejaVuSans-30" x="127.246094"/>
       <use xlink:href="#DejaVuSans-30" x="190.869141"/>
      </g>
     </g>
    </g>
    <g id="xtick_10">
     <g id="line2d_10">
      <g>
       <use xlink:href="#m55209c9f10" x="419.828761" y="320.4" style="stroke: #000000; stroke-width: 0.8"/>
      </g>
     </g>
     <g id="text_10">
      <!-- 1800 -->
      <g transform="translate(407.103761 331.498438)scale(0.1 -0.1)">
       <use xlink:href="#DejaVuSans-31"/>
       <use xlink:href="#DejaVuSans-38" x="63.623047"/>
       <use xlink:href="#DejaVuSans-30" x="127.246094"/>
       <use xlink:href="#DejaVuSans-30" x="190.869141"/>
      </g>
     </g>
    </g>
    <g id="xtick_11">
     <g id="line2d_11">
      <g>
       <use xlink:href="#m55209c9f10" x="453.658219" y="320.4" style="stroke: #000000; stroke-width: 0.8"/>
      </g>
     </g>
     <g id="text_11">
      <!-- 2000 -->
      <g transform="translate(440.933219 331.498438)scale(0.1 -0.1)">
       <use xlink:href="#DejaVuSans-32"/>
       <use xlink:href="#DejaVuSans-30" x="63.623047"/>
       <use xlink:href="#DejaVuSans-30" x="127.246094"/>
       <use xlink:href="#DejaVuSans-30" x="190.869141"/>
      </g>
     </g>
    </g>
    <g id="xtick_12">
     <g id="line2d_12">
      <g>
       <use xlink:href="#m55209c9f10" x="487.487678" y="320.4" style="stroke: #000000; stroke-width: 0.8"/>
      </g>
     </g>
     <g id="text_12">
      <!-- 2200 -->
      <g transform="translate(474.762678 331.498438)scale(0.1 -0.1)">
       <use xlink:href="#DejaVuSans-32"/>
       <use xlink:href="#DejaVuSans-32" x="63.623047"/>
       <use xlink:href="#DejaVuSans-30" x="127.246094"/>
       <use xlink:href="#DejaVuSans-30" x="190.869141"/>
      </g>
     </g>
    </g>
    <g id="xtick_13">
     <g id="line2d_13">
      <g>
       <use xlink:href="#m55209c9f10" x="521.317136" y="320.4" style="stroke: #000000; stroke-width: 0.8"/>
      </g>
     </g>
     <g id="text_13">
      <!-- 2400 -->
      <g transform="translate(508.592136 331.498438)scale(0.1 -0.1)">
       <use xlink:href="#DejaVuSans-32"/>
       <use xlink:href="#DejaVuSans-34" x="63.623047"/>
       <use xlink:href="#DejaVuSans-30" x="127.246094"/>
       <use xlink:href="#DejaVuSans-30" x="190.869141"/>
      </g>
     </g>
    </g>
    <g id="xtick_14">
     <g id="line2d_14">
      <g>
       <use xlink:href="#m55209c9f10" x="555.146594" y="320.4" style="stroke: #000000; stroke-width: 0.8"/>
      </g>
     </g>
     <g id="text_14">
      <!-- 2600 -->
      <g transform="translate(542.421594 331.498438)scale(0.1 -0.1)">
       <use xlink:href="#DejaVuSans-32"/>
       <use xlink:href="#DejaVuSans-36" x="63.623047"/>
       <use xlink:href="#DejaVuSans-30" x="127.246094"/>
       <use xlink:href="#DejaVuSans-30" x="190.869141"/>
      </g>
     </g>
    </g>
    <g id="xtick_15">
     <g id="line2d_15">
      <g>
       <use xlink:href="#m55209c9f10" x="588.976053" y="320.4" style="stroke: #000000; stroke-width: 0.8"/>
      </g>
     </g>
     <g id="text_15">
      <!-- 2800 -->
      <g transform="translate(576.251053 331.498438)scale(0.1 -0.1)">
       <use xlink:href="#DejaVuSans-32"/>
       <use xlink:href="#DejaVuSans-38" x="63.623047"/>
       <use xlink:href="#DejaVuSans-30" x="127.246094"/>
       <use xlink:href="#DejaVuSans-30" x="190.869141"/>
      </g>
     </g>
    </g>
    <g id="xtick_16">
     <g id="line2d_16">
      <g>
       <use xlink:href="#m55209c9f10" x="622.805511" y="320.4" style="stroke: #000000; stroke-width: 0.8"/>
      </g>
     </g>
     <g id="text_16">
      <!-- 3000 -->
      <g transform="translate(610.080511 331.498438)scale(0.1 -0.1)">
       <defs>
        <path id="DejaVuSans-33" d="M 2597 2516 
Q 3050 2419 3304 2112 
Q 3559 1806 3559 1356 
Q 3559 666 3084 287 
Q 2609 -91 1734 -91 
Q 1441 -91 1130 -33 
Q 819 25 488 141 
L 488 750 
Q 750 597 1062 519 
Q 1375 441 1716 441 
Q 2309 441 2620 675 
Q 2931 909 2931 1356 
Q 2931 1769 2642 2001 
Q 2353 2234 1838 2234 
L 1294 2234 
L 1294 2753 
L 1863 2753 
Q 2328 2753 2575 2939 
Q 2822 3125 2822 3475 
Q 2822 3834 2567 4026 
Q 2313 4219 1838 4219 
Q 1578 4219 1281 4162 
Q 984 4106 628 3988 
L 628 4550 
Q 988 4650 1302 4700 
Q 1616 4750 1894 4750 
Q 2613 4750 3031 4423 
Q 3450 4097 3450 3541 
Q 3450 3153 3228 2886 
Q 3006 2619 2597 2516 
z
" transform="scale(0.015625)"/>
       </defs>
       <use xlink:href="#DejaVuSans-33"/>
       <use xlink:href="#DejaVuSans-30" x="63.623047"/>
       <use xlink:href="#DejaVuSans-30" x="127.246094"/>
       <use xlink:href="#DejaVuSans-30" x="190.869141"/>
      </g>
     </g>
    </g>
    <g id="xtick_17">
     <g id="line2d_17">
      <defs>
       <path id="m3ad86e135e" d="M 0 0 
L 0 -5 
" style="stroke: #000000; stroke-width: 0.6"/>
      </defs>
      <g>
       <use xlink:href="#m3ad86e135e" x="98.448907" y="320.4" style="stroke: #000000; stroke-width: 0.6"/>
      </g>
     </g>
    </g>
    <g id="xtick_18">
     <g id="line2d_18">
      <g>
       <use xlink:href="#m3ad86e135e" x="106.906272" y="320.4" style="stroke: #000000; stroke-width: 0.6"/>
      </g>
     </g>
    </g>
    <g id="xtick_19">
     <g id="line2d_19">
      <g>
       <use xlink:href="#m3ad86e135e" x="123.821001" y="320.4" style="stroke: #000000; stroke-width: 0.6"/>
      </g>
     </g>
    </g>
    <g id="xtick_20">
     <g id="line2d_20">
      <g>
       <use xlink:href="#m3ad86e135e" x="132.278366" y="320.4" style="stroke: #000000; stroke-width: 0.6"/>
      </g>
     </g>
    </g>
    <g id="xtick_21">
     <g id="line2d_21">
      <g>
       <use xlink:href="#m3ad86e135e" x="140.73573" y="320.4" style="stroke: #000000; stroke-width: 0.6"/>
      </g>
     </g>
    </g>
    <g id="xtick_22">
     <g id="line2d_22">
      <g>
       <use xlink:href="#m3ad86e135e" x="157.650459" y="320.4" style="stroke: #000000; stroke-width: 0.6"/>
      </g>
     </g>
    </g>
    <g id="xtick_23">
     <g id="line2d_23">
      <g>
       <use xlink:href="#m3ad86e135e" x="166.107824" y="320.4" style="stroke: #000000; stroke-width: 0.6"/>
      </g>
     </g>
    </g>
    <g id="xtick_24">
     <g id="line2d_24">
      <g>
       <use xlink:href="#m3ad86e135e" x="174.565188" y="320.4" style="stroke: #000000; stroke-width: 0.6"/>
      </g>
     </g>
    </g>
    <g id="xtick_25">
     <g id="line2d_25">
      <g>
       <use xlink:href="#m3ad86e135e" x="191.479918" y="320.4" style="stroke: #000000; stroke-width: 0.6"/>
      </g>
     </g>
    </g>
    <g id="xtick_26">
     <g id="line2d_26">
      <g>
       <use xlink:href="#m3ad86e135e" x="199.937282" y="320.4" style="stroke: #000000; stroke-width: 0.6"/>
      </g>
     </g>
    </g>
    <g id="xtick_27">
     <g id="line2d_27">
      <g>
       <use xlink:href="#m3ad86e135e" x="208.394647" y="320.4" style="stroke: #000000; stroke-width: 0.6"/>
      </g>
     </g>
    </g>
    <g id="xtick_28">
     <g id="line2d_28">
      <g>
       <use xlink:href="#m3ad86e135e" x="225.309376" y="320.4" style="stroke: #000000; stroke-width: 0.6"/>
      </g>
     </g>
    </g>
    <g id="xtick_29">
     <g id="line2d_29">
      <g>
       <use xlink:href="#m3ad86e135e" x="233.76674" y="320.4" style="stroke: #000000; stroke-width: 0.6"/>
      </g>
     </g>
    </g>
    <g id="xtick_30">
     <g id="line2d_30">
      <g>
       <use xlink:href="#m3ad86e135e" x="242.224105" y="320.4" style="stroke: #000000; stroke-width: 0.6"/>
      </g>
     </g>
    </g>
    <g id="xtick_31">
     <g id="line2d_31">
      <g>
       <use xlink:href="#m3ad86e135e" x="259.138834" y="320.4" style="stroke: #000000; stroke-width: 0.6"/>
      </g>
     </g>
    </g>
    <g id="xtick_32">
     <g id="line2d_32">
      <g>
       <use xlink:href="#m3ad86e135e" x="267.596199" y="320.4" style="stroke: #000000; stroke-width: 0.6"/>
      </g>
     </g>
    </g>
    <g id="xtick_33">
     <g id="line2d_33">
      <g>
       <use xlink:href="#m3ad86e135e" x="276.053563" y="320.4" style="stroke: #000000; stroke-width: 0.6"/>
      </g>
     </g>
    </g>
    <g id="xtick_34">
     <g id="line2d_34">
      <g>
       <use xlink:href="#m3ad86e135e" x="292.968292" y="320.4" style="stroke: #000000; stroke-width: 0.6"/>
      </g>
     </g>
    </g>
    <g id="xtick_35">
     <g id="line2d_35">
      <g>
       <use xlink:href="#m3ad86e135e" x="301.425657" y="320.4" style="stroke: #000000; stroke-width: 0.6"/>
      </g>
     </g>
    </g>
    <g id="xtick_36">
     <g id="line2d_36">
      <g>
       <use xlink:href="#m3ad86e135e" x="309.883022" y="320.4" style="stroke: #000000; stroke-width: 0.6"/>
      </g>
     </g>
    </g>
    <g id="xtick_37">
     <g id="line2d_37">
      <g>
       <use xlink:href="#m3ad86e135e" x="326.797751" y="320.4" style="stroke: #000000; stroke-width: 0.6"/>
      </g>
     </g>
    </g>
    <g id="xtick_38">
     <g id="line2d_38">
      <g>
       <use xlink:href="#m3ad86e135e" x="335.255115" y="320.4" style="stroke: #000000; stroke-width: 0.6"/>
      </g>
     </g>
    </g>
    <g id="xtick_39">
     <g id="line2d_39">
      <g>
       <use xlink:href="#m3ad86e135e" x="343.71248" y="320.4" style="stroke: #000000; stroke-width: 0.6"/>
      </g>
     </g>
    </g>
    <g id="xtick_40">
     <g id="line2d_40">
      <g>
       <use xlink:href="#m3ad86e135e" x="360.627209" y="320.4" style="stroke: #000000; stroke-width: 0.6"/>
      </g>
     </g>
    </g>
    <g id="xtick_41">
     <g id="line2d_41">
      <g>
       <use xlink:href="#m3ad86e135e" x="369.084574" y="320.4" style="stroke: #000000; stroke-width: 0.6"/>
      </g>
     </g>
    </g>
    <g id="xtick_42">
     <g id="line2d_42">
      <g>
       <use xlink:href="#m3ad86e135e" x="377.541938" y="320.4" style="stroke: #000000; stroke-width: 0.6"/>
      </g>
     </g>
    </g>
    <g id="xtick_43">
     <g id="line2d_43">
      <g>
       <use xlink:href="#m3ad86e135e" x="394.456667" y="320.4" style="stroke: #000000; stroke-width: 0.6"/>
      </g>
     </g>
    </g>
    <g id="xtick_44">
     <g id="line2d_44">
      <g>
       <use xlink:href="#m3ad86e135e" x="402.914032" y="320.4" style="stroke: #000000; stroke-width: 0.6"/>
      </g>
     </g>
    </g>
    <g id="xtick_45">
     <g id="line2d_45">
      <g>
       <use xlink:href="#m3ad86e135e" x="411.371397" y="320.4" style="stroke: #000000; stroke-width: 0.6"/>
      </g>
     </g>
    </g>
    <g id="xtick_46">
     <g id="line2d_46">
      <g>
       <use xlink:href="#m3ad86e135e" x="428.286126" y="320.4" style="stroke: #000000; stroke-width: 0.6"/>
      </g>
     </g>
    </g>
    <g id="xtick_47">
     <g id="line2d_47">
      <g>
       <use xlink:href="#m3ad86e135e" x="436.74349" y="320.4" style="stroke: #000000; stroke-width: 0.6"/>
      </g>
     </g>
    </g>
    <g id="xtick_48">
     <g id="line2d_48">
      <g>
       <use xlink:href="#m3ad86e135e" x="445.200855" y="320.4" style="stroke: #000000; stroke-width: 0.6"/>
      </g>
     </g>
    </g>
    <g id="xtick_49">
     <g id="line2d_49">
      <g>
       <use xlink:href="#m3ad86e135e" x="462.115584" y="320.4" style="stroke: #000000; stroke-width: 0.6"/>
      </g>
     </g>
    </g>
    <g id="xtick_50">
     <g id="line2d_50">
      <g>
       <use xlink:href="#m3ad86e135e" x="470.572949" y="320.4" style="stroke: #000000; stroke-width: 0.6"/>
      </g>
     </g>
    </g>
    <g id="xtick_51">
     <g id="line2d_51">
      <g>
       <use xlink:href="#m3ad86e135e" x="479.030313" y="320.4" style="stroke: #000000; stroke-width: 0.6"/>
      </g>
     </g>
    </g>
    <g id="xtick_52">
     <g id="line2d_52">
      <g>
       <use xlink:href="#m3ad86e135e" x="495.945042" y="320.4" style="stroke: #000000; stroke-width: 0.6"/>
      </g>
     </g>
    </g>
    <g id="xtick_53">
     <g id="line2d_53">
      <g>
       <use xlink:href="#m3ad86e135e" x="504.402407" y="320.4" style="stroke: #000000; stroke-width: 0.6"/>
      </g>
     </g>
    </g>
    <g id="xtick_54">
     <g id="line2d_54">
      <g>
       <use xlink:href="#m3ad86e135e" x="512.859771" y="320.4" style="stroke: #000000; stroke-width: 0.6"/>
      </g>
     </g>
    </g>
    <g id="xtick_55">
     <g id="line2d_55">
      <g>
       <use xlink:href="#m3ad86e135e" x="529.774501" y="320.4" style="stroke: #000000; stroke-width: 0.6"/>
      </g>
     </g>
    </g>
    <g id="xtick_56">
     <g id="line2d_56">
      <g>
       <use xlink:href="#m3ad86e135e" x="538.231865" y="320.4" style="stroke: #000000; stroke-width: 0.6"/>
      </g>
     </g>
    </g>
    <g id="xtick_57">
     <g id="line2d_57">
      <g>
       <use xlink:href="#m3ad86e135e" x="546.68923" y="320.4" style="stroke: #000000; stroke-width: 0.6"/>
      </g>
     </g>
    </g>
    <g id="xtick_58">
     <g id="line2d_58">
      <g>
       <use xlink:href="#m3ad86e135e" x="563.603959" y="320.4" style="stroke: #000000; stroke-width: 0.6"/>
      </g>
     </g>
    </g>
    <g id="xtick_59">
     <g id="line2d_59">
      <g>
       <use xlink:href="#m3ad86e135e" x="572.061323" y="320.4" style="stroke: #000000; stroke-width: 0.6"/>
      </g>
     </g>
    </g>
    <g id="xtick_60">
     <g id="line2d_60">
      <g>
       <use xlink:href="#m3ad86e135e" x="580.518688" y="320.4" style="stroke: #000000; stroke-width: 0.6"/>
      </g>
     </g>
    </g>
    <g id="xtick_61">
     <g id="line2d_61">
      <g>
       <use xlink:href="#m3ad86e135e" x="597.433417" y="320.4" style="stroke: #000000; stroke-width: 0.6"/>
      </g>
     </g>
    </g>
    <g id="xtick_62">
     <g id="line2d_62">
      <g>
       <use xlink:href="#m3ad86e135e" x="605.890782" y="320.4" style="stroke: #000000; stroke-width: 0.6"/>
      </g>
     </g>
    </g>
    <g id="xtick_63">
     <g id="line2d_63">
      <g>
       <use xlink:href="#m3ad86e135e" x="614.348146" y="320.4" style="stroke: #000000; stroke-width: 0.6"/>
      </g>
     </g>
    </g>
    <g id="xtick_64">
     <g id="line2d_64">
      <g>
       <use xlink:href="#m3ad86e135e" x="631.262876" y="320.4" style="stroke: #000000; stroke-width: 0.6"/>
      </g>
     </g>
    </g>
    <g id="xtick_65">
     <g id="line2d_65">
      <g>
       <use xlink:href="#m3ad86e135e" x="639.72024" y="320.4" style="stroke: #000000; stroke-width: 0.6"/>
      </g>
     </g>
    </g>
    <g id="text_17">
     <!-- Simulation Iterations -->
     <g transform="translate(316.964844 345.176562)scale(0.1 -0.1)">
      <defs>
       <path id="DejaVuSans-53" d="M 3425 4513 
L 3425 3897 
Q 3066 4069 2747 4153 
Q 2428 4238 2131 4238 
Q 1616 4238 1336 4038 
Q 1056 3838 1056 3469 
Q 1056 3159 1242 3001 
Q 1428 2844 1947 2747 
L 2328 2669 
Q 3034 2534 3370 2195 
Q 3706 1856 3706 1288 
Q 3706 609 3251 259 
Q 2797 -91 1919 -91 
Q 1588 -91 1214 -16 
Q 841 59 441 206 
L 441 856 
Q 825 641 1194 531 
Q 1563 422 1919 422 
Q 2459 422 2753 634 
Q 3047 847 3047 1241 
Q 3047 1584 2836 1778 
Q 2625 1972 2144 2069 
L 1759 2144 
Q 1053 2284 737 2584 
Q 422 2884 422 3419 
Q 422 4038 858 4394 
Q 1294 4750 2059 4750 
Q 2388 4750 2728 4690 
Q 3069 4631 3425 4513 
z
" transform="scale(0.015625)"/>
       <path id="DejaVuSans-69" d="M 603 3500 
L 1178 3500 
L 1178 0 
L 603 0 
L 603 3500 
z
M 603 4863 
L 1178 4863 
L 1178 4134 
L 603 4134 
L 603 4863 
z
" transform="scale(0.015625)"/>
       <path id="DejaVuSans-6d" d="M 3328 2828 
Q 3544 3216 3844 3400 
Q 4144 3584 4550 3584 
Q 5097 3584 5394 3201 
Q 5691 2819 5691 2113 
L 5691 0 
L 5113 0 
L 5113 2094 
Q 5113 2597 4934 2840 
Q 4756 3084 4391 3084 
Q 3944 3084 3684 2787 
Q 3425 2491 3425 1978 
L 3425 0 
L 2847 0 
L 2847 2094 
Q 2847 2600 2669 2842 
Q 2491 3084 2119 3084 
Q 1678 3084 1418 2786 
Q 1159 2488 1159 1978 
L 1159 0 
L 581 0 
L 581 3500 
L 1159 3500 
L 1159 2956 
Q 1356 3278 1631 3431 
Q 1906 3584 2284 3584 
Q 2666 3584 2933 3390 
Q 3200 3197 3328 2828 
z
" transform="scale(0.015625)"/>
       <path id="DejaVuSans-75" d="M 544 1381 
L 544 3500 
L 1119 3500 
L 1119 1403 
Q 1119 906 1312 657 
Q 1506 409 1894 409 
Q 2359 409 2629 706 
Q 2900 1003 2900 1516 
L 2900 3500 
L 3475 3500 
L 3475 0 
L 2900 0 
L 2900 538 
Q 2691 219 2414 64 
Q 2138 -91 1772 -91 
Q 1169 -91 856 284 
Q 544 659 544 1381 
z
M 1991 3584 
L 1991 3584 
z
" transform="scale(0.015625)"/>
       <path id="DejaVuSans-6c" d="M 603 4863 
L 1178 4863 
L 1178 0 
L 603 0 
L 603 4863 
z
" transform="scale(0.015625)"/>
       <path id="DejaVuSans-61" d="M 2194 1759 
Q 1497 1759 1228 1600 
Q 959 1441 959 1056 
Q 959 750 1161 570 
Q 1363 391 1709 391 
Q 2188 391 2477 730 
Q 2766 1069 2766 1631 
L 2766 1759 
L 2194 1759 
z
M 3341 1997 
L 3341 0 
L 2766 0 
L 2766 531 
Q 2569 213 2275 61 
Q 1981 -91 1556 -91 
Q 1019 -91 701 211 
Q 384 513 384 1019 
Q 384 1609 779 1909 
Q 1175 2209 1959 2209 
L 2766 2209 
L 2766 2266 
Q 2766 2663 2505 2880 
Q 2244 3097 1772 3097 
Q 1472 3097 1187 3025 
Q 903 2953 641 2809 
L 641 3341 
Q 956 3463 1253 3523 
Q 1550 3584 1831 3584 
Q 2591 3584 2966 3190 
Q 3341 2797 3341 1997 
z
" transform="scale(0.015625)"/>
       <path id="DejaVuSans-74" d="M 1172 4494 
L 1172 3500 
L 2356 3500 
L 2356 3053 
L 1172 3053 
L 1172 1153 
Q 1172 725 1289 603 
Q 1406 481 1766 481 
L 2356 481 
L 2356 0 
L 1766 0 
Q 1100 0 847 248 
Q 594 497 594 1153 
L 594 3053 
L 172 3053 
L 172 3500 
L 594 3500 
L 594 4494 
L 1172 4494 
z
" transform="scale(0.015625)"/>
       <path id="DejaVuSans-6f" d="M 1959 3097 
Q 1497 3097 1228 2736 
Q 959 2375 959 1747 
Q 959 1119 1226 758 
Q 1494 397 1959 397 
Q 2419 397 2687 759 
Q 2956 1122 2956 1747 
Q 2956 2369 2687 2733 
Q 2419 3097 1959 3097 
z
M 1959 3584 
Q 2709 3584 3137 3096 
Q 3566 2609 3566 1747 
Q 3566 888 3137 398 
Q 2709 -91 1959 -91 
Q 1206 -91 779 398 
Q 353 888 353 1747 
Q 353 2609 779 3096 
Q 1206 3584 1959 3584 
z
" transform="scale(0.015625)"/>
       <path id="DejaVuSans-6e" d="M 3513 2113 
L 3513 0 
L 2938 0 
L 2938 2094 
Q 2938 2591 2744 2837 
Q 2550 3084 2163 3084 
Q 1697 3084 1428 2787 
Q 1159 2491 1159 1978 
L 1159 0 
L 581 0 
L 581 3500 
L 1159 3500 
L 1159 2956 
Q 1366 3272 1645 3428 
Q 1925 3584 2291 3584 
Q 2894 3584 3203 3211 
Q 3513 2838 3513 2113 
z
" transform="scale(0.015625)"/>
       <path id="DejaVuSans-20" transform="scale(0.015625)"/>
       <path id="DejaVuSans-49" d="M 628 4666 
L 1259 4666 
L 1259 0 
L 628 0 
L 628 4666 
z
" transform="scale(0.015625)"/>
       <path id="DejaVuSans-65" d="M 3597 1894 
L 3597 1613 
L 953 1613 
Q 991 1019 1311 708 
Q 1631 397 2203 397 
Q 2534 397 2845 478 
Q 3156 559 3463 722 
L 3463 178 
Q 3153 47 2828 -22 
Q 2503 -91 2169 -91 
Q 1331 -91 842 396 
Q 353 884 353 1716 
Q 353 2575 817 3079 
Q 1281 3584 2069 3584 
Q 2775 3584 3186 3129 
Q 3597 2675 3597 1894 
z
M 3022 2063 
Q 3016 2534 2758 2815 
Q 2500 3097 2075 3097 
Q 1594 3097 1305 2825 
Q 1016 2553 972 2059 
L 3022 2063 
z
" transform="scale(0.015625)"/>
       <path id="DejaVuSans-72" d="M 2631 2963 
Q 2534 3019 2420 3045 
Q 2306 3072 2169 3072 
Q 1681 3072 1420 2755 
Q 1159 2438 1159 1844 
L 1159 0 
L 581 0 
L 581 3500 
L 1159 3500 
L 1159 2956 
Q 1341 3275 1631 3429 
Q 1922 3584 2338 3584 
Q 2397 3584 2469 3576 
Q 2541 3569 2628 3553 
L 2631 2963 
z
" transform="scale(0.015625)"/>
       <path id="DejaVuSans-73" d="M 2834 3397 
L 2834 2853 
Q 2591 2978 2328 3040 
Q 2066 3103 1784 3103 
Q 1356 3103 1142 2972 
Q 928 2841 928 2578 
Q 928 2378 1081 2264 
Q 1234 2150 1697 2047 
L 1894 2003 
Q 2506 1872 2764 1633 
Q 3022 1394 3022 966 
Q 3022 478 2636 193 
Q 2250 -91 1575 -91 
Q 1294 -91 989 -36 
Q 684 19 347 128 
L 347 722 
Q 666 556 975 473 
Q 1284 391 1588 391 
Q 1994 391 2212 530 
Q 2431 669 2431 922 
Q 2431 1156 2273 1281 
Q 2116 1406 1581 1522 
L 1381 1569 
Q 847 1681 609 1914 
Q 372 2147 372 2553 
Q 372 3047 722 3315 
Q 1072 3584 1716 3584 
Q 2034 3584 2315 3537 
Q 2597 3491 2834 3397 
z
" transform="scale(0.015625)"/>
      </defs>
      <use xlink:href="#DejaVuSans-53"/>
      <use xlink:href="#DejaVuSans-69" x="63.476562"/>
      <use xlink:href="#DejaVuSans-6d" x="91.259766"/>
      <use xlink:href="#DejaVuSans-75" x="188.671875"/>
      <use xlink:href="#DejaVuSans-6c" x="252.050781"/>
      <use xlink:href="#DejaVuSans-61" x="279.833984"/>
      <use xlink:href="#DejaVuSans-74" x="341.113281"/>
      <use xlink:href="#DejaVuSans-69" x="380.322266"/>
      <use xlink:href="#DejaVuSans-6f" x="408.105469"/>
      <use xlink:href="#DejaVuSans-6e" x="469.287109"/>
      <use xlink:href="#DejaVuSans-20" x="532.666016"/>
      <use xlink:href="#DejaVuSans-49" x="564.453125"/>
      <use xlink:href="#DejaVuSans-74" x="593.945312"/>
      <use xlink:href="#DejaVuSans-65" x="633.154297"/>
      <use xlink:href="#DejaVuSans-72" x="694.677734"/>
      <use xlink:href="#DejaVuSans-61" x="735.791016"/>
      <use xlink:href="#DejaVuSans-74" x="797.070312"/>
      <use xlink:href="#DejaVuSans-69" x="836.279297"/>
      <use xlink:href="#DejaVuSans-6f" x="864.0625"/>
      <use xlink:href="#DejaVuSans-6e" x="925.244141"/>
      <use xlink:href="#DejaVuSans-73" x="988.623047"/>
     </g>
    </g>
   </g>
   <g id="matplotlib.axis_2">
    <g id="ytick_1">
     <g id="line2d_66">
      <defs>
       <path id="m7044b29b29" d="M 0 0 
L 10 0 
" style="stroke: #000000; stroke-width: 0.8"/>
      </defs>
      <g>
       <use xlink:href="#m7044b29b29" x="90" y="307.8" style="stroke: #000000; stroke-width: 0.8"/>
      </g>
     </g>
     <g id="text_18">
      <!-- 0% -->
      <g transform="translate(70.635937 311.599219)scale(0.1 -0.1)">
       <defs>
        <path id="DejaVuSans-25" d="M 4653 2053 
Q 4381 2053 4226 1822 
Q 4072 1591 4072 1178 
Q 4072 772 4226 539 
Q 4381 306 4653 306 
Q 4919 306 5073 539 
Q 5228 772 5228 1178 
Q 5228 1588 5073 1820 
Q 4919 2053 4653 2053 
z
M 4653 2450 
Q 5147 2450 5437 2106 
Q 5728 1763 5728 1178 
Q 5728 594 5436 251 
Q 5144 -91 4653 -91 
Q 4153 -91 3862 251 
Q 3572 594 3572 1178 
Q 3572 1766 3864 2108 
Q 4156 2450 4653 2450 
z
M 1428 4353 
Q 1159 4353 1004 4120 
Q 850 3888 850 3481 
Q 850 3069 1003 2837 
Q 1156 2606 1428 2606 
Q 1700 2606 1854 2837 
Q 2009 3069 2009 3481 
Q 2009 3884 1853 4118 
Q 1697 4353 1428 4353 
z
M 4250 4750 
L 4750 4750 
L 1831 -91 
L 1331 -91 
L 4250 4750 
z
M 1428 4750 
Q 1922 4750 2215 4408 
Q 2509 4066 2509 3481 
Q 2509 2891 2217 2550 
Q 1925 2209 1428 2209 
Q 931 2209 642 2551 
Q 353 2894 353 3481 
Q 353 4063 643 4406 
Q 934 4750 1428 4750 
z
" transform="scale(0.015625)"/>
       </defs>
       <use xlink:href="#DejaVuSans-30"/>
       <use xlink:href="#DejaVuSans-25" x="63.623047"/>
      </g>
     </g>
    </g>
    <g id="ytick_2">
     <g id="line2d_67">
      <g>
       <use xlink:href="#m7044b29b29" x="90" y="258.207011" style="stroke: #000000; stroke-width: 0.8"/>
      </g>
     </g>
     <g id="text_19">
      <!-- 20% -->
      <g transform="translate(64.273438 262.00623)scale(0.1 -0.1)">
       <use xlink:href="#DejaVuSans-32"/>
       <use xlink:href="#DejaVuSans-30" x="63.623047"/>
       <use xlink:href="#DejaVuSans-25" x="127.246094"/>
      </g>
     </g>
    </g>
    <g id="ytick_3">
     <g id="line2d_68">
      <g>
       <use xlink:href="#m7044b29b29" x="90" y="208.614023" style="stroke: #000000; stroke-width: 0.8"/>
      </g>
     </g>
     <g id="text_20">
      <!-- 40% -->
      <g transform="translate(64.273438 212.413241)scale(0.1 -0.1)">
       <use xlink:href="#DejaVuSans-34"/>
       <use xlink:href="#DejaVuSans-30" x="63.623047"/>
       <use xlink:href="#DejaVuSans-25" x="127.246094"/>
      </g>
     </g>
    </g>
    <g id="ytick_4">
     <g id="line2d_69">
      <g>
       <use xlink:href="#m7044b29b29" x="90" y="159.021034" style="stroke: #000000; stroke-width: 0.8"/>
      </g>
     </g>
     <g id="text_21">
      <!-- 60% -->
      <g transform="translate(64.273438 162.820253)scale(0.1 -0.1)">
       <use xlink:href="#DejaVuSans-36"/>
       <use xlink:href="#DejaVuSans-30" x="63.623047"/>
       <use xlink:href="#DejaVuSans-25" x="127.246094"/>
      </g>
     </g>
    </g>
    <g id="ytick_5">
     <g id="line2d_70">
      <g>
       <use xlink:href="#m7044b29b29" x="90" y="109.428045" style="stroke: #000000; stroke-width: 0.8"/>
      </g>
     </g>
     <g id="text_22">
      <!-- 80% -->
      <g transform="translate(64.273438 113.227264)scale(0.1 -0.1)">
       <use xlink:href="#DejaVuSans-38"/>
       <use xlink:href="#DejaVuSans-30" x="63.623047"/>
       <use xlink:href="#DejaVuSans-25" x="127.246094"/>
      </g>
     </g>
    </g>
    <g id="ytick_6">
     <g id="line2d_71">
      <g>
       <use xlink:href="#m7044b29b29" x="90" y="59.835057" style="stroke: #000000; stroke-width: 0.8"/>
      </g>
     </g>
     <g id="text_23">
      <!-- 100% -->
      <g transform="translate(57.910938 63.634275)scale(0.1 -0.1)">
       <use xlink:href="#DejaVuSans-31"/>
       <use xlink:href="#DejaVuSans-30" x="63.623047"/>
       <use xlink:href="#DejaVuSans-30" x="127.246094"/>
       <use xlink:href="#DejaVuSans-25" x="190.869141"/>
      </g>
     </g>
    </g>
    <g id="ytick_7">
     <g id="line2d_72">
      <defs>
       <path id="m5d89846e19" d="M 0 0 
L 5 0 
" style="stroke: #000000; stroke-width: 0.6"/>
      </defs>
      <g>
       <use xlink:href="#m5d89846e19" x="90" y="320.198247" style="stroke: #000000; stroke-width: 0.6"/>
      </g>
     </g>
    </g>
    <g id="ytick_8">
     <g id="line2d_73">
      <g>
       <use xlink:href="#m5d89846e19" x="90" y="295.401753" style="stroke: #000000; stroke-width: 0.6"/>
      </g>
     </g>
    </g>
    <g id="ytick_9">
     <g id="line2d_74">
      <g>
       <use xlink:href="#m5d89846e19" x="90" y="283.003506" style="stroke: #000000; stroke-width: 0.6"/>
      </g>
     </g>
    </g>
    <g id="ytick_10">
     <g id="line2d_75">
      <g>
       <use xlink:href="#m5d89846e19" x="90" y="270.605259" style="stroke: #000000; stroke-width: 0.6"/>
      </g>
     </g>
    </g>
    <g id="ytick_11">
     <g id="line2d_76">
      <g>
       <use xlink:href="#m5d89846e19" x="90" y="245.808764" style="stroke: #000000; stroke-width: 0.6"/>
      </g>
     </g>
    </g>
    <g id="ytick_12">
     <g id="line2d_77">
      <g>
       <use xlink:href="#m5d89846e19" x="90" y="233.410517" style="stroke: #000000; stroke-width: 0.6"/>
      </g>
     </g>
    </g>
    <g id="ytick_13">
     <g id="line2d_78">
      <g>
       <use xlink:href="#m5d89846e19" x="90" y="221.01227" style="stroke: #000000; stroke-width: 0.6"/>
      </g>
     </g>
    </g>
    <g id="ytick_14">
     <g id="line2d_79">
      <g>
       <use xlink:href="#m5d89846e19" x="90" y="196.215776" style="stroke: #000000; stroke-width: 0.6"/>
      </g>
     </g>
    </g>
    <g id="ytick_15">
     <g id="line2d_80">
      <g>
       <use xlink:href="#m5d89846e19" x="90" y="183.817528" style="stroke: #000000; stroke-width: 0.6"/>
      </g>
     </g>
    </g>
    <g id="ytick_16">
     <g id="line2d_81">
      <g>
       <use xlink:href="#m5d89846e19" x="90" y="171.419281" style="stroke: #000000; stroke-width: 0.6"/>
      </g>
     </g>
    </g>
    <g id="ytick_17">
     <g id="line2d_82">
      <g>
       <use xlink:href="#m5d89846e19" x="90" y="146.622787" style="stroke: #000000; stroke-width: 0.6"/>
      </g>
     </g>
    </g>
    <g id="ytick_18">
     <g id="line2d_83">
      <g>
       <use xlink:href="#m5d89846e19" x="90" y="134.22454" style="stroke: #000000; stroke-width: 0.6"/>
      </g>
     </g>
    </g>
    <g id="ytick_19">
     <g id="line2d_84">
      <g>
       <use xlink:href="#m5d89846e19" x="90" y="121.826293" style="stroke: #000000; stroke-width: 0.6"/>
      </g>
     </g>
    </g>
    <g id="ytick_20">
     <g id="line2d_85">
      <g>
       <use xlink:href="#m5d89846e19" x="90" y="97.029798" style="stroke: #000000; stroke-width: 0.6"/>
      </g>
     </g>
    </g>
    <g id="ytick_21">
     <g id="line2d_86">
      <g>
       <use xlink:href="#m5d89846e19" x="90" y="84.631551" style="stroke: #000000; stroke-width: 0.6"/>
      </g>
     </g>
    </g>
    <g id="ytick_22">
     <g id="line2d_87">
      <g>
       <use xlink:href="#m5d89846e19" x="90" y="72.233304" style="stroke: #000000; stroke-width: 0.6"/>
      </g>
     </g>
    </g>
    <g id="ytick_23">
     <g id="line2d_88">
      <g>
       <use xlink:href="#m5d89846e19" x="90" y="47.43681" style="stroke: #000000; stroke-width: 0.6"/>
      </g>
     </g>
    </g>
    <g id="text_24">
     <!-- Total Accuracy [%] -->
     <g transform="translate(51.83125 228.135156)rotate(-90)scale(0.1 -0.1)">
      <defs>
       <path id="DejaVuSans-54" d="M -19 4666 
L 3928 4666 
L 3928 4134 
L 2272 4134 
L 2272 0 
L 1638 0 
L 1638 4134 
L -19 4134 
L -19 4666 
z
" transform="scale(0.015625)"/>
       <path id="DejaVuSans-41" d="M 2188 4044 
L 1331 1722 
L 3047 1722 
L 2188 4044 
z
M 1831 4666 
L 2547 4666 
L 4325 0 
L 3669 0 
L 3244 1197 
L 1141 1197 
L 716 0 
L 50 0 
L 1831 4666 
z
" transform="scale(0.015625)"/>
       <path id="DejaVuSans-63" d="M 3122 3366 
L 3122 2828 
Q 2878 2963 2633 3030 
Q 2388 3097 2138 3097 
Q 1578 3097 1268 2742 
Q 959 2388 959 1747 
Q 959 1106 1268 751 
Q 1578 397 2138 397 
Q 2388 397 2633 464 
Q 2878 531 3122 666 
L 3122 134 
Q 2881 22 2623 -34 
Q 2366 -91 2075 -91 
Q 1284 -91 818 406 
Q 353 903 353 1747 
Q 353 2603 823 3093 
Q 1294 3584 2113 3584 
Q 2378 3584 2631 3529 
Q 2884 3475 3122 3366 
z
" transform="scale(0.015625)"/>
       <path id="DejaVuSans-79" d="M 2059 -325 
Q 1816 -950 1584 -1140 
Q 1353 -1331 966 -1331 
L 506 -1331 
L 506 -850 
L 844 -850 
Q 1081 -850 1212 -737 
Q 1344 -625 1503 -206 
L 1606 56 
L 191 3500 
L 800 3500 
L 1894 763 
L 2988 3500 
L 3597 3500 
L 2059 -325 
z
" transform="scale(0.015625)"/>
       <path id="DejaVuSans-5b" d="M 550 4863 
L 1875 4863 
L 1875 4416 
L 1125 4416 
L 1125 -397 
L 1875 -397 
L 1875 -844 
L 550 -844 
L 550 4863 
z
" transform="scale(0.015625)"/>
       <path id="DejaVuSans-5d" d="M 1947 4863 
L 1947 -844 
L 622 -844 
L 622 -397 
L 1369 -397 
L 1369 4416 
L 622 4416 
L 622 4863 
L 1947 4863 
z
" transform="scale(0.015625)"/>
      </defs>
      <use xlink:href="#DejaVuSans-54"/>
      <use xlink:href="#DejaVuSans-6f" x="44.083984"/>
      <use xlink:href="#DejaVuSans-74" x="105.265625"/>
      <use xlink:href="#DejaVuSans-61" x="144.474609"/>
      <use xlink:href="#DejaVuSans-6c" x="205.753906"/>
      <use xlink:href="#DejaVuSans-20" x="233.537109"/>
      <use xlink:href="#DejaVuSans-41" x="265.324219"/>
      <use xlink:href="#DejaVuSans-63" x="331.982422"/>
      <use xlink:href="#DejaVuSans-63" x="386.962891"/>
      <use xlink:href="#DejaVuSans-75" x="441.943359"/>
      <use xlink:href="#DejaVuSans-72" x="505.322266"/>
      <use xlink:href="#DejaVuSans-61" x="546.435547"/>
      <use xlink:href="#DejaVuSans-63" x="607.714844"/>
      <use xlink:href="#DejaVuSans-79" x="662.695312"/>
      <use xlink:href="#DejaVuSans-20" x="721.875"/>
      <use xlink:href="#DejaVuSans-5b" x="753.662109"/>
      <use xlink:href="#DejaVuSans-25" x="792.675781"/>
      <use xlink:href="#DejaVuSans-5d" x="887.695312"/>
     </g>
    </g>
   </g>
   <g id="line2d_89">
    <path d="M 115.363636 307.8 
L 117.065894 290.964122 
L 118.768151 278.568736 
L 120.470409 279.926767 
L 122.172666 266.001293 
L 123.874924 244.758999 
L 125.577181 239.572237 
L 127.279439 244.871655 
L 128.981696 229.400218 
L 130.683954 226.282131 
L 132.386211 227.478381 
L 134.088469 234.324095 
L 135.790726 237.499474 
L 137.492984 229.756789 
L 139.195241 213.971049 
L 140.897498 225.34449 
L 142.599756 212.751283 
L 144.302013 204.403353 
L 146.004271 209.038622 
L 147.706528 203.402944 
L 149.408786 200.532089 
L 151.111043 202.403607 
L 152.813301 209.428206 
L 154.515558 223.360681 
L 156.217816 202.77838 
L 157.920073 198.557661 
L 159.622331 209.868875 
L 161.324588 215.711399 
L 163.026846 225.917658 
L 164.729103 218.775939 
L 166.431361 208.008439 
L 168.133618 196.263883 
L 169.835876 196.447165 
L 171.538133 200.573978 
L 173.24039 203.646619 
L 174.942648 192.778158 
L 176.644905 196.22484 
L 178.347163 183.848254 
L 180.04942 195.445134 
L 181.751678 181.789712 
L 183.453935 181.531205 
L 185.156193 178.452765 
L 186.85845 187.768329 
L 188.560708 200.661177 
L 190.262965 187.879568 
L 191.965223 187.436244 
L 193.66748 179.390038 
L 195.369738 192.078033 
L 197.071995 192.094636 
L 198.774253 191.927024 
L 200.47651 195.994684 
L 202.178768 187.543536 
L 203.881025 206.044636 
L 205.583282 207.344373 
L 207.28554 191.590227 
L 208.987797 200.295705 
L 210.690055 198.62332 
L 212.392312 203.919588 
L 214.09457 216.730297 
L 215.796827 220.617706 
L 217.499085 221.544453 
L 219.201342 216.882967 
L 220.9036 216.825561 
L 222.605857 212.747529 
L 224.308115 212.925358 
L 226.010372 212.612206 
L 227.71263 220.302245 
L 229.414887 222.256461 
L 231.117145 206.3541 
L 232.819402 202.872884 
L 234.52166 204.367896 
L 236.223917 196.253924 
L 237.926174 209.235804 
L 239.628432 204.28249 
L 241.330689 201.229294 
L 243.032947 208.042474 
L 244.735204 208.305999 
L 246.437462 200.276251 
L 251.544234 200.429556 
L 253.246492 196.617269 
L 254.948749 198.649458 
L 256.651007 192.025175 
L 258.353264 192.068808 
L 261.757779 200.639243 
L 263.460037 201.454478 
L 265.162294 196.934864 
L 266.864552 200.05141 
L 268.566809 200.463246 
L 270.269067 187.596231 
L 271.971324 199.777835 
L 273.673581 192.123421 
L 275.375839 196.206021 
L 277.078096 179.585905 
L 278.780354 184.826021 
L 280.482611 192.041298 
L 282.184869 175.633438 
L 283.887126 186.413144 
L 285.589384 188.37232 
L 287.291641 184.352625 
L 288.993899 179.785818 
L 290.696156 177.583606 
L 292.398414 188.382951 
L 294.100671 191.063124 
L 295.802929 200.15229 
L 297.505186 200.757828 
L 299.207444 196.204026 
L 300.909701 200.612358 
L 304.314216 192.082713 
L 306.016473 188.406735 
L 307.718731 192.370857 
L 309.420988 192.225001 
L 311.123246 209.912597 
L 312.825503 204.566946 
L 314.527761 196.406099 
L 316.230018 195.864863 
L 317.932276 196.046789 
L 319.634533 199.128952 
L 321.336791 214.230819 
L 323.039048 188.723968 
L 324.741306 192.797549 
L 326.443563 192.099737 
L 328.145821 187.964889 
L 329.848078 196.319456 
L 331.550336 180.007231 
L 333.252593 183.912993 
L 334.954851 195.838825 
L 336.657108 188.486157 
L 338.359365 199.447396 
L 340.061623 213.084432 
L 343.466138 195.665011 
L 345.168395 195.763318 
L 346.870653 196.222092 
L 348.57291 204.371897 
L 350.275168 188.277909 
L 351.977425 188.493709 
L 353.679683 200.30362 
L 355.38194 187.918602 
L 357.084198 188.097924 
L 358.786455 192.979594 
L 360.488713 196.49632 
L 362.19097 200.370234 
L 363.893228 195.178584 
L 365.595485 201.481711 
L 367.297743 190.127509 
L 369 183.722628 
L 370.702257 193.764569 
L 372.404515 192.080936 
L 374.106772 197.462112 
L 375.80903 191.980357 
L 377.511287 187.920065 
L 379.213545 192.414324 
L 380.915802 183.823921 
L 382.61806 187.993689 
L 384.320317 179.785806 
L 386.022575 180.182805 
L 387.724832 184.101933 
L 389.42709 179.700067 
L 391.129347 185.053441 
L 392.831605 188.79258 
L 394.533862 179.743155 
L 396.23612 175.502487 
L 397.938377 175.549675 
L 399.640635 171.402067 
L 401.342892 179.355659 
L 403.045149 179.163879 
L 404.747407 175.951512 
L 406.449664 175.494764 
L 409.854179 175.564498 
L 411.556437 180.175279 
L 413.258694 192.155983 
L 414.960952 178.795199 
L 416.663209 187.876505 
L 418.365467 173.428913 
L 420.067724 168.621174 
L 421.769982 169.085105 
L 423.472239 173.480739 
L 425.174497 171.712572 
L 426.876754 168.573346 
L 428.579012 162.228539 
L 430.281269 150.862928 
L 431.983527 153.53789 
L 433.685784 163.240303 
L 435.388041 154.885254 
L 438.792556 179.482225 
L 440.494814 163.452727 
L 442.197071 171.322059 
L 443.899329 155.185537 
L 445.601586 150.843149 
L 447.303844 154.997103 
L 449.006101 167.23485 
L 450.708359 154.393002 
L 452.410616 163.218026 
L 454.112874 146.699415 
L 455.815131 154.869793 
L 457.517389 154.891939 
L 459.219646 167.539939 
L 460.921904 171.377239 
L 462.624161 171.401897 
L 464.326419 167.228654 
L 466.028676 175.546206 
L 467.730933 158.479841 
L 469.433191 159.511311 
L 471.135448 152.029167 
L 472.837706 159.459892 
L 474.539963 150.542088 
L 476.242221 154.425723 
L 477.944478 161.478349 
L 479.646736 158.573312 
L 481.348993 169.797857 
L 483.051251 187.574702 
L 486.455766 179.381958 
L 489.860281 171.371495 
L 491.562538 162.556723 
L 493.264796 167.180536 
L 494.967053 165.015762 
L 496.669311 158.587209 
L 498.371568 169.405863 
L 500.073826 170.912995 
L 501.776083 174.667194 
L 503.47834 165.290593 
L 505.180598 162.262734 
L 506.882855 171.539184 
L 508.585113 173.178308 
L 510.28737 178.944992 
L 511.989628 179.575696 
L 513.691885 184.001566 
L 515.394143 179.685058 
L 517.0964 183.931528 
L 518.798658 187.877284 
L 520.500915 187.937322 
L 522.203173 184.079236 
L 523.90543 183.978115 
L 525.607688 196.204634 
L 527.309945 196.327509 
L 529.012203 195.825952 
L 532.416718 182.310194 
L 534.118975 179.171926 
L 535.821232 180.083277 
L 537.52349 176.403901 
L 539.225747 171.389212 
L 540.928005 183.605776 
L 544.33252 175.556028 
L 546.034777 172.208981 
L 549.439292 179.321153 
L 551.14155 187.935665 
L 552.843807 186.260071 
L 554.546065 182.280846 
L 556.248322 171.411817 
L 557.95058 177.520907 
L 559.652837 186.352469 
L 561.355095 179.689988 
L 563.057352 183.005794 
L 564.75961 184.173021 
L 568.164124 175.545595 
L 569.866382 192.239696 
L 571.568639 188.278771 
L 573.270897 183.90675 
L 574.973154 184.132703 
L 576.675412 175.569305 
L 578.377669 170.417815 
L 580.079927 163.15439 
L 581.782184 167.681501 
L 583.484442 171.423081 
L 585.186699 167.287015 
L 586.888957 171.413409 
L 588.591214 167.352113 
L 590.293472 167.115015 
L 591.995729 178.783812 
L 593.697987 171.419231 
L 595.400244 171.419262 
L 597.102502 175.558779 
L 598.804759 175.427609 
L 600.507016 163.095615 
L 602.209274 171.314509 
L 603.911531 162.984605 
L 605.613789 178.602002 
L 607.316046 189.497955 
L 609.018304 190.055785 
L 610.720561 196.099875 
L 612.422819 192.489339 
L 614.125076 179.673121 
L 615.827334 187.960665 
L 617.529591 203.495852 
L 619.231849 213.061188 
L 620.934106 212.58574 
L 622.636364 221.01227 
L 622.636364 221.01227 
" clip-path="url(#p024fe87b7c)" style="fill: none; stroke: #611f53; stroke-linecap: square"/>
   </g>
   <g id="line2d_90">
    <path d="M 90 189.816162 
L 648 189.816162 
" clip-path="url(#p024fe87b7c)" style="fill: none; stroke-dasharray: 3.7,1.6; stroke-dashoffset: 0; stroke: #611f53"/>
    <defs>
     <path id="mab33851091" d="M -3 3 
L 3 3 
L 3 -3 
L -3 -3 
z
" style="stroke: #611f53; stroke-linejoin: miter"/>
    </defs>
    <g clip-path="url(#p024fe87b7c)">
     <use xlink:href="#mab33851091" x="90" y="189.816162" style="fill: #611f53; stroke: #611f53; stroke-linejoin: miter"/>
     <use xlink:href="#mab33851091" x="648" y="189.816162" style="fill: #611f53; stroke: #611f53; stroke-linejoin: miter"/>
    </g>
   </g>
   <g id="line2d_91">
    <path d="M 115.363636 307.8 
L 117.065894 266.214162 
L 118.768151 220.941934 
L 120.470409 209.568587 
L 122.172666 222.119079 
L 123.874924 232.075517 
L 125.577181 221.784642 
L 127.279439 225.956833 
L 128.981696 222.840685 
L 130.683954 227.438056 
L 132.386211 226.10855 
L 134.088469 220.91522 
L 135.790726 220.596033 
L 137.492984 217.24169 
L 139.195241 221.007244 
L 140.897498 204.380845 
L 142.599756 212.92152 
L 144.302013 204.883961 
L 146.004271 208.646977 
L 147.706528 200.710656 
L 149.408786 199.766501 
L 151.111043 201.199075 
L 152.813301 193.780757 
L 154.515558 204.028312 
L 156.217816 188.86833 
L 157.920073 208.015385 
L 159.622331 189.148785 
L 161.324588 190.678672 
L 163.026846 196.136255 
L 164.729103 200.035898 
L 166.431361 221.255692 
L 168.133618 208.611309 
L 169.835876 200.144571 
L 171.538133 200.441445 
L 173.24039 196.110417 
L 174.942648 182.640726 
L 176.644905 213.718823 
L 178.347163 195.426144 
L 180.04942 203.012593 
L 181.751678 207.026459 
L 183.453935 204.497171 
L 185.156193 209.634854 
L 186.85845 188.70979 
L 188.560708 195.850549 
L 190.262965 204.391848 
L 191.965223 220.688996 
L 193.66748 225.155559 
L 195.369738 216.871746 
L 197.071995 204.603354 
L 198.774253 213.000589 
L 200.47651 199.740335 
L 202.178768 203.66235 
L 203.881025 205.055562 
L 205.583282 213.316254 
L 207.28554 195.920015 
L 208.987797 183.501152 
L 210.690055 200.706279 
L 212.392312 191.57107 
L 214.09457 196.204762 
L 215.796827 202.370589 
L 217.499085 179.605168 
L 219.201342 196.411756 
L 220.9036 208.784009 
L 224.308115 200.432226 
L 226.010372 195.770314 
L 227.71263 187.462458 
L 229.414887 195.491668 
L 231.117145 205.273269 
L 232.819402 202.07195 
L 234.52166 173.160139 
L 236.223917 174.923175 
L 237.926174 184.508819 
L 239.628432 185.196858 
L 241.330689 196.326791 
L 243.032947 179.420127 
L 244.735204 174.070561 
L 246.437462 180.460384 
L 248.139719 167.644204 
L 251.544234 175.440794 
L 253.246492 173.641279 
L 254.948749 167.737456 
L 256.651007 163.225868 
L 258.353264 167.084946 
L 260.055522 174.618837 
L 261.757779 179.877508 
L 263.460037 182.892198 
L 265.162294 186.487441 
L 266.864552 182.523669 
L 268.566809 200.203672 
L 270.269067 191.245015 
L 271.971324 175.894303 
L 273.673581 191.76804 
L 275.375839 175.559684 
L 277.078096 183.556588 
L 278.780354 204.270362 
L 280.482611 191.283816 
L 282.184869 187.352508 
L 283.887126 188.330629 
L 285.589384 190.717138 
L 287.291641 175.864566 
L 288.993899 162.161873 
L 290.696156 157.046695 
L 292.398414 151.088567 
L 294.100671 162.455357 
L 295.802929 182.852796 
L 297.505186 190.948218 
L 300.909701 199.665119 
L 302.611959 196.213256 
L 304.314216 179.333537 
L 306.016473 171.551882 
L 307.718731 208.604534 
L 309.420988 195.48409 
L 311.123246 191.717995 
L 312.825503 183.946933 
L 314.527761 196.871204 
L 316.230018 188.862939 
L 317.932276 204.067397 
L 321.336791 220.519517 
L 323.039048 215.937912 
L 324.741306 195.394225 
L 326.443563 203.776224 
L 328.145821 195.987507 
L 329.848078 204.280258 
L 331.550336 191.522469 
L 333.252593 195.765758 
L 334.954851 179.889618 
L 336.657108 183.351961 
L 338.359365 182.591599 
L 340.061623 188.978768 
L 341.76388 173.736981 
L 343.466138 167.667801 
L 345.168395 174.150544 
L 346.870653 182.984848 
L 350.275168 152.016608 
L 351.977425 171.636115 
L 353.679683 179.639611 
L 355.38194 171.423697 
L 357.084198 179.669617 
L 358.786455 175.265757 
L 360.488713 200.502322 
L 362.19097 179.165513 
L 363.893228 187.475172 
L 365.595485 186.206116 
L 367.297743 189.916184 
L 369 188.503595 
L 370.702257 183.793706 
L 372.404515 183.545847 
L 374.106772 178.4087 
L 375.80903 162.633142 
L 377.511287 176.307533 
L 379.213545 171.897439 
L 380.915802 183.406116 
L 382.61806 188.008244 
L 384.320317 183.952921 
L 386.022575 191.613836 
L 387.724832 194.337421 
L 389.42709 185.711246 
L 391.129347 191.068533 
L 394.533862 169.49218 
L 396.23612 169.498176 
L 397.938377 146.632713 
L 399.640635 159.273678 
L 401.342892 174.025986 
L 403.045149 164.201911 
L 404.747407 174.052518 
L 406.449664 162.966105 
L 408.151922 154.919413 
L 409.854179 142.60455 
L 411.556437 138.717052 
L 413.258694 146.294983 
L 414.960952 138.600571 
L 416.663209 164.437255 
L 418.365467 196.517055 
L 420.067724 194.018431 
L 421.769982 197.896123 
L 423.472239 185.931476 
L 425.174497 167.731995 
L 426.876754 197.148684 
L 428.579012 188.776157 
L 430.281269 184.91249 
L 431.983527 179.395447 
L 433.685784 180.066166 
L 435.388041 163.213487 
L 437.090299 196.673548 
L 438.792556 192.591102 
L 440.494814 184.283051 
L 442.197071 180.072892 
L 443.899329 176.426318 
L 445.601586 174.061772 
L 447.303844 174.038026 
L 449.006101 167.796683 
L 450.708359 181.712132 
L 452.410616 165.099099 
L 454.112874 167.587741 
L 455.815131 183.859579 
L 457.517389 194.978513 
L 459.219646 162.634195 
L 460.921904 162.958497 
L 464.326419 179.574954 
L 466.028676 171.556375 
L 467.730933 180.193522 
L 469.433191 170.365851 
L 471.135448 174.957237 
L 472.837706 183.634504 
L 474.539963 186.305701 
L 476.242221 190.739304 
L 477.944478 191.421824 
L 479.646736 191.910676 
L 481.348993 194.781564 
L 483.051251 182.477815 
L 484.753508 158.523009 
L 486.455766 166.842847 
L 488.158023 171.579657 
L 489.860281 175.73633 
L 491.562538 176.295846 
L 493.264796 180.647531 
L 494.967053 175.443354 
L 496.669311 175.22569 
L 498.371568 176.606144 
L 500.073826 166.247629 
L 501.776083 149.225988 
L 503.47834 182.727823 
L 505.180598 175.910404 
L 506.882855 197.170675 
L 508.585113 196.956987 
L 510.28737 210.08512 
L 511.989628 213.162696 
L 513.691885 221.188094 
L 517.0964 229.314732 
L 518.798658 192.017522 
L 520.500915 200.429503 
L 522.203173 191.837431 
L 523.90543 204.642234 
L 525.607688 194.584575 
L 527.309945 202.41332 
L 529.012203 191.955952 
L 530.71446 190.408651 
L 532.416718 202.562387 
L 534.118975 199.537941 
L 535.821232 189.442007 
L 537.52349 187.654444 
L 539.225747 188.689485 
L 540.928005 204.684337 
L 542.630262 196.204438 
L 544.33252 191.762234 
L 546.034777 200.781056 
L 547.737035 183.165795 
L 549.439292 178.48441 
L 551.14155 170.752788 
L 552.843807 173.962768 
L 554.546065 174.10688 
L 556.248322 168.57002 
L 557.95058 178.354692 
L 559.652837 170.647028 
L 561.355095 185.031445 
L 563.057352 176.548457 
L 564.75961 184.205676 
L 566.461867 163.686113 
L 568.164124 171.173583 
L 569.866382 150.603727 
L 571.568639 159.063882 
L 573.270897 142.557308 
L 574.973154 140.36204 
L 576.675412 156.191688 
L 578.377669 150.920028 
L 580.079927 152.211574 
L 583.484442 179.542179 
L 585.186699 189.855848 
L 586.888957 200.973904 
L 588.591214 195.83143 
L 590.293472 197.411194 
L 591.995729 211.984989 
L 593.697987 192.191278 
L 595.400244 179.795723 
L 597.102502 171.769854 
L 598.804759 192.757701 
L 600.507016 177.073436 
L 602.209274 179.704089 
L 603.911531 171.054039 
L 605.613789 172.520519 
L 607.316046 165.642665 
L 609.018304 178.218235 
L 610.720561 169.965235 
L 612.422819 178.557615 
L 614.125076 173.973598 
L 615.827334 170.064149 
L 617.529591 180.457154 
L 619.231849 203.821445 
L 620.934106 208.017581 
L 622.636364 192.083026 
L 622.636364 192.083026 
" clip-path="url(#p024fe87b7c)" style="fill: none; stroke: #cb1b4f; stroke-linecap: square"/>
   </g>
   <g id="line2d_92">
    <path d="M 90 187.530342 
L 648 187.530342 
" clip-path="url(#p024fe87b7c)" style="fill: none; stroke-dasharray: 3.7,1.6; stroke-dashoffset: 0; stroke: #cb1b4f"/>
    <defs>
     <path id="m23a5a411f0" d="M 0 3 
C 0.795609 3 1.55874 2.683901 2.12132 2.12132 
C 2.683901 1.55874 3 0.795609 3 0 
C 3 -0.795609 2.683901 -1.55874 2.12132 -2.12132 
C 1.55874 -2.683901 0.795609 -3 0 -3 
C -0.795609 -3 -1.55874 -2.683901 -2.12132 -2.12132 
C -2.683901 -1.55874 -3 -0.795609 -3 0 
C -3 0.795609 -2.683901 1.55874 -2.12132 2.12132 
C -1.55874 2.683901 -0.795609 3 0 3 
z
" style="stroke: #cb1b4f"/>
    </defs>
    <g clip-path="url(#p024fe87b7c)">
     <use xlink:href="#m23a5a411f0" x="90" y="187.530342" style="fill: #cb1b4f; stroke: #cb1b4f"/>
     <use xlink:href="#m23a5a411f0" x="648" y="187.530342" style="fill: #cb1b4f; stroke: #cb1b4f"/>
    </g>
   </g>
   <g id="line2d_93">
    <path d="M 115.363636 307.8 
L 117.065894 282.934077 
L 118.768151 182.234442 
L 120.470409 209.829599 
L 122.172666 228.688621 
L 123.874924 209.52022 
L 125.577181 230.281169 
L 127.279439 211.538917 
L 128.981696 181.3426 
L 130.683954 194.11616 
L 132.386211 183.852221 
L 134.088469 175.525693 
L 135.790726 159.023033 
L 137.492984 157.769132 
L 139.195241 183.815803 
L 140.897498 159.023958 
L 142.599756 109.500397 
L 144.302013 110.452017 
L 146.004271 183.59289 
L 147.706528 186.030606 
L 149.408786 198.586816 
L 151.111043 184.38638 
L 152.813301 183.775381 
L 154.515558 185.559618 
L 156.217816 208.798429 
L 157.920073 208.083968 
L 159.622331 134.232 
L 161.324588 183.110654 
L 163.026846 134.214691 
L 164.729103 159.03673 
L 166.431361 133.799011 
L 168.133618 159.017269 
L 169.835876 109.208116 
L 171.538133 136.097935 
L 173.24039 183.822959 
L 174.942648 127.947774 
L 176.644905 134.11166 
L 178.347163 158.115962 
L 180.04942 159.178454 
L 181.751678 184.179633 
L 183.453935 169.944784 
L 185.156193 150.440794 
L 186.85845 134.226935 
L 188.560708 153.279002 
L 190.262965 156.87744 
L 191.965223 84.808355 
L 195.369738 183.84581 
L 197.071995 183.983059 
L 198.774253 132.432153 
L 200.47651 182.060413 
L 202.178768 129.797859 
L 203.881025 133.764932 
L 205.583282 137.165719 
L 207.28554 109.427977 
L 208.987797 109.428063 
L 210.690055 123.887141 
L 212.392312 134.224597 
L 214.09457 107.807436 
L 215.796827 109.428043 
L 217.499085 109.569873 
L 219.201342 107.377761 
L 220.9036 133.37805 
L 224.308115 134.989792 
L 226.010372 109.416686 
L 227.71263 155.553746 
L 229.414887 109.81729 
L 231.117145 133.739423 
L 232.819402 82.4188 
L 234.52166 143.062682 
L 236.223917 161.492867 
L 237.926174 168.933546 
L 239.628432 183.986276 
L 241.330689 131.694244 
L 243.032947 176.018756 
L 244.735204 158.775782 
L 246.437462 159.370048 
L 248.139719 134.363297 
L 249.841977 183.984058 
L 253.246492 183.814201 
L 256.651007 183.92215 
L 258.353264 232.492895 
L 260.055522 258.84668 
L 261.757779 271.029876 
L 263.460037 245.031857 
L 265.162294 208.841412 
L 266.864552 166.012321 
L 268.566809 183.814766 
L 270.269067 182.860896 
L 271.971324 206.056617 
L 273.673581 233.431899 
L 277.078096 134.161327 
L 278.780354 133.818877 
L 280.482611 159.42635 
L 282.184869 139.529249 
L 283.887126 166.027235 
L 285.589384 158.350655 
L 287.291641 144.843113 
L 288.993899 156.552926 
L 290.696156 134.062205 
L 292.398414 94.095223 
L 294.100671 186.376231 
L 295.802929 178.685833 
L 297.505186 183.818262 
L 299.207444 158.876386 
L 300.909701 184.361305 
L 304.314216 84.631669 
L 306.016473 109.395348 
L 307.718731 158.617346 
L 309.420988 113.274869 
L 311.123246 135.294624 
L 312.825503 86.755273 
L 314.527761 155.105952 
L 316.230018 147.831917 
L 317.932276 184.652596 
L 319.634533 159.547193 
L 321.336791 158.690056 
L 323.039048 159.331851 
L 324.741306 133.627554 
L 326.443563 159.019621 
L 328.145821 159.021022 
L 329.848078 183.590575 
L 331.550336 109.583146 
L 333.252593 112.380387 
L 334.954851 156.886905 
L 336.657108 182.206771 
L 338.359365 134.412712 
L 340.061623 109.427058 
L 341.76388 107.045085 
L 343.466138 159.022383 
L 345.168395 143.113847 
L 346.870653 185.721376 
L 348.57291 112.318496 
L 350.275168 160.950873 
L 351.977425 136.806819 
L 353.679683 109.674243 
L 355.38194 109.431843 
L 357.084198 133.962867 
L 358.786455 132.869178 
L 360.488713 107.973295 
L 362.19097 141.455429 
L 363.893228 138.87452 
L 365.595485 110.009595 
L 369 196.849601 
L 370.702257 156.838375 
L 372.404515 202.553732 
L 374.106772 155.886484 
L 375.80903 283.215989 
L 377.511287 185.46793 
L 379.213545 158.972427 
L 380.915802 158.990795 
L 382.61806 208.850643 
L 384.320317 158.966557 
L 386.022575 155.890576 
L 387.724832 185.680546 
L 389.42709 134.224405 
L 391.129347 132.459736 
L 392.831605 183.061555 
L 394.533862 134.900696 
L 396.23612 159.602636 
L 397.938377 208.610809 
L 399.640635 227.94744 
L 401.342892 235.538665 
L 403.045149 232.80222 
L 404.747407 233.470256 
L 406.449664 206.625203 
L 408.151922 159.14616 
L 409.854179 183.769305 
L 411.556437 185.514428 
L 413.258694 158.904909 
L 414.960952 183.863332 
L 418.365467 134.210832 
L 420.067724 134.223741 
L 421.769982 162.283553 
L 423.472239 134.211054 
L 425.174497 188.720738 
L 426.876754 234.62672 
L 428.579012 233.428367 
L 430.281269 201.120271 
L 431.983527 183.760826 
L 433.685784 159.020301 
L 435.388041 208.915196 
L 437.090299 183.549697 
L 438.792556 233.667561 
L 440.494814 236.609796 
L 442.197071 159.008388 
L 443.899329 159.869146 
L 445.601586 125.628369 
L 447.303844 98.996206 
L 449.006101 107.07608 
L 450.708359 86.585853 
L 452.410616 120.719543 
L 454.112874 55.8 
L 455.815131 111.398889 
L 457.517389 82.652985 
L 459.219646 83.296686 
L 460.921904 109.18963 
L 462.624161 109.428045 
L 464.326419 109.09959 
L 466.028676 107.822892 
L 467.730933 159.01787 
L 469.433191 159.021031 
L 471.135448 157.273809 
L 472.837706 183.817599 
L 474.539963 183.818393 
L 477.944478 134.814359 
L 479.646736 134.210805 
L 481.348993 159.031668 
L 483.051251 188.625753 
L 484.753508 159.012116 
L 486.455766 209.693961 
L 488.158023 183.669254 
L 489.860281 183.816918 
L 491.562538 208.816238 
L 493.264796 157.738821 
L 494.967053 183.054894 
L 496.669311 152.794706 
L 498.371568 110.753691 
L 500.073826 106.366053 
L 503.47834 184.522 
L 505.180598 193.243042 
L 508.585113 109.427881 
L 510.28737 162.800635 
L 511.989628 162.866262 
L 513.691885 109.603886 
L 515.394143 158.772573 
L 517.0964 85.27434 
L 518.798658 132.286702 
L 520.500915 84.621384 
L 523.90543 84.639905 
L 525.607688 59.821292 
L 529.012203 59.835058 
L 530.71446 60.520254 
L 532.416718 84.474996 
L 534.118975 210.806808 
L 535.821232 132.853694 
L 537.52349 64.739004 
L 539.225747 106.346083 
L 540.928005 84.669812 
L 542.630262 158.980468 
L 544.33252 159.821524 
L 546.034777 230.91285 
L 547.737035 182.740039 
L 549.439292 164.25288 
L 551.14155 166.932112 
L 552.843807 136.033452 
L 554.546065 145.036997 
L 556.248322 146.248278 
L 557.95058 144.418052 
L 559.652837 134.23832 
L 561.355095 127.850077 
L 563.057352 129.932182 
L 564.75961 107.514825 
L 566.461867 111.325453 
L 568.164124 134.172109 
L 569.866382 183.806146 
L 571.568639 134.229539 
L 573.270897 183.500659 
L 574.973154 134.063327 
L 576.675412 107.313108 
L 578.377669 111.397055 
L 580.079927 110.048544 
L 581.782184 123.805739 
L 583.484442 182.465552 
L 585.186699 208.459911 
L 586.888957 134.232066 
L 588.591214 131.669067 
L 590.293472 106.645207 
L 591.995729 156.082567 
L 593.697987 111.630553 
L 595.400244 133.876965 
L 597.102502 134.248824 
L 598.804759 109.277856 
L 600.507016 133.990842 
L 602.209274 135.414507 
L 603.911531 109.484722 
L 605.613789 123.098617 
L 607.316046 123.998275 
L 609.018304 108.768721 
L 610.720561 109.446301 
L 615.827334 185.835481 
L 617.529591 158.895751 
L 619.231849 183.614692 
L 620.934106 182.714595 
L 622.636364 159.021034 
L 622.636364 159.021034 
" clip-path="url(#p024fe87b7c)" style="fill: none; stroke: #f58860; stroke-linecap: square"/>
   </g>
   <g id="line2d_94">
    <path d="M 90 153.821564 
L 648 153.821564 
" clip-path="url(#p024fe87b7c)" style="fill: none; stroke-dasharray: 3.7,1.6; stroke-dashoffset: 0; stroke: #f58860"/>
    <defs>
     <path id="m9d6a45df89" d="M 0 -3 
L -3 3 
L 3 3 
z
" style="stroke: #f58860; stroke-linejoin: miter"/>
    </defs>
    <g clip-path="url(#p024fe87b7c)">
     <use xlink:href="#m9d6a45df89" x="90" y="153.821564" style="fill: #f58860; stroke: #f58860; stroke-linejoin: miter"/>
     <use xlink:href="#m9d6a45df89" x="648" y="153.821564" style="fill: #f58860; stroke: #f58860; stroke-linejoin: miter"/>
    </g>
   </g>
   <g id="patch_3">
    <path d="M 90 320.4 
L 90 43.2 
" style="fill: none; stroke: #000000; stroke-width: 0.8; stroke-linejoin: miter; stroke-linecap: square"/>
   </g>
   <g id="patch_4">
    <path d="M 648 320.4 
L 648 43.2 
" style="fill: none; stroke: #000000; stroke-width: 0.8; stroke-linejoin: miter; stroke-linecap: square"/>
   </g>
   <g id="patch_5">
    <path d="M 90 320.4 
L 648 320.4 
" style="fill: none; stroke: #000000; stroke-width: 0.8; stroke-linejoin: miter; stroke-linecap: square"/>
   </g>
   <g id="patch_6">
    <path d="M 90 43.2 
L 648 43.2 
" style="fill: none; stroke: #000000; stroke-width: 0.8; stroke-linejoin: miter; stroke-linecap: square"/>
   </g>
   <g id="text_25">
    <!-- Accuracy comparison: Fish type detection (Pattern:Circle_70) -->
    <g transform="translate(185.895938 37.2)scale(0.12 -0.12)">
     <defs>
      <path id="DejaVuSans-70" d="M 1159 525 
L 1159 -1331 
L 581 -1331 
L 581 3500 
L 1159 3500 
L 1159 2969 
Q 1341 3281 1617 3432 
Q 1894 3584 2278 3584 
Q 2916 3584 3314 3078 
Q 3713 2572 3713 1747 
Q 3713 922 3314 415 
Q 2916 -91 2278 -91 
Q 1894 -91 1617 61 
Q 1341 213 1159 525 
z
M 3116 1747 
Q 3116 2381 2855 2742 
Q 2594 3103 2138 3103 
Q 1681 3103 1420 2742 
Q 1159 2381 1159 1747 
Q 1159 1113 1420 752 
Q 1681 391 2138 391 
Q 2594 391 2855 752 
Q 3116 1113 3116 1747 
z
" transform="scale(0.015625)"/>
      <path id="DejaVuSans-3a" d="M 750 794 
L 1409 794 
L 1409 0 
L 750 0 
L 750 794 
z
M 750 3309 
L 1409 3309 
L 1409 2516 
L 750 2516 
L 750 3309 
z
" transform="scale(0.015625)"/>
      <path id="DejaVuSans-46" d="M 628 4666 
L 3309 4666 
L 3309 4134 
L 1259 4134 
L 1259 2759 
L 3109 2759 
L 3109 2228 
L 1259 2228 
L 1259 0 
L 628 0 
L 628 4666 
z
" transform="scale(0.015625)"/>
      <path id="DejaVuSans-68" d="M 3513 2113 
L 3513 0 
L 2938 0 
L 2938 2094 
Q 2938 2591 2744 2837 
Q 2550 3084 2163 3084 
Q 1697 3084 1428 2787 
Q 1159 2491 1159 1978 
L 1159 0 
L 581 0 
L 581 4863 
L 1159 4863 
L 1159 2956 
Q 1366 3272 1645 3428 
Q 1925 3584 2291 3584 
Q 2894 3584 3203 3211 
Q 3513 2838 3513 2113 
z
" transform="scale(0.015625)"/>
      <path id="DejaVuSans-64" d="M 2906 2969 
L 2906 4863 
L 3481 4863 
L 3481 0 
L 2906 0 
L 2906 525 
Q 2725 213 2448 61 
Q 2172 -91 1784 -91 
Q 1150 -91 751 415 
Q 353 922 353 1747 
Q 353 2572 751 3078 
Q 1150 3584 1784 3584 
Q 2172 3584 2448 3432 
Q 2725 3281 2906 2969 
z
M 947 1747 
Q 947 1113 1208 752 
Q 1469 391 1925 391 
Q 2381 391 2643 752 
Q 2906 1113 2906 1747 
Q 2906 2381 2643 2742 
Q 2381 3103 1925 3103 
Q 1469 3103 1208 2742 
Q 947 2381 947 1747 
z
" transform="scale(0.015625)"/>
      <path id="DejaVuSans-28" d="M 1984 4856 
Q 1566 4138 1362 3434 
Q 1159 2731 1159 2009 
Q 1159 1288 1364 580 
Q 1569 -128 1984 -844 
L 1484 -844 
Q 1016 -109 783 600 
Q 550 1309 550 2009 
Q 550 2706 781 3412 
Q 1013 4119 1484 4856 
L 1984 4856 
z
" transform="scale(0.015625)"/>
      <path id="DejaVuSans-50" d="M 1259 4147 
L 1259 2394 
L 2053 2394 
Q 2494 2394 2734 2622 
Q 2975 2850 2975 3272 
Q 2975 3691 2734 3919 
Q 2494 4147 2053 4147 
L 1259 4147 
z
M 628 4666 
L 2053 4666 
Q 2838 4666 3239 4311 
Q 3641 3956 3641 3272 
Q 3641 2581 3239 2228 
Q 2838 1875 2053 1875 
L 1259 1875 
L 1259 0 
L 628 0 
L 628 4666 
z
" transform="scale(0.015625)"/>
      <path id="DejaVuSans-43" d="M 4122 4306 
L 4122 3641 
Q 3803 3938 3442 4084 
Q 3081 4231 2675 4231 
Q 1875 4231 1450 3742 
Q 1025 3253 1025 2328 
Q 1025 1406 1450 917 
Q 1875 428 2675 428 
Q 3081 428 3442 575 
Q 3803 722 4122 1019 
L 4122 359 
Q 3791 134 3420 21 
Q 3050 -91 2638 -91 
Q 1578 -91 968 557 
Q 359 1206 359 2328 
Q 359 3453 968 4101 
Q 1578 4750 2638 4750 
Q 3056 4750 3426 4639 
Q 3797 4528 4122 4306 
z
" transform="scale(0.015625)"/>
      <path id="DejaVuSans-5f" d="M 3263 -1063 
L 3263 -1509 
L -63 -1509 
L -63 -1063 
L 3263 -1063 
z
" transform="scale(0.015625)"/>
      <path id="DejaVuSans-37" d="M 525 4666 
L 3525 4666 
L 3525 4397 
L 1831 0 
L 1172 0 
L 2766 4134 
L 525 4134 
L 525 4666 
z
" transform="scale(0.015625)"/>
      <path id="DejaVuSans-29" d="M 513 4856 
L 1013 4856 
Q 1481 4119 1714 3412 
Q 1947 2706 1947 2009 
Q 1947 1309 1714 600 
Q 1481 -109 1013 -844 
L 513 -844 
Q 928 -128 1133 580 
Q 1338 1288 1338 2009 
Q 1338 2731 1133 3434 
Q 928 4138 513 4856 
z
" transform="scale(0.015625)"/>
     </defs>
     <use xlink:href="#DejaVuSans-41"/>
     <use xlink:href="#DejaVuSans-63" x="66.658203"/>
     <use xlink:href="#DejaVuSans-63" x="121.638672"/>
     <use xlink:href="#DejaVuSans-75" x="176.619141"/>
     <use xlink:href="#DejaVuSans-72" x="239.998047"/>
     <use xlink:href="#DejaVuSans-61" x="281.111328"/>
     <use xlink:href="#DejaVuSans-63" x="342.390625"/>
     <use xlink:href="#DejaVuSans-79" x="397.371094"/>
     <use xlink:href="#DejaVuSans-20" x="456.550781"/>
     <use xlink:href="#DejaVuSans-63" x="488.337891"/>
     <use xlink:href="#DejaVuSans-6f" x="543.318359"/>
     <use xlink:href="#DejaVuSans-6d" x="604.5"/>
     <use xlink:href="#DejaVuSans-70" x="701.912109"/>
     <use xlink:href="#DejaVuSans-61" x="765.388672"/>
     <use xlink:href="#DejaVuSans-72" x="826.667969"/>
     <use xlink:href="#DejaVuSans-69" x="867.78125"/>
     <use xlink:href="#DejaVuSans-73" x="895.564453"/>
     <use xlink:href="#DejaVuSans-6f" x="947.664062"/>
     <use xlink:href="#DejaVuSans-6e" x="1008.845703"/>
     <use xlink:href="#DejaVuSans-3a" x="1072.224609"/>
     <use xlink:href="#DejaVuSans-20" x="1105.916016"/>
     <use xlink:href="#DejaVuSans-46" x="1137.703125"/>
     <use xlink:href="#DejaVuSans-69" x="1187.972656"/>
     <use xlink:href="#DejaVuSans-73" x="1215.755859"/>
     <use xlink:href="#DejaVuSans-68" x="1267.855469"/>
     <use xlink:href="#DejaVuSans-20" x="1331.234375"/>
     <use xlink:href="#DejaVuSans-74" x="1363.021484"/>
     <use xlink:href="#DejaVuSans-79" x="1402.230469"/>
     <use xlink:href="#DejaVuSans-70" x="1461.410156"/>
     <use xlink:href="#DejaVuSans-65" x="1524.886719"/>
     <use xlink:href="#DejaVuSans-20" x="1586.410156"/>
     <use xlink:href="#DejaVuSans-64" x="1618.197266"/>
     <use xlink:href="#DejaVuSans-65" x="1681.673828"/>
     <use xlink:href="#DejaVuSans-74" x="1743.197266"/>
     <use xlink:href="#DejaVuSans-65" x="1782.40625"/>
     <use xlink:href="#DejaVuSans-63" x="1843.929688"/>
     <use xlink:href="#DejaVuSans-74" x="1898.910156"/>
     <use xlink:href="#DejaVuSans-69" x="1938.119141"/>
     <use xlink:href="#DejaVuSans-6f" x="1965.902344"/>
     <use xlink:href="#DejaVuSans-6e" x="2027.083984"/>
     <use xlink:href="#DejaVuSans-20" x="2090.462891"/>
     <use xlink:href="#DejaVuSans-28" x="2122.25"/>
     <use xlink:href="#DejaVuSans-50" x="2161.263672"/>
     <use xlink:href="#DejaVuSans-61" x="2217.066406"/>
     <use xlink:href="#DejaVuSans-74" x="2278.345703"/>
     <use xlink:href="#DejaVuSans-74" x="2317.554688"/>
     <use xlink:href="#DejaVuSans-65" x="2356.763672"/>
     <use xlink:href="#DejaVuSans-72" x="2418.287109"/>
     <use xlink:href="#DejaVuSans-6e" x="2457.650391"/>
     <use xlink:href="#DejaVuSans-3a" x="2521.029297"/>
     <use xlink:href="#DejaVuSans-43" x="2554.720703"/>
     <use xlink:href="#DejaVuSans-69" x="2624.544922"/>
     <use xlink:href="#DejaVuSans-72" x="2652.328125"/>
     <use xlink:href="#DejaVuSans-63" x="2691.191406"/>
     <use xlink:href="#DejaVuSans-6c" x="2746.171875"/>
     <use xlink:href="#DejaVuSans-65" x="2773.955078"/>
     <use xlink:href="#DejaVuSans-5f" x="2835.478516"/>
     <use xlink:href="#DejaVuSans-37" x="2885.478516"/>
     <use xlink:href="#DejaVuSans-30" x="2949.101562"/>
     <use xlink:href="#DejaVuSans-29" x="3012.724609"/>
    </g>
   </g>
   <g id="legend_1">
    <g id="patch_7">
     <path d="M 549.85 315.4 
L 641 315.4 
Q 643 315.4 643 313.4 
L 643 226.33125 
Q 643 224.33125 641 224.33125 
L 549.85 224.33125 
Q 547.85 224.33125 547.85 226.33125 
L 547.85 313.4 
Q 547.85 315.4 549.85 315.4 
z
" style="fill: #ffffff; opacity: 0.8; stroke: #cccccc; stroke-linejoin: miter"/>
    </g>
    <g id="line2d_95">
     <path d="M 551.85 232.429688 
L 561.85 232.429688 
L 571.85 232.429688 
" style="fill: none; stroke: #611f53; stroke-linecap: square"/>
    </g>
    <g id="text_26">
     <!-- Tuna -->
     <g transform="translate(579.85 235.929688)scale(0.1 -0.1)">
      <use xlink:href="#DejaVuSans-54"/>
      <use xlink:href="#DejaVuSans-75" x="45.958984"/>
      <use xlink:href="#DejaVuSans-6e" x="109.337891"/>
      <use xlink:href="#DejaVuSans-61" x="172.716797"/>
     </g>
    </g>
    <g id="line2d_96">
     <path d="M 551.85 247.107813 
L 561.85 247.107813 
L 571.85 247.107813 
" style="fill: none; stroke-dasharray: 3.7,1.6; stroke-dashoffset: 0; stroke: #611f53"/>
     <g>
      <use xlink:href="#mab33851091" x="561.85" y="247.107813" style="fill: #611f53; stroke: #611f53; stroke-linejoin: miter"/>
     </g>
    </g>
    <g id="text_27">
     <!-- Avg Tuna -->
     <g transform="translate(579.85 250.607813)scale(0.1 -0.1)">
      <defs>
       <path id="DejaVuSans-76" d="M 191 3500 
L 800 3500 
L 1894 563 
L 2988 3500 
L 3597 3500 
L 2284 0 
L 1503 0 
L 191 3500 
z
" transform="scale(0.015625)"/>
       <path id="DejaVuSans-67" d="M 2906 1791 
Q 2906 2416 2648 2759 
Q 2391 3103 1925 3103 
Q 1463 3103 1205 2759 
Q 947 2416 947 1791 
Q 947 1169 1205 825 
Q 1463 481 1925 481 
Q 2391 481 2648 825 
Q 2906 1169 2906 1791 
z
M 3481 434 
Q 3481 -459 3084 -895 
Q 2688 -1331 1869 -1331 
Q 1566 -1331 1297 -1286 
Q 1028 -1241 775 -1147 
L 775 -588 
Q 1028 -725 1275 -790 
Q 1522 -856 1778 -856 
Q 2344 -856 2625 -561 
Q 2906 -266 2906 331 
L 2906 616 
Q 2728 306 2450 153 
Q 2172 0 1784 0 
Q 1141 0 747 490 
Q 353 981 353 1791 
Q 353 2603 747 3093 
Q 1141 3584 1784 3584 
Q 2172 3584 2450 3431 
Q 2728 3278 2906 2969 
L 2906 3500 
L 3481 3500 
L 3481 434 
z
" transform="scale(0.015625)"/>
      </defs>
      <use xlink:href="#DejaVuSans-41"/>
      <use xlink:href="#DejaVuSans-76" x="62.533203"/>
      <use xlink:href="#DejaVuSans-67" x="121.712891"/>
      <use xlink:href="#DejaVuSans-20" x="185.189453"/>
      <use xlink:href="#DejaVuSans-54" x="216.976562"/>
      <use xlink:href="#DejaVuSans-75" x="262.935547"/>
      <use xlink:href="#DejaVuSans-6e" x="326.314453"/>
      <use xlink:href="#DejaVuSans-61" x="389.693359"/>
     </g>
    </g>
    <g id="line2d_97">
     <path d="M 551.85 261.785938 
L 561.85 261.785938 
L 571.85 261.785938 
" style="fill: none; stroke: #cb1b4f; stroke-linecap: square"/>
    </g>
    <g id="text_28">
     <!-- Salmon -->
     <g transform="translate(579.85 265.285938)scale(0.1 -0.1)">
      <use xlink:href="#DejaVuSans-53"/>
      <use xlink:href="#DejaVuSans-61" x="63.476562"/>
      <use xlink:href="#DejaVuSans-6c" x="124.755859"/>
      <use xlink:href="#DejaVuSans-6d" x="152.539062"/>
      <use xlink:href="#DejaVuSans-6f" x="249.951172"/>
      <use xlink:href="#DejaVuSans-6e" x="311.132812"/>
     </g>
    </g>
    <g id="line2d_98">
     <path d="M 551.85 276.464063 
L 561.85 276.464063 
L 571.85 276.464063 
" style="fill: none; stroke-dasharray: 3.7,1.6; stroke-dashoffset: 0; stroke: #cb1b4f"/>
     <g>
      <use xlink:href="#m23a5a411f0" x="561.85" y="276.464063" style="fill: #cb1b4f; stroke: #cb1b4f"/>
     </g>
    </g>
    <g id="text_29">
     <!-- Avg Salmon -->
     <g transform="translate(579.85 279.964063)scale(0.1 -0.1)">
      <use xlink:href="#DejaVuSans-41"/>
      <use xlink:href="#DejaVuSans-76" x="62.533203"/>
      <use xlink:href="#DejaVuSans-67" x="121.712891"/>
      <use xlink:href="#DejaVuSans-20" x="185.189453"/>
      <use xlink:href="#DejaVuSans-53" x="216.976562"/>
      <use xlink:href="#DejaVuSans-61" x="280.453125"/>
      <use xlink:href="#DejaVuSans-6c" x="341.732422"/>
      <use xlink:href="#DejaVuSans-6d" x="369.515625"/>
      <use xlink:href="#DejaVuSans-6f" x="466.927734"/>
      <use xlink:href="#DejaVuSans-6e" x="528.109375"/>
     </g>
    </g>
    <g id="line2d_99">
     <path d="M 551.85 291.142188 
L 561.85 291.142188 
L 571.85 291.142188 
" style="fill: none; stroke: #f58860; stroke-linecap: square"/>
    </g>
    <g id="text_30">
     <!-- Clown -->
     <g transform="translate(579.85 294.642188)scale(0.1 -0.1)">
      <defs>
       <path id="DejaVuSans-77" d="M 269 3500 
L 844 3500 
L 1563 769 
L 2278 3500 
L 2956 3500 
L 3675 769 
L 4391 3500 
L 4966 3500 
L 4050 0 
L 3372 0 
L 2619 2869 
L 1863 0 
L 1184 0 
L 269 3500 
z
" transform="scale(0.015625)"/>
      </defs>
      <use xlink:href="#DejaVuSans-43"/>
      <use xlink:href="#DejaVuSans-6c" x="69.824219"/>
      <use xlink:href="#DejaVuSans-6f" x="97.607422"/>
      <use xlink:href="#DejaVuSans-77" x="158.789062"/>
      <use xlink:href="#DejaVuSans-6e" x="240.576172"/>
     </g>
    </g>
    <g id="line2d_100">
     <path d="M 551.85 305.820312 
L 561.85 305.820312 
L 571.85 305.820312 
" style="fill: none; stroke-dasharray: 3.7,1.6; stroke-dashoffset: 0; stroke: #f58860"/>
     <g>
      <use xlink:href="#m9d6a45df89" x="561.85" y="305.820312" style="fill: #f58860; stroke: #f58860; stroke-linejoin: miter"/>
     </g>
    </g>
    <g id="text_31">
     <!-- Avg Clown -->
     <g transform="translate(579.85 309.320312)scale(0.1 -0.1)">
      <use xlink:href="#DejaVuSans-41"/>
      <use xlink:href="#DejaVuSans-76" x="62.533203"/>
      <use xlink:href="#DejaVuSans-67" x="121.712891"/>
      <use xlink:href="#DejaVuSans-20" x="185.189453"/>
      <use xlink:href="#DejaVuSans-43" x="216.976562"/>
      <use xlink:href="#DejaVuSans-6c" x="286.800781"/>
      <use xlink:href="#DejaVuSans-6f" x="314.583984"/>
      <use xlink:href="#DejaVuSans-77" x="375.765625"/>
      <use xlink:href="#DejaVuSans-6e" x="457.552734"/>
     </g>
    </g>
   </g>
  </g>
 </g>
 <defs>
  <clipPath id="p024fe87b7c">
   <rect x="90" y="43.2" width="558" height="277.2"/>
  </clipPath>
 </defs>
</svg>
