<?xml version="1.0" encoding="utf-8" standalone="no"?>
<!DOCTYPE svg PUBLIC "-//W3C//DTD SVG 1.1//EN"
  "http://www.w3.org/Graphics/SVG/1.1/DTD/svg11.dtd">
<svg xmlns:xlink="http://www.w3.org/1999/xlink" width="720pt" height="360pt" viewBox="0 0 720 360" xmlns="http://www.w3.org/2000/svg" version="1.1">
 <metadata>
  <rdf:RDF xmlns:dc="http://purl.org/dc/elements/1.1/" xmlns:cc="http://creativecommons.org/ns#" xmlns:rdf="http://www.w3.org/1999/02/22-rdf-syntax-ns#">
   <cc:Work>
    <dc:type rdf:resource="http://purl.org/dc/dcmitype/StillImage"/>
    <dc:date>2022-11-29T15:54:30.253916</dc:date>
    <dc:format>image/svg+xml</dc:format>
    <dc:creator>
     <cc:Agent>
      <dc:title>Matplotlib v3.5.1, https://matplotlib.org/</dc:title>
     </cc:Agent>
    </dc:creator>
   </cc:Work>
  </rdf:RDF>
 </metadata>
 <defs>
  <style type="text/css">*{stroke-linejoin: round; stroke-linecap: butt}</style>
 </defs>
 <g id="figure_1">
  <g id="patch_1">
   <path d="M 0 360 
L 720 360 
L 720 0 
L 0 0 
z
" style="fill: #ffffff"/>
  </g>
  <g id="axes_1">
   <g id="patch_2">
    <path d="M 90 320.4 
L 648 320.4 
L 648 43.2 
L 90 43.2 
z
" style="fill: #ffffff"/>
   </g>
   <g id="matplotlib.axis_1">
    <g id="xtick_1">
     <g id="line2d_1">
      <defs>
       <path id="m2da2f6abe5" d="M 0 0 
L 0 -10 
" style="stroke: #000000; stroke-width: 0.8"/>
      </defs>
      <g>
       <use xlink:href="#m2da2f6abe5" x="115.363636" y="320.4" style="stroke: #000000; stroke-width: 0.8"/>
      </g>
     </g>
     <g id="text_1">
      <!-- 0 -->
      <g transform="translate(112.182386 331.498438)scale(0.1 -0.1)">
       <defs>
        <path id="DejaVuSans-30" d="M 2034 4250 
Q 1547 4250 1301 3770 
Q 1056 3291 1056 2328 
Q 1056 1369 1301 889 
Q 1547 409 2034 409 
Q 2525 409 2770 889 
Q 3016 1369 3016 2328 
Q 3016 3291 2770 3770 
Q 2525 4250 2034 4250 
z
M 2034 4750 
Q 2819 4750 3233 4129 
Q 3647 3509 3647 2328 
Q 3647 1150 3233 529 
Q 2819 -91 2034 -91 
Q 1250 -91 836 529 
Q 422 1150 422 2328 
Q 422 3509 836 4129 
Q 1250 4750 2034 4750 
z
" transform="scale(0.015625)"/>
       </defs>
       <use xlink:href="#DejaVuSans-30"/>
      </g>
     </g>
    </g>
    <g id="xtick_2">
     <g id="line2d_2">
      <g>
       <use xlink:href="#m2da2f6abe5" x="149.193095" y="320.4" style="stroke: #000000; stroke-width: 0.8"/>
      </g>
     </g>
     <g id="text_2">
      <!-- 200 -->
      <g transform="translate(139.649345 331.498438)scale(0.1 -0.1)">
       <defs>
        <path id="DejaVuSans-32" d="M 1228 531 
L 3431 531 
L 3431 0 
L 469 0 
L 469 531 
Q 828 903 1448 1529 
Q 2069 2156 2228 2338 
Q 2531 2678 2651 2914 
Q 2772 3150 2772 3378 
Q 2772 3750 2511 3984 
Q 2250 4219 1831 4219 
Q 1534 4219 1204 4116 
Q 875 4013 500 3803 
L 500 4441 
Q 881 4594 1212 4672 
Q 1544 4750 1819 4750 
Q 2544 4750 2975 4387 
Q 3406 4025 3406 3419 
Q 3406 3131 3298 2873 
Q 3191 2616 2906 2266 
Q 2828 2175 2409 1742 
Q 1991 1309 1228 531 
z
" transform="scale(0.015625)"/>
       </defs>
       <use xlink:href="#DejaVuSans-32"/>
       <use xlink:href="#DejaVuSans-30" x="63.623047"/>
       <use xlink:href="#DejaVuSans-30" x="127.246094"/>
      </g>
     </g>
    </g>
    <g id="xtick_3">
     <g id="line2d_3">
      <g>
       <use xlink:href="#m2da2f6abe5" x="183.022553" y="320.4" style="stroke: #000000; stroke-width: 0.8"/>
      </g>
     </g>
     <g id="text_3">
      <!-- 400 -->
      <g transform="translate(173.478803 331.498438)scale(0.1 -0.1)">
       <defs>
        <path id="DejaVuSans-34" d="M 2419 4116 
L 825 1625 
L 2419 1625 
L 2419 4116 
z
M 2253 4666 
L 3047 4666 
L 3047 1625 
L 3713 1625 
L 3713 1100 
L 3047 1100 
L 3047 0 
L 2419 0 
L 2419 1100 
L 313 1100 
L 313 1709 
L 2253 4666 
z
" transform="scale(0.015625)"/>
       </defs>
       <use xlink:href="#DejaVuSans-34"/>
       <use xlink:href="#DejaVuSans-30" x="63.623047"/>
       <use xlink:href="#DejaVuSans-30" x="127.246094"/>
      </g>
     </g>
    </g>
    <g id="xtick_4">
     <g id="line2d_4">
      <g>
       <use xlink:href="#m2da2f6abe5" x="216.852011" y="320.4" style="stroke: #000000; stroke-width: 0.8"/>
      </g>
     </g>
     <g id="text_4">
      <!-- 600 -->
      <g transform="translate(207.308261 331.498438)scale(0.1 -0.1)">
       <defs>
        <path id="DejaVuSans-36" d="M 2113 2584 
Q 1688 2584 1439 2293 
Q 1191 2003 1191 1497 
Q 1191 994 1439 701 
Q 1688 409 2113 409 
Q 2538 409 2786 701 
Q 3034 994 3034 1497 
Q 3034 2003 2786 2293 
Q 2538 2584 2113 2584 
z
M 3366 4563 
L 3366 3988 
Q 3128 4100 2886 4159 
Q 2644 4219 2406 4219 
Q 1781 4219 1451 3797 
Q 1122 3375 1075 2522 
Q 1259 2794 1537 2939 
Q 1816 3084 2150 3084 
Q 2853 3084 3261 2657 
Q 3669 2231 3669 1497 
Q 3669 778 3244 343 
Q 2819 -91 2113 -91 
Q 1303 -91 875 529 
Q 447 1150 447 2328 
Q 447 3434 972 4092 
Q 1497 4750 2381 4750 
Q 2619 4750 2861 4703 
Q 3103 4656 3366 4563 
z
" transform="scale(0.015625)"/>
       </defs>
       <use xlink:href="#DejaVuSans-36"/>
       <use xlink:href="#DejaVuSans-30" x="63.623047"/>
       <use xlink:href="#DejaVuSans-30" x="127.246094"/>
      </g>
     </g>
    </g>
    <g id="xtick_5">
     <g id="line2d_5">
      <g>
       <use xlink:href="#m2da2f6abe5" x="250.68147" y="320.4" style="stroke: #000000; stroke-width: 0.8"/>
      </g>
     </g>
     <g id="text_5">
      <!-- 800 -->
      <g transform="translate(241.13772 331.498438)scale(0.1 -0.1)">
       <defs>
        <path id="DejaVuSans-38" d="M 2034 2216 
Q 1584 2216 1326 1975 
Q 1069 1734 1069 1313 
Q 1069 891 1326 650 
Q 1584 409 2034 409 
Q 2484 409 2743 651 
Q 3003 894 3003 1313 
Q 3003 1734 2745 1975 
Q 2488 2216 2034 2216 
z
M 1403 2484 
Q 997 2584 770 2862 
Q 544 3141 544 3541 
Q 544 4100 942 4425 
Q 1341 4750 2034 4750 
Q 2731 4750 3128 4425 
Q 3525 4100 3525 3541 
Q 3525 3141 3298 2862 
Q 3072 2584 2669 2484 
Q 3125 2378 3379 2068 
Q 3634 1759 3634 1313 
Q 3634 634 3220 271 
Q 2806 -91 2034 -91 
Q 1263 -91 848 271 
Q 434 634 434 1313 
Q 434 1759 690 2068 
Q 947 2378 1403 2484 
z
M 1172 3481 
Q 1172 3119 1398 2916 
Q 1625 2713 2034 2713 
Q 2441 2713 2670 2916 
Q 2900 3119 2900 3481 
Q 2900 3844 2670 4047 
Q 2441 4250 2034 4250 
Q 1625 4250 1398 4047 
Q 1172 3844 1172 3481 
z
" transform="scale(0.015625)"/>
       </defs>
       <use xlink:href="#DejaVuSans-38"/>
       <use xlink:href="#DejaVuSans-30" x="63.623047"/>
       <use xlink:href="#DejaVuSans-30" x="127.246094"/>
      </g>
     </g>
    </g>
    <g id="xtick_6">
     <g id="line2d_6">
      <g>
       <use xlink:href="#m2da2f6abe5" x="284.510928" y="320.4" style="stroke: #000000; stroke-width: 0.8"/>
      </g>
     </g>
     <g id="text_6">
      <!-- 1000 -->
      <g transform="translate(271.785928 331.498438)scale(0.1 -0.1)">
       <defs>
        <path id="DejaVuSans-31" d="M 794 531 
L 1825 531 
L 1825 4091 
L 703 3866 
L 703 4441 
L 1819 4666 
L 2450 4666 
L 2450 531 
L 3481 531 
L 3481 0 
L 794 0 
L 794 531 
z
" transform="scale(0.015625)"/>
       </defs>
       <use xlink:href="#DejaVuSans-31"/>
       <use xlink:href="#DejaVuSans-30" x="63.623047"/>
       <use xlink:href="#DejaVuSans-30" x="127.246094"/>
       <use xlink:href="#DejaVuSans-30" x="190.869141"/>
      </g>
     </g>
    </g>
    <g id="xtick_7">
     <g id="line2d_7">
      <g>
       <use xlink:href="#m2da2f6abe5" x="318.340386" y="320.4" style="stroke: #000000; stroke-width: 0.8"/>
      </g>
     </g>
     <g id="text_7">
      <!-- 1200 -->
      <g transform="translate(305.615386 331.498438)scale(0.1 -0.1)">
       <use xlink:href="#DejaVuSans-31"/>
       <use xlink:href="#DejaVuSans-32" x="63.623047"/>
       <use xlink:href="#DejaVuSans-30" x="127.246094"/>
       <use xlink:href="#DejaVuSans-30" x="190.869141"/>
      </g>
     </g>
    </g>
    <g id="xtick_8">
     <g id="line2d_8">
      <g>
       <use xlink:href="#m2da2f6abe5" x="352.169844" y="320.4" style="stroke: #000000; stroke-width: 0.8"/>
      </g>
     </g>
     <g id="text_8">
      <!-- 1400 -->
      <g transform="translate(339.444844 331.498438)scale(0.1 -0.1)">
       <use xlink:href="#DejaVuSans-31"/>
       <use xlink:href="#DejaVuSans-34" x="63.623047"/>
       <use xlink:href="#DejaVuSans-30" x="127.246094"/>
       <use xlink:href="#DejaVuSans-30" x="190.869141"/>
      </g>
     </g>
    </g>
    <g id="xtick_9">
     <g id="line2d_9">
      <g>
       <use xlink:href="#m2da2f6abe5" x="385.999303" y="320.4" style="stroke: #000000; stroke-width: 0.8"/>
      </g>
     </g>
     <g id="text_9">
      <!-- 1600 -->
      <g transform="translate(373.274303 331.498438)scale(0.1 -0.1)">
       <use xlink:href="#DejaVuSans-31"/>
       <use xlink:href="#DejaVuSans-36" x="63.623047"/>
       <use xlink:href="#DejaVuSans-30" x="127.246094"/>
       <use xlink:href="#DejaVuSans-30" x="190.869141"/>
      </g>
     </g>
    </g>
    <g id="xtick_10">
     <g id="line2d_10">
      <g>
       <use xlink:href="#m2da2f6abe5" x="419.828761" y="320.4" style="stroke: #000000; stroke-width: 0.8"/>
      </g>
     </g>
     <g id="text_10">
      <!-- 1800 -->
      <g transform="translate(407.103761 331.498438)scale(0.1 -0.1)">
       <use xlink:href="#DejaVuSans-31"/>
       <use xlink:href="#DejaVuSans-38" x="63.623047"/>
       <use xlink:href="#DejaVuSans-30" x="127.246094"/>
       <use xlink:href="#DejaVuSans-30" x="190.869141"/>
      </g>
     </g>
    </g>
    <g id="xtick_11">
     <g id="line2d_11">
      <g>
       <use xlink:href="#m2da2f6abe5" x="453.658219" y="320.4" style="stroke: #000000; stroke-width: 0.8"/>
      </g>
     </g>
     <g id="text_11">
      <!-- 2000 -->
      <g transform="translate(440.933219 331.498438)scale(0.1 -0.1)">
       <use xlink:href="#DejaVuSans-32"/>
       <use xlink:href="#DejaVuSans-30" x="63.623047"/>
       <use xlink:href="#DejaVuSans-30" x="127.246094"/>
       <use xlink:href="#DejaVuSans-30" x="190.869141"/>
      </g>
     </g>
    </g>
    <g id="xtick_12">
     <g id="line2d_12">
      <g>
       <use xlink:href="#m2da2f6abe5" x="487.487678" y="320.4" style="stroke: #000000; stroke-width: 0.8"/>
      </g>
     </g>
     <g id="text_12">
      <!-- 2200 -->
      <g transform="translate(474.762678 331.498438)scale(0.1 -0.1)">
       <use xlink:href="#DejaVuSans-32"/>
       <use xlink:href="#DejaVuSans-32" x="63.623047"/>
       <use xlink:href="#DejaVuSans-30" x="127.246094"/>
       <use xlink:href="#DejaVuSans-30" x="190.869141"/>
      </g>
     </g>
    </g>
    <g id="xtick_13">
     <g id="line2d_13">
      <g>
       <use xlink:href="#m2da2f6abe5" x="521.317136" y="320.4" style="stroke: #000000; stroke-width: 0.8"/>
      </g>
     </g>
     <g id="text_13">
      <!-- 2400 -->
      <g transform="translate(508.592136 331.498438)scale(0.1 -0.1)">
       <use xlink:href="#DejaVuSans-32"/>
       <use xlink:href="#DejaVuSans-34" x="63.623047"/>
       <use xlink:href="#DejaVuSans-30" x="127.246094"/>
       <use xlink:href="#DejaVuSans-30" x="190.869141"/>
      </g>
     </g>
    </g>
    <g id="xtick_14">
     <g id="line2d_14">
      <g>
       <use xlink:href="#m2da2f6abe5" x="555.146594" y="320.4" style="stroke: #000000; stroke-width: 0.8"/>
      </g>
     </g>
     <g id="text_14">
      <!-- 2600 -->
      <g transform="translate(542.421594 331.498438)scale(0.1 -0.1)">
       <use xlink:href="#DejaVuSans-32"/>
       <use xlink:href="#DejaVuSans-36" x="63.623047"/>
       <use xlink:href="#DejaVuSans-30" x="127.246094"/>
       <use xlink:href="#DejaVuSans-30" x="190.869141"/>
      </g>
     </g>
    </g>
    <g id="xtick_15">
     <g id="line2d_15">
      <g>
       <use xlink:href="#m2da2f6abe5" x="588.976053" y="320.4" style="stroke: #000000; stroke-width: 0.8"/>
      </g>
     </g>
     <g id="text_15">
      <!-- 2800 -->
      <g transform="translate(576.251053 331.498438)scale(0.1 -0.1)">
       <use xlink:href="#DejaVuSans-32"/>
       <use xlink:href="#DejaVuSans-38" x="63.623047"/>
       <use xlink:href="#DejaVuSans-30" x="127.246094"/>
       <use xlink:href="#DejaVuSans-30" x="190.869141"/>
      </g>
     </g>
    </g>
    <g id="xtick_16">
     <g id="line2d_16">
      <g>
       <use xlink:href="#m2da2f6abe5" x="622.805511" y="320.4" style="stroke: #000000; stroke-width: 0.8"/>
      </g>
     </g>
     <g id="text_16">
      <!-- 3000 -->
      <g transform="translate(610.080511 331.498438)scale(0.1 -0.1)">
       <defs>
        <path id="DejaVuSans-33" d="M 2597 2516 
Q 3050 2419 3304 2112 
Q 3559 1806 3559 1356 
Q 3559 666 3084 287 
Q 2609 -91 1734 -91 
Q 1441 -91 1130 -33 
Q 819 25 488 141 
L 488 750 
Q 750 597 1062 519 
Q 1375 441 1716 441 
Q 2309 441 2620 675 
Q 2931 909 2931 1356 
Q 2931 1769 2642 2001 
Q 2353 2234 1838 2234 
L 1294 2234 
L 1294 2753 
L 1863 2753 
Q 2328 2753 2575 2939 
Q 2822 3125 2822 3475 
Q 2822 3834 2567 4026 
Q 2313 4219 1838 4219 
Q 1578 4219 1281 4162 
Q 984 4106 628 3988 
L 628 4550 
Q 988 4650 1302 4700 
Q 1616 4750 1894 4750 
Q 2613 4750 3031 4423 
Q 3450 4097 3450 3541 
Q 3450 3153 3228 2886 
Q 3006 2619 2597 2516 
z
" transform="scale(0.015625)"/>
       </defs>
       <use xlink:href="#DejaVuSans-33"/>
       <use xlink:href="#DejaVuSans-30" x="63.623047"/>
       <use xlink:href="#DejaVuSans-30" x="127.246094"/>
       <use xlink:href="#DejaVuSans-30" x="190.869141"/>
      </g>
     </g>
    </g>
    <g id="xtick_17">
     <g id="line2d_17">
      <defs>
       <path id="me0d61dbbf8" d="M 0 0 
L 0 -5 
" style="stroke: #000000; stroke-width: 0.6"/>
      </defs>
      <g>
       <use xlink:href="#me0d61dbbf8" x="98.448907" y="320.4" style="stroke: #000000; stroke-width: 0.6"/>
      </g>
     </g>
    </g>
    <g id="xtick_18">
     <g id="line2d_18">
      <g>
       <use xlink:href="#me0d61dbbf8" x="106.906272" y="320.4" style="stroke: #000000; stroke-width: 0.6"/>
      </g>
     </g>
    </g>
    <g id="xtick_19">
     <g id="line2d_19">
      <g>
       <use xlink:href="#me0d61dbbf8" x="123.821001" y="320.4" style="stroke: #000000; stroke-width: 0.6"/>
      </g>
     </g>
    </g>
    <g id="xtick_20">
     <g id="line2d_20">
      <g>
       <use xlink:href="#me0d61dbbf8" x="132.278366" y="320.4" style="stroke: #000000; stroke-width: 0.6"/>
      </g>
     </g>
    </g>
    <g id="xtick_21">
     <g id="line2d_21">
      <g>
       <use xlink:href="#me0d61dbbf8" x="140.73573" y="320.4" style="stroke: #000000; stroke-width: 0.6"/>
      </g>
     </g>
    </g>
    <g id="xtick_22">
     <g id="line2d_22">
      <g>
       <use xlink:href="#me0d61dbbf8" x="157.650459" y="320.4" style="stroke: #000000; stroke-width: 0.6"/>
      </g>
     </g>
    </g>
    <g id="xtick_23">
     <g id="line2d_23">
      <g>
       <use xlink:href="#me0d61dbbf8" x="166.107824" y="320.4" style="stroke: #000000; stroke-width: 0.6"/>
      </g>
     </g>
    </g>
    <g id="xtick_24">
     <g id="line2d_24">
      <g>
       <use xlink:href="#me0d61dbbf8" x="174.565188" y="320.4" style="stroke: #000000; stroke-width: 0.6"/>
      </g>
     </g>
    </g>
    <g id="xtick_25">
     <g id="line2d_25">
      <g>
       <use xlink:href="#me0d61dbbf8" x="191.479918" y="320.4" style="stroke: #000000; stroke-width: 0.6"/>
      </g>
     </g>
    </g>
    <g id="xtick_26">
     <g id="line2d_26">
      <g>
       <use xlink:href="#me0d61dbbf8" x="199.937282" y="320.4" style="stroke: #000000; stroke-width: 0.6"/>
      </g>
     </g>
    </g>
    <g id="xtick_27">
     <g id="line2d_27">
      <g>
       <use xlink:href="#me0d61dbbf8" x="208.394647" y="320.4" style="stroke: #000000; stroke-width: 0.6"/>
      </g>
     </g>
    </g>
    <g id="xtick_28">
     <g id="line2d_28">
      <g>
       <use xlink:href="#me0d61dbbf8" x="225.309376" y="320.4" style="stroke: #000000; stroke-width: 0.6"/>
      </g>
     </g>
    </g>
    <g id="xtick_29">
     <g id="line2d_29">
      <g>
       <use xlink:href="#me0d61dbbf8" x="233.76674" y="320.4" style="stroke: #000000; stroke-width: 0.6"/>
      </g>
     </g>
    </g>
    <g id="xtick_30">
     <g id="line2d_30">
      <g>
       <use xlink:href="#me0d61dbbf8" x="242.224105" y="320.4" style="stroke: #000000; stroke-width: 0.6"/>
      </g>
     </g>
    </g>
    <g id="xtick_31">
     <g id="line2d_31">
      <g>
       <use xlink:href="#me0d61dbbf8" x="259.138834" y="320.4" style="stroke: #000000; stroke-width: 0.6"/>
      </g>
     </g>
    </g>
    <g id="xtick_32">
     <g id="line2d_32">
      <g>
       <use xlink:href="#me0d61dbbf8" x="267.596199" y="320.4" style="stroke: #000000; stroke-width: 0.6"/>
      </g>
     </g>
    </g>
    <g id="xtick_33">
     <g id="line2d_33">
      <g>
       <use xlink:href="#me0d61dbbf8" x="276.053563" y="320.4" style="stroke: #000000; stroke-width: 0.6"/>
      </g>
     </g>
    </g>
    <g id="xtick_34">
     <g id="line2d_34">
      <g>
       <use xlink:href="#me0d61dbbf8" x="292.968292" y="320.4" style="stroke: #000000; stroke-width: 0.6"/>
      </g>
     </g>
    </g>
    <g id="xtick_35">
     <g id="line2d_35">
      <g>
       <use xlink:href="#me0d61dbbf8" x="301.425657" y="320.4" style="stroke: #000000; stroke-width: 0.6"/>
      </g>
     </g>
    </g>
    <g id="xtick_36">
     <g id="line2d_36">
      <g>
       <use xlink:href="#me0d61dbbf8" x="309.883022" y="320.4" style="stroke: #000000; stroke-width: 0.6"/>
      </g>
     </g>
    </g>
    <g id="xtick_37">
     <g id="line2d_37">
      <g>
       <use xlink:href="#me0d61dbbf8" x="326.797751" y="320.4" style="stroke: #000000; stroke-width: 0.6"/>
      </g>
     </g>
    </g>
    <g id="xtick_38">
     <g id="line2d_38">
      <g>
       <use xlink:href="#me0d61dbbf8" x="335.255115" y="320.4" style="stroke: #000000; stroke-width: 0.6"/>
      </g>
     </g>
    </g>
    <g id="xtick_39">
     <g id="line2d_39">
      <g>
       <use xlink:href="#me0d61dbbf8" x="343.71248" y="320.4" style="stroke: #000000; stroke-width: 0.6"/>
      </g>
     </g>
    </g>
    <g id="xtick_40">
     <g id="line2d_40">
      <g>
       <use xlink:href="#me0d61dbbf8" x="360.627209" y="320.4" style="stroke: #000000; stroke-width: 0.6"/>
      </g>
     </g>
    </g>
    <g id="xtick_41">
     <g id="line2d_41">
      <g>
       <use xlink:href="#me0d61dbbf8" x="369.084574" y="320.4" style="stroke: #000000; stroke-width: 0.6"/>
      </g>
     </g>
    </g>
    <g id="xtick_42">
     <g id="line2d_42">
      <g>
       <use xlink:href="#me0d61dbbf8" x="377.541938" y="320.4" style="stroke: #000000; stroke-width: 0.6"/>
      </g>
     </g>
    </g>
    <g id="xtick_43">
     <g id="line2d_43">
      <g>
       <use xlink:href="#me0d61dbbf8" x="394.456667" y="320.4" style="stroke: #000000; stroke-width: 0.6"/>
      </g>
     </g>
    </g>
    <g id="xtick_44">
     <g id="line2d_44">
      <g>
       <use xlink:href="#me0d61dbbf8" x="402.914032" y="320.4" style="stroke: #000000; stroke-width: 0.6"/>
      </g>
     </g>
    </g>
    <g id="xtick_45">
     <g id="line2d_45">
      <g>
       <use xlink:href="#me0d61dbbf8" x="411.371397" y="320.4" style="stroke: #000000; stroke-width: 0.6"/>
      </g>
     </g>
    </g>
    <g id="xtick_46">
     <g id="line2d_46">
      <g>
       <use xlink:href="#me0d61dbbf8" x="428.286126" y="320.4" style="stroke: #000000; stroke-width: 0.6"/>
      </g>
     </g>
    </g>
    <g id="xtick_47">
     <g id="line2d_47">
      <g>
       <use xlink:href="#me0d61dbbf8" x="436.74349" y="320.4" style="stroke: #000000; stroke-width: 0.6"/>
      </g>
     </g>
    </g>
    <g id="xtick_48">
     <g id="line2d_48">
      <g>
       <use xlink:href="#me0d61dbbf8" x="445.200855" y="320.4" style="stroke: #000000; stroke-width: 0.6"/>
      </g>
     </g>
    </g>
    <g id="xtick_49">
     <g id="line2d_49">
      <g>
       <use xlink:href="#me0d61dbbf8" x="462.115584" y="320.4" style="stroke: #000000; stroke-width: 0.6"/>
      </g>
     </g>
    </g>
    <g id="xtick_50">
     <g id="line2d_50">
      <g>
       <use xlink:href="#me0d61dbbf8" x="470.572949" y="320.4" style="stroke: #000000; stroke-width: 0.6"/>
      </g>
     </g>
    </g>
    <g id="xtick_51">
     <g id="line2d_51">
      <g>
       <use xlink:href="#me0d61dbbf8" x="479.030313" y="320.4" style="stroke: #000000; stroke-width: 0.6"/>
      </g>
     </g>
    </g>
    <g id="xtick_52">
     <g id="line2d_52">
      <g>
       <use xlink:href="#me0d61dbbf8" x="495.945042" y="320.4" style="stroke: #000000; stroke-width: 0.6"/>
      </g>
     </g>
    </g>
    <g id="xtick_53">
     <g id="line2d_53">
      <g>
       <use xlink:href="#me0d61dbbf8" x="504.402407" y="320.4" style="stroke: #000000; stroke-width: 0.6"/>
      </g>
     </g>
    </g>
    <g id="xtick_54">
     <g id="line2d_54">
      <g>
       <use xlink:href="#me0d61dbbf8" x="512.859771" y="320.4" style="stroke: #000000; stroke-width: 0.6"/>
      </g>
     </g>
    </g>
    <g id="xtick_55">
     <g id="line2d_55">
      <g>
       <use xlink:href="#me0d61dbbf8" x="529.774501" y="320.4" style="stroke: #000000; stroke-width: 0.6"/>
      </g>
     </g>
    </g>
    <g id="xtick_56">
     <g id="line2d_56">
      <g>
       <use xlink:href="#me0d61dbbf8" x="538.231865" y="320.4" style="stroke: #000000; stroke-width: 0.6"/>
      </g>
     </g>
    </g>
    <g id="xtick_57">
     <g id="line2d_57">
      <g>
       <use xlink:href="#me0d61dbbf8" x="546.68923" y="320.4" style="stroke: #000000; stroke-width: 0.6"/>
      </g>
     </g>
    </g>
    <g id="xtick_58">
     <g id="line2d_58">
      <g>
       <use xlink:href="#me0d61dbbf8" x="563.603959" y="320.4" style="stroke: #000000; stroke-width: 0.6"/>
      </g>
     </g>
    </g>
    <g id="xtick_59">
     <g id="line2d_59">
      <g>
       <use xlink:href="#me0d61dbbf8" x="572.061323" y="320.4" style="stroke: #000000; stroke-width: 0.6"/>
      </g>
     </g>
    </g>
    <g id="xtick_60">
     <g id="line2d_60">
      <g>
       <use xlink:href="#me0d61dbbf8" x="580.518688" y="320.4" style="stroke: #000000; stroke-width: 0.6"/>
      </g>
     </g>
    </g>
    <g id="xtick_61">
     <g id="line2d_61">
      <g>
       <use xlink:href="#me0d61dbbf8" x="597.433417" y="320.4" style="stroke: #000000; stroke-width: 0.6"/>
      </g>
     </g>
    </g>
    <g id="xtick_62">
     <g id="line2d_62">
      <g>
       <use xlink:href="#me0d61dbbf8" x="605.890782" y="320.4" style="stroke: #000000; stroke-width: 0.6"/>
      </g>
     </g>
    </g>
    <g id="xtick_63">
     <g id="line2d_63">
      <g>
       <use xlink:href="#me0d61dbbf8" x="614.348146" y="320.4" style="stroke: #000000; stroke-width: 0.6"/>
      </g>
     </g>
    </g>
    <g id="xtick_64">
     <g id="line2d_64">
      <g>
       <use xlink:href="#me0d61dbbf8" x="631.262876" y="320.4" style="stroke: #000000; stroke-width: 0.6"/>
      </g>
     </g>
    </g>
    <g id="xtick_65">
     <g id="line2d_65">
      <g>
       <use xlink:href="#me0d61dbbf8" x="639.72024" y="320.4" style="stroke: #000000; stroke-width: 0.6"/>
      </g>
     </g>
    </g>
    <g id="text_17">
     <!-- Simulation Iterations -->
     <g transform="translate(316.964844 345.176562)scale(0.1 -0.1)">
      <defs>
       <path id="DejaVuSans-53" d="M 3425 4513 
L 3425 3897 
Q 3066 4069 2747 4153 
Q 2428 4238 2131 4238 
Q 1616 4238 1336 4038 
Q 1056 3838 1056 3469 
Q 1056 3159 1242 3001 
Q 1428 2844 1947 2747 
L 2328 2669 
Q 3034 2534 3370 2195 
Q 3706 1856 3706 1288 
Q 3706 609 3251 259 
Q 2797 -91 1919 -91 
Q 1588 -91 1214 -16 
Q 841 59 441 206 
L 441 856 
Q 825 641 1194 531 
Q 1563 422 1919 422 
Q 2459 422 2753 634 
Q 3047 847 3047 1241 
Q 3047 1584 2836 1778 
Q 2625 1972 2144 2069 
L 1759 2144 
Q 1053 2284 737 2584 
Q 422 2884 422 3419 
Q 422 4038 858 4394 
Q 1294 4750 2059 4750 
Q 2388 4750 2728 4690 
Q 3069 4631 3425 4513 
z
" transform="scale(0.015625)"/>
       <path id="DejaVuSans-69" d="M 603 3500 
L 1178 3500 
L 1178 0 
L 603 0 
L 603 3500 
z
M 603 4863 
L 1178 4863 
L 1178 4134 
L 603 4134 
L 603 4863 
z
" transform="scale(0.015625)"/>
       <path id="DejaVuSans-6d" d="M 3328 2828 
Q 3544 3216 3844 3400 
Q 4144 3584 4550 3584 
Q 5097 3584 5394 3201 
Q 5691 2819 5691 2113 
L 5691 0 
L 5113 0 
L 5113 2094 
Q 5113 2597 4934 2840 
Q 4756 3084 4391 3084 
Q 3944 3084 3684 2787 
Q 3425 2491 3425 1978 
L 3425 0 
L 2847 0 
L 2847 2094 
Q 2847 2600 2669 2842 
Q 2491 3084 2119 3084 
Q 1678 3084 1418 2786 
Q 1159 2488 1159 1978 
L 1159 0 
L 581 0 
L 581 3500 
L 1159 3500 
L 1159 2956 
Q 1356 3278 1631 3431 
Q 1906 3584 2284 3584 
Q 2666 3584 2933 3390 
Q 3200 3197 3328 2828 
z
" transform="scale(0.015625)"/>
       <path id="DejaVuSans-75" d="M 544 1381 
L 544 3500 
L 1119 3500 
L 1119 1403 
Q 1119 906 1312 657 
Q 1506 409 1894 409 
Q 2359 409 2629 706 
Q 2900 1003 2900 1516 
L 2900 3500 
L 3475 3500 
L 3475 0 
L 2900 0 
L 2900 538 
Q 2691 219 2414 64 
Q 2138 -91 1772 -91 
Q 1169 -91 856 284 
Q 544 659 544 1381 
z
M 1991 3584 
L 1991 3584 
z
" transform="scale(0.015625)"/>
       <path id="DejaVuSans-6c" d="M 603 4863 
L 1178 4863 
L 1178 0 
L 603 0 
L 603 4863 
z
" transform="scale(0.015625)"/>
       <path id="DejaVuSans-61" d="M 2194 1759 
Q 1497 1759 1228 1600 
Q 959 1441 959 1056 
Q 959 750 1161 570 
Q 1363 391 1709 391 
Q 2188 391 2477 730 
Q 2766 1069 2766 1631 
L 2766 1759 
L 2194 1759 
z
M 3341 1997 
L 3341 0 
L 2766 0 
L 2766 531 
Q 2569 213 2275 61 
Q 1981 -91 1556 -91 
Q 1019 -91 701 211 
Q 384 513 384 1019 
Q 384 1609 779 1909 
Q 1175 2209 1959 2209 
L 2766 2209 
L 2766 2266 
Q 2766 2663 2505 2880 
Q 2244 3097 1772 3097 
Q 1472 3097 1187 3025 
Q 903 2953 641 2809 
L 641 3341 
Q 956 3463 1253 3523 
Q 1550 3584 1831 3584 
Q 2591 3584 2966 3190 
Q 3341 2797 3341 1997 
z
" transform="scale(0.015625)"/>
       <path id="DejaVuSans-74" d="M 1172 4494 
L 1172 3500 
L 2356 3500 
L 2356 3053 
L 1172 3053 
L 1172 1153 
Q 1172 725 1289 603 
Q 1406 481 1766 481 
L 2356 481 
L 2356 0 
L 1766 0 
Q 1100 0 847 248 
Q 594 497 594 1153 
L 594 3053 
L 172 3053 
L 172 3500 
L 594 3500 
L 594 4494 
L 1172 4494 
z
" transform="scale(0.015625)"/>
       <path id="DejaVuSans-6f" d="M 1959 3097 
Q 1497 3097 1228 2736 
Q 959 2375 959 1747 
Q 959 1119 1226 758 
Q 1494 397 1959 397 
Q 2419 397 2687 759 
Q 2956 1122 2956 1747 
Q 2956 2369 2687 2733 
Q 2419 3097 1959 3097 
z
M 1959 3584 
Q 2709 3584 3137 3096 
Q 3566 2609 3566 1747 
Q 3566 888 3137 398 
Q 2709 -91 1959 -91 
Q 1206 -91 779 398 
Q 353 888 353 1747 
Q 353 2609 779 3096 
Q 1206 3584 1959 3584 
z
" transform="scale(0.015625)"/>
       <path id="DejaVuSans-6e" d="M 3513 2113 
L 3513 0 
L 2938 0 
L 2938 2094 
Q 2938 2591 2744 2837 
Q 2550 3084 2163 3084 
Q 1697 3084 1428 2787 
Q 1159 2491 1159 1978 
L 1159 0 
L 581 0 
L 581 3500 
L 1159 3500 
L 1159 2956 
Q 1366 3272 1645 3428 
Q 1925 3584 2291 3584 
Q 2894 3584 3203 3211 
Q 3513 2838 3513 2113 
z
" transform="scale(0.015625)"/>
       <path id="DejaVuSans-20" transform="scale(0.015625)"/>
       <path id="DejaVuSans-49" d="M 628 4666 
L 1259 4666 
L 1259 0 
L 628 0 
L 628 4666 
z
" transform="scale(0.015625)"/>
       <path id="DejaVuSans-65" d="M 3597 1894 
L 3597 1613 
L 953 1613 
Q 991 1019 1311 708 
Q 1631 397 2203 397 
Q 2534 397 2845 478 
Q 3156 559 3463 722 
L 3463 178 
Q 3153 47 2828 -22 
Q 2503 -91 2169 -91 
Q 1331 -91 842 396 
Q 353 884 353 1716 
Q 353 2575 817 3079 
Q 1281 3584 2069 3584 
Q 2775 3584 3186 3129 
Q 3597 2675 3597 1894 
z
M 3022 2063 
Q 3016 2534 2758 2815 
Q 2500 3097 2075 3097 
Q 1594 3097 1305 2825 
Q 1016 2553 972 2059 
L 3022 2063 
z
" transform="scale(0.015625)"/>
       <path id="DejaVuSans-72" d="M 2631 2963 
Q 2534 3019 2420 3045 
Q 2306 3072 2169 3072 
Q 1681 3072 1420 2755 
Q 1159 2438 1159 1844 
L 1159 0 
L 581 0 
L 581 3500 
L 1159 3500 
L 1159 2956 
Q 1341 3275 1631 3429 
Q 1922 3584 2338 3584 
Q 2397 3584 2469 3576 
Q 2541 3569 2628 3553 
L 2631 2963 
z
" transform="scale(0.015625)"/>
       <path id="DejaVuSans-73" d="M 2834 3397 
L 2834 2853 
Q 2591 2978 2328 3040 
Q 2066 3103 1784 3103 
Q 1356 3103 1142 2972 
Q 928 2841 928 2578 
Q 928 2378 1081 2264 
Q 1234 2150 1697 2047 
L 1894 2003 
Q 2506 1872 2764 1633 
Q 3022 1394 3022 966 
Q 3022 478 2636 193 
Q 2250 -91 1575 -91 
Q 1294 -91 989 -36 
Q 684 19 347 128 
L 347 722 
Q 666 556 975 473 
Q 1284 391 1588 391 
Q 1994 391 2212 530 
Q 2431 669 2431 922 
Q 2431 1156 2273 1281 
Q 2116 1406 1581 1522 
L 1381 1569 
Q 847 1681 609 1914 
Q 372 2147 372 2553 
Q 372 3047 722 3315 
Q 1072 3584 1716 3584 
Q 2034 3584 2315 3537 
Q 2597 3491 2834 3397 
z
" transform="scale(0.015625)"/>
      </defs>
      <use xlink:href="#DejaVuSans-53"/>
      <use xlink:href="#DejaVuSans-69" x="63.476562"/>
      <use xlink:href="#DejaVuSans-6d" x="91.259766"/>
      <use xlink:href="#DejaVuSans-75" x="188.671875"/>
      <use xlink:href="#DejaVuSans-6c" x="252.050781"/>
      <use xlink:href="#DejaVuSans-61" x="279.833984"/>
      <use xlink:href="#DejaVuSans-74" x="341.113281"/>
      <use xlink:href="#DejaVuSans-69" x="380.322266"/>
      <use xlink:href="#DejaVuSans-6f" x="408.105469"/>
      <use xlink:href="#DejaVuSans-6e" x="469.287109"/>
      <use xlink:href="#DejaVuSans-20" x="532.666016"/>
      <use xlink:href="#DejaVuSans-49" x="564.453125"/>
      <use xlink:href="#DejaVuSans-74" x="593.945312"/>
      <use xlink:href="#DejaVuSans-65" x="633.154297"/>
      <use xlink:href="#DejaVuSans-72" x="694.677734"/>
      <use xlink:href="#DejaVuSans-61" x="735.791016"/>
      <use xlink:href="#DejaVuSans-74" x="797.070312"/>
      <use xlink:href="#DejaVuSans-69" x="836.279297"/>
      <use xlink:href="#DejaVuSans-6f" x="864.0625"/>
      <use xlink:href="#DejaVuSans-6e" x="925.244141"/>
      <use xlink:href="#DejaVuSans-73" x="988.623047"/>
     </g>
    </g>
   </g>
   <g id="matplotlib.axis_2">
    <g id="ytick_1">
     <g id="line2d_66">
      <defs>
       <path id="mfb11e313ba" d="M 0 0 
L 10 0 
" style="stroke: #000000; stroke-width: 0.8"/>
      </defs>
      <g>
       <use xlink:href="#mfb11e313ba" x="90" y="307.8" style="stroke: #000000; stroke-width: 0.8"/>
      </g>
     </g>
     <g id="text_18">
      <!-- 0% -->
      <g transform="translate(70.635937 311.599219)scale(0.1 -0.1)">
       <defs>
        <path id="DejaVuSans-25" d="M 4653 2053 
Q 4381 2053 4226 1822 
Q 4072 1591 4072 1178 
Q 4072 772 4226 539 
Q 4381 306 4653 306 
Q 4919 306 5073 539 
Q 5228 772 5228 1178 
Q 5228 1588 5073 1820 
Q 4919 2053 4653 2053 
z
M 4653 2450 
Q 5147 2450 5437 2106 
Q 5728 1763 5728 1178 
Q 5728 594 5436 251 
Q 5144 -91 4653 -91 
Q 4153 -91 3862 251 
Q 3572 594 3572 1178 
Q 3572 1766 3864 2108 
Q 4156 2450 4653 2450 
z
M 1428 4353 
Q 1159 4353 1004 4120 
Q 850 3888 850 3481 
Q 850 3069 1003 2837 
Q 1156 2606 1428 2606 
Q 1700 2606 1854 2837 
Q 2009 3069 2009 3481 
Q 2009 3884 1853 4118 
Q 1697 4353 1428 4353 
z
M 4250 4750 
L 4750 4750 
L 1831 -91 
L 1331 -91 
L 4250 4750 
z
M 1428 4750 
Q 1922 4750 2215 4408 
Q 2509 4066 2509 3481 
Q 2509 2891 2217 2550 
Q 1925 2209 1428 2209 
Q 931 2209 642 2551 
Q 353 2894 353 3481 
Q 353 4063 643 4406 
Q 934 4750 1428 4750 
z
" transform="scale(0.015625)"/>
       </defs>
       <use xlink:href="#DejaVuSans-30"/>
       <use xlink:href="#DejaVuSans-25" x="63.623047"/>
      </g>
     </g>
    </g>
    <g id="ytick_2">
     <g id="line2d_67">
      <g>
       <use xlink:href="#mfb11e313ba" x="90" y="256.595753" style="stroke: #000000; stroke-width: 0.8"/>
      </g>
     </g>
     <g id="text_19">
      <!-- 20% -->
      <g transform="translate(64.273438 260.394972)scale(0.1 -0.1)">
       <use xlink:href="#DejaVuSans-32"/>
       <use xlink:href="#DejaVuSans-30" x="63.623047"/>
       <use xlink:href="#DejaVuSans-25" x="127.246094"/>
      </g>
     </g>
    </g>
    <g id="ytick_3">
     <g id="line2d_68">
      <g>
       <use xlink:href="#mfb11e313ba" x="90" y="205.391506" style="stroke: #000000; stroke-width: 0.8"/>
      </g>
     </g>
     <g id="text_20">
      <!-- 40% -->
      <g transform="translate(64.273438 209.190724)scale(0.1 -0.1)">
       <use xlink:href="#DejaVuSans-34"/>
       <use xlink:href="#DejaVuSans-30" x="63.623047"/>
       <use xlink:href="#DejaVuSans-25" x="127.246094"/>
      </g>
     </g>
    </g>
    <g id="ytick_4">
     <g id="line2d_69">
      <g>
       <use xlink:href="#mfb11e313ba" x="90" y="154.187258" style="stroke: #000000; stroke-width: 0.8"/>
      </g>
     </g>
     <g id="text_21">
      <!-- 60% -->
      <g transform="translate(64.273438 157.986477)scale(0.1 -0.1)">
       <use xlink:href="#DejaVuSans-36"/>
       <use xlink:href="#DejaVuSans-30" x="63.623047"/>
       <use xlink:href="#DejaVuSans-25" x="127.246094"/>
      </g>
     </g>
    </g>
    <g id="ytick_5">
     <g id="line2d_70">
      <g>
       <use xlink:href="#mfb11e313ba" x="90" y="102.983011" style="stroke: #000000; stroke-width: 0.8"/>
      </g>
     </g>
     <g id="text_22">
      <!-- 80% -->
      <g transform="translate(64.273438 106.78223)scale(0.1 -0.1)">
       <use xlink:href="#DejaVuSans-38"/>
       <use xlink:href="#DejaVuSans-30" x="63.623047"/>
       <use xlink:href="#DejaVuSans-25" x="127.246094"/>
      </g>
     </g>
    </g>
    <g id="ytick_6">
     <g id="line2d_71">
      <g>
       <use xlink:href="#mfb11e313ba" x="90" y="51.778764" style="stroke: #000000; stroke-width: 0.8"/>
      </g>
     </g>
     <g id="text_23">
      <!-- 100% -->
      <g transform="translate(57.910938 55.577983)scale(0.1 -0.1)">
       <use xlink:href="#DejaVuSans-31"/>
       <use xlink:href="#DejaVuSans-30" x="63.623047"/>
       <use xlink:href="#DejaVuSans-30" x="127.246094"/>
       <use xlink:href="#DejaVuSans-25" x="190.869141"/>
      </g>
     </g>
    </g>
    <g id="ytick_7">
     <g id="line2d_72">
      <defs>
       <path id="m04ff4d011e" d="M 0 0 
L 5 0 
" style="stroke: #000000; stroke-width: 0.6"/>
      </defs>
      <g>
       <use xlink:href="#m04ff4d011e" x="90" y="294.998938" style="stroke: #000000; stroke-width: 0.6"/>
      </g>
     </g>
    </g>
    <g id="ytick_8">
     <g id="line2d_73">
      <g>
       <use xlink:href="#m04ff4d011e" x="90" y="282.197876" style="stroke: #000000; stroke-width: 0.6"/>
      </g>
     </g>
    </g>
    <g id="ytick_9">
     <g id="line2d_74">
      <g>
       <use xlink:href="#m04ff4d011e" x="90" y="269.396815" style="stroke: #000000; stroke-width: 0.6"/>
      </g>
     </g>
    </g>
    <g id="ytick_10">
     <g id="line2d_75">
      <g>
       <use xlink:href="#m04ff4d011e" x="90" y="243.794691" style="stroke: #000000; stroke-width: 0.6"/>
      </g>
     </g>
    </g>
    <g id="ytick_11">
     <g id="line2d_76">
      <g>
       <use xlink:href="#m04ff4d011e" x="90" y="230.993629" style="stroke: #000000; stroke-width: 0.6"/>
      </g>
     </g>
    </g>
    <g id="ytick_12">
     <g id="line2d_77">
      <g>
       <use xlink:href="#m04ff4d011e" x="90" y="218.192567" style="stroke: #000000; stroke-width: 0.6"/>
      </g>
     </g>
    </g>
    <g id="ytick_13">
     <g id="line2d_78">
      <g>
       <use xlink:href="#m04ff4d011e" x="90" y="192.590444" style="stroke: #000000; stroke-width: 0.6"/>
      </g>
     </g>
    </g>
    <g id="ytick_14">
     <g id="line2d_79">
      <g>
       <use xlink:href="#m04ff4d011e" x="90" y="179.789382" style="stroke: #000000; stroke-width: 0.6"/>
      </g>
     </g>
    </g>
    <g id="ytick_15">
     <g id="line2d_80">
      <g>
       <use xlink:href="#m04ff4d011e" x="90" y="166.98832" style="stroke: #000000; stroke-width: 0.6"/>
      </g>
     </g>
    </g>
    <g id="ytick_16">
     <g id="line2d_81">
      <g>
       <use xlink:href="#m04ff4d011e" x="90" y="141.386197" style="stroke: #000000; stroke-width: 0.6"/>
      </g>
     </g>
    </g>
    <g id="ytick_17">
     <g id="line2d_82">
      <g>
       <use xlink:href="#m04ff4d011e" x="90" y="128.585135" style="stroke: #000000; stroke-width: 0.6"/>
      </g>
     </g>
    </g>
    <g id="ytick_18">
     <g id="line2d_83">
      <g>
       <use xlink:href="#m04ff4d011e" x="90" y="115.784073" style="stroke: #000000; stroke-width: 0.6"/>
      </g>
     </g>
    </g>
    <g id="ytick_19">
     <g id="line2d_84">
      <g>
       <use xlink:href="#m04ff4d011e" x="90" y="90.18195" style="stroke: #000000; stroke-width: 0.6"/>
      </g>
     </g>
    </g>
    <g id="ytick_20">
     <g id="line2d_85">
      <g>
       <use xlink:href="#m04ff4d011e" x="90" y="77.380888" style="stroke: #000000; stroke-width: 0.6"/>
      </g>
     </g>
    </g>
    <g id="ytick_21">
     <g id="line2d_86">
      <g>
       <use xlink:href="#m04ff4d011e" x="90" y="64.579826" style="stroke: #000000; stroke-width: 0.6"/>
      </g>
     </g>
    </g>
    <g id="text_24">
     <!-- Total Accuracy [%] -->
     <g transform="translate(51.83125 228.135156)rotate(-90)scale(0.1 -0.1)">
      <defs>
       <path id="DejaVuSans-54" d="M -19 4666 
L 3928 4666 
L 3928 4134 
L 2272 4134 
L 2272 0 
L 1638 0 
L 1638 4134 
L -19 4134 
L -19 4666 
z
" transform="scale(0.015625)"/>
       <path id="DejaVuSans-41" d="M 2188 4044 
L 1331 1722 
L 3047 1722 
L 2188 4044 
z
M 1831 4666 
L 2547 4666 
L 4325 0 
L 3669 0 
L 3244 1197 
L 1141 1197 
L 716 0 
L 50 0 
L 1831 4666 
z
" transform="scale(0.015625)"/>
       <path id="DejaVuSans-63" d="M 3122 3366 
L 3122 2828 
Q 2878 2963 2633 3030 
Q 2388 3097 2138 3097 
Q 1578 3097 1268 2742 
Q 959 2388 959 1747 
Q 959 1106 1268 751 
Q 1578 397 2138 397 
Q 2388 397 2633 464 
Q 2878 531 3122 666 
L 3122 134 
Q 2881 22 2623 -34 
Q 2366 -91 2075 -91 
Q 1284 -91 818 406 
Q 353 903 353 1747 
Q 353 2603 823 3093 
Q 1294 3584 2113 3584 
Q 2378 3584 2631 3529 
Q 2884 3475 3122 3366 
z
" transform="scale(0.015625)"/>
       <path id="DejaVuSans-79" d="M 2059 -325 
Q 1816 -950 1584 -1140 
Q 1353 -1331 966 -1331 
L 506 -1331 
L 506 -850 
L 844 -850 
Q 1081 -850 1212 -737 
Q 1344 -625 1503 -206 
L 1606 56 
L 191 3500 
L 800 3500 
L 1894 763 
L 2988 3500 
L 3597 3500 
L 2059 -325 
z
" transform="scale(0.015625)"/>
       <path id="DejaVuSans-5b" d="M 550 4863 
L 1875 4863 
L 1875 4416 
L 1125 4416 
L 1125 -397 
L 1875 -397 
L 1875 -844 
L 550 -844 
L 550 4863 
z
" transform="scale(0.015625)"/>
       <path id="DejaVuSans-5d" d="M 1947 4863 
L 1947 -844 
L 622 -844 
L 622 -397 
L 1369 -397 
L 1369 4416 
L 622 4416 
L 622 4863 
L 1947 4863 
z
" transform="scale(0.015625)"/>
      </defs>
      <use xlink:href="#DejaVuSans-54"/>
      <use xlink:href="#DejaVuSans-6f" x="44.083984"/>
      <use xlink:href="#DejaVuSans-74" x="105.265625"/>
      <use xlink:href="#DejaVuSans-61" x="144.474609"/>
      <use xlink:href="#DejaVuSans-6c" x="205.753906"/>
      <use xlink:href="#DejaVuSans-20" x="233.537109"/>
      <use xlink:href="#DejaVuSans-41" x="265.324219"/>
      <use xlink:href="#DejaVuSans-63" x="331.982422"/>
      <use xlink:href="#DejaVuSans-63" x="386.962891"/>
      <use xlink:href="#DejaVuSans-75" x="441.943359"/>
      <use xlink:href="#DejaVuSans-72" x="505.322266"/>
      <use xlink:href="#DejaVuSans-61" x="546.435547"/>
      <use xlink:href="#DejaVuSans-63" x="607.714844"/>
      <use xlink:href="#DejaVuSans-79" x="662.695312"/>
      <use xlink:href="#DejaVuSans-20" x="721.875"/>
      <use xlink:href="#DejaVuSans-5b" x="753.662109"/>
      <use xlink:href="#DejaVuSans-25" x="792.675781"/>
      <use xlink:href="#DejaVuSans-5d" x="887.695312"/>
     </g>
    </g>
   </g>
   <g id="line2d_87">
    <path d="M 115.363636 307.8 
L 117.065894 299.084382 
L 118.768151 286.506722 
L 123.874924 259.81804 
L 125.577181 261.649252 
L 127.279439 248.629294 
L 128.981696 238.209367 
L 130.683954 248.422154 
L 132.386211 231.24442 
L 134.088469 242.465404 
L 135.790726 240.473862 
L 137.492984 235.774651 
L 139.195241 226.990544 
L 140.897498 231.225012 
L 142.599756 239.471995 
L 144.302013 243.827562 
L 146.004271 234.404715 
L 147.706528 234.515038 
L 149.408786 230.978815 
L 151.111043 226.727978 
L 152.813301 233.645557 
L 154.515558 226.68392 
L 156.217816 218.261272 
L 157.920073 221.243596 
L 159.622331 220.973954 
L 161.324588 209.576252 
L 163.026846 216.629374 
L 164.729103 234.972314 
L 166.431361 222.12198 
L 168.133618 222.382281 
L 169.835876 226.608432 
L 171.538133 234.994685 
L 174.942648 218.14187 
L 176.644905 213.085701 
L 178.347163 209.981921 
L 180.04942 228.439323 
L 181.751678 228.811596 
L 183.453935 213.778878 
L 185.156193 214.98936 
L 186.85845 214.054051 
L 188.560708 221.087628 
L 190.262965 231.528299 
L 191.965223 223.162476 
L 193.66748 213.822247 
L 195.369738 213.903266 
L 197.071995 218.41173 
L 198.774253 210.054536 
L 200.47651 214.287697 
L 202.178768 214.131017 
L 203.881025 206.448641 
L 205.583282 223.880828 
L 207.28554 226.719121 
L 208.987797 226.709072 
L 210.690055 227.73584 
L 212.392312 222.555887 
L 214.09457 235.417227 
L 215.796827 230.982223 
L 217.499085 227.234672 
L 219.201342 209.918711 
L 220.9036 196.684919 
L 222.605857 218.098102 
L 224.308115 209.320777 
L 226.010372 213.47083 
L 227.71263 210.512383 
L 229.414887 209.005181 
L 231.117145 224.190813 
L 232.819402 212.054108 
L 234.52166 209.831285 
L 236.223917 206.147917 
L 237.926174 205.604536 
L 239.628432 199.662258 
L 241.330689 214.210409 
L 243.032947 209.31747 
L 244.735204 183.238436 
L 246.437462 196.455919 
L 248.139719 196.816466 
L 249.841977 196.896898 
L 251.544234 197.570289 
L 253.246492 189.412308 
L 254.948749 193.062825 
L 256.651007 183.593977 
L 258.353264 184.317571 
L 260.055522 172.30564 
L 261.757779 176.728432 
L 263.460037 175.59612 
L 265.162294 164.247537 
L 266.864552 170.387724 
L 268.566809 174.345411 
L 270.269067 187.894387 
L 271.971324 188.769882 
L 273.673581 184.02774 
L 275.375839 179.789261 
L 277.078096 175.155634 
L 278.780354 175.565123 
L 280.482611 170.768016 
L 282.184869 187.879609 
L 283.887126 181.328262 
L 285.589384 183.258853 
L 287.291641 183.666301 
L 288.993899 173.143232 
L 292.398414 197.232867 
L 294.100671 205.117485 
L 295.802929 204.713485 
L 297.505186 193.236237 
L 299.207444 201.252584 
L 300.909701 218.154487 
L 302.611959 209.637117 
L 304.314216 192.424366 
L 306.016473 192.591264 
L 307.718731 197.303187 
L 309.420988 193.30599 
L 311.123246 192.418913 
L 312.825503 216.906822 
L 314.527761 212.96923 
L 316.230018 202.713087 
L 317.932276 211.91864 
L 319.634533 205.577056 
L 321.336791 204.421309 
L 323.039048 210.798753 
L 324.741306 200.362627 
L 326.443563 197.356326 
L 328.145821 184.083202 
L 329.848078 179.764054 
L 331.550336 183.62754 
L 333.252593 188.919536 
L 334.954851 181.160826 
L 336.657108 171.33242 
L 338.359365 173.73294 
L 340.061623 181.793327 
L 341.76388 190.731087 
L 343.466138 211.089434 
L 345.168395 206.123274 
L 346.870653 196.642515 
L 348.57291 191.38626 
L 350.275168 190.003922 
L 353.679683 204.887562 
L 355.38194 184.034165 
L 357.084198 200.562087 
L 358.786455 183.331587 
L 360.488713 183.954161 
L 362.19097 186.332927 
L 363.893228 174.229219 
L 365.595485 181.47783 
L 367.297743 182.942276 
L 369 193.585005 
L 370.702257 202.98015 
L 372.404515 204.750016 
L 374.106772 209.830278 
L 375.80903 223.713386 
L 377.511287 203.961142 
L 379.213545 213.271814 
L 382.61806 188.387015 
L 384.320317 179.160405 
L 386.022575 167.09218 
L 387.724832 165.849553 
L 389.42709 176.16034 
L 391.129347 162.75149 
L 392.831605 173.421923 
L 394.533862 162.881142 
L 396.23612 156.979118 
L 397.938377 165.898277 
L 399.640635 171.386253 
L 403.045149 159.255202 
L 404.747407 145.156043 
L 406.449664 158.950812 
L 408.151922 162.688476 
L 409.854179 179.690034 
L 411.556437 184.064795 
L 413.258694 179.067575 
L 414.960952 183.70799 
L 416.663209 186.306024 
L 418.365467 207.837289 
L 420.067724 194.85357 
L 421.769982 195.049653 
L 423.472239 194.809825 
L 425.174497 183.859812 
L 426.876754 171.890259 
L 428.579012 173.111477 
L 430.281269 178.946439 
L 431.983527 187.831481 
L 433.685784 192.687353 
L 437.090299 175.6015 
L 438.792556 187.504651 
L 440.494814 172.260893 
L 442.197071 172.610848 
L 443.899329 179.153223 
L 445.601586 186.989995 
L 447.303844 174.606048 
L 449.006101 176.457478 
L 450.708359 177.039003 
L 452.410616 172.148493 
L 454.112874 189.169501 
L 455.815131 178.689813 
L 457.517389 190.331923 
L 459.219646 175.657571 
L 460.921904 162.742069 
L 462.624161 179.781467 
L 464.326419 179.962505 
L 466.028676 183.280455 
L 467.730933 184.74719 
L 469.433191 182.853451 
L 472.837706 176.813799 
L 474.539963 166.700127 
L 476.242221 165.389798 
L 477.944478 174.312273 
L 479.646736 163.829266 
L 481.348993 150.445854 
L 483.051251 166.394766 
L 484.753508 147.886781 
L 486.455766 174.096499 
L 488.158023 170.866815 
L 489.860281 167.08563 
L 491.562538 176.201361 
L 493.264796 174.292244 
L 494.967053 178.117114 
L 496.669311 175.783364 
L 498.371568 176.250956 
L 500.073826 169.625711 
L 501.776083 179.341768 
L 503.47834 168.451081 
L 505.180598 160.408413 
L 506.882855 174.796571 
L 508.585113 181.236588 
L 510.28737 171.009471 
L 511.989628 167.080598 
L 513.691885 166.861965 
L 515.394143 149.91897 
L 518.798658 175.859009 
L 520.500915 168.204249 
L 522.203173 175.67603 
L 523.90543 179.362818 
L 525.607688 180.421278 
L 527.309945 179.79543 
L 529.012203 167.310896 
L 530.71446 163.433461 
L 532.416718 169.981836 
L 534.118975 171.035037 
L 535.821232 179.44827 
L 537.52349 170.832974 
L 539.225747 157.075457 
L 540.928005 162.889138 
L 542.630262 162.718429 
L 544.33252 154.344667 
L 546.034777 170.699028 
L 547.737035 170.892508 
L 549.439292 154.577291 
L 551.14155 173.792558 
L 552.843807 170.299656 
L 554.546065 181.107904 
L 556.248322 180.373864 
L 557.95058 181.27935 
L 559.652837 165.993308 
L 561.355095 175.893994 
L 563.057352 178.774028 
L 564.75961 184.400378 
L 566.461867 179.047744 
L 568.164124 162.817627 
L 569.866382 154.222607 
L 571.568639 162.255717 
L 573.270897 179.583713 
L 574.973154 181.767479 
L 576.675412 182.093919 
L 578.377669 170.993138 
L 580.079927 184.209245 
L 581.782184 183.748447 
L 583.484442 183.051569 
L 585.186699 176.295596 
L 586.888957 162.287862 
L 588.591214 183.693714 
L 590.293472 187.75524 
L 591.995729 167.63391 
L 593.697987 175.669452 
L 595.400244 175.513723 
L 597.102502 179.92394 
L 598.804759 166.440556 
L 600.507016 175.779384 
L 602.209274 176.984455 
L 603.911531 167.924137 
L 605.613789 181.721859 
L 607.316046 180.003574 
L 609.018304 191.393001 
L 610.720561 175.210696 
L 612.422819 189.343872 
L 614.125076 185.640557 
L 615.827334 183.580651 
L 617.529591 167.531512 
L 619.231849 163.097581 
L 620.934106 179.523261 
L 622.636364 179.789382 
L 622.636364 179.789382 
" clip-path="url(#pd0e9ef3879)" style="fill: none; stroke: #611f53; stroke-linecap: square"/>
   </g>
   <g id="line2d_88">
    <path d="M 90 192.64594 
L 648 192.64594 
" clip-path="url(#pd0e9ef3879)" style="fill: none; stroke-dasharray: 3.7,1.6; stroke-dashoffset: 0; stroke: #611f53"/>
    <defs>
     <path id="m1b0021f9d4" d="M -3 3 
L 3 3 
L 3 -3 
L -3 -3 
z
" style="stroke: #611f53; stroke-linejoin: miter"/>
    </defs>
    <g clip-path="url(#pd0e9ef3879)">
     <use xlink:href="#m1b0021f9d4" x="90" y="192.64594" style="fill: #611f53; stroke: #611f53; stroke-linejoin: miter"/>
     <use xlink:href="#m1b0021f9d4" x="648" y="192.64594" style="fill: #611f53; stroke: #611f53; stroke-linejoin: miter"/>
    </g>
   </g>
   <g id="line2d_89">
    <path d="M 115.363636 307.8 
L 117.065894 269.51565 
L 118.768151 269.562605 
L 120.470409 248.201892 
L 122.172666 237.873506 
L 123.874924 233.247798 
L 125.577181 230.159559 
L 128.981696 211.937414 
L 130.683954 217.903886 
L 132.386211 205.943773 
L 134.088469 179.137627 
L 135.790726 176.494544 
L 137.492984 158.709094 
L 140.897498 184.298239 
L 142.599756 179.769378 
L 144.302013 196.506201 
L 146.004271 179.715313 
L 147.706528 175.075873 
L 149.408786 178.201731 
L 151.111043 188.760743 
L 152.813301 192.845272 
L 154.515558 182.253619 
L 156.217816 180.205426 
L 157.920073 166.038854 
L 159.622331 161.520052 
L 161.324588 177.651975 
L 163.026846 188.13708 
L 164.729103 195.997948 
L 166.431361 188.629269 
L 169.835876 162.56429 
L 171.538133 172.448809 
L 173.24039 162.634341 
L 174.942648 173.463801 
L 176.644905 158.373756 
L 178.347163 145.887699 
L 180.04942 187.785654 
L 181.751678 172.523217 
L 183.453935 187.066746 
L 185.156193 176.68599 
L 186.85845 163.800029 
L 188.560708 146.397519 
L 190.262965 151.394257 
L 191.965223 155.619127 
L 193.66748 145.230075 
L 195.369738 154.190616 
L 197.071995 137.499039 
L 198.774253 144.909985 
L 200.47651 159.21592 
L 202.178768 172.274279 
L 203.881025 178.916809 
L 205.583282 200.05874 
L 207.28554 161.947644 
L 208.987797 170.039827 
L 210.690055 183.649429 
L 212.392312 154.251859 
L 214.09457 160.755847 
L 215.796827 174.206906 
L 217.499085 178.688066 
L 219.201342 179.347832 
L 220.9036 179.80575 
L 222.605857 175.443732 
L 224.308115 196.316242 
L 226.010372 200.889454 
L 227.71263 193.092376 
L 229.414887 177.435083 
L 231.117145 199.64131 
L 232.819402 219.857544 
L 234.52166 201.847015 
L 236.223917 168.376226 
L 237.926174 176.987722 
L 239.628432 187.762803 
L 241.330689 181.737098 
L 243.032947 183.43559 
L 244.735204 188.660237 
L 248.139719 188.314152 
L 249.841977 171.497411 
L 251.544234 192.996669 
L 253.246492 183.622308 
L 254.948749 179.594677 
L 256.651007 172.479245 
L 258.353264 173.28062 
L 260.055522 184.71509 
L 261.757779 170.15161 
L 263.460037 177.287672 
L 265.162294 168.366772 
L 266.864552 178.901345 
L 268.566809 187.109131 
L 270.269067 187.608958 
L 271.971324 174.846918 
L 273.673581 193.058437 
L 275.375839 201.101498 
L 277.078096 201.799548 
L 278.780354 201.22962 
L 280.482611 205.049607 
L 282.184869 196.552851 
L 283.887126 197.210416 
L 285.589384 174.083452 
L 287.291641 196.25051 
L 288.993899 190.825293 
L 290.696156 180.201684 
L 292.398414 163.420847 
L 295.802929 159.167354 
L 297.505186 179.326832 
L 299.207444 187.847613 
L 300.909701 170.853847 
L 302.611959 171.145134 
L 304.314216 158.114941 
L 306.016473 162.44454 
L 307.718731 158.544059 
L 309.420988 159.161826 
L 311.123246 171.568514 
L 312.825503 170.10542 
L 314.527761 154.866569 
L 316.230018 187.797639 
L 317.932276 203.06602 
L 319.634533 204.627556 
L 321.336791 190.526483 
L 323.039048 195.318176 
L 324.741306 192.311319 
L 326.443563 192.750378 
L 328.145821 171.019717 
L 329.848078 179.95785 
L 331.550336 174.900066 
L 333.252593 171.119214 
L 334.954851 182.764153 
L 336.657108 171.899617 
L 338.359365 184.452145 
L 340.061623 209.963295 
L 341.76388 170.669132 
L 343.466138 195.283888 
L 345.168395 180.524553 
L 346.870653 186.849373 
L 348.57291 180.538213 
L 350.275168 177.994213 
L 351.977425 179.822914 
L 353.679683 170.617826 
L 355.38194 171.251852 
L 357.084198 175.519753 
L 358.786455 162.320274 
L 360.488713 172.477931 
L 362.19097 172.890927 
L 363.893228 182.718306 
L 365.595485 205.120856 
L 367.297743 188.251263 
L 369 178.454229 
L 370.702257 193.031583 
L 372.404515 172.750509 
L 374.106772 171.506403 
L 375.80903 166.641865 
L 377.511287 166.355146 
L 379.213545 170.892447 
L 380.915802 162.618399 
L 382.61806 141.439048 
L 384.320317 150.377612 
L 386.022575 163.788748 
L 387.724832 169.449822 
L 389.42709 173.618374 
L 391.129347 166.643562 
L 392.831605 184.85413 
L 394.533862 183.983648 
L 396.23612 180.166921 
L 397.938377 180.480186 
L 399.640635 162.497772 
L 401.342892 173.295217 
L 403.045149 171.764267 
L 404.747407 193.953854 
L 406.449664 179.747984 
L 408.151922 166.623525 
L 409.854179 171.196759 
L 411.556437 180.461894 
L 413.258694 186.582431 
L 414.960952 167.522919 
L 416.663209 179.879505 
L 418.365467 140.647898 
L 420.067724 160.496265 
L 421.769982 160.247818 
L 423.472239 168.459438 
L 425.174497 159.958208 
L 426.876754 181.394822 
L 428.579012 173.779761 
L 430.281269 167.38176 
L 431.983527 184.438506 
L 433.685784 162.999455 
L 435.388041 183.985253 
L 437.090299 188.577199 
L 438.792556 174.613737 
L 440.494814 176.570204 
L 442.197071 184.395716 
L 443.899329 190.601499 
L 445.601586 189.756284 
L 447.303844 201.347868 
L 449.006101 195.781098 
L 450.708359 185.2069 
L 452.410616 183.452196 
L 454.112874 191.033667 
L 455.815131 189.498125 
L 457.517389 206.248786 
L 459.219646 196.735283 
L 460.921904 192.442322 
L 462.624161 179.765169 
L 464.326419 180.321902 
L 466.028676 172.411287 
L 467.730933 166.353188 
L 469.433191 172.854774 
L 471.135448 174.833542 
L 472.837706 152.061298 
L 474.539963 155.346887 
L 476.242221 130.159964 
L 477.944478 134.934434 
L 479.646736 132.643264 
L 481.348993 132.602503 
L 483.051251 142.845778 
L 484.753508 141.59507 
L 486.455766 140.874883 
L 488.158023 141.47915 
L 491.562538 158.614174 
L 493.264796 150.632001 
L 494.967053 159.764107 
L 496.669311 157.0591 
L 498.371568 171.64079 
L 500.073826 177.845201 
L 501.776083 190.141704 
L 503.47834 182.365121 
L 505.180598 179.29261 
L 506.882855 155.718686 
L 508.585113 176.270821 
L 510.28737 170.48227 
L 511.989628 175.217978 
L 513.691885 187.557757 
L 515.394143 175.535811 
L 517.0964 183.631513 
L 518.798658 188.53731 
L 520.500915 184.326439 
L 522.203173 178.389226 
L 523.90543 182.434984 
L 525.607688 207.354884 
L 529.012203 192.164864 
L 530.71446 203.816352 
L 532.416718 218.548201 
L 534.118975 201.657159 
L 535.821232 189.690043 
L 537.52349 187.44201 
L 539.225747 188.415903 
L 540.928005 175.656795 
L 542.630262 184.073357 
L 544.33252 189.030243 
L 546.034777 184.880689 
L 547.737035 181.530596 
L 549.439292 191.081531 
L 551.14155 176.640197 
L 552.843807 173.761713 
L 554.546065 205.105463 
L 556.248322 193.754788 
L 557.95058 201.196721 
L 559.652837 204.744309 
L 561.355095 187.666355 
L 563.057352 192.365265 
L 564.75961 172.907316 
L 566.461867 175.266037 
L 568.164124 183.994931 
L 569.866382 184.051723 
L 571.568639 193.110085 
L 573.270897 194.358134 
L 574.973154 196.55119 
L 576.675412 212.596985 
L 578.377669 201.670177 
L 580.079927 184.911795 
L 581.782184 209.590507 
L 583.484442 176.540402 
L 585.186699 178.359901 
L 586.888957 174.607997 
L 588.591214 168.262271 
L 590.293472 173.796645 
L 591.995729 150.656296 
L 593.697987 158.130582 
L 595.400244 145.551081 
L 597.102502 158.516658 
L 598.804759 162.917864 
L 600.507016 163.177536 
L 602.209274 153.328166 
L 603.911531 154.321843 
L 605.613789 164.142547 
L 607.316046 157.612775 
L 609.018304 157.970609 
L 610.720561 160.240525 
L 612.422819 169.716494 
L 614.125076 188.170993 
L 615.827334 185.621121 
L 617.529591 187.161332 
L 619.231849 184.946828 
L 620.934106 196.819063 
L 622.636364 184.056403 
L 622.636364 184.056403 
" clip-path="url(#pd0e9ef3879)" style="fill: none; stroke: #cb1b4f; stroke-linecap: square"/>
   </g>
   <g id="line2d_90">
    <path d="M 90 179.411736 
L 648 179.411736 
" clip-path="url(#pd0e9ef3879)" style="fill: none; stroke-dasharray: 3.7,1.6; stroke-dashoffset: 0; stroke: #cb1b4f"/>
    <defs>
     <path id="m3ccca0e73f" d="M 0 3 
C 0.795609 3 1.55874 2.683901 2.12132 2.12132 
C 2.683901 1.55874 3 0.795609 3 0 
C 3 -0.795609 2.683901 -1.55874 2.12132 -2.12132 
C 1.55874 -2.683901 0.795609 -3 0 -3 
C -0.795609 -3 -1.55874 -2.683901 -2.12132 -2.12132 
C -2.683901 -1.55874 -3 -0.795609 -3 0 
C -3 0.795609 -2.683901 1.55874 -2.12132 2.12132 
C -1.55874 2.683901 -0.795609 3 0 3 
z
" style="stroke: #cb1b4f"/>
    </defs>
    <g clip-path="url(#pd0e9ef3879)">
     <use xlink:href="#m3ccca0e73f" x="90" y="179.411736" style="fill: #cb1b4f; stroke: #cb1b4f"/>
     <use xlink:href="#m3ccca0e73f" x="648" y="179.411736" style="fill: #cb1b4f; stroke: #cb1b4f"/>
    </g>
   </g>
   <g id="line2d_91">
    <path d="M 115.363636 307.8 
L 122.172666 307.773027 
L 123.874924 281.254645 
L 125.577181 230.994177 
L 127.279439 231.005924 
L 128.981696 205.378404 
L 132.386211 205.406002 
L 134.088469 223.685965 
L 135.790726 209.865504 
L 137.492984 228.718376 
L 139.195241 205.239758 
L 140.897498 179.337229 
L 142.599756 179.8496 
L 144.302013 178.435187 
L 146.004271 179.006234 
L 147.706528 153.631581 
L 149.408786 179.805213 
L 151.111043 223.385377 
L 152.813301 233.704585 
L 154.515558 205.395477 
L 156.217816 188.590404 
L 157.920073 180.378137 
L 159.622331 205.541602 
L 161.324588 226.614844 
L 163.026846 108.961301 
L 164.729103 128.445804 
L 166.431361 128.585258 
L 168.133618 154.622764 
L 169.835876 128.023025 
L 171.538133 154.032022 
L 173.24039 153.696142 
L 174.942648 179.064019 
L 176.644905 177.448471 
L 178.347163 177.567205 
L 180.04942 205.39129 
L 181.751678 177.174362 
L 183.453935 205.313759 
L 185.156193 258.71312 
L 186.85845 256.595737 
L 188.560708 236.740982 
L 190.262965 227.22956 
L 191.965223 256.571566 
L 193.66748 179.076228 
L 195.369738 154.190139 
L 197.071995 102.155549 
L 198.774253 75.781327 
L 200.47651 153.187384 
L 202.178768 78.645255 
L 203.881025 102.890849 
L 205.583282 154.14646 
L 207.28554 168.846411 
L 208.987797 179.802557 
L 210.690055 180.505915 
L 212.392312 230.318108 
L 214.09457 234.322085 
L 215.796827 257.31417 
L 217.499085 257.316993 
L 219.201342 282.603115 
L 220.9036 282.009713 
L 222.605857 205.350634 
L 224.308115 152.316089 
L 226.010372 203.50689 
L 227.71263 151.843514 
L 229.414887 121.002727 
L 231.117145 124.688524 
L 232.819402 152.161541 
L 234.52166 154.144136 
L 236.223917 154.247905 
L 237.926174 122.969375 
L 239.628432 180.299296 
L 241.330689 179.789646 
L 243.032947 207.400447 
L 244.735204 179.786764 
L 246.437462 154.106176 
L 248.139719 205.513504 
L 249.841977 205.379285 
L 251.544234 230.993443 
L 253.246492 208.480705 
L 254.948749 204.278912 
L 256.651007 198.60057 
L 258.353264 175.324327 
L 260.055522 205.391637 
L 261.757779 178.721217 
L 263.460037 231.080039 
L 265.162294 205.389655 
L 266.864552 195.184432 
L 268.566809 252.186675 
L 270.269067 256.599262 
L 271.971324 202.9319 
L 273.673581 232.338652 
L 275.375839 179.928952 
L 277.078096 179.808794 
L 278.780354 153.572279 
L 280.482611 207.593833 
L 282.184869 181.809932 
L 283.887126 128.636787 
L 285.589384 129.287397 
L 287.291641 123.437054 
L 288.993899 157.152194 
L 290.696156 114.830464 
L 292.398414 119.652959 
L 294.100671 123.49788 
L 295.802929 157.466291 
L 297.505186 128.584612 
L 299.207444 154.871828 
L 300.909701 128.71753 
L 302.611959 128.590257 
L 304.314216 127.863331 
L 306.016473 155.238546 
L 307.718731 154.1647 
L 309.420988 128.855353 
L 311.123246 137.265969 
L 312.825503 103.965303 
L 314.527761 140.356542 
L 316.230018 128.648242 
L 317.932276 103.572859 
L 319.634533 103.462122 
L 321.336791 83.801832 
L 323.039048 154.727457 
L 324.741306 127.858327 
L 326.443563 154.773102 
L 328.145821 128.585149 
L 329.848078 128.582173 
L 331.550336 102.984666 
L 333.252593 132.851808 
L 334.954851 151.575127 
L 336.657108 128.313607 
L 338.359365 124.585033 
L 340.061623 110.559249 
L 341.76388 166.542181 
L 343.466138 179.081455 
L 345.168395 179.745898 
L 346.870653 201.957443 
L 348.57291 180.455292 
L 350.275168 258.80493 
L 351.977425 228.558593 
L 353.679683 206.026927 
L 355.38194 205.228574 
L 357.084198 205.134334 
L 358.786455 205.234101 
L 360.488713 207.456859 
L 362.19097 180.46564 
L 363.893228 179.779997 
L 365.595485 156.677562 
L 367.297743 155.176679 
L 369 205.572488 
L 370.702257 168.916906 
L 372.404515 163.721484 
L 374.106772 154.107899 
L 375.80903 187.279041 
L 377.511287 154.228237 
L 379.213545 104.60929 
L 382.61806 153.978622 
L 384.320317 154.47065 
L 386.022575 154.609349 
L 387.724832 205.800779 
L 389.42709 179.839245 
L 391.129347 207.623889 
L 392.831605 125.629038 
L 394.533862 103.70242 
L 396.23612 77.204424 
L 397.938377 117.785403 
L 399.640635 76.849803 
L 401.342892 130.037283 
L 403.045149 129.045569 
L 404.747407 128.871953 
L 406.449664 155.277817 
L 408.151922 76.972046 
L 409.854179 127.941726 
L 411.556437 101.506214 
L 413.258694 77.417305 
L 414.960952 78.651112 
L 416.663209 103.40856 
L 418.365467 163.492531 
L 420.067724 128.813151 
L 421.769982 207.91566 
L 423.472239 129.280358 
L 425.174497 135.296755 
L 426.876754 101.389772 
L 428.579012 129.558978 
L 430.281269 128.584635 
L 431.983527 152.026371 
L 433.685784 179.496425 
L 435.388041 154.187264 
L 437.090299 154.191897 
L 438.792556 156.268045 
L 440.494814 184.841089 
L 442.197071 174.844771 
L 443.899329 178.135897 
L 445.601586 179.827288 
L 447.303844 194.732457 
L 449.006101 154.18634 
L 450.708359 169.009346 
L 452.410616 128.238831 
L 454.112874 101.321762 
L 455.815131 55.8 
L 457.517389 120.491313 
L 459.219646 176.752092 
L 460.921904 102.992913 
L 462.624161 154.221786 
L 464.326419 103.321322 
L 466.028676 101.430932 
L 467.730933 154.199872 
L 469.433191 185.192752 
L 471.135448 179.719582 
L 472.837706 112.242816 
L 474.539963 143.539851 
L 476.242221 154.183802 
L 477.944478 156.929069 
L 479.646736 110.806651 
L 481.348993 155.237482 
L 483.051251 174.796106 
L 486.455766 128.622188 
L 488.158023 128.282365 
L 489.860281 77.356272 
L 491.562538 178.425415 
L 493.264796 179.789209 
L 494.967053 179.494979 
L 496.669311 179.783296 
L 498.371568 169.968576 
L 500.073826 204.790879 
L 501.776083 179.954369 
L 503.47834 205.383863 
L 505.180598 189.603261 
L 506.882855 194.708718 
L 508.585113 203.864429 
L 510.28737 182.401183 
L 511.989628 181.444672 
L 513.691885 207.632334 
L 515.394143 205.36631 
L 517.0964 180.008918 
L 518.798658 127.92179 
L 520.500915 155.190677 
L 522.203173 72.598776 
L 523.90543 126.496463 
L 525.607688 106.2741 
L 527.309945 128.281427 
L 529.012203 181.458727 
L 530.71446 151.881808 
L 532.416718 151.288618 
L 534.118975 181.528876 
L 535.821232 179.789408 
L 537.52349 203.762279 
L 539.225747 154.590248 
L 540.928005 154.285819 
L 542.630262 231.039284 
L 544.33252 104.125589 
L 546.034777 102.423205 
L 547.737035 102.99627 
L 551.14155 102.845609 
L 552.843807 154.202491 
L 554.546065 142.954476 
L 556.248322 140.962757 
L 557.95058 151.465221 
L 559.652837 187.100118 
L 563.057352 155.142202 
L 564.75961 204.788794 
L 566.461867 154.186005 
L 568.164124 231.621063 
L 569.866382 128.689571 
L 571.568639 129.014039 
L 573.270897 102.984071 
L 574.973154 100.625601 
L 576.675412 131.477912 
L 578.377669 120.658062 
L 580.079927 121.44083 
L 581.782184 128.213627 
L 583.484442 128.446119 
L 585.186699 208.418469 
L 586.888957 225.929788 
L 588.591214 224.482671 
L 590.293472 209.89025 
L 591.995729 160.285894 
L 593.697987 154.090079 
L 595.400244 154.219629 
L 597.102502 180.035409 
L 598.804759 128.711359 
L 600.507016 152.108916 
L 602.209274 128.644263 
L 603.911531 186.930066 
L 605.613789 162.949201 
L 607.316046 164.928133 
L 609.018304 153.994869 
L 610.720561 171.301603 
L 612.422819 205.705839 
L 614.125076 154.172969 
L 615.827334 166.911673 
L 617.529591 128.511605 
L 619.231849 127.36414 
L 620.934106 102.959953 
L 622.636364 102.983011 
L 622.636364 102.983011 
" clip-path="url(#pd0e9ef3879)" style="fill: none; stroke: #f58860; stroke-linecap: square"/>
   </g>
   <g id="line2d_92">
    <path d="M 90 165.340534 
L 648 165.340534 
" clip-path="url(#pd0e9ef3879)" style="fill: none; stroke-dasharray: 3.7,1.6; stroke-dashoffset: 0; stroke: #f58860"/>
    <defs>
     <path id="mb8746d8628" d="M 0 -3 
L -3 3 
L 3 3 
z
" style="stroke: #f58860; stroke-linejoin: miter"/>
    </defs>
    <g clip-path="url(#pd0e9ef3879)">
     <use xlink:href="#mb8746d8628" x="90" y="165.340534" style="fill: #f58860; stroke: #f58860; stroke-linejoin: miter"/>
     <use xlink:href="#mb8746d8628" x="648" y="165.340534" style="fill: #f58860; stroke: #f58860; stroke-linejoin: miter"/>
    </g>
   </g>
   <g id="patch_3">
    <path d="M 90 320.4 
L 90 43.2 
" style="fill: none; stroke: #000000; stroke-width: 0.8; stroke-linejoin: miter; stroke-linecap: square"/>
   </g>
   <g id="patch_4">
    <path d="M 648 320.4 
L 648 43.2 
" style="fill: none; stroke: #000000; stroke-width: 0.8; stroke-linejoin: miter; stroke-linecap: square"/>
   </g>
   <g id="patch_5">
    <path d="M 90 320.4 
L 648 320.4 
" style="fill: none; stroke: #000000; stroke-width: 0.8; stroke-linejoin: miter; stroke-linecap: square"/>
   </g>
   <g id="patch_6">
    <path d="M 90 43.2 
L 648 43.2 
" style="fill: none; stroke: #000000; stroke-width: 0.8; stroke-linejoin: miter; stroke-linecap: square"/>
   </g>
   <g id="text_25">
    <!-- Accuracy comparison: Fish type detection (Pattern:Cross_100) -->
    <g transform="translate(182.480625 37.2)scale(0.12 -0.12)">
     <defs>
      <path id="DejaVuSans-70" d="M 1159 525 
L 1159 -1331 
L 581 -1331 
L 581 3500 
L 1159 3500 
L 1159 2969 
Q 1341 3281 1617 3432 
Q 1894 3584 2278 3584 
Q 2916 3584 3314 3078 
Q 3713 2572 3713 1747 
Q 3713 922 3314 415 
Q 2916 -91 2278 -91 
Q 1894 -91 1617 61 
Q 1341 213 1159 525 
z
M 3116 1747 
Q 3116 2381 2855 2742 
Q 2594 3103 2138 3103 
Q 1681 3103 1420 2742 
Q 1159 2381 1159 1747 
Q 1159 1113 1420 752 
Q 1681 391 2138 391 
Q 2594 391 2855 752 
Q 3116 1113 3116 1747 
z
" transform="scale(0.015625)"/>
      <path id="DejaVuSans-3a" d="M 750 794 
L 1409 794 
L 1409 0 
L 750 0 
L 750 794 
z
M 750 3309 
L 1409 3309 
L 1409 2516 
L 750 2516 
L 750 3309 
z
" transform="scale(0.015625)"/>
      <path id="DejaVuSans-46" d="M 628 4666 
L 3309 4666 
L 3309 4134 
L 1259 4134 
L 1259 2759 
L 3109 2759 
L 3109 2228 
L 1259 2228 
L 1259 0 
L 628 0 
L 628 4666 
z
" transform="scale(0.015625)"/>
      <path id="DejaVuSans-68" d="M 3513 2113 
L 3513 0 
L 2938 0 
L 2938 2094 
Q 2938 2591 2744 2837 
Q 2550 3084 2163 3084 
Q 1697 3084 1428 2787 
Q 1159 2491 1159 1978 
L 1159 0 
L 581 0 
L 581 4863 
L 1159 4863 
L 1159 2956 
Q 1366 3272 1645 3428 
Q 1925 3584 2291 3584 
Q 2894 3584 3203 3211 
Q 3513 2838 3513 2113 
z
" transform="scale(0.015625)"/>
      <path id="DejaVuSans-64" d="M 2906 2969 
L 2906 4863 
L 3481 4863 
L 3481 0 
L 2906 0 
L 2906 525 
Q 2725 213 2448 61 
Q 2172 -91 1784 -91 
Q 1150 -91 751 415 
Q 353 922 353 1747 
Q 353 2572 751 3078 
Q 1150 3584 1784 3584 
Q 2172 3584 2448 3432 
Q 2725 3281 2906 2969 
z
M 947 1747 
Q 947 1113 1208 752 
Q 1469 391 1925 391 
Q 2381 391 2643 752 
Q 2906 1113 2906 1747 
Q 2906 2381 2643 2742 
Q 2381 3103 1925 3103 
Q 1469 3103 1208 2742 
Q 947 2381 947 1747 
z
" transform="scale(0.015625)"/>
      <path id="DejaVuSans-28" d="M 1984 4856 
Q 1566 4138 1362 3434 
Q 1159 2731 1159 2009 
Q 1159 1288 1364 580 
Q 1569 -128 1984 -844 
L 1484 -844 
Q 1016 -109 783 600 
Q 550 1309 550 2009 
Q 550 2706 781 3412 
Q 1013 4119 1484 4856 
L 1984 4856 
z
" transform="scale(0.015625)"/>
      <path id="DejaVuSans-50" d="M 1259 4147 
L 1259 2394 
L 2053 2394 
Q 2494 2394 2734 2622 
Q 2975 2850 2975 3272 
Q 2975 3691 2734 3919 
Q 2494 4147 2053 4147 
L 1259 4147 
z
M 628 4666 
L 2053 4666 
Q 2838 4666 3239 4311 
Q 3641 3956 3641 3272 
Q 3641 2581 3239 2228 
Q 2838 1875 2053 1875 
L 1259 1875 
L 1259 0 
L 628 0 
L 628 4666 
z
" transform="scale(0.015625)"/>
      <path id="DejaVuSans-43" d="M 4122 4306 
L 4122 3641 
Q 3803 3938 3442 4084 
Q 3081 4231 2675 4231 
Q 1875 4231 1450 3742 
Q 1025 3253 1025 2328 
Q 1025 1406 1450 917 
Q 1875 428 2675 428 
Q 3081 428 3442 575 
Q 3803 722 4122 1019 
L 4122 359 
Q 3791 134 3420 21 
Q 3050 -91 2638 -91 
Q 1578 -91 968 557 
Q 359 1206 359 2328 
Q 359 3453 968 4101 
Q 1578 4750 2638 4750 
Q 3056 4750 3426 4639 
Q 3797 4528 4122 4306 
z
" transform="scale(0.015625)"/>
      <path id="DejaVuSans-5f" d="M 3263 -1063 
L 3263 -1509 
L -63 -1509 
L -63 -1063 
L 3263 -1063 
z
" transform="scale(0.015625)"/>
      <path id="DejaVuSans-29" d="M 513 4856 
L 1013 4856 
Q 1481 4119 1714 3412 
Q 1947 2706 1947 2009 
Q 1947 1309 1714 600 
Q 1481 -109 1013 -844 
L 513 -844 
Q 928 -128 1133 580 
Q 1338 1288 1338 2009 
Q 1338 2731 1133 3434 
Q 928 4138 513 4856 
z
" transform="scale(0.015625)"/>
     </defs>
     <use xlink:href="#DejaVuSans-41"/>
     <use xlink:href="#DejaVuSans-63" x="66.658203"/>
     <use xlink:href="#DejaVuSans-63" x="121.638672"/>
     <use xlink:href="#DejaVuSans-75" x="176.619141"/>
     <use xlink:href="#DejaVuSans-72" x="239.998047"/>
     <use xlink:href="#DejaVuSans-61" x="281.111328"/>
     <use xlink:href="#DejaVuSans-63" x="342.390625"/>
     <use xlink:href="#DejaVuSans-79" x="397.371094"/>
     <use xlink:href="#DejaVuSans-20" x="456.550781"/>
     <use xlink:href="#DejaVuSans-63" x="488.337891"/>
     <use xlink:href="#DejaVuSans-6f" x="543.318359"/>
     <use xlink:href="#DejaVuSans-6d" x="604.5"/>
     <use xlink:href="#DejaVuSans-70" x="701.912109"/>
     <use xlink:href="#DejaVuSans-61" x="765.388672"/>
     <use xlink:href="#DejaVuSans-72" x="826.667969"/>
     <use xlink:href="#DejaVuSans-69" x="867.78125"/>
     <use xlink:href="#DejaVuSans-73" x="895.564453"/>
     <use xlink:href="#DejaVuSans-6f" x="947.664062"/>
     <use xlink:href="#DejaVuSans-6e" x="1008.845703"/>
     <use xlink:href="#DejaVuSans-3a" x="1072.224609"/>
     <use xlink:href="#DejaVuSans-20" x="1105.916016"/>
     <use xlink:href="#DejaVuSans-46" x="1137.703125"/>
     <use xlink:href="#DejaVuSans-69" x="1187.972656"/>
     <use xlink:href="#DejaVuSans-73" x="1215.755859"/>
     <use xlink:href="#DejaVuSans-68" x="1267.855469"/>
     <use xlink:href="#DejaVuSans-20" x="1331.234375"/>
     <use xlink:href="#DejaVuSans-74" x="1363.021484"/>
     <use xlink:href="#DejaVuSans-79" x="1402.230469"/>
     <use xlink:href="#DejaVuSans-70" x="1461.410156"/>
     <use xlink:href="#DejaVuSans-65" x="1524.886719"/>
     <use xlink:href="#DejaVuSans-20" x="1586.410156"/>
     <use xlink:href="#DejaVuSans-64" x="1618.197266"/>
     <use xlink:href="#DejaVuSans-65" x="1681.673828"/>
     <use xlink:href="#DejaVuSans-74" x="1743.197266"/>
     <use xlink:href="#DejaVuSans-65" x="1782.40625"/>
     <use xlink:href="#DejaVuSans-63" x="1843.929688"/>
     <use xlink:href="#DejaVuSans-74" x="1898.910156"/>
     <use xlink:href="#DejaVuSans-69" x="1938.119141"/>
     <use xlink:href="#DejaVuSans-6f" x="1965.902344"/>
     <use xlink:href="#DejaVuSans-6e" x="2027.083984"/>
     <use xlink:href="#DejaVuSans-20" x="2090.462891"/>
     <use xlink:href="#DejaVuSans-28" x="2122.25"/>
     <use xlink:href="#DejaVuSans-50" x="2161.263672"/>
     <use xlink:href="#DejaVuSans-61" x="2217.066406"/>
     <use xlink:href="#DejaVuSans-74" x="2278.345703"/>
     <use xlink:href="#DejaVuSans-74" x="2317.554688"/>
     <use xlink:href="#DejaVuSans-65" x="2356.763672"/>
     <use xlink:href="#DejaVuSans-72" x="2418.287109"/>
     <use xlink:href="#DejaVuSans-6e" x="2457.650391"/>
     <use xlink:href="#DejaVuSans-3a" x="2521.029297"/>
     <use xlink:href="#DejaVuSans-43" x="2554.720703"/>
     <use xlink:href="#DejaVuSans-72" x="2624.544922"/>
     <use xlink:href="#DejaVuSans-6f" x="2663.408203"/>
     <use xlink:href="#DejaVuSans-73" x="2724.589844"/>
     <use xlink:href="#DejaVuSans-73" x="2776.689453"/>
     <use xlink:href="#DejaVuSans-5f" x="2828.789062"/>
     <use xlink:href="#DejaVuSans-31" x="2878.789062"/>
     <use xlink:href="#DejaVuSans-30" x="2942.412109"/>
     <use xlink:href="#DejaVuSans-30" x="3006.035156"/>
     <use xlink:href="#DejaVuSans-29" x="3069.658203"/>
    </g>
   </g>
   <g id="legend_1">
    <g id="patch_7">
     <path d="M 323.425 315.4 
L 414.575 315.4 
Q 416.575 315.4 416.575 313.4 
L 416.575 226.33125 
Q 416.575 224.33125 414.575 224.33125 
L 323.425 224.33125 
Q 321.425 224.33125 321.425 226.33125 
L 321.425 313.4 
Q 321.425 315.4 323.425 315.4 
z
" style="fill: #ffffff; opacity: 0.8; stroke: #cccccc; stroke-linejoin: miter"/>
    </g>
    <g id="line2d_93">
     <path d="M 325.425 232.429688 
L 335.425 232.429688 
L 345.425 232.429688 
" style="fill: none; stroke: #611f53; stroke-linecap: square"/>
    </g>
    <g id="text_26">
     <!-- Tuna -->
     <g transform="translate(353.425 235.929688)scale(0.1 -0.1)">
      <use xlink:href="#DejaVuSans-54"/>
      <use xlink:href="#DejaVuSans-75" x="45.958984"/>
      <use xlink:href="#DejaVuSans-6e" x="109.337891"/>
      <use xlink:href="#DejaVuSans-61" x="172.716797"/>
     </g>
    </g>
    <g id="line2d_94">
     <path d="M 325.425 247.107813 
L 335.425 247.107813 
L 345.425 247.107813 
" style="fill: none; stroke-dasharray: 3.7,1.6; stroke-dashoffset: 0; stroke: #611f53"/>
     <g>
      <use xlink:href="#m1b0021f9d4" x="335.425" y="247.107813" style="fill: #611f53; stroke: #611f53; stroke-linejoin: miter"/>
     </g>
    </g>
    <g id="text_27">
     <!-- Avg Tuna -->
     <g transform="translate(353.425 250.607813)scale(0.1 -0.1)">
      <defs>
       <path id="DejaVuSans-76" d="M 191 3500 
L 800 3500 
L 1894 563 
L 2988 3500 
L 3597 3500 
L 2284 0 
L 1503 0 
L 191 3500 
z
" transform="scale(0.015625)"/>
       <path id="DejaVuSans-67" d="M 2906 1791 
Q 2906 2416 2648 2759 
Q 2391 3103 1925 3103 
Q 1463 3103 1205 2759 
Q 947 2416 947 1791 
Q 947 1169 1205 825 
Q 1463 481 1925 481 
Q 2391 481 2648 825 
Q 2906 1169 2906 1791 
z
M 3481 434 
Q 3481 -459 3084 -895 
Q 2688 -1331 1869 -1331 
Q 1566 -1331 1297 -1286 
Q 1028 -1241 775 -1147 
L 775 -588 
Q 1028 -725 1275 -790 
Q 1522 -856 1778 -856 
Q 2344 -856 2625 -561 
Q 2906 -266 2906 331 
L 2906 616 
Q 2728 306 2450 153 
Q 2172 0 1784 0 
Q 1141 0 747 490 
Q 353 981 353 1791 
Q 353 2603 747 3093 
Q 1141 3584 1784 3584 
Q 2172 3584 2450 3431 
Q 2728 3278 2906 2969 
L 2906 3500 
L 3481 3500 
L 3481 434 
z
" transform="scale(0.015625)"/>
      </defs>
      <use xlink:href="#DejaVuSans-41"/>
      <use xlink:href="#DejaVuSans-76" x="62.533203"/>
      <use xlink:href="#DejaVuSans-67" x="121.712891"/>
      <use xlink:href="#DejaVuSans-20" x="185.189453"/>
      <use xlink:href="#DejaVuSans-54" x="216.976562"/>
      <use xlink:href="#DejaVuSans-75" x="262.935547"/>
      <use xlink:href="#DejaVuSans-6e" x="326.314453"/>
      <use xlink:href="#DejaVuSans-61" x="389.693359"/>
     </g>
    </g>
    <g id="line2d_95">
     <path d="M 325.425 261.785938 
L 335.425 261.785938 
L 345.425 261.785938 
" style="fill: none; stroke: #cb1b4f; stroke-linecap: square"/>
    </g>
    <g id="text_28">
     <!-- Salmon -->
     <g transform="translate(353.425 265.285938)scale(0.1 -0.1)">
      <use xlink:href="#DejaVuSans-53"/>
      <use xlink:href="#DejaVuSans-61" x="63.476562"/>
      <use xlink:href="#DejaVuSans-6c" x="124.755859"/>
      <use xlink:href="#DejaVuSans-6d" x="152.539062"/>
      <use xlink:href="#DejaVuSans-6f" x="249.951172"/>
      <use xlink:href="#DejaVuSans-6e" x="311.132812"/>
     </g>
    </g>
    <g id="line2d_96">
     <path d="M 325.425 276.464063 
L 335.425 276.464063 
L 345.425 276.464063 
" style="fill: none; stroke-dasharray: 3.7,1.6; stroke-dashoffset: 0; stroke: #cb1b4f"/>
     <g>
      <use xlink:href="#m3ccca0e73f" x="335.425" y="276.464063" style="fill: #cb1b4f; stroke: #cb1b4f"/>
     </g>
    </g>
    <g id="text_29">
     <!-- Avg Salmon -->
     <g transform="translate(353.425 279.964063)scale(0.1 -0.1)">
      <use xlink:href="#DejaVuSans-41"/>
      <use xlink:href="#DejaVuSans-76" x="62.533203"/>
      <use xlink:href="#DejaVuSans-67" x="121.712891"/>
      <use xlink:href="#DejaVuSans-20" x="185.189453"/>
      <use xlink:href="#DejaVuSans-53" x="216.976562"/>
      <use xlink:href="#DejaVuSans-61" x="280.453125"/>
      <use xlink:href="#DejaVuSans-6c" x="341.732422"/>
      <use xlink:href="#DejaVuSans-6d" x="369.515625"/>
      <use xlink:href="#DejaVuSans-6f" x="466.927734"/>
      <use xlink:href="#DejaVuSans-6e" x="528.109375"/>
     </g>
    </g>
    <g id="line2d_97">
     <path d="M 325.425 291.142188 
L 335.425 291.142188 
L 345.425 291.142188 
" style="fill: none; stroke: #f58860; stroke-linecap: square"/>
    </g>
    <g id="text_30">
     <!-- Clown -->
     <g transform="translate(353.425 294.642188)scale(0.1 -0.1)">
      <defs>
       <path id="DejaVuSans-77" d="M 269 3500 
L 844 3500 
L 1563 769 
L 2278 3500 
L 2956 3500 
L 3675 769 
L 4391 3500 
L 4966 3500 
L 4050 0 
L 3372 0 
L 2619 2869 
L 1863 0 
L 1184 0 
L 269 3500 
z
" transform="scale(0.015625)"/>
      </defs>
      <use xlink:href="#DejaVuSans-43"/>
      <use xlink:href="#DejaVuSans-6c" x="69.824219"/>
      <use xlink:href="#DejaVuSans-6f" x="97.607422"/>
      <use xlink:href="#DejaVuSans-77" x="158.789062"/>
      <use xlink:href="#DejaVuSans-6e" x="240.576172"/>
     </g>
    </g>
    <g id="line2d_98">
     <path d="M 325.425 305.820312 
L 335.425 305.820312 
L 345.425 305.820312 
" style="fill: none; stroke-dasharray: 3.7,1.6; stroke-dashoffset: 0; stroke: #f58860"/>
     <g>
      <use xlink:href="#mb8746d8628" x="335.425" y="305.820312" style="fill: #f58860; stroke: #f58860; stroke-linejoin: miter"/>
     </g>
    </g>
    <g id="text_31">
     <!-- Avg Clown -->
     <g transform="translate(353.425 309.320312)scale(0.1 -0.1)">
      <use xlink:href="#DejaVuSans-41"/>
      <use xlink:href="#DejaVuSans-76" x="62.533203"/>
      <use xlink:href="#DejaVuSans-67" x="121.712891"/>
      <use xlink:href="#DejaVuSans-20" x="185.189453"/>
      <use xlink:href="#DejaVuSans-43" x="216.976562"/>
      <use xlink:href="#DejaVuSans-6c" x="286.800781"/>
      <use xlink:href="#DejaVuSans-6f" x="314.583984"/>
      <use xlink:href="#DejaVuSans-77" x="375.765625"/>
      <use xlink:href="#DejaVuSans-6e" x="457.552734"/>
     </g>
    </g>
   </g>
  </g>
 </g>
 <defs>
  <clipPath id="pd0e9ef3879">
   <rect x="90" y="43.2" width="558" height="277.2"/>
  </clipPath>
 </defs>
</svg>
