<?xml version="1.0" encoding="utf-8" standalone="no"?>
<!DOCTYPE svg PUBLIC "-//W3C//DTD SVG 1.1//EN"
  "http://www.w3.org/Graphics/SVG/1.1/DTD/svg11.dtd">
<svg xmlns:xlink="http://www.w3.org/1999/xlink" width="720pt" height="360pt" viewBox="0 0 720 360" xmlns="http://www.w3.org/2000/svg" version="1.1">
 <metadata>
  <rdf:RDF xmlns:dc="http://purl.org/dc/elements/1.1/" xmlns:cc="http://creativecommons.org/ns#" xmlns:rdf="http://www.w3.org/1999/02/22-rdf-syntax-ns#">
   <cc:Work>
    <dc:type rdf:resource="http://purl.org/dc/dcmitype/StillImage"/>
    <dc:date>2022-11-29T15:54:30.069755</dc:date>
    <dc:format>image/svg+xml</dc:format>
    <dc:creator>
     <cc:Agent>
      <dc:title>Matplotlib v3.5.1, https://matplotlib.org/</dc:title>
     </cc:Agent>
    </dc:creator>
   </cc:Work>
  </rdf:RDF>
 </metadata>
 <defs>
  <style type="text/css">*{stroke-linejoin: round; stroke-linecap: butt}</style>
 </defs>
 <g id="figure_1">
  <g id="patch_1">
   <path d="M 0 360 
L 720 360 
L 720 0 
L 0 0 
z
" style="fill: #ffffff"/>
  </g>
  <g id="axes_1">
   <g id="patch_2">
    <path d="M 90 320.4 
L 648 320.4 
L 648 43.2 
L 90 43.2 
z
" style="fill: #ffffff"/>
   </g>
   <g id="matplotlib.axis_1">
    <g id="xtick_1">
     <g id="line2d_1">
      <defs>
       <path id="mce237bfbaf" d="M 0 0 
L 0 -10 
" style="stroke: #000000; stroke-width: 0.8"/>
      </defs>
      <g>
       <use xlink:href="#mce237bfbaf" x="115.363636" y="320.4" style="stroke: #000000; stroke-width: 0.8"/>
      </g>
     </g>
     <g id="text_1">
      <!-- 0 -->
      <g transform="translate(112.182386 331.498438)scale(0.1 -0.1)">
       <defs>
        <path id="DejaVuSans-30" d="M 2034 4250 
Q 1547 4250 1301 3770 
Q 1056 3291 1056 2328 
Q 1056 1369 1301 889 
Q 1547 409 2034 409 
Q 2525 409 2770 889 
Q 3016 1369 3016 2328 
Q 3016 3291 2770 3770 
Q 2525 4250 2034 4250 
z
M 2034 4750 
Q 2819 4750 3233 4129 
Q 3647 3509 3647 2328 
Q 3647 1150 3233 529 
Q 2819 -91 2034 -91 
Q 1250 -91 836 529 
Q 422 1150 422 2328 
Q 422 3509 836 4129 
Q 1250 4750 2034 4750 
z
" transform="scale(0.015625)"/>
       </defs>
       <use xlink:href="#DejaVuSans-30"/>
      </g>
     </g>
    </g>
    <g id="xtick_2">
     <g id="line2d_2">
      <g>
       <use xlink:href="#mce237bfbaf" x="149.193095" y="320.4" style="stroke: #000000; stroke-width: 0.8"/>
      </g>
     </g>
     <g id="text_2">
      <!-- 200 -->
      <g transform="translate(139.649345 331.498438)scale(0.1 -0.1)">
       <defs>
        <path id="DejaVuSans-32" d="M 1228 531 
L 3431 531 
L 3431 0 
L 469 0 
L 469 531 
Q 828 903 1448 1529 
Q 2069 2156 2228 2338 
Q 2531 2678 2651 2914 
Q 2772 3150 2772 3378 
Q 2772 3750 2511 3984 
Q 2250 4219 1831 4219 
Q 1534 4219 1204 4116 
Q 875 4013 500 3803 
L 500 4441 
Q 881 4594 1212 4672 
Q 1544 4750 1819 4750 
Q 2544 4750 2975 4387 
Q 3406 4025 3406 3419 
Q 3406 3131 3298 2873 
Q 3191 2616 2906 2266 
Q 2828 2175 2409 1742 
Q 1991 1309 1228 531 
z
" transform="scale(0.015625)"/>
       </defs>
       <use xlink:href="#DejaVuSans-32"/>
       <use xlink:href="#DejaVuSans-30" x="63.623047"/>
       <use xlink:href="#DejaVuSans-30" x="127.246094"/>
      </g>
     </g>
    </g>
    <g id="xtick_3">
     <g id="line2d_3">
      <g>
       <use xlink:href="#mce237bfbaf" x="183.022553" y="320.4" style="stroke: #000000; stroke-width: 0.8"/>
      </g>
     </g>
     <g id="text_3">
      <!-- 400 -->
      <g transform="translate(173.478803 331.498438)scale(0.1 -0.1)">
       <defs>
        <path id="DejaVuSans-34" d="M 2419 4116 
L 825 1625 
L 2419 1625 
L 2419 4116 
z
M 2253 4666 
L 3047 4666 
L 3047 1625 
L 3713 1625 
L 3713 1100 
L 3047 1100 
L 3047 0 
L 2419 0 
L 2419 1100 
L 313 1100 
L 313 1709 
L 2253 4666 
z
" transform="scale(0.015625)"/>
       </defs>
       <use xlink:href="#DejaVuSans-34"/>
       <use xlink:href="#DejaVuSans-30" x="63.623047"/>
       <use xlink:href="#DejaVuSans-30" x="127.246094"/>
      </g>
     </g>
    </g>
    <g id="xtick_4">
     <g id="line2d_4">
      <g>
       <use xlink:href="#mce237bfbaf" x="216.852011" y="320.4" style="stroke: #000000; stroke-width: 0.8"/>
      </g>
     </g>
     <g id="text_4">
      <!-- 600 -->
      <g transform="translate(207.308261 331.498438)scale(0.1 -0.1)">
       <defs>
        <path id="DejaVuSans-36" d="M 2113 2584 
Q 1688 2584 1439 2293 
Q 1191 2003 1191 1497 
Q 1191 994 1439 701 
Q 1688 409 2113 409 
Q 2538 409 2786 701 
Q 3034 994 3034 1497 
Q 3034 2003 2786 2293 
Q 2538 2584 2113 2584 
z
M 3366 4563 
L 3366 3988 
Q 3128 4100 2886 4159 
Q 2644 4219 2406 4219 
Q 1781 4219 1451 3797 
Q 1122 3375 1075 2522 
Q 1259 2794 1537 2939 
Q 1816 3084 2150 3084 
Q 2853 3084 3261 2657 
Q 3669 2231 3669 1497 
Q 3669 778 3244 343 
Q 2819 -91 2113 -91 
Q 1303 -91 875 529 
Q 447 1150 447 2328 
Q 447 3434 972 4092 
Q 1497 4750 2381 4750 
Q 2619 4750 2861 4703 
Q 3103 4656 3366 4563 
z
" transform="scale(0.015625)"/>
       </defs>
       <use xlink:href="#DejaVuSans-36"/>
       <use xlink:href="#DejaVuSans-30" x="63.623047"/>
       <use xlink:href="#DejaVuSans-30" x="127.246094"/>
      </g>
     </g>
    </g>
    <g id="xtick_5">
     <g id="line2d_5">
      <g>
       <use xlink:href="#mce237bfbaf" x="250.68147" y="320.4" style="stroke: #000000; stroke-width: 0.8"/>
      </g>
     </g>
     <g id="text_5">
      <!-- 800 -->
      <g transform="translate(241.13772 331.498438)scale(0.1 -0.1)">
       <defs>
        <path id="DejaVuSans-38" d="M 2034 2216 
Q 1584 2216 1326 1975 
Q 1069 1734 1069 1313 
Q 1069 891 1326 650 
Q 1584 409 2034 409 
Q 2484 409 2743 651 
Q 3003 894 3003 1313 
Q 3003 1734 2745 1975 
Q 2488 2216 2034 2216 
z
M 1403 2484 
Q 997 2584 770 2862 
Q 544 3141 544 3541 
Q 544 4100 942 4425 
Q 1341 4750 2034 4750 
Q 2731 4750 3128 4425 
Q 3525 4100 3525 3541 
Q 3525 3141 3298 2862 
Q 3072 2584 2669 2484 
Q 3125 2378 3379 2068 
Q 3634 1759 3634 1313 
Q 3634 634 3220 271 
Q 2806 -91 2034 -91 
Q 1263 -91 848 271 
Q 434 634 434 1313 
Q 434 1759 690 2068 
Q 947 2378 1403 2484 
z
M 1172 3481 
Q 1172 3119 1398 2916 
Q 1625 2713 2034 2713 
Q 2441 2713 2670 2916 
Q 2900 3119 2900 3481 
Q 2900 3844 2670 4047 
Q 2441 4250 2034 4250 
Q 1625 4250 1398 4047 
Q 1172 3844 1172 3481 
z
" transform="scale(0.015625)"/>
       </defs>
       <use xlink:href="#DejaVuSans-38"/>
       <use xlink:href="#DejaVuSans-30" x="63.623047"/>
       <use xlink:href="#DejaVuSans-30" x="127.246094"/>
      </g>
     </g>
    </g>
    <g id="xtick_6">
     <g id="line2d_6">
      <g>
       <use xlink:href="#mce237bfbaf" x="284.510928" y="320.4" style="stroke: #000000; stroke-width: 0.8"/>
      </g>
     </g>
     <g id="text_6">
      <!-- 1000 -->
      <g transform="translate(271.785928 331.498438)scale(0.1 -0.1)">
       <defs>
        <path id="DejaVuSans-31" d="M 794 531 
L 1825 531 
L 1825 4091 
L 703 3866 
L 703 4441 
L 1819 4666 
L 2450 4666 
L 2450 531 
L 3481 531 
L 3481 0 
L 794 0 
L 794 531 
z
" transform="scale(0.015625)"/>
       </defs>
       <use xlink:href="#DejaVuSans-31"/>
       <use xlink:href="#DejaVuSans-30" x="63.623047"/>
       <use xlink:href="#DejaVuSans-30" x="127.246094"/>
       <use xlink:href="#DejaVuSans-30" x="190.869141"/>
      </g>
     </g>
    </g>
    <g id="xtick_7">
     <g id="line2d_7">
      <g>
       <use xlink:href="#mce237bfbaf" x="318.340386" y="320.4" style="stroke: #000000; stroke-width: 0.8"/>
      </g>
     </g>
     <g id="text_7">
      <!-- 1200 -->
      <g transform="translate(305.615386 331.498438)scale(0.1 -0.1)">
       <use xlink:href="#DejaVuSans-31"/>
       <use xlink:href="#DejaVuSans-32" x="63.623047"/>
       <use xlink:href="#DejaVuSans-30" x="127.246094"/>
       <use xlink:href="#DejaVuSans-30" x="190.869141"/>
      </g>
     </g>
    </g>
    <g id="xtick_8">
     <g id="line2d_8">
      <g>
       <use xlink:href="#mce237bfbaf" x="352.169844" y="320.4" style="stroke: #000000; stroke-width: 0.8"/>
      </g>
     </g>
     <g id="text_8">
      <!-- 1400 -->
      <g transform="translate(339.444844 331.498438)scale(0.1 -0.1)">
       <use xlink:href="#DejaVuSans-31"/>
       <use xlink:href="#DejaVuSans-34" x="63.623047"/>
       <use xlink:href="#DejaVuSans-30" x="127.246094"/>
       <use xlink:href="#DejaVuSans-30" x="190.869141"/>
      </g>
     </g>
    </g>
    <g id="xtick_9">
     <g id="line2d_9">
      <g>
       <use xlink:href="#mce237bfbaf" x="385.999303" y="320.4" style="stroke: #000000; stroke-width: 0.8"/>
      </g>
     </g>
     <g id="text_9">
      <!-- 1600 -->
      <g transform="translate(373.274303 331.498438)scale(0.1 -0.1)">
       <use xlink:href="#DejaVuSans-31"/>
       <use xlink:href="#DejaVuSans-36" x="63.623047"/>
       <use xlink:href="#DejaVuSans-30" x="127.246094"/>
       <use xlink:href="#DejaVuSans-30" x="190.869141"/>
      </g>
     </g>
    </g>
    <g id="xtick_10">
     <g id="line2d_10">
      <g>
       <use xlink:href="#mce237bfbaf" x="419.828761" y="320.4" style="stroke: #000000; stroke-width: 0.8"/>
      </g>
     </g>
     <g id="text_10">
      <!-- 1800 -->
      <g transform="translate(407.103761 331.498438)scale(0.1 -0.1)">
       <use xlink:href="#DejaVuSans-31"/>
       <use xlink:href="#DejaVuSans-38" x="63.623047"/>
       <use xlink:href="#DejaVuSans-30" x="127.246094"/>
       <use xlink:href="#DejaVuSans-30" x="190.869141"/>
      </g>
     </g>
    </g>
    <g id="xtick_11">
     <g id="line2d_11">
      <g>
       <use xlink:href="#mce237bfbaf" x="453.658219" y="320.4" style="stroke: #000000; stroke-width: 0.8"/>
      </g>
     </g>
     <g id="text_11">
      <!-- 2000 -->
      <g transform="translate(440.933219 331.498438)scale(0.1 -0.1)">
       <use xlink:href="#DejaVuSans-32"/>
       <use xlink:href="#DejaVuSans-30" x="63.623047"/>
       <use xlink:href="#DejaVuSans-30" x="127.246094"/>
       <use xlink:href="#DejaVuSans-30" x="190.869141"/>
      </g>
     </g>
    </g>
    <g id="xtick_12">
     <g id="line2d_12">
      <g>
       <use xlink:href="#mce237bfbaf" x="487.487678" y="320.4" style="stroke: #000000; stroke-width: 0.8"/>
      </g>
     </g>
     <g id="text_12">
      <!-- 2200 -->
      <g transform="translate(474.762678 331.498438)scale(0.1 -0.1)">
       <use xlink:href="#DejaVuSans-32"/>
       <use xlink:href="#DejaVuSans-32" x="63.623047"/>
       <use xlink:href="#DejaVuSans-30" x="127.246094"/>
       <use xlink:href="#DejaVuSans-30" x="190.869141"/>
      </g>
     </g>
    </g>
    <g id="xtick_13">
     <g id="line2d_13">
      <g>
       <use xlink:href="#mce237bfbaf" x="521.317136" y="320.4" style="stroke: #000000; stroke-width: 0.8"/>
      </g>
     </g>
     <g id="text_13">
      <!-- 2400 -->
      <g transform="translate(508.592136 331.498438)scale(0.1 -0.1)">
       <use xlink:href="#DejaVuSans-32"/>
       <use xlink:href="#DejaVuSans-34" x="63.623047"/>
       <use xlink:href="#DejaVuSans-30" x="127.246094"/>
       <use xlink:href="#DejaVuSans-30" x="190.869141"/>
      </g>
     </g>
    </g>
    <g id="xtick_14">
     <g id="line2d_14">
      <g>
       <use xlink:href="#mce237bfbaf" x="555.146594" y="320.4" style="stroke: #000000; stroke-width: 0.8"/>
      </g>
     </g>
     <g id="text_14">
      <!-- 2600 -->
      <g transform="translate(542.421594 331.498438)scale(0.1 -0.1)">
       <use xlink:href="#DejaVuSans-32"/>
       <use xlink:href="#DejaVuSans-36" x="63.623047"/>
       <use xlink:href="#DejaVuSans-30" x="127.246094"/>
       <use xlink:href="#DejaVuSans-30" x="190.869141"/>
      </g>
     </g>
    </g>
    <g id="xtick_15">
     <g id="line2d_15">
      <g>
       <use xlink:href="#mce237bfbaf" x="588.976053" y="320.4" style="stroke: #000000; stroke-width: 0.8"/>
      </g>
     </g>
     <g id="text_15">
      <!-- 2800 -->
      <g transform="translate(576.251053 331.498438)scale(0.1 -0.1)">
       <use xlink:href="#DejaVuSans-32"/>
       <use xlink:href="#DejaVuSans-38" x="63.623047"/>
       <use xlink:href="#DejaVuSans-30" x="127.246094"/>
       <use xlink:href="#DejaVuSans-30" x="190.869141"/>
      </g>
     </g>
    </g>
    <g id="xtick_16">
     <g id="line2d_16">
      <g>
       <use xlink:href="#mce237bfbaf" x="622.805511" y="320.4" style="stroke: #000000; stroke-width: 0.8"/>
      </g>
     </g>
     <g id="text_16">
      <!-- 3000 -->
      <g transform="translate(610.080511 331.498438)scale(0.1 -0.1)">
       <defs>
        <path id="DejaVuSans-33" d="M 2597 2516 
Q 3050 2419 3304 2112 
Q 3559 1806 3559 1356 
Q 3559 666 3084 287 
Q 2609 -91 1734 -91 
Q 1441 -91 1130 -33 
Q 819 25 488 141 
L 488 750 
Q 750 597 1062 519 
Q 1375 441 1716 441 
Q 2309 441 2620 675 
Q 2931 909 2931 1356 
Q 2931 1769 2642 2001 
Q 2353 2234 1838 2234 
L 1294 2234 
L 1294 2753 
L 1863 2753 
Q 2328 2753 2575 2939 
Q 2822 3125 2822 3475 
Q 2822 3834 2567 4026 
Q 2313 4219 1838 4219 
Q 1578 4219 1281 4162 
Q 984 4106 628 3988 
L 628 4550 
Q 988 4650 1302 4700 
Q 1616 4750 1894 4750 
Q 2613 4750 3031 4423 
Q 3450 4097 3450 3541 
Q 3450 3153 3228 2886 
Q 3006 2619 2597 2516 
z
" transform="scale(0.015625)"/>
       </defs>
       <use xlink:href="#DejaVuSans-33"/>
       <use xlink:href="#DejaVuSans-30" x="63.623047"/>
       <use xlink:href="#DejaVuSans-30" x="127.246094"/>
       <use xlink:href="#DejaVuSans-30" x="190.869141"/>
      </g>
     </g>
    </g>
    <g id="xtick_17">
     <g id="line2d_17">
      <defs>
       <path id="m96b4f9b340" d="M 0 0 
L 0 -5 
" style="stroke: #000000; stroke-width: 0.6"/>
      </defs>
      <g>
       <use xlink:href="#m96b4f9b340" x="98.448907" y="320.4" style="stroke: #000000; stroke-width: 0.6"/>
      </g>
     </g>
    </g>
    <g id="xtick_18">
     <g id="line2d_18">
      <g>
       <use xlink:href="#m96b4f9b340" x="106.906272" y="320.4" style="stroke: #000000; stroke-width: 0.6"/>
      </g>
     </g>
    </g>
    <g id="xtick_19">
     <g id="line2d_19">
      <g>
       <use xlink:href="#m96b4f9b340" x="123.821001" y="320.4" style="stroke: #000000; stroke-width: 0.6"/>
      </g>
     </g>
    </g>
    <g id="xtick_20">
     <g id="line2d_20">
      <g>
       <use xlink:href="#m96b4f9b340" x="132.278366" y="320.4" style="stroke: #000000; stroke-width: 0.6"/>
      </g>
     </g>
    </g>
    <g id="xtick_21">
     <g id="line2d_21">
      <g>
       <use xlink:href="#m96b4f9b340" x="140.73573" y="320.4" style="stroke: #000000; stroke-width: 0.6"/>
      </g>
     </g>
    </g>
    <g id="xtick_22">
     <g id="line2d_22">
      <g>
       <use xlink:href="#m96b4f9b340" x="157.650459" y="320.4" style="stroke: #000000; stroke-width: 0.6"/>
      </g>
     </g>
    </g>
    <g id="xtick_23">
     <g id="line2d_23">
      <g>
       <use xlink:href="#m96b4f9b340" x="166.107824" y="320.4" style="stroke: #000000; stroke-width: 0.6"/>
      </g>
     </g>
    </g>
    <g id="xtick_24">
     <g id="line2d_24">
      <g>
       <use xlink:href="#m96b4f9b340" x="174.565188" y="320.4" style="stroke: #000000; stroke-width: 0.6"/>
      </g>
     </g>
    </g>
    <g id="xtick_25">
     <g id="line2d_25">
      <g>
       <use xlink:href="#m96b4f9b340" x="191.479918" y="320.4" style="stroke: #000000; stroke-width: 0.6"/>
      </g>
     </g>
    </g>
    <g id="xtick_26">
     <g id="line2d_26">
      <g>
       <use xlink:href="#m96b4f9b340" x="199.937282" y="320.4" style="stroke: #000000; stroke-width: 0.6"/>
      </g>
     </g>
    </g>
    <g id="xtick_27">
     <g id="line2d_27">
      <g>
       <use xlink:href="#m96b4f9b340" x="208.394647" y="320.4" style="stroke: #000000; stroke-width: 0.6"/>
      </g>
     </g>
    </g>
    <g id="xtick_28">
     <g id="line2d_28">
      <g>
       <use xlink:href="#m96b4f9b340" x="225.309376" y="320.4" style="stroke: #000000; stroke-width: 0.6"/>
      </g>
     </g>
    </g>
    <g id="xtick_29">
     <g id="line2d_29">
      <g>
       <use xlink:href="#m96b4f9b340" x="233.76674" y="320.4" style="stroke: #000000; stroke-width: 0.6"/>
      </g>
     </g>
    </g>
    <g id="xtick_30">
     <g id="line2d_30">
      <g>
       <use xlink:href="#m96b4f9b340" x="242.224105" y="320.4" style="stroke: #000000; stroke-width: 0.6"/>
      </g>
     </g>
    </g>
    <g id="xtick_31">
     <g id="line2d_31">
      <g>
       <use xlink:href="#m96b4f9b340" x="259.138834" y="320.4" style="stroke: #000000; stroke-width: 0.6"/>
      </g>
     </g>
    </g>
    <g id="xtick_32">
     <g id="line2d_32">
      <g>
       <use xlink:href="#m96b4f9b340" x="267.596199" y="320.4" style="stroke: #000000; stroke-width: 0.6"/>
      </g>
     </g>
    </g>
    <g id="xtick_33">
     <g id="line2d_33">
      <g>
       <use xlink:href="#m96b4f9b340" x="276.053563" y="320.4" style="stroke: #000000; stroke-width: 0.6"/>
      </g>
     </g>
    </g>
    <g id="xtick_34">
     <g id="line2d_34">
      <g>
       <use xlink:href="#m96b4f9b340" x="292.968292" y="320.4" style="stroke: #000000; stroke-width: 0.6"/>
      </g>
     </g>
    </g>
    <g id="xtick_35">
     <g id="line2d_35">
      <g>
       <use xlink:href="#m96b4f9b340" x="301.425657" y="320.4" style="stroke: #000000; stroke-width: 0.6"/>
      </g>
     </g>
    </g>
    <g id="xtick_36">
     <g id="line2d_36">
      <g>
       <use xlink:href="#m96b4f9b340" x="309.883022" y="320.4" style="stroke: #000000; stroke-width: 0.6"/>
      </g>
     </g>
    </g>
    <g id="xtick_37">
     <g id="line2d_37">
      <g>
       <use xlink:href="#m96b4f9b340" x="326.797751" y="320.4" style="stroke: #000000; stroke-width: 0.6"/>
      </g>
     </g>
    </g>
    <g id="xtick_38">
     <g id="line2d_38">
      <g>
       <use xlink:href="#m96b4f9b340" x="335.255115" y="320.4" style="stroke: #000000; stroke-width: 0.6"/>
      </g>
     </g>
    </g>
    <g id="xtick_39">
     <g id="line2d_39">
      <g>
       <use xlink:href="#m96b4f9b340" x="343.71248" y="320.4" style="stroke: #000000; stroke-width: 0.6"/>
      </g>
     </g>
    </g>
    <g id="xtick_40">
     <g id="line2d_40">
      <g>
       <use xlink:href="#m96b4f9b340" x="360.627209" y="320.4" style="stroke: #000000; stroke-width: 0.6"/>
      </g>
     </g>
    </g>
    <g id="xtick_41">
     <g id="line2d_41">
      <g>
       <use xlink:href="#m96b4f9b340" x="369.084574" y="320.4" style="stroke: #000000; stroke-width: 0.6"/>
      </g>
     </g>
    </g>
    <g id="xtick_42">
     <g id="line2d_42">
      <g>
       <use xlink:href="#m96b4f9b340" x="377.541938" y="320.4" style="stroke: #000000; stroke-width: 0.6"/>
      </g>
     </g>
    </g>
    <g id="xtick_43">
     <g id="line2d_43">
      <g>
       <use xlink:href="#m96b4f9b340" x="394.456667" y="320.4" style="stroke: #000000; stroke-width: 0.6"/>
      </g>
     </g>
    </g>
    <g id="xtick_44">
     <g id="line2d_44">
      <g>
       <use xlink:href="#m96b4f9b340" x="402.914032" y="320.4" style="stroke: #000000; stroke-width: 0.6"/>
      </g>
     </g>
    </g>
    <g id="xtick_45">
     <g id="line2d_45">
      <g>
       <use xlink:href="#m96b4f9b340" x="411.371397" y="320.4" style="stroke: #000000; stroke-width: 0.6"/>
      </g>
     </g>
    </g>
    <g id="xtick_46">
     <g id="line2d_46">
      <g>
       <use xlink:href="#m96b4f9b340" x="428.286126" y="320.4" style="stroke: #000000; stroke-width: 0.6"/>
      </g>
     </g>
    </g>
    <g id="xtick_47">
     <g id="line2d_47">
      <g>
       <use xlink:href="#m96b4f9b340" x="436.74349" y="320.4" style="stroke: #000000; stroke-width: 0.6"/>
      </g>
     </g>
    </g>
    <g id="xtick_48">
     <g id="line2d_48">
      <g>
       <use xlink:href="#m96b4f9b340" x="445.200855" y="320.4" style="stroke: #000000; stroke-width: 0.6"/>
      </g>
     </g>
    </g>
    <g id="xtick_49">
     <g id="line2d_49">
      <g>
       <use xlink:href="#m96b4f9b340" x="462.115584" y="320.4" style="stroke: #000000; stroke-width: 0.6"/>
      </g>
     </g>
    </g>
    <g id="xtick_50">
     <g id="line2d_50">
      <g>
       <use xlink:href="#m96b4f9b340" x="470.572949" y="320.4" style="stroke: #000000; stroke-width: 0.6"/>
      </g>
     </g>
    </g>
    <g id="xtick_51">
     <g id="line2d_51">
      <g>
       <use xlink:href="#m96b4f9b340" x="479.030313" y="320.4" style="stroke: #000000; stroke-width: 0.6"/>
      </g>
     </g>
    </g>
    <g id="xtick_52">
     <g id="line2d_52">
      <g>
       <use xlink:href="#m96b4f9b340" x="495.945042" y="320.4" style="stroke: #000000; stroke-width: 0.6"/>
      </g>
     </g>
    </g>
    <g id="xtick_53">
     <g id="line2d_53">
      <g>
       <use xlink:href="#m96b4f9b340" x="504.402407" y="320.4" style="stroke: #000000; stroke-width: 0.6"/>
      </g>
     </g>
    </g>
    <g id="xtick_54">
     <g id="line2d_54">
      <g>
       <use xlink:href="#m96b4f9b340" x="512.859771" y="320.4" style="stroke: #000000; stroke-width: 0.6"/>
      </g>
     </g>
    </g>
    <g id="xtick_55">
     <g id="line2d_55">
      <g>
       <use xlink:href="#m96b4f9b340" x="529.774501" y="320.4" style="stroke: #000000; stroke-width: 0.6"/>
      </g>
     </g>
    </g>
    <g id="xtick_56">
     <g id="line2d_56">
      <g>
       <use xlink:href="#m96b4f9b340" x="538.231865" y="320.4" style="stroke: #000000; stroke-width: 0.6"/>
      </g>
     </g>
    </g>
    <g id="xtick_57">
     <g id="line2d_57">
      <g>
       <use xlink:href="#m96b4f9b340" x="546.68923" y="320.4" style="stroke: #000000; stroke-width: 0.6"/>
      </g>
     </g>
    </g>
    <g id="xtick_58">
     <g id="line2d_58">
      <g>
       <use xlink:href="#m96b4f9b340" x="563.603959" y="320.4" style="stroke: #000000; stroke-width: 0.6"/>
      </g>
     </g>
    </g>
    <g id="xtick_59">
     <g id="line2d_59">
      <g>
       <use xlink:href="#m96b4f9b340" x="572.061323" y="320.4" style="stroke: #000000; stroke-width: 0.6"/>
      </g>
     </g>
    </g>
    <g id="xtick_60">
     <g id="line2d_60">
      <g>
       <use xlink:href="#m96b4f9b340" x="580.518688" y="320.4" style="stroke: #000000; stroke-width: 0.6"/>
      </g>
     </g>
    </g>
    <g id="xtick_61">
     <g id="line2d_61">
      <g>
       <use xlink:href="#m96b4f9b340" x="597.433417" y="320.4" style="stroke: #000000; stroke-width: 0.6"/>
      </g>
     </g>
    </g>
    <g id="xtick_62">
     <g id="line2d_62">
      <g>
       <use xlink:href="#m96b4f9b340" x="605.890782" y="320.4" style="stroke: #000000; stroke-width: 0.6"/>
      </g>
     </g>
    </g>
    <g id="xtick_63">
     <g id="line2d_63">
      <g>
       <use xlink:href="#m96b4f9b340" x="614.348146" y="320.4" style="stroke: #000000; stroke-width: 0.6"/>
      </g>
     </g>
    </g>
    <g id="xtick_64">
     <g id="line2d_64">
      <g>
       <use xlink:href="#m96b4f9b340" x="631.262876" y="320.4" style="stroke: #000000; stroke-width: 0.6"/>
      </g>
     </g>
    </g>
    <g id="xtick_65">
     <g id="line2d_65">
      <g>
       <use xlink:href="#m96b4f9b340" x="639.72024" y="320.4" style="stroke: #000000; stroke-width: 0.6"/>
      </g>
     </g>
    </g>
    <g id="text_17">
     <!-- Simulation Iterations -->
     <g transform="translate(316.964844 345.176562)scale(0.1 -0.1)">
      <defs>
       <path id="DejaVuSans-53" d="M 3425 4513 
L 3425 3897 
Q 3066 4069 2747 4153 
Q 2428 4238 2131 4238 
Q 1616 4238 1336 4038 
Q 1056 3838 1056 3469 
Q 1056 3159 1242 3001 
Q 1428 2844 1947 2747 
L 2328 2669 
Q 3034 2534 3370 2195 
Q 3706 1856 3706 1288 
Q 3706 609 3251 259 
Q 2797 -91 1919 -91 
Q 1588 -91 1214 -16 
Q 841 59 441 206 
L 441 856 
Q 825 641 1194 531 
Q 1563 422 1919 422 
Q 2459 422 2753 634 
Q 3047 847 3047 1241 
Q 3047 1584 2836 1778 
Q 2625 1972 2144 2069 
L 1759 2144 
Q 1053 2284 737 2584 
Q 422 2884 422 3419 
Q 422 4038 858 4394 
Q 1294 4750 2059 4750 
Q 2388 4750 2728 4690 
Q 3069 4631 3425 4513 
z
" transform="scale(0.015625)"/>
       <path id="DejaVuSans-69" d="M 603 3500 
L 1178 3500 
L 1178 0 
L 603 0 
L 603 3500 
z
M 603 4863 
L 1178 4863 
L 1178 4134 
L 603 4134 
L 603 4863 
z
" transform="scale(0.015625)"/>
       <path id="DejaVuSans-6d" d="M 3328 2828 
Q 3544 3216 3844 3400 
Q 4144 3584 4550 3584 
Q 5097 3584 5394 3201 
Q 5691 2819 5691 2113 
L 5691 0 
L 5113 0 
L 5113 2094 
Q 5113 2597 4934 2840 
Q 4756 3084 4391 3084 
Q 3944 3084 3684 2787 
Q 3425 2491 3425 1978 
L 3425 0 
L 2847 0 
L 2847 2094 
Q 2847 2600 2669 2842 
Q 2491 3084 2119 3084 
Q 1678 3084 1418 2786 
Q 1159 2488 1159 1978 
L 1159 0 
L 581 0 
L 581 3500 
L 1159 3500 
L 1159 2956 
Q 1356 3278 1631 3431 
Q 1906 3584 2284 3584 
Q 2666 3584 2933 3390 
Q 3200 3197 3328 2828 
z
" transform="scale(0.015625)"/>
       <path id="DejaVuSans-75" d="M 544 1381 
L 544 3500 
L 1119 3500 
L 1119 1403 
Q 1119 906 1312 657 
Q 1506 409 1894 409 
Q 2359 409 2629 706 
Q 2900 1003 2900 1516 
L 2900 3500 
L 3475 3500 
L 3475 0 
L 2900 0 
L 2900 538 
Q 2691 219 2414 64 
Q 2138 -91 1772 -91 
Q 1169 -91 856 284 
Q 544 659 544 1381 
z
M 1991 3584 
L 1991 3584 
z
" transform="scale(0.015625)"/>
       <path id="DejaVuSans-6c" d="M 603 4863 
L 1178 4863 
L 1178 0 
L 603 0 
L 603 4863 
z
" transform="scale(0.015625)"/>
       <path id="DejaVuSans-61" d="M 2194 1759 
Q 1497 1759 1228 1600 
Q 959 1441 959 1056 
Q 959 750 1161 570 
Q 1363 391 1709 391 
Q 2188 391 2477 730 
Q 2766 1069 2766 1631 
L 2766 1759 
L 2194 1759 
z
M 3341 1997 
L 3341 0 
L 2766 0 
L 2766 531 
Q 2569 213 2275 61 
Q 1981 -91 1556 -91 
Q 1019 -91 701 211 
Q 384 513 384 1019 
Q 384 1609 779 1909 
Q 1175 2209 1959 2209 
L 2766 2209 
L 2766 2266 
Q 2766 2663 2505 2880 
Q 2244 3097 1772 3097 
Q 1472 3097 1187 3025 
Q 903 2953 641 2809 
L 641 3341 
Q 956 3463 1253 3523 
Q 1550 3584 1831 3584 
Q 2591 3584 2966 3190 
Q 3341 2797 3341 1997 
z
" transform="scale(0.015625)"/>
       <path id="DejaVuSans-74" d="M 1172 4494 
L 1172 3500 
L 2356 3500 
L 2356 3053 
L 1172 3053 
L 1172 1153 
Q 1172 725 1289 603 
Q 1406 481 1766 481 
L 2356 481 
L 2356 0 
L 1766 0 
Q 1100 0 847 248 
Q 594 497 594 1153 
L 594 3053 
L 172 3053 
L 172 3500 
L 594 3500 
L 594 4494 
L 1172 4494 
z
" transform="scale(0.015625)"/>
       <path id="DejaVuSans-6f" d="M 1959 3097 
Q 1497 3097 1228 2736 
Q 959 2375 959 1747 
Q 959 1119 1226 758 
Q 1494 397 1959 397 
Q 2419 397 2687 759 
Q 2956 1122 2956 1747 
Q 2956 2369 2687 2733 
Q 2419 3097 1959 3097 
z
M 1959 3584 
Q 2709 3584 3137 3096 
Q 3566 2609 3566 1747 
Q 3566 888 3137 398 
Q 2709 -91 1959 -91 
Q 1206 -91 779 398 
Q 353 888 353 1747 
Q 353 2609 779 3096 
Q 1206 3584 1959 3584 
z
" transform="scale(0.015625)"/>
       <path id="DejaVuSans-6e" d="M 3513 2113 
L 3513 0 
L 2938 0 
L 2938 2094 
Q 2938 2591 2744 2837 
Q 2550 3084 2163 3084 
Q 1697 3084 1428 2787 
Q 1159 2491 1159 1978 
L 1159 0 
L 581 0 
L 581 3500 
L 1159 3500 
L 1159 2956 
Q 1366 3272 1645 3428 
Q 1925 3584 2291 3584 
Q 2894 3584 3203 3211 
Q 3513 2838 3513 2113 
z
" transform="scale(0.015625)"/>
       <path id="DejaVuSans-20" transform="scale(0.015625)"/>
       <path id="DejaVuSans-49" d="M 628 4666 
L 1259 4666 
L 1259 0 
L 628 0 
L 628 4666 
z
" transform="scale(0.015625)"/>
       <path id="DejaVuSans-65" d="M 3597 1894 
L 3597 1613 
L 953 1613 
Q 991 1019 1311 708 
Q 1631 397 2203 397 
Q 2534 397 2845 478 
Q 3156 559 3463 722 
L 3463 178 
Q 3153 47 2828 -22 
Q 2503 -91 2169 -91 
Q 1331 -91 842 396 
Q 353 884 353 1716 
Q 353 2575 817 3079 
Q 1281 3584 2069 3584 
Q 2775 3584 3186 3129 
Q 3597 2675 3597 1894 
z
M 3022 2063 
Q 3016 2534 2758 2815 
Q 2500 3097 2075 3097 
Q 1594 3097 1305 2825 
Q 1016 2553 972 2059 
L 3022 2063 
z
" transform="scale(0.015625)"/>
       <path id="DejaVuSans-72" d="M 2631 2963 
Q 2534 3019 2420 3045 
Q 2306 3072 2169 3072 
Q 1681 3072 1420 2755 
Q 1159 2438 1159 1844 
L 1159 0 
L 581 0 
L 581 3500 
L 1159 3500 
L 1159 2956 
Q 1341 3275 1631 3429 
Q 1922 3584 2338 3584 
Q 2397 3584 2469 3576 
Q 2541 3569 2628 3553 
L 2631 2963 
z
" transform="scale(0.015625)"/>
       <path id="DejaVuSans-73" d="M 2834 3397 
L 2834 2853 
Q 2591 2978 2328 3040 
Q 2066 3103 1784 3103 
Q 1356 3103 1142 2972 
Q 928 2841 928 2578 
Q 928 2378 1081 2264 
Q 1234 2150 1697 2047 
L 1894 2003 
Q 2506 1872 2764 1633 
Q 3022 1394 3022 966 
Q 3022 478 2636 193 
Q 2250 -91 1575 -91 
Q 1294 -91 989 -36 
Q 684 19 347 128 
L 347 722 
Q 666 556 975 473 
Q 1284 391 1588 391 
Q 1994 391 2212 530 
Q 2431 669 2431 922 
Q 2431 1156 2273 1281 
Q 2116 1406 1581 1522 
L 1381 1569 
Q 847 1681 609 1914 
Q 372 2147 372 2553 
Q 372 3047 722 3315 
Q 1072 3584 1716 3584 
Q 2034 3584 2315 3537 
Q 2597 3491 2834 3397 
z
" transform="scale(0.015625)"/>
      </defs>
      <use xlink:href="#DejaVuSans-53"/>
      <use xlink:href="#DejaVuSans-69" x="63.476562"/>
      <use xlink:href="#DejaVuSans-6d" x="91.259766"/>
      <use xlink:href="#DejaVuSans-75" x="188.671875"/>
      <use xlink:href="#DejaVuSans-6c" x="252.050781"/>
      <use xlink:href="#DejaVuSans-61" x="279.833984"/>
      <use xlink:href="#DejaVuSans-74" x="341.113281"/>
      <use xlink:href="#DejaVuSans-69" x="380.322266"/>
      <use xlink:href="#DejaVuSans-6f" x="408.105469"/>
      <use xlink:href="#DejaVuSans-6e" x="469.287109"/>
      <use xlink:href="#DejaVuSans-20" x="532.666016"/>
      <use xlink:href="#DejaVuSans-49" x="564.453125"/>
      <use xlink:href="#DejaVuSans-74" x="593.945312"/>
      <use xlink:href="#DejaVuSans-65" x="633.154297"/>
      <use xlink:href="#DejaVuSans-72" x="694.677734"/>
      <use xlink:href="#DejaVuSans-61" x="735.791016"/>
      <use xlink:href="#DejaVuSans-74" x="797.070312"/>
      <use xlink:href="#DejaVuSans-69" x="836.279297"/>
      <use xlink:href="#DejaVuSans-6f" x="864.0625"/>
      <use xlink:href="#DejaVuSans-6e" x="925.244141"/>
      <use xlink:href="#DejaVuSans-73" x="988.623047"/>
     </g>
    </g>
   </g>
   <g id="matplotlib.axis_2">
    <g id="ytick_1">
     <g id="line2d_66">
      <defs>
       <path id="ma7379761c3" d="M 0 0 
L 10 0 
" style="stroke: #000000; stroke-width: 0.8"/>
      </defs>
      <g>
       <use xlink:href="#ma7379761c3" x="90" y="307.8" style="stroke: #000000; stroke-width: 0.8"/>
      </g>
     </g>
     <g id="text_18">
      <!-- 0% -->
      <g transform="translate(70.635937 311.599219)scale(0.1 -0.1)">
       <defs>
        <path id="DejaVuSans-25" d="M 4653 2053 
Q 4381 2053 4226 1822 
Q 4072 1591 4072 1178 
Q 4072 772 4226 539 
Q 4381 306 4653 306 
Q 4919 306 5073 539 
Q 5228 772 5228 1178 
Q 5228 1588 5073 1820 
Q 4919 2053 4653 2053 
z
M 4653 2450 
Q 5147 2450 5437 2106 
Q 5728 1763 5728 1178 
Q 5728 594 5436 251 
Q 5144 -91 4653 -91 
Q 4153 -91 3862 251 
Q 3572 594 3572 1178 
Q 3572 1766 3864 2108 
Q 4156 2450 4653 2450 
z
M 1428 4353 
Q 1159 4353 1004 4120 
Q 850 3888 850 3481 
Q 850 3069 1003 2837 
Q 1156 2606 1428 2606 
Q 1700 2606 1854 2837 
Q 2009 3069 2009 3481 
Q 2009 3884 1853 4118 
Q 1697 4353 1428 4353 
z
M 4250 4750 
L 4750 4750 
L 1831 -91 
L 1331 -91 
L 4250 4750 
z
M 1428 4750 
Q 1922 4750 2215 4408 
Q 2509 4066 2509 3481 
Q 2509 2891 2217 2550 
Q 1925 2209 1428 2209 
Q 931 2209 642 2551 
Q 353 2894 353 3481 
Q 353 4063 643 4406 
Q 934 4750 1428 4750 
z
" transform="scale(0.015625)"/>
       </defs>
       <use xlink:href="#DejaVuSans-30"/>
       <use xlink:href="#DejaVuSans-25" x="63.623047"/>
      </g>
     </g>
    </g>
    <g id="ytick_2">
     <g id="line2d_67">
      <g>
       <use xlink:href="#ma7379761c3" x="90" y="257.714526" style="stroke: #000000; stroke-width: 0.8"/>
      </g>
     </g>
     <g id="text_19">
      <!-- 20% -->
      <g transform="translate(64.273438 261.513745)scale(0.1 -0.1)">
       <use xlink:href="#DejaVuSans-32"/>
       <use xlink:href="#DejaVuSans-30" x="63.623047"/>
       <use xlink:href="#DejaVuSans-25" x="127.246094"/>
      </g>
     </g>
    </g>
    <g id="ytick_3">
     <g id="line2d_68">
      <g>
       <use xlink:href="#ma7379761c3" x="90" y="207.629053" style="stroke: #000000; stroke-width: 0.8"/>
      </g>
     </g>
     <g id="text_20">
      <!-- 40% -->
      <g transform="translate(64.273438 211.428271)scale(0.1 -0.1)">
       <use xlink:href="#DejaVuSans-34"/>
       <use xlink:href="#DejaVuSans-30" x="63.623047"/>
       <use xlink:href="#DejaVuSans-25" x="127.246094"/>
      </g>
     </g>
    </g>
    <g id="ytick_4">
     <g id="line2d_69">
      <g>
       <use xlink:href="#ma7379761c3" x="90" y="157.543579" style="stroke: #000000; stroke-width: 0.8"/>
      </g>
     </g>
     <g id="text_21">
      <!-- 60% -->
      <g transform="translate(64.273438 161.342798)scale(0.1 -0.1)">
       <use xlink:href="#DejaVuSans-36"/>
       <use xlink:href="#DejaVuSans-30" x="63.623047"/>
       <use xlink:href="#DejaVuSans-25" x="127.246094"/>
      </g>
     </g>
    </g>
    <g id="ytick_5">
     <g id="line2d_70">
      <g>
       <use xlink:href="#ma7379761c3" x="90" y="107.458105" style="stroke: #000000; stroke-width: 0.8"/>
      </g>
     </g>
     <g id="text_22">
      <!-- 80% -->
      <g transform="translate(64.273438 111.257324)scale(0.1 -0.1)">
       <use xlink:href="#DejaVuSans-38"/>
       <use xlink:href="#DejaVuSans-30" x="63.623047"/>
       <use xlink:href="#DejaVuSans-25" x="127.246094"/>
      </g>
     </g>
    </g>
    <g id="ytick_6">
     <g id="line2d_71">
      <g>
       <use xlink:href="#ma7379761c3" x="90" y="57.372632" style="stroke: #000000; stroke-width: 0.8"/>
      </g>
     </g>
     <g id="text_23">
      <!-- 100% -->
      <g transform="translate(57.910938 61.17185)scale(0.1 -0.1)">
       <use xlink:href="#DejaVuSans-31"/>
       <use xlink:href="#DejaVuSans-30" x="63.623047"/>
       <use xlink:href="#DejaVuSans-30" x="127.246094"/>
       <use xlink:href="#DejaVuSans-25" x="190.869141"/>
      </g>
     </g>
    </g>
    <g id="ytick_7">
     <g id="line2d_72">
      <defs>
       <path id="m14a4cb69a9" d="M 0 0 
L 5 0 
" style="stroke: #000000; stroke-width: 0.6"/>
      </defs>
      <g>
       <use xlink:href="#m14a4cb69a9" x="90" y="320.321368" style="stroke: #000000; stroke-width: 0.6"/>
      </g>
     </g>
    </g>
    <g id="ytick_8">
     <g id="line2d_73">
      <g>
       <use xlink:href="#m14a4cb69a9" x="90" y="295.278632" style="stroke: #000000; stroke-width: 0.6"/>
      </g>
     </g>
    </g>
    <g id="ytick_9">
     <g id="line2d_74">
      <g>
       <use xlink:href="#m14a4cb69a9" x="90" y="282.757263" style="stroke: #000000; stroke-width: 0.6"/>
      </g>
     </g>
    </g>
    <g id="ytick_10">
     <g id="line2d_75">
      <g>
       <use xlink:href="#m14a4cb69a9" x="90" y="270.235895" style="stroke: #000000; stroke-width: 0.6"/>
      </g>
     </g>
    </g>
    <g id="ytick_11">
     <g id="line2d_76">
      <g>
       <use xlink:href="#m14a4cb69a9" x="90" y="245.193158" style="stroke: #000000; stroke-width: 0.6"/>
      </g>
     </g>
    </g>
    <g id="ytick_12">
     <g id="line2d_77">
      <g>
       <use xlink:href="#m14a4cb69a9" x="90" y="232.671789" style="stroke: #000000; stroke-width: 0.6"/>
      </g>
     </g>
    </g>
    <g id="ytick_13">
     <g id="line2d_78">
      <g>
       <use xlink:href="#m14a4cb69a9" x="90" y="220.150421" style="stroke: #000000; stroke-width: 0.6"/>
      </g>
     </g>
    </g>
    <g id="ytick_14">
     <g id="line2d_79">
      <g>
       <use xlink:href="#m14a4cb69a9" x="90" y="195.107684" style="stroke: #000000; stroke-width: 0.6"/>
      </g>
     </g>
    </g>
    <g id="ytick_15">
     <g id="line2d_80">
      <g>
       <use xlink:href="#m14a4cb69a9" x="90" y="182.586316" style="stroke: #000000; stroke-width: 0.6"/>
      </g>
     </g>
    </g>
    <g id="ytick_16">
     <g id="line2d_81">
      <g>
       <use xlink:href="#m14a4cb69a9" x="90" y="170.064947" style="stroke: #000000; stroke-width: 0.6"/>
      </g>
     </g>
    </g>
    <g id="ytick_17">
     <g id="line2d_82">
      <g>
       <use xlink:href="#m14a4cb69a9" x="90" y="145.022211" style="stroke: #000000; stroke-width: 0.6"/>
      </g>
     </g>
    </g>
    <g id="ytick_18">
     <g id="line2d_83">
      <g>
       <use xlink:href="#m14a4cb69a9" x="90" y="132.500842" style="stroke: #000000; stroke-width: 0.6"/>
      </g>
     </g>
    </g>
    <g id="ytick_19">
     <g id="line2d_84">
      <g>
       <use xlink:href="#m14a4cb69a9" x="90" y="119.979474" style="stroke: #000000; stroke-width: 0.6"/>
      </g>
     </g>
    </g>
    <g id="ytick_20">
     <g id="line2d_85">
      <g>
       <use xlink:href="#m14a4cb69a9" x="90" y="94.936737" style="stroke: #000000; stroke-width: 0.6"/>
      </g>
     </g>
    </g>
    <g id="ytick_21">
     <g id="line2d_86">
      <g>
       <use xlink:href="#m14a4cb69a9" x="90" y="82.415368" style="stroke: #000000; stroke-width: 0.6"/>
      </g>
     </g>
    </g>
    <g id="ytick_22">
     <g id="line2d_87">
      <g>
       <use xlink:href="#m14a4cb69a9" x="90" y="69.894" style="stroke: #000000; stroke-width: 0.6"/>
      </g>
     </g>
    </g>
    <g id="ytick_23">
     <g id="line2d_88">
      <g>
       <use xlink:href="#m14a4cb69a9" x="90" y="44.851263" style="stroke: #000000; stroke-width: 0.6"/>
      </g>
     </g>
    </g>
    <g id="text_24">
     <!-- Total Accuracy [%] -->
     <g transform="translate(51.83125 228.135156)rotate(-90)scale(0.1 -0.1)">
      <defs>
       <path id="DejaVuSans-54" d="M -19 4666 
L 3928 4666 
L 3928 4134 
L 2272 4134 
L 2272 0 
L 1638 0 
L 1638 4134 
L -19 4134 
L -19 4666 
z
" transform="scale(0.015625)"/>
       <path id="DejaVuSans-41" d="M 2188 4044 
L 1331 1722 
L 3047 1722 
L 2188 4044 
z
M 1831 4666 
L 2547 4666 
L 4325 0 
L 3669 0 
L 3244 1197 
L 1141 1197 
L 716 0 
L 50 0 
L 1831 4666 
z
" transform="scale(0.015625)"/>
       <path id="DejaVuSans-63" d="M 3122 3366 
L 3122 2828 
Q 2878 2963 2633 3030 
Q 2388 3097 2138 3097 
Q 1578 3097 1268 2742 
Q 959 2388 959 1747 
Q 959 1106 1268 751 
Q 1578 397 2138 397 
Q 2388 397 2633 464 
Q 2878 531 3122 666 
L 3122 134 
Q 2881 22 2623 -34 
Q 2366 -91 2075 -91 
Q 1284 -91 818 406 
Q 353 903 353 1747 
Q 353 2603 823 3093 
Q 1294 3584 2113 3584 
Q 2378 3584 2631 3529 
Q 2884 3475 3122 3366 
z
" transform="scale(0.015625)"/>
       <path id="DejaVuSans-79" d="M 2059 -325 
Q 1816 -950 1584 -1140 
Q 1353 -1331 966 -1331 
L 506 -1331 
L 506 -850 
L 844 -850 
Q 1081 -850 1212 -737 
Q 1344 -625 1503 -206 
L 1606 56 
L 191 3500 
L 800 3500 
L 1894 763 
L 2988 3500 
L 3597 3500 
L 2059 -325 
z
" transform="scale(0.015625)"/>
       <path id="DejaVuSans-5b" d="M 550 4863 
L 1875 4863 
L 1875 4416 
L 1125 4416 
L 1125 -397 
L 1875 -397 
L 1875 -844 
L 550 -844 
L 550 4863 
z
" transform="scale(0.015625)"/>
       <path id="DejaVuSans-5d" d="M 1947 4863 
L 1947 -844 
L 622 -844 
L 622 -397 
L 1369 -397 
L 1369 4416 
L 622 4416 
L 622 4863 
L 1947 4863 
z
" transform="scale(0.015625)"/>
      </defs>
      <use xlink:href="#DejaVuSans-54"/>
      <use xlink:href="#DejaVuSans-6f" x="44.083984"/>
      <use xlink:href="#DejaVuSans-74" x="105.265625"/>
      <use xlink:href="#DejaVuSans-61" x="144.474609"/>
      <use xlink:href="#DejaVuSans-6c" x="205.753906"/>
      <use xlink:href="#DejaVuSans-20" x="233.537109"/>
      <use xlink:href="#DejaVuSans-41" x="265.324219"/>
      <use xlink:href="#DejaVuSans-63" x="331.982422"/>
      <use xlink:href="#DejaVuSans-63" x="386.962891"/>
      <use xlink:href="#DejaVuSans-75" x="441.943359"/>
      <use xlink:href="#DejaVuSans-72" x="505.322266"/>
      <use xlink:href="#DejaVuSans-61" x="546.435547"/>
      <use xlink:href="#DejaVuSans-63" x="607.714844"/>
      <use xlink:href="#DejaVuSans-79" x="662.695312"/>
      <use xlink:href="#DejaVuSans-20" x="721.875"/>
      <use xlink:href="#DejaVuSans-5b" x="753.662109"/>
      <use xlink:href="#DejaVuSans-25" x="792.675781"/>
      <use xlink:href="#DejaVuSans-5d" x="887.695312"/>
     </g>
    </g>
   </g>
   <g id="line2d_89">
    <path d="M 115.363636 307.8 
L 117.065894 286.735928 
L 118.768151 261.394328 
L 120.470409 245.315272 
L 122.172666 238.495189 
L 123.874924 251.428987 
L 125.577181 243.072947 
L 127.279439 226.289897 
L 128.981696 231.088506 
L 130.683954 239.624993 
L 132.386211 234.560548 
L 134.088469 209.819134 
L 135.790726 207.281997 
L 137.492984 225.617815 
L 139.195241 217.138101 
L 140.897498 224.333742 
L 142.599756 228.501915 
L 144.302013 211.69119 
L 146.004271 220.331828 
L 147.706528 215.224622 
L 149.408786 216.820227 
L 151.111043 201.717919 
L 152.813301 203.417376 
L 154.515558 203.878307 
L 156.217816 197.946629 
L 157.920073 201.221671 
L 159.622331 199.696876 
L 161.324588 199.135563 
L 163.026846 203.053237 
L 164.729103 194.948892 
L 166.431361 198.821192 
L 168.133618 211.94595 
L 169.835876 207.789916 
L 171.538133 207.428727 
L 173.24039 206.862508 
L 174.942648 198.054084 
L 176.644905 194.151262 
L 178.347163 203.340474 
L 180.04942 198.510101 
L 181.751678 207.390307 
L 183.453935 199.612669 
L 185.156193 215.530263 
L 186.85845 224.754884 
L 188.560708 231.925094 
L 190.262965 220.298757 
L 191.965223 207.886132 
L 193.66748 219.857152 
L 195.369738 215.968444 
L 197.071995 220.057063 
L 198.774253 220.275708 
L 200.47651 214.679364 
L 202.178768 201.497508 
L 203.881025 219.239809 
L 205.583282 218.984337 
L 208.987797 205.580836 
L 210.690055 212.171907 
L 212.392312 210.27365 
L 214.09457 202.235333 
L 215.796827 207.547743 
L 217.499085 211.668387 
L 219.201342 203.239193 
L 220.9036 203.339532 
L 222.605857 211.754062 
L 224.308115 203.67895 
L 226.010372 202.786529 
L 227.71263 203.611928 
L 229.414887 199.865655 
L 231.117145 205.091801 
L 232.819402 208.333892 
L 234.52166 207.555602 
L 236.223917 205.807734 
L 237.926174 202.921828 
L 239.628432 202.241841 
L 241.330689 199.144342 
L 243.032947 203.652349 
L 244.735204 199.567 
L 246.437462 186.892956 
L 248.139719 178.439079 
L 249.841977 195.102758 
L 251.544234 203.586015 
L 253.246492 181.908719 
L 254.948749 182.448113 
L 258.353264 182.928546 
L 260.055522 177.766464 
L 261.757779 184.702041 
L 263.460037 180.788962 
L 265.162294 190.999756 
L 266.864552 174.600018 
L 268.566809 171.704395 
L 270.269067 190.20882 
L 271.971324 186.761954 
L 273.673581 186.456622 
L 275.375839 186.80262 
L 277.078096 186.713612 
L 278.780354 195.452292 
L 280.482611 212.149451 
L 282.184869 213.643624 
L 283.887126 190.708008 
L 285.589384 199.52517 
L 287.291641 198.771562 
L 290.696156 182.265693 
L 292.398414 190.547483 
L 294.100671 190.870183 
L 295.802929 186.940776 
L 297.505186 194.577066 
L 299.207444 207.574244 
L 300.909701 199.698325 
L 302.611959 186.829792 
L 304.314216 190.806212 
L 306.016473 195.669092 
L 307.718731 207.238537 
L 309.420988 191.286115 
L 311.123246 198.851333 
L 312.825503 170.902222 
L 314.527761 178.942938 
L 316.230018 185.044203 
L 317.932276 184.71555 
L 319.634533 195.272162 
L 321.336791 193.441993 
L 323.039048 186.699179 
L 324.741306 178.060971 
L 326.443563 186.706478 
L 328.145821 174.02673 
L 329.848078 174.083338 
L 331.550336 178.655117 
L 333.252593 157.480646 
L 334.954851 167.058979 
L 336.657108 169.004369 
L 338.359365 179.983846 
L 340.061623 178.585134 
L 341.76388 176.271406 
L 343.466138 177.913048 
L 345.168395 182.384378 
L 346.870653 178.563971 
L 348.57291 172.338606 
L 350.275168 174.451652 
L 351.977425 170.456293 
L 353.679683 169.985222 
L 355.38194 178.363957 
L 357.084198 178.560978 
L 358.786455 186.219608 
L 360.488713 186.900566 
L 362.19097 182.01128 
L 363.893228 181.115694 
L 365.595485 182.259755 
L 367.297743 186.384464 
L 369 182.566292 
L 370.702257 183.034096 
L 372.404515 188.389827 
L 374.106772 178.873289 
L 375.80903 182.912595 
L 377.511287 182.589335 
L 380.915802 174.387597 
L 384.320317 182.585421 
L 386.022575 182.584034 
L 387.724832 178.37227 
L 389.42709 188.8867 
L 391.129347 177.819252 
L 392.831605 178.2306 
L 394.533862 178.43928 
L 396.23612 177.996228 
L 397.938377 174.32667 
L 399.640635 170.310619 
L 401.342892 186.613918 
L 403.045149 177.659401 
L 404.747407 178.288759 
L 406.449664 170.275875 
L 408.151922 166.023533 
L 409.854179 165.83501 
L 411.556437 170.069824 
L 413.258694 165.11238 
L 414.960952 161.751965 
L 416.663209 161.16378 
L 418.365467 151.375781 
L 420.067724 148.653718 
L 421.769982 142.791202 
L 423.472239 140.410334 
L 425.174497 148.066601 
L 426.876754 145.000725 
L 428.579012 158.147681 
L 430.281269 153.03996 
L 431.983527 149.716687 
L 433.685784 149.02395 
L 437.090299 157.54006 
L 438.792556 165.457871 
L 440.494814 152.183225 
L 442.197071 153.483338 
L 443.899329 165.021517 
L 445.601586 163.496533 
L 447.303844 161.717353 
L 449.006101 161.714676 
L 450.708359 163.381315 
L 454.112874 168.438368 
L 455.815131 170.010013 
L 457.517389 170.064788 
L 459.219646 173.892927 
L 460.921904 170.067344 
L 462.624161 174.238744 
L 469.433191 174.23883 
L 471.135448 165.416867 
L 472.837706 163.931336 
L 474.539963 161.708837 
L 476.242221 164.169633 
L 477.944478 165.44001 
L 479.646736 161.363122 
L 481.348993 165.522971 
L 483.051251 162.47597 
L 484.753508 166.339524 
L 486.455766 165.563512 
L 488.158023 170.065029 
L 491.562538 161.773475 
L 494.967053 161.69975 
L 496.669311 171.023906 
L 498.371568 174.238258 
L 500.073826 177.784108 
L 501.776083 174.159397 
L 503.47834 177.665274 
L 505.180598 161.275146 
L 506.882855 167.948064 
L 508.585113 161.325729 
L 510.28737 173.03659 
L 511.989628 174.621606 
L 513.691885 178.12258 
L 515.394143 174.126191 
L 517.0964 165.990774 
L 518.798658 178.467807 
L 520.500915 178.348054 
L 522.203173 174.239899 
L 523.90543 170.566496 
L 525.607688 165.474861 
L 527.309945 165.412467 
L 529.012203 172.005108 
L 530.71446 187.244191 
L 532.416718 169.721642 
L 534.118975 182.860885 
L 535.821232 187.759805 
L 537.52349 195.068857 
L 539.225747 195.177419 
L 540.928005 199.355897 
L 542.630262 182.595326 
L 544.33252 182.586045 
L 546.034777 186.857235 
L 547.737035 194.692789 
L 549.439292 177.916507 
L 551.14155 174.431569 
L 552.843807 178.016057 
L 554.546065 173.93418 
L 556.248322 182.240485 
L 557.95058 186.690647 
L 559.652837 190.647619 
L 561.355095 197.715745 
L 563.057352 195.665792 
L 564.75961 195.219534 
L 566.461867 195.392226 
L 569.866382 178.402437 
L 571.568639 186.681012 
L 573.270897 187.011053 
L 574.973154 183.189457 
L 576.675412 182.495338 
L 578.377669 182.628434 
L 580.079927 180.860918 
L 581.782184 191.577311 
L 583.484442 192.881749 
L 585.186699 192.360462 
L 586.888957 186.742455 
L 588.591214 202.27082 
L 591.995729 195.494053 
L 595.400244 195.141923 
L 597.102502 182.702016 
L 598.804759 199.072708 
L 600.507016 190.750615 
L 602.209274 186.955651 
L 603.911531 182.575426 
L 605.613789 190.479122 
L 607.316046 192.664865 
L 609.018304 203.707319 
L 610.720561 199.281993 
L 612.422819 198.972214 
L 614.125076 203.454868 
L 615.827334 206.707425 
L 617.529591 204.055578 
L 619.231849 194.896869 
L 620.934106 203.444753 
L 622.636364 199.281474 
L 622.636364 199.281474 
" clip-path="url(#pb3db6106c0)" style="fill: none; stroke: #611f53; stroke-linecap: square"/>
   </g>
   <g id="line2d_90">
    <path d="M 90 188.42236 
L 648 188.42236 
" clip-path="url(#pb3db6106c0)" style="fill: none; stroke-dasharray: 3.7,1.6; stroke-dashoffset: 0; stroke: #611f53"/>
    <defs>
     <path id="maef563ca4a" d="M -3 3 
L 3 3 
L 3 -3 
L -3 -3 
z
" style="stroke: #611f53; stroke-linejoin: miter"/>
    </defs>
    <g clip-path="url(#pb3db6106c0)">
     <use xlink:href="#maef563ca4a" x="90" y="188.42236" style="fill: #611f53; stroke: #611f53; stroke-linejoin: miter"/>
     <use xlink:href="#maef563ca4a" x="648" y="188.42236" style="fill: #611f53; stroke: #611f53; stroke-linejoin: miter"/>
    </g>
   </g>
   <g id="line2d_91">
    <path d="M 115.363636 307.8 
L 117.065894 261.359754 
L 118.768151 232.719629 
L 120.470409 223.838515 
L 122.172666 241.408284 
L 123.874924 221.182584 
L 125.577181 221.783774 
L 127.279439 216.089467 
L 128.981696 207.151622 
L 130.683954 209.57796 
L 134.088469 194.435811 
L 135.790726 191.632102 
L 137.492984 190.918904 
L 139.195241 207.061898 
L 140.897498 186.750321 
L 142.599756 190.812079 
L 144.302013 195.227412 
L 146.004271 211.449388 
L 147.706528 224.152214 
L 149.408786 198.892877 
L 151.111043 220.419961 
L 152.813301 199.696051 
L 154.515558 206.64487 
L 156.217816 212.007611 
L 157.920073 190.308227 
L 159.622331 182.236367 
L 161.324588 195.891977 
L 163.026846 190.086701 
L 164.729103 196.852555 
L 166.431361 170.254664 
L 168.133618 174.322716 
L 169.835876 182.874119 
L 171.538133 178.442233 
L 173.24039 166.136647 
L 174.942648 177.064801 
L 176.644905 185.806248 
L 178.347163 172.180165 
L 180.04942 195.647913 
L 181.751678 200.334319 
L 183.453935 191.602211 
L 185.156193 192.178703 
L 186.85845 171.128531 
L 188.560708 166.894573 
L 190.262965 161.84693 
L 191.965223 157.483355 
L 195.369738 149.182654 
L 197.071995 149.373616 
L 198.774253 166.686218 
L 200.47651 172.890752 
L 202.178768 182.078339 
L 203.881025 179.657351 
L 205.583282 171.845255 
L 207.28554 160.639922 
L 210.690055 175.168658 
L 212.392312 188.861147 
L 214.09457 171.719964 
L 215.796827 190.625905 
L 217.499085 171.071473 
L 219.201342 166.031973 
L 220.9036 157.540984 
L 222.605857 170.125859 
L 224.308115 178.187499 
L 226.010372 193.824115 
L 227.71263 184.833946 
L 229.414887 184.492566 
L 231.117145 198.487959 
L 232.819402 190.535166 
L 234.52166 195.532024 
L 236.223917 175.943349 
L 237.926174 187.207838 
L 239.628432 177.287177 
L 243.032947 179.041727 
L 244.735204 183.779597 
L 246.437462 182.086618 
L 248.139719 162.072358 
L 249.841977 165.963848 
L 251.544234 161.607665 
L 253.246492 169.480136 
L 254.948749 137.627336 
L 256.651007 164.01627 
L 258.353264 167.278592 
L 260.055522 144.201223 
L 261.757779 165.416474 
L 263.460037 149.306092 
L 265.162294 159.38624 
L 268.566809 153.882526 
L 270.269067 160.839636 
L 271.971324 149.263543 
L 273.673581 148.691965 
L 275.375839 153.389665 
L 277.078096 145.096224 
L 278.780354 132.010233 
L 280.482611 137.496418 
L 282.184869 148.957637 
L 283.887126 143.833074 
L 285.589384 154.100856 
L 287.291641 150.727456 
L 288.993899 168.284566 
L 290.696156 174.490011 
L 292.398414 174.652585 
L 294.100671 192.250492 
L 295.802929 208.24513 
L 297.505186 199.472633 
L 299.207444 198.271817 
L 300.909701 211.825455 
L 302.611959 224.234 
L 304.314216 219.983466 
L 306.016473 203.104985 
L 307.718731 198.369322 
L 309.420988 198.080845 
L 311.123246 209.273198 
L 312.825503 200.16116 
L 314.527761 194.498101 
L 316.230018 181.883916 
L 319.634533 200.962645 
L 321.336791 204.724297 
L 323.039048 206.192784 
L 324.741306 196.428086 
L 326.443563 198.691403 
L 328.145821 215.909689 
L 329.848078 203.431119 
L 331.550336 220.3639 
L 333.252593 202.383335 
L 334.954851 227.420343 
L 336.657108 201.197004 
L 338.359365 189.915571 
L 340.061623 191.171782 
L 341.76388 202.185031 
L 343.466138 197.429132 
L 345.168395 216.047528 
L 346.870653 193.48075 
L 348.57291 192.667995 
L 350.275168 197.430659 
L 351.977425 220.131928 
L 353.679683 220.680648 
L 355.38194 199.344559 
L 357.084198 199.411597 
L 358.786455 211.366886 
L 360.488713 208.143688 
L 362.19097 170.812033 
L 363.893228 179.743644 
L 365.595485 174.05146 
L 367.297743 179.479814 
L 369 178.685302 
L 370.702257 182.147128 
L 372.404515 174.082903 
L 374.106772 187.602119 
L 375.80903 177.026648 
L 377.511287 183.277128 
L 379.213545 199.397035 
L 380.915802 187.060554 
L 382.61806 186.735798 
L 384.320317 149.063382 
L 386.022575 163.040444 
L 387.724832 175.787996 
L 389.42709 158.77871 
L 391.129347 150.110108 
L 392.831605 159.922825 
L 394.533862 173.330037 
L 396.23612 179.016315 
L 397.938377 176.018797 
L 399.640635 182.162332 
L 401.342892 183.518642 
L 403.045149 187.459263 
L 404.747407 195.718378 
L 406.449664 178.533824 
L 408.151922 178.254676 
L 409.854179 182.357585 
L 411.556437 145.002967 
L 413.258694 161.945757 
L 414.960952 170.690632 
L 416.663209 190.090316 
L 418.365467 189.501892 
L 420.067724 199.520288 
L 421.769982 186.421388 
L 423.472239 182.358983 
L 425.174497 177.293922 
L 426.876754 189.13478 
L 428.579012 193.225133 
L 430.281269 197.672364 
L 431.983527 178.327285 
L 433.685784 161.335098 
L 435.388041 178.352252 
L 437.090299 186.858464 
L 438.792556 177.811244 
L 440.494814 186.688567 
L 442.197071 169.345391 
L 443.899329 169.981399 
L 445.601586 176.024958 
L 447.303844 162.850534 
L 449.006101 160.386792 
L 450.708359 156.313781 
L 452.410616 164.972527 
L 454.112874 160.20605 
L 455.815131 171.135966 
L 457.517389 170.295331 
L 459.219646 153.232688 
L 460.921904 182.411686 
L 462.624161 186.797214 
L 464.326419 186.968147 
L 466.028676 203.477017 
L 467.730933 202.294436 
L 469.433191 188.587876 
L 471.135448 177.14671 
L 472.837706 176.130862 
L 474.539963 189.098027 
L 476.242221 197.348907 
L 477.944478 203.142919 
L 479.646736 189.888388 
L 481.348993 199.041089 
L 483.051251 217.315113 
L 484.753508 195.775363 
L 486.455766 195.637037 
L 488.158023 195.127074 
L 489.860281 182.783639 
L 491.562538 220.139661 
L 493.264796 182.241192 
L 494.967053 180.295969 
L 496.669311 183.165021 
L 498.371568 174.581623 
L 500.073826 177.470856 
L 501.776083 158.485269 
L 503.47834 173.969024 
L 505.180598 186.948421 
L 506.882855 187.952079 
L 508.585113 179.93183 
L 510.28737 182.491926 
L 511.989628 174.725086 
L 513.691885 183.46645 
L 515.394143 161.63902 
L 517.0964 182.803594 
L 518.798658 173.802427 
L 520.500915 179.138879 
L 522.203173 165.764953 
L 523.90543 183.150072 
L 525.607688 186.152066 
L 527.309945 189.408514 
L 529.012203 186.676589 
L 530.71446 159.493907 
L 532.416718 162.736507 
L 534.118975 161.975701 
L 535.821232 182.732915 
L 537.52349 183.979151 
L 539.225747 190.293031 
L 540.928005 191.007732 
L 542.630262 178.390639 
L 544.33252 178.380137 
L 546.034777 161.303138 
L 547.737035 170.632665 
L 549.439292 168.20967 
L 551.14155 160.369756 
L 552.843807 187.17102 
L 554.546065 184.820159 
L 556.248322 184.785993 
L 557.95058 180.210133 
L 559.652837 178.365593 
L 561.355095 179.07244 
L 563.057352 170.952257 
L 564.75961 166.821361 
L 566.461867 165.394769 
L 568.164124 169.936511 
L 569.866382 182.368908 
L 571.568639 144.468953 
L 573.270897 163.140796 
L 574.973154 156.858623 
L 576.675412 161.372899 
L 578.377669 160.177414 
L 580.079927 184.259785 
L 581.782184 178.747891 
L 583.484442 170.58875 
L 585.186699 191.35086 
L 586.888957 162.275736 
L 588.591214 148.726861 
L 590.293472 140.578197 
L 591.995729 153.916853 
L 593.697987 150.226917 
L 595.400244 153.424421 
L 597.102502 144.786209 
L 598.804759 149.614475 
L 600.507016 156.287032 
L 602.209274 169.544122 
L 603.911531 183.812471 
L 605.613789 179.608679 
L 607.316046 171.59414 
L 609.018304 157.765578 
L 610.720561 169.270479 
L 612.422819 172.396153 
L 614.125076 175.875029 
L 615.827334 194.774349 
L 617.529591 166.634081 
L 619.231849 174.386482 
L 620.934106 174.071093 
L 622.636364 170.064947 
L 622.636364 170.064947 
" clip-path="url(#pb3db6106c0)" style="fill: none; stroke: #cb1b4f; stroke-linecap: square"/>
   </g>
   <g id="line2d_92">
    <path d="M 90 181.637311 
L 648 181.637311 
" clip-path="url(#pb3db6106c0)" style="fill: none; stroke-dasharray: 3.7,1.6; stroke-dashoffset: 0; stroke: #cb1b4f"/>
    <defs>
     <path id="m15f63b75b1" d="M 0 3 
C 0.795609 3 1.55874 2.683901 2.12132 2.12132 
C 2.683901 1.55874 3 0.795609 3 0 
C 3 -0.795609 2.683901 -1.55874 2.12132 -2.12132 
C 1.55874 -2.683901 0.795609 -3 0 -3 
C -0.795609 -3 -1.55874 -2.683901 -2.12132 -2.12132 
C -2.683901 -1.55874 -3 -0.795609 -3 0 
C -3 0.795609 -2.683901 1.55874 -2.12132 2.12132 
C -1.55874 2.683901 -0.795609 3 0 3 
z
" style="stroke: #cb1b4f"/>
    </defs>
    <g clip-path="url(#pb3db6106c0)">
     <use xlink:href="#m15f63b75b1" x="90" y="181.637311" style="fill: #cb1b4f; stroke: #cb1b4f"/>
     <use xlink:href="#m15f63b75b1" x="648" y="181.637311" style="fill: #cb1b4f; stroke: #cb1b4f"/>
    </g>
   </g>
   <g id="line2d_93">
    <path d="M 115.363636 307.8 
L 117.065894 282.79564 
L 118.768151 232.744755 
L 120.470409 234.646068 
L 122.172666 182.646699 
L 123.874924 253.406084 
L 125.577181 231.947322 
L 127.279439 259.742909 
L 128.981696 207.616489 
L 130.683954 207.632813 
L 132.386211 205.635098 
L 134.088469 186.692952 
L 135.790726 212.558652 
L 137.492984 228.691604 
L 139.195241 232.782843 
L 142.599756 232.546898 
L 144.302013 183.811062 
L 146.004271 160.139929 
L 147.706528 158.236715 
L 149.408786 132.392489 
L 151.111043 157.291303 
L 152.813301 108.180767 
L 154.515558 82.231941 
L 156.217816 79.999988 
L 157.920073 82.111857 
L 159.622331 107.492131 
L 161.324588 113.213593 
L 163.026846 82.720397 
L 164.729103 82.415321 
L 166.431361 107.854867 
L 168.133618 82.389825 
L 169.835876 81.706426 
L 171.538133 80.64518 
L 173.24039 108.789826 
L 174.942648 128.867547 
L 176.644905 130.61261 
L 178.347163 99.109317 
L 180.04942 157.923845 
L 181.751678 143.00758 
L 183.453935 132.493461 
L 185.156193 119.449912 
L 186.85845 108.326825 
L 188.560708 109.439839 
L 190.262965 157.103286 
L 191.965223 210.767604 
L 193.66748 182.287674 
L 195.369738 157.611352 
L 197.071995 157.519265 
L 198.774253 130.945428 
L 200.47651 135.881397 
L 202.178768 107.447097 
L 203.881025 132.449361 
L 205.583282 105.678271 
L 207.28554 132.438127 
L 208.987797 211.826118 
L 210.690055 230.923447 
L 212.392312 149.678564 
L 214.09457 157.119382 
L 215.796827 133.674103 
L 217.499085 107.437085 
L 219.201342 107.619088 
L 220.9036 130.754044 
L 222.605857 157.583399 
L 224.308115 132.087147 
L 226.010372 155.232492 
L 227.71263 182.565972 
L 229.414887 233.527293 
L 231.117145 133.263656 
L 232.819402 132.483224 
L 234.52166 129.463157 
L 236.223917 157.044602 
L 237.926174 162.960227 
L 239.628432 192.623073 
L 241.330689 156.289542 
L 243.032947 157.33778 
L 244.735204 131.72336 
L 246.437462 80.185062 
L 248.139719 82.56588 
L 249.841977 107.265349 
L 251.544234 57.451357 
L 253.246492 132.351458 
L 254.948749 57.034344 
L 256.651007 55.8 
L 258.353264 57.361484 
L 260.055522 80.73334 
L 261.757779 107.347512 
L 263.460037 131.390199 
L 265.162294 157.536448 
L 266.864552 87.484165 
L 268.566809 137.133048 
L 270.269067 107.444142 
L 271.971324 129.943715 
L 273.673581 107.45639 
L 275.375839 107.485637 
L 277.078096 132.566023 
L 278.780354 132.542028 
L 280.482611 159.459273 
L 282.184869 125.635914 
L 283.887126 133.402646 
L 285.589384 156.806346 
L 287.291641 116.633589 
L 288.993899 122.949907 
L 290.696156 132.344618 
L 292.398414 133.431115 
L 294.100671 82.414922 
L 297.505186 82.412598 
L 299.207444 81.75478 
L 300.909701 57.386783 
L 302.611959 107.737065 
L 304.314216 81.71043 
L 306.016473 83.407385 
L 307.718731 208.513948 
L 309.420988 125.835693 
L 311.123246 129.918114 
L 312.825503 123.090474 
L 314.527761 76.615112 
L 316.230018 94.209954 
L 317.932276 106.735666 
L 319.634533 99.850628 
L 321.336791 105.885233 
L 323.039048 108.113567 
L 324.741306 136.579038 
L 326.443563 135.483582 
L 328.145821 132.453737 
L 329.848078 106.994423 
L 331.550336 105.729768 
L 333.252593 107.458923 
L 334.954851 104.527111 
L 336.657108 134.65317 
L 338.359365 135.051902 
L 340.061623 148.412157 
L 341.76388 159.775631 
L 343.466138 124.935546 
L 345.168395 135.932379 
L 346.870653 132.500618 
L 348.57291 132.487992 
L 350.275168 157.549044 
L 351.977425 157.089652 
L 353.679683 132.500884 
L 355.38194 157.393072 
L 357.084198 108.446716 
L 358.786455 107.35946 
L 360.488713 110.11332 
L 362.19097 105.448499 
L 363.893228 89.662179 
L 365.595485 126.25169 
L 369 184.428451 
L 370.702257 130.033473 
L 372.404515 198.415239 
L 374.106772 157.550764 
L 375.80903 130.095757 
L 377.511287 202.576637 
L 379.213545 158.928747 
L 380.915802 107.876854 
L 382.61806 82.472371 
L 384.320317 81.748055 
L 386.022575 132.389506 
L 389.42709 81.002748 
L 391.129347 119.308683 
L 392.831605 132.044189 
L 394.533862 133.867628 
L 396.23612 131.897409 
L 397.938377 171.204904 
L 399.640635 103.573368 
L 401.342892 129.879235 
L 403.045149 160.23453 
L 404.747407 107.205188 
L 406.449664 104.491391 
L 408.151922 82.958293 
L 409.854179 132.11228 
L 411.556437 129.507107 
L 413.258694 57.410782 
L 414.960952 105.594664 
L 416.663209 112.238462 
L 418.365467 171.325721 
L 420.067724 141.719581 
L 421.769982 132.701635 
L 423.472239 146.845329 
L 425.174497 167.15454 
L 426.876754 157.427314 
L 428.579012 201.711953 
L 430.281269 229.443874 
L 431.983527 157.333161 
L 433.685784 131.038016 
L 435.388041 107.591491 
L 437.090299 134.182645 
L 438.792556 208.945488 
L 440.494814 229.235746 
L 442.197071 187.881247 
L 443.899329 132.43432 
L 445.601586 182.247837 
L 447.303844 185.411935 
L 449.006101 157.704461 
L 450.708359 177.047323 
L 452.410616 132.536233 
L 454.112874 121.106975 
L 455.815131 182.139303 
L 457.517389 161.187465 
L 459.219646 157.543531 
L 460.921904 158.800178 
L 464.326419 107.458203 
L 466.028676 107.45811 
L 467.730933 111.611804 
L 469.433191 106.14852 
L 471.135448 107.583849 
L 472.837706 119.014992 
L 474.539963 135.079527 
L 476.242221 126.434352 
L 477.944478 107.261232 
L 479.646736 108.215008 
L 481.348993 111.032769 
L 483.051251 130.190148 
L 484.753508 128.402839 
L 486.455766 157.869962 
L 488.158023 157.480644 
L 489.860281 132.942105 
L 491.562538 131.259903 
L 493.264796 107.448699 
L 494.967053 127.310135 
L 496.669311 107.458827 
L 498.371568 98.53045 
L 500.073826 105.48329 
L 501.776083 107.444839 
L 503.47834 107.266203 
L 505.180598 135.210501 
L 506.882855 156.658122 
L 508.585113 134.947895 
L 510.28737 132.458976 
L 511.989628 110.371167 
L 513.691885 158.409537 
L 515.394143 107.818692 
L 517.0964 107.589754 
L 520.500915 153.217681 
L 522.203173 107.430811 
L 523.90543 123.0021 
L 525.607688 142.406156 
L 527.309945 132.500751 
L 529.012203 132.451876 
L 530.71446 118.4616 
L 532.416718 131.923795 
L 534.118975 107.265326 
L 535.821232 105.698992 
L 537.52349 157.587365 
L 539.225747 182.52532 
L 540.928005 132.292894 
L 542.630262 132.560465 
L 544.33252 108.307163 
L 546.034777 130.771576 
L 547.737035 206.918547 
L 549.439292 129.668734 
L 551.14155 126.043923 
L 552.843807 132.363238 
L 554.546065 143.124826 
L 556.248322 120.426322 
L 557.95058 109.44464 
L 559.652837 90.295975 
L 561.355095 133.485829 
L 563.057352 156.915173 
L 564.75961 107.690562 
L 566.461867 106.812615 
L 568.164124 133.210061 
L 569.866382 107.479114 
L 571.568639 157.83019 
L 573.270897 160.897208 
L 574.973154 83.019446 
L 576.675412 101.471537 
L 578.377669 90.40148 
L 580.079927 107.457867 
L 581.782184 80.560363 
L 583.484442 135.339911 
L 585.186699 176.084533 
L 586.888957 212.294865 
L 588.591214 156.054312 
L 590.293472 184.605941 
L 591.995729 181.347143 
L 593.697987 132.497998 
L 595.400244 107.782835 
L 597.102502 107.415389 
L 598.804759 130.125891 
L 600.507016 107.459341 
L 602.209274 132.459652 
L 603.911531 100.975199 
L 605.613789 82.453954 
L 607.316046 116.273522 
L 609.018304 130.028132 
L 610.720561 157.495506 
L 612.422819 188.834335 
L 614.125076 135.856697 
L 615.827334 104.997382 
L 617.529591 107.770174 
L 619.231849 183.459638 
L 620.934106 132.512335 
L 622.636364 157.543579 
L 622.636364 157.543579 
" clip-path="url(#pb3db6106c0)" style="fill: none; stroke: #f58860; stroke-linecap: square"/>
   </g>
   <g id="line2d_94">
    <path d="M 90 135.565012 
L 648 135.565012 
" clip-path="url(#pb3db6106c0)" style="fill: none; stroke-dasharray: 3.7,1.6; stroke-dashoffset: 0; stroke: #f58860"/>
    <defs>
     <path id="mf5c8443460" d="M 0 -3 
L -3 3 
L 3 3 
z
" style="stroke: #f58860; stroke-linejoin: miter"/>
    </defs>
    <g clip-path="url(#pb3db6106c0)">
     <use xlink:href="#mf5c8443460" x="90" y="135.565012" style="fill: #f58860; stroke: #f58860; stroke-linejoin: miter"/>
     <use xlink:href="#mf5c8443460" x="648" y="135.565012" style="fill: #f58860; stroke: #f58860; stroke-linejoin: miter"/>
    </g>
   </g>
   <g id="patch_3">
    <path d="M 90 320.4 
L 90 43.2 
" style="fill: none; stroke: #000000; stroke-width: 0.8; stroke-linejoin: miter; stroke-linecap: square"/>
   </g>
   <g id="patch_4">
    <path d="M 648 320.4 
L 648 43.2 
" style="fill: none; stroke: #000000; stroke-width: 0.8; stroke-linejoin: miter; stroke-linecap: square"/>
   </g>
   <g id="patch_5">
    <path d="M 90 320.4 
L 648 320.4 
" style="fill: none; stroke: #000000; stroke-width: 0.8; stroke-linejoin: miter; stroke-linecap: square"/>
   </g>
   <g id="patch_6">
    <path d="M 90 43.2 
L 648 43.2 
" style="fill: none; stroke: #000000; stroke-width: 0.8; stroke-linejoin: miter; stroke-linecap: square"/>
   </g>
   <g id="text_25">
    <!-- Accuracy comparison: Fish type detection (Pattern:Circle_100) -->
    <g transform="translate(182.078438 37.2)scale(0.12 -0.12)">
     <defs>
      <path id="DejaVuSans-70" d="M 1159 525 
L 1159 -1331 
L 581 -1331 
L 581 3500 
L 1159 3500 
L 1159 2969 
Q 1341 3281 1617 3432 
Q 1894 3584 2278 3584 
Q 2916 3584 3314 3078 
Q 3713 2572 3713 1747 
Q 3713 922 3314 415 
Q 2916 -91 2278 -91 
Q 1894 -91 1617 61 
Q 1341 213 1159 525 
z
M 3116 1747 
Q 3116 2381 2855 2742 
Q 2594 3103 2138 3103 
Q 1681 3103 1420 2742 
Q 1159 2381 1159 1747 
Q 1159 1113 1420 752 
Q 1681 391 2138 391 
Q 2594 391 2855 752 
Q 3116 1113 3116 1747 
z
" transform="scale(0.015625)"/>
      <path id="DejaVuSans-3a" d="M 750 794 
L 1409 794 
L 1409 0 
L 750 0 
L 750 794 
z
M 750 3309 
L 1409 3309 
L 1409 2516 
L 750 2516 
L 750 3309 
z
" transform="scale(0.015625)"/>
      <path id="DejaVuSans-46" d="M 628 4666 
L 3309 4666 
L 3309 4134 
L 1259 4134 
L 1259 2759 
L 3109 2759 
L 3109 2228 
L 1259 2228 
L 1259 0 
L 628 0 
L 628 4666 
z
" transform="scale(0.015625)"/>
      <path id="DejaVuSans-68" d="M 3513 2113 
L 3513 0 
L 2938 0 
L 2938 2094 
Q 2938 2591 2744 2837 
Q 2550 3084 2163 3084 
Q 1697 3084 1428 2787 
Q 1159 2491 1159 1978 
L 1159 0 
L 581 0 
L 581 4863 
L 1159 4863 
L 1159 2956 
Q 1366 3272 1645 3428 
Q 1925 3584 2291 3584 
Q 2894 3584 3203 3211 
Q 3513 2838 3513 2113 
z
" transform="scale(0.015625)"/>
      <path id="DejaVuSans-64" d="M 2906 2969 
L 2906 4863 
L 3481 4863 
L 3481 0 
L 2906 0 
L 2906 525 
Q 2725 213 2448 61 
Q 2172 -91 1784 -91 
Q 1150 -91 751 415 
Q 353 922 353 1747 
Q 353 2572 751 3078 
Q 1150 3584 1784 3584 
Q 2172 3584 2448 3432 
Q 2725 3281 2906 2969 
z
M 947 1747 
Q 947 1113 1208 752 
Q 1469 391 1925 391 
Q 2381 391 2643 752 
Q 2906 1113 2906 1747 
Q 2906 2381 2643 2742 
Q 2381 3103 1925 3103 
Q 1469 3103 1208 2742 
Q 947 2381 947 1747 
z
" transform="scale(0.015625)"/>
      <path id="DejaVuSans-28" d="M 1984 4856 
Q 1566 4138 1362 3434 
Q 1159 2731 1159 2009 
Q 1159 1288 1364 580 
Q 1569 -128 1984 -844 
L 1484 -844 
Q 1016 -109 783 600 
Q 550 1309 550 2009 
Q 550 2706 781 3412 
Q 1013 4119 1484 4856 
L 1984 4856 
z
" transform="scale(0.015625)"/>
      <path id="DejaVuSans-50" d="M 1259 4147 
L 1259 2394 
L 2053 2394 
Q 2494 2394 2734 2622 
Q 2975 2850 2975 3272 
Q 2975 3691 2734 3919 
Q 2494 4147 2053 4147 
L 1259 4147 
z
M 628 4666 
L 2053 4666 
Q 2838 4666 3239 4311 
Q 3641 3956 3641 3272 
Q 3641 2581 3239 2228 
Q 2838 1875 2053 1875 
L 1259 1875 
L 1259 0 
L 628 0 
L 628 4666 
z
" transform="scale(0.015625)"/>
      <path id="DejaVuSans-43" d="M 4122 4306 
L 4122 3641 
Q 3803 3938 3442 4084 
Q 3081 4231 2675 4231 
Q 1875 4231 1450 3742 
Q 1025 3253 1025 2328 
Q 1025 1406 1450 917 
Q 1875 428 2675 428 
Q 3081 428 3442 575 
Q 3803 722 4122 1019 
L 4122 359 
Q 3791 134 3420 21 
Q 3050 -91 2638 -91 
Q 1578 -91 968 557 
Q 359 1206 359 2328 
Q 359 3453 968 4101 
Q 1578 4750 2638 4750 
Q 3056 4750 3426 4639 
Q 3797 4528 4122 4306 
z
" transform="scale(0.015625)"/>
      <path id="DejaVuSans-5f" d="M 3263 -1063 
L 3263 -1509 
L -63 -1509 
L -63 -1063 
L 3263 -1063 
z
" transform="scale(0.015625)"/>
      <path id="DejaVuSans-29" d="M 513 4856 
L 1013 4856 
Q 1481 4119 1714 3412 
Q 1947 2706 1947 2009 
Q 1947 1309 1714 600 
Q 1481 -109 1013 -844 
L 513 -844 
Q 928 -128 1133 580 
Q 1338 1288 1338 2009 
Q 1338 2731 1133 3434 
Q 928 4138 513 4856 
z
" transform="scale(0.015625)"/>
     </defs>
     <use xlink:href="#DejaVuSans-41"/>
     <use xlink:href="#DejaVuSans-63" x="66.658203"/>
     <use xlink:href="#DejaVuSans-63" x="121.638672"/>
     <use xlink:href="#DejaVuSans-75" x="176.619141"/>
     <use xlink:href="#DejaVuSans-72" x="239.998047"/>
     <use xlink:href="#DejaVuSans-61" x="281.111328"/>
     <use xlink:href="#DejaVuSans-63" x="342.390625"/>
     <use xlink:href="#DejaVuSans-79" x="397.371094"/>
     <use xlink:href="#DejaVuSans-20" x="456.550781"/>
     <use xlink:href="#DejaVuSans-63" x="488.337891"/>
     <use xlink:href="#DejaVuSans-6f" x="543.318359"/>
     <use xlink:href="#DejaVuSans-6d" x="604.5"/>
     <use xlink:href="#DejaVuSans-70" x="701.912109"/>
     <use xlink:href="#DejaVuSans-61" x="765.388672"/>
     <use xlink:href="#DejaVuSans-72" x="826.667969"/>
     <use xlink:href="#DejaVuSans-69" x="867.78125"/>
     <use xlink:href="#DejaVuSans-73" x="895.564453"/>
     <use xlink:href="#DejaVuSans-6f" x="947.664062"/>
     <use xlink:href="#DejaVuSans-6e" x="1008.845703"/>
     <use xlink:href="#DejaVuSans-3a" x="1072.224609"/>
     <use xlink:href="#DejaVuSans-20" x="1105.916016"/>
     <use xlink:href="#DejaVuSans-46" x="1137.703125"/>
     <use xlink:href="#DejaVuSans-69" x="1187.972656"/>
     <use xlink:href="#DejaVuSans-73" x="1215.755859"/>
     <use xlink:href="#DejaVuSans-68" x="1267.855469"/>
     <use xlink:href="#DejaVuSans-20" x="1331.234375"/>
     <use xlink:href="#DejaVuSans-74" x="1363.021484"/>
     <use xlink:href="#DejaVuSans-79" x="1402.230469"/>
     <use xlink:href="#DejaVuSans-70" x="1461.410156"/>
     <use xlink:href="#DejaVuSans-65" x="1524.886719"/>
     <use xlink:href="#DejaVuSans-20" x="1586.410156"/>
     <use xlink:href="#DejaVuSans-64" x="1618.197266"/>
     <use xlink:href="#DejaVuSans-65" x="1681.673828"/>
     <use xlink:href="#DejaVuSans-74" x="1743.197266"/>
     <use xlink:href="#DejaVuSans-65" x="1782.40625"/>
     <use xlink:href="#DejaVuSans-63" x="1843.929688"/>
     <use xlink:href="#DejaVuSans-74" x="1898.910156"/>
     <use xlink:href="#DejaVuSans-69" x="1938.119141"/>
     <use xlink:href="#DejaVuSans-6f" x="1965.902344"/>
     <use xlink:href="#DejaVuSans-6e" x="2027.083984"/>
     <use xlink:href="#DejaVuSans-20" x="2090.462891"/>
     <use xlink:href="#DejaVuSans-28" x="2122.25"/>
     <use xlink:href="#DejaVuSans-50" x="2161.263672"/>
     <use xlink:href="#DejaVuSans-61" x="2217.066406"/>
     <use xlink:href="#DejaVuSans-74" x="2278.345703"/>
     <use xlink:href="#DejaVuSans-74" x="2317.554688"/>
     <use xlink:href="#DejaVuSans-65" x="2356.763672"/>
     <use xlink:href="#DejaVuSans-72" x="2418.287109"/>
     <use xlink:href="#DejaVuSans-6e" x="2457.650391"/>
     <use xlink:href="#DejaVuSans-3a" x="2521.029297"/>
     <use xlink:href="#DejaVuSans-43" x="2554.720703"/>
     <use xlink:href="#DejaVuSans-69" x="2624.544922"/>
     <use xlink:href="#DejaVuSans-72" x="2652.328125"/>
     <use xlink:href="#DejaVuSans-63" x="2691.191406"/>
     <use xlink:href="#DejaVuSans-6c" x="2746.171875"/>
     <use xlink:href="#DejaVuSans-65" x="2773.955078"/>
     <use xlink:href="#DejaVuSans-5f" x="2835.478516"/>
     <use xlink:href="#DejaVuSans-31" x="2885.478516"/>
     <use xlink:href="#DejaVuSans-30" x="2949.101562"/>
     <use xlink:href="#DejaVuSans-30" x="3012.724609"/>
     <use xlink:href="#DejaVuSans-29" x="3076.347656"/>
    </g>
   </g>
   <g id="legend_1">
    <g id="patch_7">
     <path d="M 549.85 315.4 
L 641 315.4 
Q 643 315.4 643 313.4 
L 643 226.33125 
Q 643 224.33125 641 224.33125 
L 549.85 224.33125 
Q 547.85 224.33125 547.85 226.33125 
L 547.85 313.4 
Q 547.85 315.4 549.85 315.4 
z
" style="fill: #ffffff; opacity: 0.8; stroke: #cccccc; stroke-linejoin: miter"/>
    </g>
    <g id="line2d_95">
     <path d="M 551.85 232.429688 
L 561.85 232.429688 
L 571.85 232.429688 
" style="fill: none; stroke: #611f53; stroke-linecap: square"/>
    </g>
    <g id="text_26">
     <!-- Tuna -->
     <g transform="translate(579.85 235.929688)scale(0.1 -0.1)">
      <use xlink:href="#DejaVuSans-54"/>
      <use xlink:href="#DejaVuSans-75" x="45.958984"/>
      <use xlink:href="#DejaVuSans-6e" x="109.337891"/>
      <use xlink:href="#DejaVuSans-61" x="172.716797"/>
     </g>
    </g>
    <g id="line2d_96">
     <path d="M 551.85 247.107813 
L 561.85 247.107813 
L 571.85 247.107813 
" style="fill: none; stroke-dasharray: 3.7,1.6; stroke-dashoffset: 0; stroke: #611f53"/>
     <g>
      <use xlink:href="#maef563ca4a" x="561.85" y="247.107813" style="fill: #611f53; stroke: #611f53; stroke-linejoin: miter"/>
     </g>
    </g>
    <g id="text_27">
     <!-- Avg Tuna -->
     <g transform="translate(579.85 250.607813)scale(0.1 -0.1)">
      <defs>
       <path id="DejaVuSans-76" d="M 191 3500 
L 800 3500 
L 1894 563 
L 2988 3500 
L 3597 3500 
L 2284 0 
L 1503 0 
L 191 3500 
z
" transform="scale(0.015625)"/>
       <path id="DejaVuSans-67" d="M 2906 1791 
Q 2906 2416 2648 2759 
Q 2391 3103 1925 3103 
Q 1463 3103 1205 2759 
Q 947 2416 947 1791 
Q 947 1169 1205 825 
Q 1463 481 1925 481 
Q 2391 481 2648 825 
Q 2906 1169 2906 1791 
z
M 3481 434 
Q 3481 -459 3084 -895 
Q 2688 -1331 1869 -1331 
Q 1566 -1331 1297 -1286 
Q 1028 -1241 775 -1147 
L 775 -588 
Q 1028 -725 1275 -790 
Q 1522 -856 1778 -856 
Q 2344 -856 2625 -561 
Q 2906 -266 2906 331 
L 2906 616 
Q 2728 306 2450 153 
Q 2172 0 1784 0 
Q 1141 0 747 490 
Q 353 981 353 1791 
Q 353 2603 747 3093 
Q 1141 3584 1784 3584 
Q 2172 3584 2450 3431 
Q 2728 3278 2906 2969 
L 2906 3500 
L 3481 3500 
L 3481 434 
z
" transform="scale(0.015625)"/>
      </defs>
      <use xlink:href="#DejaVuSans-41"/>
      <use xlink:href="#DejaVuSans-76" x="62.533203"/>
      <use xlink:href="#DejaVuSans-67" x="121.712891"/>
      <use xlink:href="#DejaVuSans-20" x="185.189453"/>
      <use xlink:href="#DejaVuSans-54" x="216.976562"/>
      <use xlink:href="#DejaVuSans-75" x="262.935547"/>
      <use xlink:href="#DejaVuSans-6e" x="326.314453"/>
      <use xlink:href="#DejaVuSans-61" x="389.693359"/>
     </g>
    </g>
    <g id="line2d_97">
     <path d="M 551.85 261.785938 
L 561.85 261.785938 
L 571.85 261.785938 
" style="fill: none; stroke: #cb1b4f; stroke-linecap: square"/>
    </g>
    <g id="text_28">
     <!-- Salmon -->
     <g transform="translate(579.85 265.285938)scale(0.1 -0.1)">
      <use xlink:href="#DejaVuSans-53"/>
      <use xlink:href="#DejaVuSans-61" x="63.476562"/>
      <use xlink:href="#DejaVuSans-6c" x="124.755859"/>
      <use xlink:href="#DejaVuSans-6d" x="152.539062"/>
      <use xlink:href="#DejaVuSans-6f" x="249.951172"/>
      <use xlink:href="#DejaVuSans-6e" x="311.132812"/>
     </g>
    </g>
    <g id="line2d_98">
     <path d="M 551.85 276.464063 
L 561.85 276.464063 
L 571.85 276.464063 
" style="fill: none; stroke-dasharray: 3.7,1.6; stroke-dashoffset: 0; stroke: #cb1b4f"/>
     <g>
      <use xlink:href="#m15f63b75b1" x="561.85" y="276.464063" style="fill: #cb1b4f; stroke: #cb1b4f"/>
     </g>
    </g>
    <g id="text_29">
     <!-- Avg Salmon -->
     <g transform="translate(579.85 279.964063)scale(0.1 -0.1)">
      <use xlink:href="#DejaVuSans-41"/>
      <use xlink:href="#DejaVuSans-76" x="62.533203"/>
      <use xlink:href="#DejaVuSans-67" x="121.712891"/>
      <use xlink:href="#DejaVuSans-20" x="185.189453"/>
      <use xlink:href="#DejaVuSans-53" x="216.976562"/>
      <use xlink:href="#DejaVuSans-61" x="280.453125"/>
      <use xlink:href="#DejaVuSans-6c" x="341.732422"/>
      <use xlink:href="#DejaVuSans-6d" x="369.515625"/>
      <use xlink:href="#DejaVuSans-6f" x="466.927734"/>
      <use xlink:href="#DejaVuSans-6e" x="528.109375"/>
     </g>
    </g>
    <g id="line2d_99">
     <path d="M 551.85 291.142188 
L 561.85 291.142188 
L 571.85 291.142188 
" style="fill: none; stroke: #f58860; stroke-linecap: square"/>
    </g>
    <g id="text_30">
     <!-- Clown -->
     <g transform="translate(579.85 294.642188)scale(0.1 -0.1)">
      <defs>
       <path id="DejaVuSans-77" d="M 269 3500 
L 844 3500 
L 1563 769 
L 2278 3500 
L 2956 3500 
L 3675 769 
L 4391 3500 
L 4966 3500 
L 4050 0 
L 3372 0 
L 2619 2869 
L 1863 0 
L 1184 0 
L 269 3500 
z
" transform="scale(0.015625)"/>
      </defs>
      <use xlink:href="#DejaVuSans-43"/>
      <use xlink:href="#DejaVuSans-6c" x="69.824219"/>
      <use xlink:href="#DejaVuSans-6f" x="97.607422"/>
      <use xlink:href="#DejaVuSans-77" x="158.789062"/>
      <use xlink:href="#DejaVuSans-6e" x="240.576172"/>
     </g>
    </g>
    <g id="line2d_100">
     <path d="M 551.85 305.820312 
L 561.85 305.820312 
L 571.85 305.820312 
" style="fill: none; stroke-dasharray: 3.7,1.6; stroke-dashoffset: 0; stroke: #f58860"/>
     <g>
      <use xlink:href="#mf5c8443460" x="561.85" y="305.820312" style="fill: #f58860; stroke: #f58860; stroke-linejoin: miter"/>
     </g>
    </g>
    <g id="text_31">
     <!-- Avg Clown -->
     <g transform="translate(579.85 309.320312)scale(0.1 -0.1)">
      <use xlink:href="#DejaVuSans-41"/>
      <use xlink:href="#DejaVuSans-76" x="62.533203"/>
      <use xlink:href="#DejaVuSans-67" x="121.712891"/>
      <use xlink:href="#DejaVuSans-20" x="185.189453"/>
      <use xlink:href="#DejaVuSans-43" x="216.976562"/>
      <use xlink:href="#DejaVuSans-6c" x="286.800781"/>
      <use xlink:href="#DejaVuSans-6f" x="314.583984"/>
      <use xlink:href="#DejaVuSans-77" x="375.765625"/>
      <use xlink:href="#DejaVuSans-6e" x="457.552734"/>
     </g>
    </g>
   </g>
  </g>
 </g>
 <defs>
  <clipPath id="pb3db6106c0">
   <rect x="90" y="43.2" width="558" height="277.2"/>
  </clipPath>
 </defs>
</svg>
