<?xml version="1.0" encoding="utf-8" standalone="no"?>
<!DOCTYPE svg PUBLIC "-//W3C//DTD SVG 1.1//EN"
  "http://www.w3.org/Graphics/SVG/1.1/DTD/svg11.dtd">
<svg xmlns:xlink="http://www.w3.org/1999/xlink" width="720pt" height="360pt" viewBox="0 0 720 360" xmlns="http://www.w3.org/2000/svg" version="1.1">
 <metadata>
  <rdf:RDF xmlns:dc="http://purl.org/dc/elements/1.1/" xmlns:cc="http://creativecommons.org/ns#" xmlns:rdf="http://www.w3.org/1999/02/22-rdf-syntax-ns#">
   <cc:Work>
    <dc:type rdf:resource="http://purl.org/dc/dcmitype/StillImage"/>
    <dc:date>2022-11-29T15:54:30.416003</dc:date>
    <dc:format>image/svg+xml</dc:format>
    <dc:creator>
     <cc:Agent>
      <dc:title>Matplotlib v3.5.1, https://matplotlib.org/</dc:title>
     </cc:Agent>
    </dc:creator>
   </cc:Work>
  </rdf:RDF>
 </metadata>
 <defs>
  <style type="text/css">*{stroke-linejoin: round; stroke-linecap: butt}</style>
 </defs>
 <g id="figure_1">
  <g id="patch_1">
   <path d="M 0 360 
L 720 360 
L 720 0 
L 0 0 
z
" style="fill: #ffffff"/>
  </g>
  <g id="axes_1">
   <g id="patch_2">
    <path d="M 90 320.4 
L 648 320.4 
L 648 43.2 
L 90 43.2 
z
" style="fill: #ffffff"/>
   </g>
   <g id="matplotlib.axis_1">
    <g id="xtick_1">
     <g id="line2d_1">
      <defs>
       <path id="mafced2740b" d="M 0 0 
L 0 -10 
" style="stroke: #000000; stroke-width: 0.8"/>
      </defs>
      <g>
       <use xlink:href="#mafced2740b" x="115.363636" y="320.4" style="stroke: #000000; stroke-width: 0.8"/>
      </g>
     </g>
     <g id="text_1">
      <!-- 0 -->
      <g transform="translate(112.182386 331.498438)scale(0.1 -0.1)">
       <defs>
        <path id="DejaVuSans-30" d="M 2034 4250 
Q 1547 4250 1301 3770 
Q 1056 3291 1056 2328 
Q 1056 1369 1301 889 
Q 1547 409 2034 409 
Q 2525 409 2770 889 
Q 3016 1369 3016 2328 
Q 3016 3291 2770 3770 
Q 2525 4250 2034 4250 
z
M 2034 4750 
Q 2819 4750 3233 4129 
Q 3647 3509 3647 2328 
Q 3647 1150 3233 529 
Q 2819 -91 2034 -91 
Q 1250 -91 836 529 
Q 422 1150 422 2328 
Q 422 3509 836 4129 
Q 1250 4750 2034 4750 
z
" transform="scale(0.015625)"/>
       </defs>
       <use xlink:href="#DejaVuSans-30"/>
      </g>
     </g>
    </g>
    <g id="xtick_2">
     <g id="line2d_2">
      <g>
       <use xlink:href="#mafced2740b" x="149.193095" y="320.4" style="stroke: #000000; stroke-width: 0.8"/>
      </g>
     </g>
     <g id="text_2">
      <!-- 200 -->
      <g transform="translate(139.649345 331.498438)scale(0.1 -0.1)">
       <defs>
        <path id="DejaVuSans-32" d="M 1228 531 
L 3431 531 
L 3431 0 
L 469 0 
L 469 531 
Q 828 903 1448 1529 
Q 2069 2156 2228 2338 
Q 2531 2678 2651 2914 
Q 2772 3150 2772 3378 
Q 2772 3750 2511 3984 
Q 2250 4219 1831 4219 
Q 1534 4219 1204 4116 
Q 875 4013 500 3803 
L 500 4441 
Q 881 4594 1212 4672 
Q 1544 4750 1819 4750 
Q 2544 4750 2975 4387 
Q 3406 4025 3406 3419 
Q 3406 3131 3298 2873 
Q 3191 2616 2906 2266 
Q 2828 2175 2409 1742 
Q 1991 1309 1228 531 
z
" transform="scale(0.015625)"/>
       </defs>
       <use xlink:href="#DejaVuSans-32"/>
       <use xlink:href="#DejaVuSans-30" x="63.623047"/>
       <use xlink:href="#DejaVuSans-30" x="127.246094"/>
      </g>
     </g>
    </g>
    <g id="xtick_3">
     <g id="line2d_3">
      <g>
       <use xlink:href="#mafced2740b" x="183.022553" y="320.4" style="stroke: #000000; stroke-width: 0.8"/>
      </g>
     </g>
     <g id="text_3">
      <!-- 400 -->
      <g transform="translate(173.478803 331.498438)scale(0.1 -0.1)">
       <defs>
        <path id="DejaVuSans-34" d="M 2419 4116 
L 825 1625 
L 2419 1625 
L 2419 4116 
z
M 2253 4666 
L 3047 4666 
L 3047 1625 
L 3713 1625 
L 3713 1100 
L 3047 1100 
L 3047 0 
L 2419 0 
L 2419 1100 
L 313 1100 
L 313 1709 
L 2253 4666 
z
" transform="scale(0.015625)"/>
       </defs>
       <use xlink:href="#DejaVuSans-34"/>
       <use xlink:href="#DejaVuSans-30" x="63.623047"/>
       <use xlink:href="#DejaVuSans-30" x="127.246094"/>
      </g>
     </g>
    </g>
    <g id="xtick_4">
     <g id="line2d_4">
      <g>
       <use xlink:href="#mafced2740b" x="216.852011" y="320.4" style="stroke: #000000; stroke-width: 0.8"/>
      </g>
     </g>
     <g id="text_4">
      <!-- 600 -->
      <g transform="translate(207.308261 331.498438)scale(0.1 -0.1)">
       <defs>
        <path id="DejaVuSans-36" d="M 2113 2584 
Q 1688 2584 1439 2293 
Q 1191 2003 1191 1497 
Q 1191 994 1439 701 
Q 1688 409 2113 409 
Q 2538 409 2786 701 
Q 3034 994 3034 1497 
Q 3034 2003 2786 2293 
Q 2538 2584 2113 2584 
z
M 3366 4563 
L 3366 3988 
Q 3128 4100 2886 4159 
Q 2644 4219 2406 4219 
Q 1781 4219 1451 3797 
Q 1122 3375 1075 2522 
Q 1259 2794 1537 2939 
Q 1816 3084 2150 3084 
Q 2853 3084 3261 2657 
Q 3669 2231 3669 1497 
Q 3669 778 3244 343 
Q 2819 -91 2113 -91 
Q 1303 -91 875 529 
Q 447 1150 447 2328 
Q 447 3434 972 4092 
Q 1497 4750 2381 4750 
Q 2619 4750 2861 4703 
Q 3103 4656 3366 4563 
z
" transform="scale(0.015625)"/>
       </defs>
       <use xlink:href="#DejaVuSans-36"/>
       <use xlink:href="#DejaVuSans-30" x="63.623047"/>
       <use xlink:href="#DejaVuSans-30" x="127.246094"/>
      </g>
     </g>
    </g>
    <g id="xtick_5">
     <g id="line2d_5">
      <g>
       <use xlink:href="#mafced2740b" x="250.68147" y="320.4" style="stroke: #000000; stroke-width: 0.8"/>
      </g>
     </g>
     <g id="text_5">
      <!-- 800 -->
      <g transform="translate(241.13772 331.498438)scale(0.1 -0.1)">
       <defs>
        <path id="DejaVuSans-38" d="M 2034 2216 
Q 1584 2216 1326 1975 
Q 1069 1734 1069 1313 
Q 1069 891 1326 650 
Q 1584 409 2034 409 
Q 2484 409 2743 651 
Q 3003 894 3003 1313 
Q 3003 1734 2745 1975 
Q 2488 2216 2034 2216 
z
M 1403 2484 
Q 997 2584 770 2862 
Q 544 3141 544 3541 
Q 544 4100 942 4425 
Q 1341 4750 2034 4750 
Q 2731 4750 3128 4425 
Q 3525 4100 3525 3541 
Q 3525 3141 3298 2862 
Q 3072 2584 2669 2484 
Q 3125 2378 3379 2068 
Q 3634 1759 3634 1313 
Q 3634 634 3220 271 
Q 2806 -91 2034 -91 
Q 1263 -91 848 271 
Q 434 634 434 1313 
Q 434 1759 690 2068 
Q 947 2378 1403 2484 
z
M 1172 3481 
Q 1172 3119 1398 2916 
Q 1625 2713 2034 2713 
Q 2441 2713 2670 2916 
Q 2900 3119 2900 3481 
Q 2900 3844 2670 4047 
Q 2441 4250 2034 4250 
Q 1625 4250 1398 4047 
Q 1172 3844 1172 3481 
z
" transform="scale(0.015625)"/>
       </defs>
       <use xlink:href="#DejaVuSans-38"/>
       <use xlink:href="#DejaVuSans-30" x="63.623047"/>
       <use xlink:href="#DejaVuSans-30" x="127.246094"/>
      </g>
     </g>
    </g>
    <g id="xtick_6">
     <g id="line2d_6">
      <g>
       <use xlink:href="#mafced2740b" x="284.510928" y="320.4" style="stroke: #000000; stroke-width: 0.8"/>
      </g>
     </g>
     <g id="text_6">
      <!-- 1000 -->
      <g transform="translate(271.785928 331.498438)scale(0.1 -0.1)">
       <defs>
        <path id="DejaVuSans-31" d="M 794 531 
L 1825 531 
L 1825 4091 
L 703 3866 
L 703 4441 
L 1819 4666 
L 2450 4666 
L 2450 531 
L 3481 531 
L 3481 0 
L 794 0 
L 794 531 
z
" transform="scale(0.015625)"/>
       </defs>
       <use xlink:href="#DejaVuSans-31"/>
       <use xlink:href="#DejaVuSans-30" x="63.623047"/>
       <use xlink:href="#DejaVuSans-30" x="127.246094"/>
       <use xlink:href="#DejaVuSans-30" x="190.869141"/>
      </g>
     </g>
    </g>
    <g id="xtick_7">
     <g id="line2d_7">
      <g>
       <use xlink:href="#mafced2740b" x="318.340386" y="320.4" style="stroke: #000000; stroke-width: 0.8"/>
      </g>
     </g>
     <g id="text_7">
      <!-- 1200 -->
      <g transform="translate(305.615386 331.498438)scale(0.1 -0.1)">
       <use xlink:href="#DejaVuSans-31"/>
       <use xlink:href="#DejaVuSans-32" x="63.623047"/>
       <use xlink:href="#DejaVuSans-30" x="127.246094"/>
       <use xlink:href="#DejaVuSans-30" x="190.869141"/>
      </g>
     </g>
    </g>
    <g id="xtick_8">
     <g id="line2d_8">
      <g>
       <use xlink:href="#mafced2740b" x="352.169844" y="320.4" style="stroke: #000000; stroke-width: 0.8"/>
      </g>
     </g>
     <g id="text_8">
      <!-- 1400 -->
      <g transform="translate(339.444844 331.498438)scale(0.1 -0.1)">
       <use xlink:href="#DejaVuSans-31"/>
       <use xlink:href="#DejaVuSans-34" x="63.623047"/>
       <use xlink:href="#DejaVuSans-30" x="127.246094"/>
       <use xlink:href="#DejaVuSans-30" x="190.869141"/>
      </g>
     </g>
    </g>
    <g id="xtick_9">
     <g id="line2d_9">
      <g>
       <use xlink:href="#mafced2740b" x="385.999303" y="320.4" style="stroke: #000000; stroke-width: 0.8"/>
      </g>
     </g>
     <g id="text_9">
      <!-- 1600 -->
      <g transform="translate(373.274303 331.498438)scale(0.1 -0.1)">
       <use xlink:href="#DejaVuSans-31"/>
       <use xlink:href="#DejaVuSans-36" x="63.623047"/>
       <use xlink:href="#DejaVuSans-30" x="127.246094"/>
       <use xlink:href="#DejaVuSans-30" x="190.869141"/>
      </g>
     </g>
    </g>
    <g id="xtick_10">
     <g id="line2d_10">
      <g>
       <use xlink:href="#mafced2740b" x="419.828761" y="320.4" style="stroke: #000000; stroke-width: 0.8"/>
      </g>
     </g>
     <g id="text_10">
      <!-- 1800 -->
      <g transform="translate(407.103761 331.498438)scale(0.1 -0.1)">
       <use xlink:href="#DejaVuSans-31"/>
       <use xlink:href="#DejaVuSans-38" x="63.623047"/>
       <use xlink:href="#DejaVuSans-30" x="127.246094"/>
       <use xlink:href="#DejaVuSans-30" x="190.869141"/>
      </g>
     </g>
    </g>
    <g id="xtick_11">
     <g id="line2d_11">
      <g>
       <use xlink:href="#mafced2740b" x="453.658219" y="320.4" style="stroke: #000000; stroke-width: 0.8"/>
      </g>
     </g>
     <g id="text_11">
      <!-- 2000 -->
      <g transform="translate(440.933219 331.498438)scale(0.1 -0.1)">
       <use xlink:href="#DejaVuSans-32"/>
       <use xlink:href="#DejaVuSans-30" x="63.623047"/>
       <use xlink:href="#DejaVuSans-30" x="127.246094"/>
       <use xlink:href="#DejaVuSans-30" x="190.869141"/>
      </g>
     </g>
    </g>
    <g id="xtick_12">
     <g id="line2d_12">
      <g>
       <use xlink:href="#mafced2740b" x="487.487678" y="320.4" style="stroke: #000000; stroke-width: 0.8"/>
      </g>
     </g>
     <g id="text_12">
      <!-- 2200 -->
      <g transform="translate(474.762678 331.498438)scale(0.1 -0.1)">
       <use xlink:href="#DejaVuSans-32"/>
       <use xlink:href="#DejaVuSans-32" x="63.623047"/>
       <use xlink:href="#DejaVuSans-30" x="127.246094"/>
       <use xlink:href="#DejaVuSans-30" x="190.869141"/>
      </g>
     </g>
    </g>
    <g id="xtick_13">
     <g id="line2d_13">
      <g>
       <use xlink:href="#mafced2740b" x="521.317136" y="320.4" style="stroke: #000000; stroke-width: 0.8"/>
      </g>
     </g>
     <g id="text_13">
      <!-- 2400 -->
      <g transform="translate(508.592136 331.498438)scale(0.1 -0.1)">
       <use xlink:href="#DejaVuSans-32"/>
       <use xlink:href="#DejaVuSans-34" x="63.623047"/>
       <use xlink:href="#DejaVuSans-30" x="127.246094"/>
       <use xlink:href="#DejaVuSans-30" x="190.869141"/>
      </g>
     </g>
    </g>
    <g id="xtick_14">
     <g id="line2d_14">
      <g>
       <use xlink:href="#mafced2740b" x="555.146594" y="320.4" style="stroke: #000000; stroke-width: 0.8"/>
      </g>
     </g>
     <g id="text_14">
      <!-- 2600 -->
      <g transform="translate(542.421594 331.498438)scale(0.1 -0.1)">
       <use xlink:href="#DejaVuSans-32"/>
       <use xlink:href="#DejaVuSans-36" x="63.623047"/>
       <use xlink:href="#DejaVuSans-30" x="127.246094"/>
       <use xlink:href="#DejaVuSans-30" x="190.869141"/>
      </g>
     </g>
    </g>
    <g id="xtick_15">
     <g id="line2d_15">
      <g>
       <use xlink:href="#mafced2740b" x="588.976053" y="320.4" style="stroke: #000000; stroke-width: 0.8"/>
      </g>
     </g>
     <g id="text_15">
      <!-- 2800 -->
      <g transform="translate(576.251053 331.498438)scale(0.1 -0.1)">
       <use xlink:href="#DejaVuSans-32"/>
       <use xlink:href="#DejaVuSans-38" x="63.623047"/>
       <use xlink:href="#DejaVuSans-30" x="127.246094"/>
       <use xlink:href="#DejaVuSans-30" x="190.869141"/>
      </g>
     </g>
    </g>
    <g id="xtick_16">
     <g id="line2d_16">
      <g>
       <use xlink:href="#mafced2740b" x="622.805511" y="320.4" style="stroke: #000000; stroke-width: 0.8"/>
      </g>
     </g>
     <g id="text_16">
      <!-- 3000 -->
      <g transform="translate(610.080511 331.498438)scale(0.1 -0.1)">
       <defs>
        <path id="DejaVuSans-33" d="M 2597 2516 
Q 3050 2419 3304 2112 
Q 3559 1806 3559 1356 
Q 3559 666 3084 287 
Q 2609 -91 1734 -91 
Q 1441 -91 1130 -33 
Q 819 25 488 141 
L 488 750 
Q 750 597 1062 519 
Q 1375 441 1716 441 
Q 2309 441 2620 675 
Q 2931 909 2931 1356 
Q 2931 1769 2642 2001 
Q 2353 2234 1838 2234 
L 1294 2234 
L 1294 2753 
L 1863 2753 
Q 2328 2753 2575 2939 
Q 2822 3125 2822 3475 
Q 2822 3834 2567 4026 
Q 2313 4219 1838 4219 
Q 1578 4219 1281 4162 
Q 984 4106 628 3988 
L 628 4550 
Q 988 4650 1302 4700 
Q 1616 4750 1894 4750 
Q 2613 4750 3031 4423 
Q 3450 4097 3450 3541 
Q 3450 3153 3228 2886 
Q 3006 2619 2597 2516 
z
" transform="scale(0.015625)"/>
       </defs>
       <use xlink:href="#DejaVuSans-33"/>
       <use xlink:href="#DejaVuSans-30" x="63.623047"/>
       <use xlink:href="#DejaVuSans-30" x="127.246094"/>
       <use xlink:href="#DejaVuSans-30" x="190.869141"/>
      </g>
     </g>
    </g>
    <g id="xtick_17">
     <g id="line2d_17">
      <defs>
       <path id="m967a57e28b" d="M 0 0 
L 0 -5 
" style="stroke: #000000; stroke-width: 0.6"/>
      </defs>
      <g>
       <use xlink:href="#m967a57e28b" x="98.448907" y="320.4" style="stroke: #000000; stroke-width: 0.6"/>
      </g>
     </g>
    </g>
    <g id="xtick_18">
     <g id="line2d_18">
      <g>
       <use xlink:href="#m967a57e28b" x="106.906272" y="320.4" style="stroke: #000000; stroke-width: 0.6"/>
      </g>
     </g>
    </g>
    <g id="xtick_19">
     <g id="line2d_19">
      <g>
       <use xlink:href="#m967a57e28b" x="123.821001" y="320.4" style="stroke: #000000; stroke-width: 0.6"/>
      </g>
     </g>
    </g>
    <g id="xtick_20">
     <g id="line2d_20">
      <g>
       <use xlink:href="#m967a57e28b" x="132.278366" y="320.4" style="stroke: #000000; stroke-width: 0.6"/>
      </g>
     </g>
    </g>
    <g id="xtick_21">
     <g id="line2d_21">
      <g>
       <use xlink:href="#m967a57e28b" x="140.73573" y="320.4" style="stroke: #000000; stroke-width: 0.6"/>
      </g>
     </g>
    </g>
    <g id="xtick_22">
     <g id="line2d_22">
      <g>
       <use xlink:href="#m967a57e28b" x="157.650459" y="320.4" style="stroke: #000000; stroke-width: 0.6"/>
      </g>
     </g>
    </g>
    <g id="xtick_23">
     <g id="line2d_23">
      <g>
       <use xlink:href="#m967a57e28b" x="166.107824" y="320.4" style="stroke: #000000; stroke-width: 0.6"/>
      </g>
     </g>
    </g>
    <g id="xtick_24">
     <g id="line2d_24">
      <g>
       <use xlink:href="#m967a57e28b" x="174.565188" y="320.4" style="stroke: #000000; stroke-width: 0.6"/>
      </g>
     </g>
    </g>
    <g id="xtick_25">
     <g id="line2d_25">
      <g>
       <use xlink:href="#m967a57e28b" x="191.479918" y="320.4" style="stroke: #000000; stroke-width: 0.6"/>
      </g>
     </g>
    </g>
    <g id="xtick_26">
     <g id="line2d_26">
      <g>
       <use xlink:href="#m967a57e28b" x="199.937282" y="320.4" style="stroke: #000000; stroke-width: 0.6"/>
      </g>
     </g>
    </g>
    <g id="xtick_27">
     <g id="line2d_27">
      <g>
       <use xlink:href="#m967a57e28b" x="208.394647" y="320.4" style="stroke: #000000; stroke-width: 0.6"/>
      </g>
     </g>
    </g>
    <g id="xtick_28">
     <g id="line2d_28">
      <g>
       <use xlink:href="#m967a57e28b" x="225.309376" y="320.4" style="stroke: #000000; stroke-width: 0.6"/>
      </g>
     </g>
    </g>
    <g id="xtick_29">
     <g id="line2d_29">
      <g>
       <use xlink:href="#m967a57e28b" x="233.76674" y="320.4" style="stroke: #000000; stroke-width: 0.6"/>
      </g>
     </g>
    </g>
    <g id="xtick_30">
     <g id="line2d_30">
      <g>
       <use xlink:href="#m967a57e28b" x="242.224105" y="320.4" style="stroke: #000000; stroke-width: 0.6"/>
      </g>
     </g>
    </g>
    <g id="xtick_31">
     <g id="line2d_31">
      <g>
       <use xlink:href="#m967a57e28b" x="259.138834" y="320.4" style="stroke: #000000; stroke-width: 0.6"/>
      </g>
     </g>
    </g>
    <g id="xtick_32">
     <g id="line2d_32">
      <g>
       <use xlink:href="#m967a57e28b" x="267.596199" y="320.4" style="stroke: #000000; stroke-width: 0.6"/>
      </g>
     </g>
    </g>
    <g id="xtick_33">
     <g id="line2d_33">
      <g>
       <use xlink:href="#m967a57e28b" x="276.053563" y="320.4" style="stroke: #000000; stroke-width: 0.6"/>
      </g>
     </g>
    </g>
    <g id="xtick_34">
     <g id="line2d_34">
      <g>
       <use xlink:href="#m967a57e28b" x="292.968292" y="320.4" style="stroke: #000000; stroke-width: 0.6"/>
      </g>
     </g>
    </g>
    <g id="xtick_35">
     <g id="line2d_35">
      <g>
       <use xlink:href="#m967a57e28b" x="301.425657" y="320.4" style="stroke: #000000; stroke-width: 0.6"/>
      </g>
     </g>
    </g>
    <g id="xtick_36">
     <g id="line2d_36">
      <g>
       <use xlink:href="#m967a57e28b" x="309.883022" y="320.4" style="stroke: #000000; stroke-width: 0.6"/>
      </g>
     </g>
    </g>
    <g id="xtick_37">
     <g id="line2d_37">
      <g>
       <use xlink:href="#m967a57e28b" x="326.797751" y="320.4" style="stroke: #000000; stroke-width: 0.6"/>
      </g>
     </g>
    </g>
    <g id="xtick_38">
     <g id="line2d_38">
      <g>
       <use xlink:href="#m967a57e28b" x="335.255115" y="320.4" style="stroke: #000000; stroke-width: 0.6"/>
      </g>
     </g>
    </g>
    <g id="xtick_39">
     <g id="line2d_39">
      <g>
       <use xlink:href="#m967a57e28b" x="343.71248" y="320.4" style="stroke: #000000; stroke-width: 0.6"/>
      </g>
     </g>
    </g>
    <g id="xtick_40">
     <g id="line2d_40">
      <g>
       <use xlink:href="#m967a57e28b" x="360.627209" y="320.4" style="stroke: #000000; stroke-width: 0.6"/>
      </g>
     </g>
    </g>
    <g id="xtick_41">
     <g id="line2d_41">
      <g>
       <use xlink:href="#m967a57e28b" x="369.084574" y="320.4" style="stroke: #000000; stroke-width: 0.6"/>
      </g>
     </g>
    </g>
    <g id="xtick_42">
     <g id="line2d_42">
      <g>
       <use xlink:href="#m967a57e28b" x="377.541938" y="320.4" style="stroke: #000000; stroke-width: 0.6"/>
      </g>
     </g>
    </g>
    <g id="xtick_43">
     <g id="line2d_43">
      <g>
       <use xlink:href="#m967a57e28b" x="394.456667" y="320.4" style="stroke: #000000; stroke-width: 0.6"/>
      </g>
     </g>
    </g>
    <g id="xtick_44">
     <g id="line2d_44">
      <g>
       <use xlink:href="#m967a57e28b" x="402.914032" y="320.4" style="stroke: #000000; stroke-width: 0.6"/>
      </g>
     </g>
    </g>
    <g id="xtick_45">
     <g id="line2d_45">
      <g>
       <use xlink:href="#m967a57e28b" x="411.371397" y="320.4" style="stroke: #000000; stroke-width: 0.6"/>
      </g>
     </g>
    </g>
    <g id="xtick_46">
     <g id="line2d_46">
      <g>
       <use xlink:href="#m967a57e28b" x="428.286126" y="320.4" style="stroke: #000000; stroke-width: 0.6"/>
      </g>
     </g>
    </g>
    <g id="xtick_47">
     <g id="line2d_47">
      <g>
       <use xlink:href="#m967a57e28b" x="436.74349" y="320.4" style="stroke: #000000; stroke-width: 0.6"/>
      </g>
     </g>
    </g>
    <g id="xtick_48">
     <g id="line2d_48">
      <g>
       <use xlink:href="#m967a57e28b" x="445.200855" y="320.4" style="stroke: #000000; stroke-width: 0.6"/>
      </g>
     </g>
    </g>
    <g id="xtick_49">
     <g id="line2d_49">
      <g>
       <use xlink:href="#m967a57e28b" x="462.115584" y="320.4" style="stroke: #000000; stroke-width: 0.6"/>
      </g>
     </g>
    </g>
    <g id="xtick_50">
     <g id="line2d_50">
      <g>
       <use xlink:href="#m967a57e28b" x="470.572949" y="320.4" style="stroke: #000000; stroke-width: 0.6"/>
      </g>
     </g>
    </g>
    <g id="xtick_51">
     <g id="line2d_51">
      <g>
       <use xlink:href="#m967a57e28b" x="479.030313" y="320.4" style="stroke: #000000; stroke-width: 0.6"/>
      </g>
     </g>
    </g>
    <g id="xtick_52">
     <g id="line2d_52">
      <g>
       <use xlink:href="#m967a57e28b" x="495.945042" y="320.4" style="stroke: #000000; stroke-width: 0.6"/>
      </g>
     </g>
    </g>
    <g id="xtick_53">
     <g id="line2d_53">
      <g>
       <use xlink:href="#m967a57e28b" x="504.402407" y="320.4" style="stroke: #000000; stroke-width: 0.6"/>
      </g>
     </g>
    </g>
    <g id="xtick_54">
     <g id="line2d_54">
      <g>
       <use xlink:href="#m967a57e28b" x="512.859771" y="320.4" style="stroke: #000000; stroke-width: 0.6"/>
      </g>
     </g>
    </g>
    <g id="xtick_55">
     <g id="line2d_55">
      <g>
       <use xlink:href="#m967a57e28b" x="529.774501" y="320.4" style="stroke: #000000; stroke-width: 0.6"/>
      </g>
     </g>
    </g>
    <g id="xtick_56">
     <g id="line2d_56">
      <g>
       <use xlink:href="#m967a57e28b" x="538.231865" y="320.4" style="stroke: #000000; stroke-width: 0.6"/>
      </g>
     </g>
    </g>
    <g id="xtick_57">
     <g id="line2d_57">
      <g>
       <use xlink:href="#m967a57e28b" x="546.68923" y="320.4" style="stroke: #000000; stroke-width: 0.6"/>
      </g>
     </g>
    </g>
    <g id="xtick_58">
     <g id="line2d_58">
      <g>
       <use xlink:href="#m967a57e28b" x="563.603959" y="320.4" style="stroke: #000000; stroke-width: 0.6"/>
      </g>
     </g>
    </g>
    <g id="xtick_59">
     <g id="line2d_59">
      <g>
       <use xlink:href="#m967a57e28b" x="572.061323" y="320.4" style="stroke: #000000; stroke-width: 0.6"/>
      </g>
     </g>
    </g>
    <g id="xtick_60">
     <g id="line2d_60">
      <g>
       <use xlink:href="#m967a57e28b" x="580.518688" y="320.4" style="stroke: #000000; stroke-width: 0.6"/>
      </g>
     </g>
    </g>
    <g id="xtick_61">
     <g id="line2d_61">
      <g>
       <use xlink:href="#m967a57e28b" x="597.433417" y="320.4" style="stroke: #000000; stroke-width: 0.6"/>
      </g>
     </g>
    </g>
    <g id="xtick_62">
     <g id="line2d_62">
      <g>
       <use xlink:href="#m967a57e28b" x="605.890782" y="320.4" style="stroke: #000000; stroke-width: 0.6"/>
      </g>
     </g>
    </g>
    <g id="xtick_63">
     <g id="line2d_63">
      <g>
       <use xlink:href="#m967a57e28b" x="614.348146" y="320.4" style="stroke: #000000; stroke-width: 0.6"/>
      </g>
     </g>
    </g>
    <g id="xtick_64">
     <g id="line2d_64">
      <g>
       <use xlink:href="#m967a57e28b" x="631.262876" y="320.4" style="stroke: #000000; stroke-width: 0.6"/>
      </g>
     </g>
    </g>
    <g id="xtick_65">
     <g id="line2d_65">
      <g>
       <use xlink:href="#m967a57e28b" x="639.72024" y="320.4" style="stroke: #000000; stroke-width: 0.6"/>
      </g>
     </g>
    </g>
    <g id="text_17">
     <!-- Simulation Iterations -->
     <g transform="translate(316.964844 345.176562)scale(0.1 -0.1)">
      <defs>
       <path id="DejaVuSans-53" d="M 3425 4513 
L 3425 3897 
Q 3066 4069 2747 4153 
Q 2428 4238 2131 4238 
Q 1616 4238 1336 4038 
Q 1056 3838 1056 3469 
Q 1056 3159 1242 3001 
Q 1428 2844 1947 2747 
L 2328 2669 
Q 3034 2534 3370 2195 
Q 3706 1856 3706 1288 
Q 3706 609 3251 259 
Q 2797 -91 1919 -91 
Q 1588 -91 1214 -16 
Q 841 59 441 206 
L 441 856 
Q 825 641 1194 531 
Q 1563 422 1919 422 
Q 2459 422 2753 634 
Q 3047 847 3047 1241 
Q 3047 1584 2836 1778 
Q 2625 1972 2144 2069 
L 1759 2144 
Q 1053 2284 737 2584 
Q 422 2884 422 3419 
Q 422 4038 858 4394 
Q 1294 4750 2059 4750 
Q 2388 4750 2728 4690 
Q 3069 4631 3425 4513 
z
" transform="scale(0.015625)"/>
       <path id="DejaVuSans-69" d="M 603 3500 
L 1178 3500 
L 1178 0 
L 603 0 
L 603 3500 
z
M 603 4863 
L 1178 4863 
L 1178 4134 
L 603 4134 
L 603 4863 
z
" transform="scale(0.015625)"/>
       <path id="DejaVuSans-6d" d="M 3328 2828 
Q 3544 3216 3844 3400 
Q 4144 3584 4550 3584 
Q 5097 3584 5394 3201 
Q 5691 2819 5691 2113 
L 5691 0 
L 5113 0 
L 5113 2094 
Q 5113 2597 4934 2840 
Q 4756 3084 4391 3084 
Q 3944 3084 3684 2787 
Q 3425 2491 3425 1978 
L 3425 0 
L 2847 0 
L 2847 2094 
Q 2847 2600 2669 2842 
Q 2491 3084 2119 3084 
Q 1678 3084 1418 2786 
Q 1159 2488 1159 1978 
L 1159 0 
L 581 0 
L 581 3500 
L 1159 3500 
L 1159 2956 
Q 1356 3278 1631 3431 
Q 1906 3584 2284 3584 
Q 2666 3584 2933 3390 
Q 3200 3197 3328 2828 
z
" transform="scale(0.015625)"/>
       <path id="DejaVuSans-75" d="M 544 1381 
L 544 3500 
L 1119 3500 
L 1119 1403 
Q 1119 906 1312 657 
Q 1506 409 1894 409 
Q 2359 409 2629 706 
Q 2900 1003 2900 1516 
L 2900 3500 
L 3475 3500 
L 3475 0 
L 2900 0 
L 2900 538 
Q 2691 219 2414 64 
Q 2138 -91 1772 -91 
Q 1169 -91 856 284 
Q 544 659 544 1381 
z
M 1991 3584 
L 1991 3584 
z
" transform="scale(0.015625)"/>
       <path id="DejaVuSans-6c" d="M 603 4863 
L 1178 4863 
L 1178 0 
L 603 0 
L 603 4863 
z
" transform="scale(0.015625)"/>
       <path id="DejaVuSans-61" d="M 2194 1759 
Q 1497 1759 1228 1600 
Q 959 1441 959 1056 
Q 959 750 1161 570 
Q 1363 391 1709 391 
Q 2188 391 2477 730 
Q 2766 1069 2766 1631 
L 2766 1759 
L 2194 1759 
z
M 3341 1997 
L 3341 0 
L 2766 0 
L 2766 531 
Q 2569 213 2275 61 
Q 1981 -91 1556 -91 
Q 1019 -91 701 211 
Q 384 513 384 1019 
Q 384 1609 779 1909 
Q 1175 2209 1959 2209 
L 2766 2209 
L 2766 2266 
Q 2766 2663 2505 2880 
Q 2244 3097 1772 3097 
Q 1472 3097 1187 3025 
Q 903 2953 641 2809 
L 641 3341 
Q 956 3463 1253 3523 
Q 1550 3584 1831 3584 
Q 2591 3584 2966 3190 
Q 3341 2797 3341 1997 
z
" transform="scale(0.015625)"/>
       <path id="DejaVuSans-74" d="M 1172 4494 
L 1172 3500 
L 2356 3500 
L 2356 3053 
L 1172 3053 
L 1172 1153 
Q 1172 725 1289 603 
Q 1406 481 1766 481 
L 2356 481 
L 2356 0 
L 1766 0 
Q 1100 0 847 248 
Q 594 497 594 1153 
L 594 3053 
L 172 3053 
L 172 3500 
L 594 3500 
L 594 4494 
L 1172 4494 
z
" transform="scale(0.015625)"/>
       <path id="DejaVuSans-6f" d="M 1959 3097 
Q 1497 3097 1228 2736 
Q 959 2375 959 1747 
Q 959 1119 1226 758 
Q 1494 397 1959 397 
Q 2419 397 2687 759 
Q 2956 1122 2956 1747 
Q 2956 2369 2687 2733 
Q 2419 3097 1959 3097 
z
M 1959 3584 
Q 2709 3584 3137 3096 
Q 3566 2609 3566 1747 
Q 3566 888 3137 398 
Q 2709 -91 1959 -91 
Q 1206 -91 779 398 
Q 353 888 353 1747 
Q 353 2609 779 3096 
Q 1206 3584 1959 3584 
z
" transform="scale(0.015625)"/>
       <path id="DejaVuSans-6e" d="M 3513 2113 
L 3513 0 
L 2938 0 
L 2938 2094 
Q 2938 2591 2744 2837 
Q 2550 3084 2163 3084 
Q 1697 3084 1428 2787 
Q 1159 2491 1159 1978 
L 1159 0 
L 581 0 
L 581 3500 
L 1159 3500 
L 1159 2956 
Q 1366 3272 1645 3428 
Q 1925 3584 2291 3584 
Q 2894 3584 3203 3211 
Q 3513 2838 3513 2113 
z
" transform="scale(0.015625)"/>
       <path id="DejaVuSans-20" transform="scale(0.015625)"/>
       <path id="DejaVuSans-49" d="M 628 4666 
L 1259 4666 
L 1259 0 
L 628 0 
L 628 4666 
z
" transform="scale(0.015625)"/>
       <path id="DejaVuSans-65" d="M 3597 1894 
L 3597 1613 
L 953 1613 
Q 991 1019 1311 708 
Q 1631 397 2203 397 
Q 2534 397 2845 478 
Q 3156 559 3463 722 
L 3463 178 
Q 3153 47 2828 -22 
Q 2503 -91 2169 -91 
Q 1331 -91 842 396 
Q 353 884 353 1716 
Q 353 2575 817 3079 
Q 1281 3584 2069 3584 
Q 2775 3584 3186 3129 
Q 3597 2675 3597 1894 
z
M 3022 2063 
Q 3016 2534 2758 2815 
Q 2500 3097 2075 3097 
Q 1594 3097 1305 2825 
Q 1016 2553 972 2059 
L 3022 2063 
z
" transform="scale(0.015625)"/>
       <path id="DejaVuSans-72" d="M 2631 2963 
Q 2534 3019 2420 3045 
Q 2306 3072 2169 3072 
Q 1681 3072 1420 2755 
Q 1159 2438 1159 1844 
L 1159 0 
L 581 0 
L 581 3500 
L 1159 3500 
L 1159 2956 
Q 1341 3275 1631 3429 
Q 1922 3584 2338 3584 
Q 2397 3584 2469 3576 
Q 2541 3569 2628 3553 
L 2631 2963 
z
" transform="scale(0.015625)"/>
       <path id="DejaVuSans-73" d="M 2834 3397 
L 2834 2853 
Q 2591 2978 2328 3040 
Q 2066 3103 1784 3103 
Q 1356 3103 1142 2972 
Q 928 2841 928 2578 
Q 928 2378 1081 2264 
Q 1234 2150 1697 2047 
L 1894 2003 
Q 2506 1872 2764 1633 
Q 3022 1394 3022 966 
Q 3022 478 2636 193 
Q 2250 -91 1575 -91 
Q 1294 -91 989 -36 
Q 684 19 347 128 
L 347 722 
Q 666 556 975 473 
Q 1284 391 1588 391 
Q 1994 391 2212 530 
Q 2431 669 2431 922 
Q 2431 1156 2273 1281 
Q 2116 1406 1581 1522 
L 1381 1569 
Q 847 1681 609 1914 
Q 372 2147 372 2553 
Q 372 3047 722 3315 
Q 1072 3584 1716 3584 
Q 2034 3584 2315 3537 
Q 2597 3491 2834 3397 
z
" transform="scale(0.015625)"/>
      </defs>
      <use xlink:href="#DejaVuSans-53"/>
      <use xlink:href="#DejaVuSans-69" x="63.476562"/>
      <use xlink:href="#DejaVuSans-6d" x="91.259766"/>
      <use xlink:href="#DejaVuSans-75" x="188.671875"/>
      <use xlink:href="#DejaVuSans-6c" x="252.050781"/>
      <use xlink:href="#DejaVuSans-61" x="279.833984"/>
      <use xlink:href="#DejaVuSans-74" x="341.113281"/>
      <use xlink:href="#DejaVuSans-69" x="380.322266"/>
      <use xlink:href="#DejaVuSans-6f" x="408.105469"/>
      <use xlink:href="#DejaVuSans-6e" x="469.287109"/>
      <use xlink:href="#DejaVuSans-20" x="532.666016"/>
      <use xlink:href="#DejaVuSans-49" x="564.453125"/>
      <use xlink:href="#DejaVuSans-74" x="593.945312"/>
      <use xlink:href="#DejaVuSans-65" x="633.154297"/>
      <use xlink:href="#DejaVuSans-72" x="694.677734"/>
      <use xlink:href="#DejaVuSans-61" x="735.791016"/>
      <use xlink:href="#DejaVuSans-74" x="797.070312"/>
      <use xlink:href="#DejaVuSans-69" x="836.279297"/>
      <use xlink:href="#DejaVuSans-6f" x="864.0625"/>
      <use xlink:href="#DejaVuSans-6e" x="925.244141"/>
      <use xlink:href="#DejaVuSans-73" x="988.623047"/>
     </g>
    </g>
   </g>
   <g id="matplotlib.axis_2">
    <g id="ytick_1">
     <g id="line2d_66">
      <defs>
       <path id="ma30eb982c6" d="M 0 0 
L 10 0 
" style="stroke: #000000; stroke-width: 0.8"/>
      </defs>
      <g>
       <use xlink:href="#ma30eb982c6" x="90" y="307.8" style="stroke: #000000; stroke-width: 0.8"/>
      </g>
     </g>
     <g id="text_18">
      <!-- 0% -->
      <g transform="translate(70.635937 311.599219)scale(0.1 -0.1)">
       <defs>
        <path id="DejaVuSans-25" d="M 4653 2053 
Q 4381 2053 4226 1822 
Q 4072 1591 4072 1178 
Q 4072 772 4226 539 
Q 4381 306 4653 306 
Q 4919 306 5073 539 
Q 5228 772 5228 1178 
Q 5228 1588 5073 1820 
Q 4919 2053 4653 2053 
z
M 4653 2450 
Q 5147 2450 5437 2106 
Q 5728 1763 5728 1178 
Q 5728 594 5436 251 
Q 5144 -91 4653 -91 
Q 4153 -91 3862 251 
Q 3572 594 3572 1178 
Q 3572 1766 3864 2108 
Q 4156 2450 4653 2450 
z
M 1428 4353 
Q 1159 4353 1004 4120 
Q 850 3888 850 3481 
Q 850 3069 1003 2837 
Q 1156 2606 1428 2606 
Q 1700 2606 1854 2837 
Q 2009 3069 2009 3481 
Q 2009 3884 1853 4118 
Q 1697 4353 1428 4353 
z
M 4250 4750 
L 4750 4750 
L 1831 -91 
L 1331 -91 
L 4250 4750 
z
M 1428 4750 
Q 1922 4750 2215 4408 
Q 2509 4066 2509 3481 
Q 2509 2891 2217 2550 
Q 1925 2209 1428 2209 
Q 931 2209 642 2551 
Q 353 2894 353 3481 
Q 353 4063 643 4406 
Q 934 4750 1428 4750 
z
" transform="scale(0.015625)"/>
       </defs>
       <use xlink:href="#DejaVuSans-30"/>
       <use xlink:href="#DejaVuSans-25" x="63.623047"/>
      </g>
     </g>
    </g>
    <g id="ytick_2">
     <g id="line2d_67">
      <g>
       <use xlink:href="#ma30eb982c6" x="90" y="257.226747" style="stroke: #000000; stroke-width: 0.8"/>
      </g>
     </g>
     <g id="text_19">
      <!-- 20% -->
      <g transform="translate(64.273438 261.025966)scale(0.1 -0.1)">
       <use xlink:href="#DejaVuSans-32"/>
       <use xlink:href="#DejaVuSans-30" x="63.623047"/>
       <use xlink:href="#DejaVuSans-25" x="127.246094"/>
      </g>
     </g>
    </g>
    <g id="ytick_3">
     <g id="line2d_68">
      <g>
       <use xlink:href="#ma30eb982c6" x="90" y="206.653494" style="stroke: #000000; stroke-width: 0.8"/>
      </g>
     </g>
     <g id="text_20">
      <!-- 40% -->
      <g transform="translate(64.273438 210.452713)scale(0.1 -0.1)">
       <use xlink:href="#DejaVuSans-34"/>
       <use xlink:href="#DejaVuSans-30" x="63.623047"/>
       <use xlink:href="#DejaVuSans-25" x="127.246094"/>
      </g>
     </g>
    </g>
    <g id="ytick_4">
     <g id="line2d_69">
      <g>
       <use xlink:href="#ma30eb982c6" x="90" y="156.080241" style="stroke: #000000; stroke-width: 0.8"/>
      </g>
     </g>
     <g id="text_21">
      <!-- 60% -->
      <g transform="translate(64.273438 159.87946)scale(0.1 -0.1)">
       <use xlink:href="#DejaVuSans-36"/>
       <use xlink:href="#DejaVuSans-30" x="63.623047"/>
       <use xlink:href="#DejaVuSans-25" x="127.246094"/>
      </g>
     </g>
    </g>
    <g id="ytick_5">
     <g id="line2d_70">
      <g>
       <use xlink:href="#ma30eb982c6" x="90" y="105.506988" style="stroke: #000000; stroke-width: 0.8"/>
      </g>
     </g>
     <g id="text_22">
      <!-- 80% -->
      <g transform="translate(64.273438 109.306207)scale(0.1 -0.1)">
       <use xlink:href="#DejaVuSans-38"/>
       <use xlink:href="#DejaVuSans-30" x="63.623047"/>
       <use xlink:href="#DejaVuSans-25" x="127.246094"/>
      </g>
     </g>
    </g>
    <g id="ytick_6">
     <g id="line2d_71">
      <g>
       <use xlink:href="#ma30eb982c6" x="90" y="54.933735" style="stroke: #000000; stroke-width: 0.8"/>
      </g>
     </g>
     <g id="text_23">
      <!-- 100% -->
      <g transform="translate(57.910938 58.732954)scale(0.1 -0.1)">
       <use xlink:href="#DejaVuSans-31"/>
       <use xlink:href="#DejaVuSans-30" x="63.623047"/>
       <use xlink:href="#DejaVuSans-30" x="127.246094"/>
       <use xlink:href="#DejaVuSans-25" x="190.869141"/>
      </g>
     </g>
    </g>
    <g id="ytick_7">
     <g id="line2d_72">
      <defs>
       <path id="m8f69299533" d="M 0 0 
L 5 0 
" style="stroke: #000000; stroke-width: 0.6"/>
      </defs>
      <g>
       <use xlink:href="#m8f69299533" x="90" y="295.156687" style="stroke: #000000; stroke-width: 0.6"/>
      </g>
     </g>
    </g>
    <g id="ytick_8">
     <g id="line2d_73">
      <g>
       <use xlink:href="#m8f69299533" x="90" y="282.513374" style="stroke: #000000; stroke-width: 0.6"/>
      </g>
     </g>
    </g>
    <g id="ytick_9">
     <g id="line2d_74">
      <g>
       <use xlink:href="#m8f69299533" x="90" y="269.87006" style="stroke: #000000; stroke-width: 0.6"/>
      </g>
     </g>
    </g>
    <g id="ytick_10">
     <g id="line2d_75">
      <g>
       <use xlink:href="#m8f69299533" x="90" y="244.583434" style="stroke: #000000; stroke-width: 0.6"/>
      </g>
     </g>
    </g>
    <g id="ytick_11">
     <g id="line2d_76">
      <g>
       <use xlink:href="#m8f69299533" x="90" y="231.940121" style="stroke: #000000; stroke-width: 0.6"/>
      </g>
     </g>
    </g>
    <g id="ytick_12">
     <g id="line2d_77">
      <g>
       <use xlink:href="#m8f69299533" x="90" y="219.296807" style="stroke: #000000; stroke-width: 0.6"/>
      </g>
     </g>
    </g>
    <g id="ytick_13">
     <g id="line2d_78">
      <g>
       <use xlink:href="#m8f69299533" x="90" y="194.010181" style="stroke: #000000; stroke-width: 0.6"/>
      </g>
     </g>
    </g>
    <g id="ytick_14">
     <g id="line2d_79">
      <g>
       <use xlink:href="#m8f69299533" x="90" y="181.366868" style="stroke: #000000; stroke-width: 0.6"/>
      </g>
     </g>
    </g>
    <g id="ytick_15">
     <g id="line2d_80">
      <g>
       <use xlink:href="#m8f69299533" x="90" y="168.723554" style="stroke: #000000; stroke-width: 0.6"/>
      </g>
     </g>
    </g>
    <g id="ytick_16">
     <g id="line2d_81">
      <g>
       <use xlink:href="#m8f69299533" x="90" y="143.436928" style="stroke: #000000; stroke-width: 0.6"/>
      </g>
     </g>
    </g>
    <g id="ytick_17">
     <g id="line2d_82">
      <g>
       <use xlink:href="#m8f69299533" x="90" y="130.793615" style="stroke: #000000; stroke-width: 0.6"/>
      </g>
     </g>
    </g>
    <g id="ytick_18">
     <g id="line2d_83">
      <g>
       <use xlink:href="#m8f69299533" x="90" y="118.150301" style="stroke: #000000; stroke-width: 0.6"/>
      </g>
     </g>
    </g>
    <g id="ytick_19">
     <g id="line2d_84">
      <g>
       <use xlink:href="#m8f69299533" x="90" y="92.863675" style="stroke: #000000; stroke-width: 0.6"/>
      </g>
     </g>
    </g>
    <g id="ytick_20">
     <g id="line2d_85">
      <g>
       <use xlink:href="#m8f69299533" x="90" y="80.220362" style="stroke: #000000; stroke-width: 0.6"/>
      </g>
     </g>
    </g>
    <g id="ytick_21">
     <g id="line2d_86">
      <g>
       <use xlink:href="#m8f69299533" x="90" y="67.577049" style="stroke: #000000; stroke-width: 0.6"/>
      </g>
     </g>
    </g>
    <g id="text_24">
     <!-- Total Accuracy [%] -->
     <g transform="translate(51.83125 228.135156)rotate(-90)scale(0.1 -0.1)">
      <defs>
       <path id="DejaVuSans-54" d="M -19 4666 
L 3928 4666 
L 3928 4134 
L 2272 4134 
L 2272 0 
L 1638 0 
L 1638 4134 
L -19 4134 
L -19 4666 
z
" transform="scale(0.015625)"/>
       <path id="DejaVuSans-41" d="M 2188 4044 
L 1331 1722 
L 3047 1722 
L 2188 4044 
z
M 1831 4666 
L 2547 4666 
L 4325 0 
L 3669 0 
L 3244 1197 
L 1141 1197 
L 716 0 
L 50 0 
L 1831 4666 
z
" transform="scale(0.015625)"/>
       <path id="DejaVuSans-63" d="M 3122 3366 
L 3122 2828 
Q 2878 2963 2633 3030 
Q 2388 3097 2138 3097 
Q 1578 3097 1268 2742 
Q 959 2388 959 1747 
Q 959 1106 1268 751 
Q 1578 397 2138 397 
Q 2388 397 2633 464 
Q 2878 531 3122 666 
L 3122 134 
Q 2881 22 2623 -34 
Q 2366 -91 2075 -91 
Q 1284 -91 818 406 
Q 353 903 353 1747 
Q 353 2603 823 3093 
Q 1294 3584 2113 3584 
Q 2378 3584 2631 3529 
Q 2884 3475 3122 3366 
z
" transform="scale(0.015625)"/>
       <path id="DejaVuSans-79" d="M 2059 -325 
Q 1816 -950 1584 -1140 
Q 1353 -1331 966 -1331 
L 506 -1331 
L 506 -850 
L 844 -850 
Q 1081 -850 1212 -737 
Q 1344 -625 1503 -206 
L 1606 56 
L 191 3500 
L 800 3500 
L 1894 763 
L 2988 3500 
L 3597 3500 
L 2059 -325 
z
" transform="scale(0.015625)"/>
       <path id="DejaVuSans-5b" d="M 550 4863 
L 1875 4863 
L 1875 4416 
L 1125 4416 
L 1125 -397 
L 1875 -397 
L 1875 -844 
L 550 -844 
L 550 4863 
z
" transform="scale(0.015625)"/>
       <path id="DejaVuSans-5d" d="M 1947 4863 
L 1947 -844 
L 622 -844 
L 622 -397 
L 1369 -397 
L 1369 4416 
L 622 4416 
L 622 4863 
L 1947 4863 
z
" transform="scale(0.015625)"/>
      </defs>
      <use xlink:href="#DejaVuSans-54"/>
      <use xlink:href="#DejaVuSans-6f" x="44.083984"/>
      <use xlink:href="#DejaVuSans-74" x="105.265625"/>
      <use xlink:href="#DejaVuSans-61" x="144.474609"/>
      <use xlink:href="#DejaVuSans-6c" x="205.753906"/>
      <use xlink:href="#DejaVuSans-20" x="233.537109"/>
      <use xlink:href="#DejaVuSans-41" x="265.324219"/>
      <use xlink:href="#DejaVuSans-63" x="331.982422"/>
      <use xlink:href="#DejaVuSans-63" x="386.962891"/>
      <use xlink:href="#DejaVuSans-75" x="441.943359"/>
      <use xlink:href="#DejaVuSans-72" x="505.322266"/>
      <use xlink:href="#DejaVuSans-61" x="546.435547"/>
      <use xlink:href="#DejaVuSans-63" x="607.714844"/>
      <use xlink:href="#DejaVuSans-79" x="662.695312"/>
      <use xlink:href="#DejaVuSans-20" x="721.875"/>
      <use xlink:href="#DejaVuSans-5b" x="753.662109"/>
      <use xlink:href="#DejaVuSans-25" x="792.675781"/>
      <use xlink:href="#DejaVuSans-5d" x="887.695312"/>
     </g>
    </g>
   </g>
   <g id="line2d_87">
    <path d="M 115.363636 307.8 
L 117.065894 261.330102 
L 118.768151 261.104439 
L 120.470409 208.665428 
L 122.172666 233.149718 
L 123.874924 228.856459 
L 125.577181 211.126939 
L 127.279439 223.169756 
L 128.981696 189.38246 
L 130.683954 220.949253 
L 132.386211 233.934836 
L 134.088469 210.983263 
L 135.790726 224.843392 
L 137.492984 222.349037 
L 139.195241 215.803308 
L 140.897498 219.450421 
L 142.599756 240.371222 
L 144.302013 248.471555 
L 146.004271 245.652976 
L 147.706528 221.464959 
L 149.408786 242.589721 
L 151.111043 228.979301 
L 152.813301 217.160031 
L 154.515558 210.790596 
L 156.217816 207.888597 
L 157.920073 218.438926 
L 159.622331 205.099953 
L 161.324588 205.680342 
L 163.026846 197.20178 
L 164.729103 185.799058 
L 166.431361 193.577744 
L 168.133618 193.953725 
L 169.835876 202.420846 
L 171.538133 219.410208 
L 173.24039 215.241554 
L 174.942648 206.54254 
L 176.644905 223.29716 
L 178.347163 207.785567 
L 180.04942 203.291767 
L 181.751678 196.496471 
L 183.453935 206.717361 
L 185.156193 205.875037 
L 186.85845 221.37892 
L 188.560708 197.512649 
L 191.965223 239.762927 
L 193.66748 224.000528 
L 195.369738 189.799621 
L 197.071995 198.028704 
L 198.774253 194.327127 
L 200.47651 216.379263 
L 202.178768 226.31708 
L 203.881025 200.859481 
L 205.583282 216.592871 
L 207.28554 224.094543 
L 208.987797 198.068397 
L 210.690055 207.319237 
L 212.392312 201.605939 
L 214.09457 196.324966 
L 215.796827 194.898901 
L 217.499085 198.749348 
L 219.201342 206.277237 
L 220.9036 210.575873 
L 222.605857 194.079306 
L 224.308115 206.240746 
L 226.010372 207.856911 
L 227.71263 199.165377 
L 229.414887 210.091828 
L 231.117145 197.868524 
L 232.819402 184.390032 
L 234.52166 194.066234 
L 236.223917 190.841051 
L 237.926174 196.005 
L 239.628432 208.292896 
L 241.330689 202.574907 
L 243.032947 211.469839 
L 244.735204 197.994474 
L 246.437462 206.95281 
L 248.139719 202.234353 
L 249.841977 210.648901 
L 251.544234 211.553919 
L 253.246492 211.341794 
L 254.948749 188.674983 
L 256.651007 209.364288 
L 258.353264 197.437346 
L 260.055522 208.525099 
L 261.757779 197.310034 
L 263.460037 191.529238 
L 265.162294 196.856755 
L 266.864552 203.35375 
L 268.566809 201.225497 
L 270.269067 198.884396 
L 271.971324 177.337461 
L 273.673581 185.261567 
L 275.375839 181.353266 
L 277.078096 198.069251 
L 278.780354 207.15356 
L 280.482611 212.171576 
L 282.184869 187.712963 
L 283.887126 189.635309 
L 285.589384 195.114866 
L 287.291641 195.875759 
L 288.993899 202.45247 
L 290.696156 204.921422 
L 292.398414 200.247972 
L 294.100671 216.768535 
L 295.802929 234.379817 
L 297.505186 210.714368 
L 299.207444 211.118898 
L 300.909701 198.654002 
L 302.611959 215.067652 
L 304.314216 198.175086 
L 306.016473 188.734211 
L 307.718731 202.430159 
L 309.420988 226.498216 
L 311.123246 210.183807 
L 312.825503 208.366918 
L 314.527761 238.582428 
L 316.230018 225.445465 
L 317.932276 213.440816 
L 319.634533 204.558659 
L 321.336791 219.114721 
L 323.039048 202.114976 
L 324.741306 228.893238 
L 326.443563 207.495801 
L 328.145821 223.72981 
L 329.848078 227.613223 
L 331.550336 224.258832 
L 333.252593 237.419738 
L 334.954851 224.332437 
L 336.657108 220.276009 
L 338.359365 198.381155 
L 340.061623 179.779975 
L 341.76388 206.443378 
L 343.466138 200.482616 
L 345.168395 186.267526 
L 346.870653 208.514189 
L 348.57291 213.285687 
L 350.275168 210.909805 
L 351.977425 206.850297 
L 353.679683 206.960248 
L 355.38194 185.558235 
L 357.084198 210.830194 
L 358.786455 206.773613 
L 360.488713 210.366624 
L 362.19097 193.811807 
L 363.893228 202.148398 
L 365.595485 197.575899 
L 367.297743 213.957742 
L 369 202.141669 
L 370.702257 187.802458 
L 372.404515 198.003649 
L 374.106772 206.88926 
L 375.80903 206.565363 
L 377.511287 226.993277 
L 379.213545 215.239854 
L 380.915802 236.255126 
L 382.61806 210.889406 
L 384.320317 235.363333 
L 386.022575 224.262482 
L 387.724832 240.419898 
L 389.42709 221.557035 
L 391.129347 235.691741 
L 392.831605 245.546123 
L 394.533862 246.319462 
L 396.23612 238.255009 
L 397.938377 221.96583 
L 399.640635 216.14169 
L 401.342892 223.1085 
L 403.045149 214.212256 
L 404.747407 214.608571 
L 406.449664 223.06638 
L 408.151922 219.26656 
L 409.854179 214.921247 
L 413.258694 231.328057 
L 414.960952 201.819696 
L 416.663209 221.547637 
L 418.365467 214.284079 
L 420.067724 212.560687 
L 421.769982 216.638878 
L 423.472239 227.340557 
L 425.174497 202.192655 
L 426.876754 200.426287 
L 428.579012 208.228891 
L 430.281269 202.82636 
L 431.983527 184.838429 
L 435.388041 185.455789 
L 437.090299 189.869174 
L 438.792556 193.536946 
L 440.494814 202.680133 
L 442.197071 204.941735 
L 443.899329 202.737478 
L 445.601586 203.94646 
L 447.303844 227.249995 
L 449.006101 197.241161 
L 450.708359 201.647594 
L 452.410616 197.326308 
L 454.112874 184.703002 
L 455.815131 201.351691 
L 457.517389 202.272973 
L 459.219646 201.928758 
L 460.921904 172.545859 
L 462.624161 193.989243 
L 464.326419 202.128105 
L 466.028676 193.172169 
L 467.730933 181.430152 
L 469.433191 195.353084 
L 471.135448 190.612408 
L 472.837706 198.835612 
L 474.539963 197.388321 
L 476.242221 208.756346 
L 477.944478 205.979402 
L 479.646736 208.371818 
L 481.348993 197.839014 
L 483.051251 193.832725 
L 484.753508 201.930733 
L 486.455766 198.081422 
L 488.158023 210.696121 
L 489.860281 219.498727 
L 491.562538 223.737857 
L 493.264796 202.714443 
L 494.967053 238.9482 
L 496.669311 232.428107 
L 498.371568 235.763489 
L 500.073826 206.887298 
L 501.776083 229.373158 
L 503.47834 224.524497 
L 505.180598 226.224498 
L 506.882855 230.896163 
L 508.585113 213.03344 
L 510.28737 213.777698 
L 511.989628 211.580951 
L 513.691885 202.232957 
L 515.394143 194.076421 
L 517.0964 207.218181 
L 518.798658 190.073954 
L 520.500915 197.941755 
L 522.203173 215.368798 
L 523.90543 210.160988 
L 525.607688 217.176606 
L 527.309945 208.693541 
L 529.012203 192.661356 
L 530.71446 209.103258 
L 532.416718 204.615402 
L 534.118975 222.300981 
L 535.821232 227.826445 
L 537.52349 207.961087 
L 539.225747 210.666589 
L 540.928005 194.254167 
L 542.630262 189.812577 
L 544.33252 198.405942 
L 546.034777 215.375934 
L 547.737035 211.523685 
L 549.439292 220.756197 
L 551.14155 193.287449 
L 552.843807 191.984423 
L 554.546065 217.752531 
L 556.248322 182.24305 
L 557.95058 209.611844 
L 559.652837 212.803845 
L 561.355095 203.100117 
L 563.057352 188.538165 
L 564.75961 171.042696 
L 566.461867 193.848261 
L 568.164124 202.500218 
L 569.866382 202.424144 
L 571.568639 198.412795 
L 573.270897 207.29405 
L 574.973154 187.328063 
L 576.675412 180.918174 
L 578.377669 190.224796 
L 580.079927 187.397422 
L 581.782184 180.043864 
L 583.484442 187.372565 
L 585.186699 179.147606 
L 586.888957 181.46135 
L 588.591214 184.910868 
L 590.293472 202.825006 
L 591.995729 201.751742 
L 593.697987 210.171733 
L 595.400244 219.181049 
L 597.102502 202.196633 
L 598.804759 219.877453 
L 600.507016 219.983365 
L 602.209274 210.923304 
L 603.911531 200.109171 
L 605.613789 216.956507 
L 607.316046 206.435635 
L 609.018304 199.5501 
L 610.720561 223.338451 
L 612.422819 218.76768 
L 614.125076 206.841922 
L 615.827334 202.473558 
L 617.529591 212.109863 
L 619.231849 215.600958 
L 620.934106 211.187043 
L 622.636364 219.296807 
L 622.636364 219.296807 
" clip-path="url(#p6fd7332c2b)" style="fill: none; stroke: #611f53; stroke-linecap: square"/>
   </g>
   <g id="line2d_88">
    <path d="M 90 208.535759 
L 648 208.535759 
" clip-path="url(#p6fd7332c2b)" style="fill: none; stroke-dasharray: 3.7,1.6; stroke-dashoffset: 0; stroke: #611f53"/>
    <defs>
     <path id="mb95de7bfec" d="M -3 3 
L 3 3 
L 3 -3 
L -3 -3 
z
" style="stroke: #611f53; stroke-linejoin: miter"/>
    </defs>
    <g clip-path="url(#p6fd7332c2b)">
     <use xlink:href="#mb95de7bfec" x="90" y="208.535759" style="fill: #611f53; stroke: #611f53; stroke-linejoin: miter"/>
     <use xlink:href="#mb95de7bfec" x="648" y="208.535759" style="fill: #611f53; stroke: #611f53; stroke-linejoin: miter"/>
    </g>
   </g>
   <g id="line2d_89">
    <path d="M 115.363636 307.8 
L 117.065894 222.791124 
L 118.768151 182.728251 
L 120.470409 189.648159 
L 122.172666 176.589136 
L 123.874924 171.811008 
L 125.577181 182.702463 
L 127.279439 149.864276 
L 128.981696 174.467321 
L 130.683954 165.014335 
L 132.386211 166.360052 
L 134.088469 180.901969 
L 135.790726 193.636472 
L 137.492984 169.328542 
L 139.195241 169.133476 
L 140.897498 185.693458 
L 142.599756 151.927899 
L 144.302013 206.321131 
L 146.004271 177.702269 
L 147.706528 156.477738 
L 149.408786 169.740348 
L 151.111043 188.892103 
L 152.813301 173.08663 
L 154.515558 176.635299 
L 156.217816 166.755662 
L 157.920073 181.761711 
L 159.622331 187.947313 
L 161.324588 183.809404 
L 163.026846 196.843656 
L 164.729103 212.587825 
L 166.431361 178.346961 
L 168.133618 181.423645 
L 169.835876 185.38524 
L 171.538133 176.728414 
L 173.24039 156.053073 
L 174.942648 160.509545 
L 176.644905 175.38779 
L 178.347163 200.175832 
L 180.04942 188.131736 
L 181.751678 173.004298 
L 183.453935 174.129226 
L 185.156193 173.082994 
L 186.85845 164.50819 
L 188.560708 160.707888 
L 190.262965 182.731645 
L 191.965223 180.801171 
L 193.66748 194.448896 
L 195.369738 160.306931 
L 197.071995 180.776926 
L 198.774253 196.719466 
L 200.47651 169.374559 
L 202.178768 190.406513 
L 205.583282 212.749591 
L 207.28554 211.189774 
L 208.987797 192.866988 
L 210.690055 187.686662 
L 212.392312 161.954348 
L 214.09457 175.623486 
L 215.796827 193.739757 
L 217.499085 180.421517 
L 219.201342 157.463641 
L 220.9036 177.185361 
L 222.605857 210.784974 
L 224.308115 160.471686 
L 226.010372 178.751883 
L 227.71263 175.889395 
L 229.414887 181.256575 
L 231.117145 202.589538 
L 232.819402 215.236098 
L 234.52166 187.052259 
L 236.223917 214.431391 
L 237.926174 191.190951 
L 239.628432 188.780157 
L 241.330689 193.064126 
L 243.032947 205.864328 
L 244.735204 190.697445 
L 246.437462 184.689346 
L 248.139719 160.162373 
L 249.841977 181.62733 
L 251.544234 176.922004 
L 253.246492 144.71679 
L 254.948749 175.291649 
L 256.651007 163.232191 
L 258.353264 188.701016 
L 260.055522 175.745988 
L 261.757779 174.716559 
L 263.460037 197.513848 
L 265.162294 224.238037 
L 266.864552 184.170207 
L 268.566809 187.398876 
L 270.269067 167.542794 
L 271.971324 197.267073 
L 273.673581 182.607644 
L 275.375839 198.237065 
L 277.078096 180.48664 
L 278.780354 192.937463 
L 280.482611 211.496676 
L 282.184869 221.416072 
L 283.887126 202.971729 
L 285.589384 203.475238 
L 287.291641 195.853776 
L 288.993899 216.88544 
L 290.696156 179.700994 
L 292.398414 176.004246 
L 294.100671 163.162634 
L 295.802929 148.987853 
L 297.505186 170.785501 
L 299.207444 184.373948 
L 300.909701 185.475917 
L 302.611959 206.635323 
L 306.016473 197.634044 
L 307.718731 199.606345 
L 309.420988 189.775852 
L 311.123246 190.591132 
L 312.825503 172.173166 
L 314.527761 164.532068 
L 316.230018 177.68507 
L 317.932276 199.617111 
L 319.634533 174.041492 
L 321.336791 195.009909 
L 323.039048 188.185267 
L 324.741306 182.567776 
L 326.443563 222.899016 
L 328.145821 181.49403 
L 329.848078 198.219517 
L 331.550336 172.786945 
L 333.252593 176.140476 
L 334.954851 178.269493 
L 336.657108 182.933946 
L 338.359365 185.775565 
L 340.061623 199.942229 
L 341.76388 179.021503 
L 343.466138 166.784951 
L 345.168395 162.444509 
L 346.870653 163.658857 
L 348.57291 182.626773 
L 350.275168 172.439977 
L 351.977425 160.314161 
L 353.679683 164.70182 
L 355.38194 189.727526 
L 357.084198 173.327704 
L 358.786455 189.988898 
L 360.488713 163.02666 
L 362.19097 176.184399 
L 363.893228 179.566676 
L 365.595485 187.129462 
L 367.297743 205.540886 
L 369 204.612126 
L 370.702257 216.522725 
L 372.404515 200.788601 
L 374.106772 167.865718 
L 375.80903 193.249249 
L 377.511287 201.589956 
L 379.213545 197.636615 
L 380.915802 211.031062 
L 382.61806 198.241915 
L 384.320317 198.153536 
L 386.022575 227.783795 
L 387.724832 189.247232 
L 389.42709 186.99796 
L 391.129347 181.681481 
L 392.831605 187.769807 
L 394.533862 188.50678 
L 396.23612 173.261282 
L 397.938377 198.123132 
L 399.640635 184.806744 
L 401.342892 176.517254 
L 403.045149 183.901744 
L 404.747407 174.616159 
L 406.449664 193.364582 
L 408.151922 190.09925 
L 409.854179 172.723184 
L 411.556437 173.815098 
L 413.258694 194.14442 
L 414.960952 202.411809 
L 416.663209 192.579268 
L 418.365467 207.936861 
L 420.067724 188.006318 
L 421.769982 187.339849 
L 423.472239 202.105168 
L 425.174497 206.713088 
L 426.876754 181.139036 
L 428.579012 194.294518 
L 430.281269 195.017417 
L 431.983527 196.32119 
L 433.685784 164.484675 
L 435.388041 177.07051 
L 437.090299 164.943145 
L 438.792556 151.284515 
L 442.197071 185.115323 
L 443.899329 178.269528 
L 445.601586 155.317323 
L 447.303844 157.720189 
L 449.006101 184.263499 
L 450.708359 179.215597 
L 452.410616 186.234416 
L 454.112874 194.797149 
L 455.815131 208.90765 
L 457.517389 198.406164 
L 459.219646 207.795743 
L 460.921904 193.848587 
L 462.624161 215.149469 
L 464.326419 190.212171 
L 466.028676 215.772957 
L 467.730933 198.425066 
L 469.433191 185.339756 
L 471.135448 193.922902 
L 472.837706 194.87572 
L 474.539963 185.57497 
L 476.242221 207.667506 
L 477.944478 211.094148 
L 479.646736 169.444396 
L 481.348993 199.889629 
L 483.051251 189.496108 
L 484.753508 165.857891 
L 486.455766 184.470281 
L 488.158023 194.244387 
L 489.860281 206.528425 
L 491.562538 202.599501 
L 493.264796 176.344181 
L 494.967053 186.622905 
L 496.669311 189.421139 
L 498.371568 181.348168 
L 500.073826 190.340031 
L 501.776083 177.869874 
L 503.47834 202.596392 
L 505.180598 190.765103 
L 506.882855 214.9611 
L 508.585113 205.160851 
L 510.28737 177.72815 
L 511.989628 163.980247 
L 513.691885 168.674318 
L 515.394143 198.368676 
L 517.0964 142.910574 
L 518.798658 161.606771 
L 520.500915 172.942453 
L 522.203173 188.213004 
L 523.90543 176.582481 
L 525.607688 169.880568 
L 527.309945 192.556504 
L 529.012203 185.758397 
L 530.71446 195.106265 
L 532.416718 178.867351 
L 534.118975 169.613819 
L 535.821232 168.937609 
L 537.52349 160.941757 
L 539.225747 190.579801 
L 540.928005 176.961198 
L 542.630262 168.69688 
L 544.33252 168.971428 
L 546.034777 165.198936 
L 547.737035 192.862143 
L 549.439292 183.843747 
L 551.14155 179.546571 
L 552.843807 173.615001 
L 554.546065 191.292657 
L 556.248322 170.71547 
L 557.95058 164.676177 
L 559.652837 179.189166 
L 561.355095 175.020096 
L 563.057352 176.247856 
L 564.75961 204.322191 
L 566.461867 193.904943 
L 568.164124 181.101496 
L 569.866382 173.009438 
L 571.568639 193.450447 
L 573.270897 161.220376 
L 574.973154 175.808729 
L 576.675412 181.818322 
L 578.377669 168.822248 
L 580.079927 167.105605 
L 581.782184 170.951679 
L 583.484442 177.944817 
L 585.186699 186.005242 
L 586.888957 197.714059 
L 588.591214 180.369162 
L 590.293472 176.244668 
L 593.697987 190.117877 
L 595.400244 177.357576 
L 597.102502 160.217548 
L 598.804759 183.125927 
L 600.507016 188.75593 
L 602.209274 181.019815 
L 603.911531 178.806091 
L 605.613789 176.803965 
L 607.316046 171.582583 
L 609.018304 184.14522 
L 610.720561 183.095187 
L 612.422819 167.621212 
L 614.125076 155.5085 
L 615.827334 193.990958 
L 617.529591 170.366251 
L 620.934106 193.569457 
L 622.636364 202.439056 
L 622.636364 202.439056 
" clip-path="url(#p6fd7332c2b)" style="fill: none; stroke: #cb1b4f; stroke-linecap: square"/>
   </g>
   <g id="line2d_90">
    <path d="M 90 184.514379 
L 648 184.514379 
" clip-path="url(#p6fd7332c2b)" style="fill: none; stroke-dasharray: 3.7,1.6; stroke-dashoffset: 0; stroke: #cb1b4f"/>
    <defs>
     <path id="m5366608303" d="M 0 3 
C 0.795609 3 1.55874 2.683901 2.12132 2.12132 
C 2.683901 1.55874 3 0.795609 3 0 
C 3 -0.795609 2.683901 -1.55874 2.12132 -2.12132 
C 1.55874 -2.683901 0.795609 -3 0 -3 
C -0.795609 -3 -1.55874 -2.683901 -2.12132 -2.12132 
C -2.683901 -1.55874 -3 -0.795609 -3 0 
C -3 0.795609 -2.683901 1.55874 -2.12132 2.12132 
C -1.55874 2.683901 -0.795609 3 0 3 
z
" style="stroke: #cb1b4f"/>
    </defs>
    <g clip-path="url(#p6fd7332c2b)">
     <use xlink:href="#m5366608303" x="90" y="184.514379" style="fill: #cb1b4f; stroke: #cb1b4f"/>
     <use xlink:href="#m5366608303" x="648" y="184.514379" style="fill: #cb1b4f; stroke: #cb1b4f"/>
    </g>
   </g>
   <g id="line2d_91">
    <path d="M 115.363636 307.8 
L 117.065894 182.687553 
L 118.768151 154.375653 
L 120.470409 132.997381 
L 122.172666 136.869046 
L 123.874924 146.30039 
L 125.577181 102.989188 
L 127.279439 192.398072 
L 128.981696 180.873011 
L 130.683954 103.740629 
L 132.386211 173.184043 
L 134.088469 149.472711 
L 135.790726 173.933136 
L 137.492984 212.24398 
L 139.195241 209.593355 
L 140.897498 131.493481 
L 142.599756 180.741581 
L 144.302013 158.260406 
L 146.004271 181.595062 
L 147.706528 133.926029 
L 149.408786 215.772318 
L 151.111043 240.540913 
L 152.813301 219.56339 
L 154.515558 127.450565 
L 156.217816 199.907992 
L 157.920073 183.781866 
L 159.622331 240.369562 
L 161.324588 162.239485 
L 163.026846 120.837714 
L 164.729103 203.108517 
L 166.431361 155.281861 
L 168.133618 181.822817 
L 169.835876 181.784343 
L 171.538133 156.348367 
L 173.24039 154.005872 
L 174.942648 147.670977 
L 176.644905 190.443349 
L 178.347163 170.782357 
L 180.04942 245.74754 
L 181.751678 188.603489 
L 183.453935 113.883348 
L 185.156193 103.822111 
L 186.85845 126.356371 
L 188.560708 134.624051 
L 190.262965 106.742288 
L 191.965223 207.964663 
L 193.66748 179.975406 
L 195.369738 130.756996 
L 197.071995 232.915479 
L 198.774253 230.413059 
L 200.47651 231.676334 
L 202.178768 165.504382 
L 203.881025 204.270068 
L 205.583282 192.724182 
L 207.28554 100.864369 
L 208.987797 130.629157 
L 210.690055 143.911521 
L 212.392312 147.695515 
L 214.09457 155.074823 
L 215.796827 87.792223 
L 217.499085 209.235659 
L 219.201342 225.971063 
L 220.9036 182.550012 
L 222.605857 105.25105 
L 224.308115 184.659906 
L 226.010372 176.681861 
L 227.71263 157.504673 
L 229.414887 183.611114 
L 231.117145 184.711169 
L 232.819402 184.535267 
L 234.52166 218.92503 
L 236.223917 165.36343 
L 237.926174 145.194613 
L 239.628432 196.915339 
L 241.330689 141.032559 
L 243.032947 127.627759 
L 244.735204 179.164732 
L 246.437462 155.27579 
L 248.139719 231.408116 
L 249.841977 156.283731 
L 251.544234 130.107868 
L 253.246492 202.95422 
L 254.948749 183.686561 
L 256.651007 181.231938 
L 258.353264 200.862403 
L 260.055522 98.88379 
L 261.757779 105.110393 
L 263.460037 161.111519 
L 265.162294 212.768226 
L 266.864552 168.664327 
L 268.566809 234.438435 
L 270.269067 107.15988 
L 271.971324 105.449202 
L 273.673581 155.6817 
L 275.375839 130.866932 
L 277.078096 157.480759 
L 278.780354 130.202596 
L 280.482611 203.349311 
L 282.184869 206.400613 
L 283.887126 207.62142 
L 285.589384 264.87011 
L 287.291641 192.809433 
L 288.993899 173.021523 
L 290.696156 104.291852 
L 292.398414 164.128037 
L 294.100671 106.275631 
L 295.802929 147.756712 
L 297.505186 202.197447 
L 299.207444 137.5378 
L 300.909701 131.379832 
L 302.611959 156.419662 
L 304.314216 155.809404 
L 306.016473 82.057765 
L 307.718731 157.900389 
L 309.420988 158.679644 
L 311.123246 207.018851 
L 312.825503 203.861155 
L 314.527761 171.357007 
L 316.230018 157.1895 
L 317.932276 191.9261 
L 319.634533 190.722698 
L 321.336791 112.000637 
L 323.039048 132.882599 
L 324.741306 180.094252 
L 326.443563 235.227653 
L 328.145821 104.557749 
L 329.848078 79.463161 
L 331.550336 127.428786 
L 333.252593 180.906698 
L 334.954851 206.393169 
L 336.657108 149.06045 
L 338.359365 201.02105 
L 340.061623 181.099266 
L 341.76388 205.334609 
L 343.466138 196.188322 
L 345.168395 171.577723 
L 346.870653 129.296543 
L 348.57291 108.340252 
L 350.275168 184.906863 
L 351.977425 179.660209 
L 353.679683 183.821686 
L 355.38194 131.062091 
L 357.084198 232.65862 
L 358.786455 154.783903 
L 360.488713 174.191638 
L 362.19097 207.840478 
L 363.893228 200.248791 
L 365.595485 196.374436 
L 367.297743 198.465872 
L 369 155.954016 
L 370.702257 193.941707 
L 372.404515 130.529447 
L 374.106772 77.291165 
L 375.80903 184.781208 
L 377.511287 209.4436 
L 379.213545 208.680045 
L 380.915802 180.723069 
L 382.61806 156.253014 
L 384.320317 156.941869 
L 386.022575 235.369367 
L 387.724832 176.688854 
L 389.42709 138.048829 
L 391.129347 174.483195 
L 392.831605 184.283807 
L 394.533862 163.435679 
L 396.23612 101.296835 
L 397.938377 106.026363 
L 401.342892 212.022556 
L 403.045149 126.543513 
L 404.747407 123.62592 
L 406.449664 255.366181 
L 408.151922 181.380507 
L 409.854179 155.648795 
L 411.556437 230.987647 
L 413.258694 203.444535 
L 414.960952 184.299168 
L 416.663209 189.576742 
L 418.365467 189.605909 
L 420.067724 247.363048 
L 421.769982 254.63993 
L 425.174497 150.813649 
L 426.876754 153.713543 
L 428.579012 236.175194 
L 430.281269 226.201762 
L 431.983527 228.966341 
L 438.792556 131.578742 
L 440.494814 181.500605 
L 442.197071 159.319379 
L 443.899329 203.63382 
L 445.601586 89.657943 
L 447.303844 103.09338 
L 449.006101 106.243491 
L 450.708359 168.440804 
L 452.410616 205.340499 
L 454.112874 181.63598 
L 455.815131 175.785361 
L 457.517389 99.800114 
L 459.219646 202.302327 
L 460.921904 206.550124 
L 462.624161 206.420824 
L 464.326419 133.295867 
L 466.028676 227.87988 
L 467.730933 154.756048 
L 469.433191 186.733029 
L 471.135448 196.202371 
L 472.837706 188.351361 
L 474.539963 184.359439 
L 476.242221 174.83536 
L 477.944478 238.520215 
L 479.646736 198.182406 
L 481.348993 153.054137 
L 483.051251 180.489745 
L 484.753508 109.688207 
L 486.455766 160.812669 
L 488.158023 80.764034 
L 489.860281 80.657685 
L 491.562538 106.168525 
L 493.264796 128.319344 
L 494.967053 104.341028 
L 496.669311 175.917476 
L 498.371568 107.547205 
L 500.073826 166.62602 
L 501.776083 132.500658 
L 503.47834 181.956094 
L 505.180598 123.631184 
L 506.882855 109.254384 
L 508.585113 209.126229 
L 510.28737 259.632898 
L 511.989628 177.269455 
L 513.691885 230.248654 
L 515.394143 231.561259 
L 517.0964 182.212982 
L 518.798658 158.648986 
L 520.500915 178.241868 
L 522.203173 196.276925 
L 523.90543 88.30915 
L 525.607688 129.680063 
L 527.309945 90.70934 
L 529.012203 129.23087 
L 530.71446 56.520359 
L 532.416718 142.278582 
L 534.118975 157.556095 
L 535.821232 101.508768 
L 537.52349 107.394986 
L 539.225747 157.124944 
L 540.928005 105.423677 
L 542.630262 130.72115 
L 544.33252 106.953283 
L 546.034777 161.122264 
L 547.737035 108.046214 
L 549.439292 148.08809 
L 551.14155 131.510986 
L 552.843807 97.915323 
L 554.546065 92.982303 
L 556.248322 223.525013 
L 557.95058 213.181918 
L 561.355095 159.669354 
L 563.057352 201.438654 
L 564.75961 208.797733 
L 566.461867 203.828778 
L 568.164124 181.487273 
L 569.866382 206.672309 
L 571.568639 208.253579 
L 573.270897 203.411183 
L 574.973154 186.457645 
L 576.675412 103.86562 
L 578.377669 137.850417 
L 580.079927 218.291938 
L 581.782184 167.016988 
L 583.484442 148.703705 
L 585.186699 77.555281 
L 586.888957 129.216675 
L 588.591214 129.139835 
L 590.293472 182.634047 
L 591.995729 134.284612 
L 593.697987 109.709553 
L 595.400244 105.548924 
L 597.102502 55.8 
L 598.804759 132.902466 
L 600.507016 131.549999 
L 602.209274 105.873758 
L 603.911531 208.783051 
L 605.613789 99.463311 
L 607.316046 199.578132 
L 609.018304 157.435932 
L 610.720561 159.559453 
L 612.422819 159.055942 
L 614.125076 81.527507 
L 615.827334 134.043975 
L 617.529591 159.383072 
L 619.231849 181.400438 
L 620.934106 106.101137 
L 622.636364 231.940121 
L 622.636364 231.940121 
" clip-path="url(#p6fd7332c2b)" style="fill: none; stroke: #f58860; stroke-linecap: square"/>
   </g>
   <g id="line2d_92">
    <path d="M 90 165.044162 
L 648 165.044162 
" clip-path="url(#p6fd7332c2b)" style="fill: none; stroke-dasharray: 3.7,1.6; stroke-dashoffset: 0; stroke: #f58860"/>
    <defs>
     <path id="m76f68b717e" d="M 0 -3 
L -3 3 
L 3 3 
z
" style="stroke: #f58860; stroke-linejoin: miter"/>
    </defs>
    <g clip-path="url(#p6fd7332c2b)">
     <use xlink:href="#m76f68b717e" x="90" y="165.044162" style="fill: #f58860; stroke: #f58860; stroke-linejoin: miter"/>
     <use xlink:href="#m76f68b717e" x="648" y="165.044162" style="fill: #f58860; stroke: #f58860; stroke-linejoin: miter"/>
    </g>
   </g>
   <g id="patch_3">
    <path d="M 90 320.4 
L 90 43.2 
" style="fill: none; stroke: #000000; stroke-width: 0.8; stroke-linejoin: miter; stroke-linecap: square"/>
   </g>
   <g id="patch_4">
    <path d="M 648 320.4 
L 648 43.2 
" style="fill: none; stroke: #000000; stroke-width: 0.8; stroke-linejoin: miter; stroke-linecap: square"/>
   </g>
   <g id="patch_5">
    <path d="M 90 320.4 
L 648 320.4 
" style="fill: none; stroke: #000000; stroke-width: 0.8; stroke-linejoin: miter; stroke-linecap: square"/>
   </g>
   <g id="patch_6">
    <path d="M 90 43.2 
L 648 43.2 
" style="fill: none; stroke: #000000; stroke-width: 0.8; stroke-linejoin: miter; stroke-linecap: square"/>
   </g>
   <g id="text_25">
    <!-- Accuracy comparison: Fish type detection (Pattern:Jail_100) -->
    <g transform="translate(190.14375 37.2)scale(0.12 -0.12)">
     <defs>
      <path id="DejaVuSans-70" d="M 1159 525 
L 1159 -1331 
L 581 -1331 
L 581 3500 
L 1159 3500 
L 1159 2969 
Q 1341 3281 1617 3432 
Q 1894 3584 2278 3584 
Q 2916 3584 3314 3078 
Q 3713 2572 3713 1747 
Q 3713 922 3314 415 
Q 2916 -91 2278 -91 
Q 1894 -91 1617 61 
Q 1341 213 1159 525 
z
M 3116 1747 
Q 3116 2381 2855 2742 
Q 2594 3103 2138 3103 
Q 1681 3103 1420 2742 
Q 1159 2381 1159 1747 
Q 1159 1113 1420 752 
Q 1681 391 2138 391 
Q 2594 391 2855 752 
Q 3116 1113 3116 1747 
z
" transform="scale(0.015625)"/>
      <path id="DejaVuSans-3a" d="M 750 794 
L 1409 794 
L 1409 0 
L 750 0 
L 750 794 
z
M 750 3309 
L 1409 3309 
L 1409 2516 
L 750 2516 
L 750 3309 
z
" transform="scale(0.015625)"/>
      <path id="DejaVuSans-46" d="M 628 4666 
L 3309 4666 
L 3309 4134 
L 1259 4134 
L 1259 2759 
L 3109 2759 
L 3109 2228 
L 1259 2228 
L 1259 0 
L 628 0 
L 628 4666 
z
" transform="scale(0.015625)"/>
      <path id="DejaVuSans-68" d="M 3513 2113 
L 3513 0 
L 2938 0 
L 2938 2094 
Q 2938 2591 2744 2837 
Q 2550 3084 2163 3084 
Q 1697 3084 1428 2787 
Q 1159 2491 1159 1978 
L 1159 0 
L 581 0 
L 581 4863 
L 1159 4863 
L 1159 2956 
Q 1366 3272 1645 3428 
Q 1925 3584 2291 3584 
Q 2894 3584 3203 3211 
Q 3513 2838 3513 2113 
z
" transform="scale(0.015625)"/>
      <path id="DejaVuSans-64" d="M 2906 2969 
L 2906 4863 
L 3481 4863 
L 3481 0 
L 2906 0 
L 2906 525 
Q 2725 213 2448 61 
Q 2172 -91 1784 -91 
Q 1150 -91 751 415 
Q 353 922 353 1747 
Q 353 2572 751 3078 
Q 1150 3584 1784 3584 
Q 2172 3584 2448 3432 
Q 2725 3281 2906 2969 
z
M 947 1747 
Q 947 1113 1208 752 
Q 1469 391 1925 391 
Q 2381 391 2643 752 
Q 2906 1113 2906 1747 
Q 2906 2381 2643 2742 
Q 2381 3103 1925 3103 
Q 1469 3103 1208 2742 
Q 947 2381 947 1747 
z
" transform="scale(0.015625)"/>
      <path id="DejaVuSans-28" d="M 1984 4856 
Q 1566 4138 1362 3434 
Q 1159 2731 1159 2009 
Q 1159 1288 1364 580 
Q 1569 -128 1984 -844 
L 1484 -844 
Q 1016 -109 783 600 
Q 550 1309 550 2009 
Q 550 2706 781 3412 
Q 1013 4119 1484 4856 
L 1984 4856 
z
" transform="scale(0.015625)"/>
      <path id="DejaVuSans-50" d="M 1259 4147 
L 1259 2394 
L 2053 2394 
Q 2494 2394 2734 2622 
Q 2975 2850 2975 3272 
Q 2975 3691 2734 3919 
Q 2494 4147 2053 4147 
L 1259 4147 
z
M 628 4666 
L 2053 4666 
Q 2838 4666 3239 4311 
Q 3641 3956 3641 3272 
Q 3641 2581 3239 2228 
Q 2838 1875 2053 1875 
L 1259 1875 
L 1259 0 
L 628 0 
L 628 4666 
z
" transform="scale(0.015625)"/>
      <path id="DejaVuSans-4a" d="M 628 4666 
L 1259 4666 
L 1259 325 
Q 1259 -519 939 -900 
Q 619 -1281 -91 -1281 
L -331 -1281 
L -331 -750 
L -134 -750 
Q 284 -750 456 -515 
Q 628 -281 628 325 
L 628 4666 
z
" transform="scale(0.015625)"/>
      <path id="DejaVuSans-5f" d="M 3263 -1063 
L 3263 -1509 
L -63 -1509 
L -63 -1063 
L 3263 -1063 
z
" transform="scale(0.015625)"/>
      <path id="DejaVuSans-29" d="M 513 4856 
L 1013 4856 
Q 1481 4119 1714 3412 
Q 1947 2706 1947 2009 
Q 1947 1309 1714 600 
Q 1481 -109 1013 -844 
L 513 -844 
Q 928 -128 1133 580 
Q 1338 1288 1338 2009 
Q 1338 2731 1133 3434 
Q 928 4138 513 4856 
z
" transform="scale(0.015625)"/>
     </defs>
     <use xlink:href="#DejaVuSans-41"/>
     <use xlink:href="#DejaVuSans-63" x="66.658203"/>
     <use xlink:href="#DejaVuSans-63" x="121.638672"/>
     <use xlink:href="#DejaVuSans-75" x="176.619141"/>
     <use xlink:href="#DejaVuSans-72" x="239.998047"/>
     <use xlink:href="#DejaVuSans-61" x="281.111328"/>
     <use xlink:href="#DejaVuSans-63" x="342.390625"/>
     <use xlink:href="#DejaVuSans-79" x="397.371094"/>
     <use xlink:href="#DejaVuSans-20" x="456.550781"/>
     <use xlink:href="#DejaVuSans-63" x="488.337891"/>
     <use xlink:href="#DejaVuSans-6f" x="543.318359"/>
     <use xlink:href="#DejaVuSans-6d" x="604.5"/>
     <use xlink:href="#DejaVuSans-70" x="701.912109"/>
     <use xlink:href="#DejaVuSans-61" x="765.388672"/>
     <use xlink:href="#DejaVuSans-72" x="826.667969"/>
     <use xlink:href="#DejaVuSans-69" x="867.78125"/>
     <use xlink:href="#DejaVuSans-73" x="895.564453"/>
     <use xlink:href="#DejaVuSans-6f" x="947.664062"/>
     <use xlink:href="#DejaVuSans-6e" x="1008.845703"/>
     <use xlink:href="#DejaVuSans-3a" x="1072.224609"/>
     <use xlink:href="#DejaVuSans-20" x="1105.916016"/>
     <use xlink:href="#DejaVuSans-46" x="1137.703125"/>
     <use xlink:href="#DejaVuSans-69" x="1187.972656"/>
     <use xlink:href="#DejaVuSans-73" x="1215.755859"/>
     <use xlink:href="#DejaVuSans-68" x="1267.855469"/>
     <use xlink:href="#DejaVuSans-20" x="1331.234375"/>
     <use xlink:href="#DejaVuSans-74" x="1363.021484"/>
     <use xlink:href="#DejaVuSans-79" x="1402.230469"/>
     <use xlink:href="#DejaVuSans-70" x="1461.410156"/>
     <use xlink:href="#DejaVuSans-65" x="1524.886719"/>
     <use xlink:href="#DejaVuSans-20" x="1586.410156"/>
     <use xlink:href="#DejaVuSans-64" x="1618.197266"/>
     <use xlink:href="#DejaVuSans-65" x="1681.673828"/>
     <use xlink:href="#DejaVuSans-74" x="1743.197266"/>
     <use xlink:href="#DejaVuSans-65" x="1782.40625"/>
     <use xlink:href="#DejaVuSans-63" x="1843.929688"/>
     <use xlink:href="#DejaVuSans-74" x="1898.910156"/>
     <use xlink:href="#DejaVuSans-69" x="1938.119141"/>
     <use xlink:href="#DejaVuSans-6f" x="1965.902344"/>
     <use xlink:href="#DejaVuSans-6e" x="2027.083984"/>
     <use xlink:href="#DejaVuSans-20" x="2090.462891"/>
     <use xlink:href="#DejaVuSans-28" x="2122.25"/>
     <use xlink:href="#DejaVuSans-50" x="2161.263672"/>
     <use xlink:href="#DejaVuSans-61" x="2217.066406"/>
     <use xlink:href="#DejaVuSans-74" x="2278.345703"/>
     <use xlink:href="#DejaVuSans-74" x="2317.554688"/>
     <use xlink:href="#DejaVuSans-65" x="2356.763672"/>
     <use xlink:href="#DejaVuSans-72" x="2418.287109"/>
     <use xlink:href="#DejaVuSans-6e" x="2457.650391"/>
     <use xlink:href="#DejaVuSans-3a" x="2521.029297"/>
     <use xlink:href="#DejaVuSans-4a" x="2554.720703"/>
     <use xlink:href="#DejaVuSans-61" x="2584.212891"/>
     <use xlink:href="#DejaVuSans-69" x="2645.492188"/>
     <use xlink:href="#DejaVuSans-6c" x="2673.275391"/>
     <use xlink:href="#DejaVuSans-5f" x="2701.058594"/>
     <use xlink:href="#DejaVuSans-31" x="2751.058594"/>
     <use xlink:href="#DejaVuSans-30" x="2814.681641"/>
     <use xlink:href="#DejaVuSans-30" x="2878.304688"/>
     <use xlink:href="#DejaVuSans-29" x="2941.927734"/>
    </g>
   </g>
   <g id="legend_1">
    <g id="patch_7">
     <path d="M 549.85 315.4 
L 641 315.4 
Q 643 315.4 643 313.4 
L 643 226.33125 
Q 643 224.33125 641 224.33125 
L 549.85 224.33125 
Q 547.85 224.33125 547.85 226.33125 
L 547.85 313.4 
Q 547.85 315.4 549.85 315.4 
z
" style="fill: #ffffff; opacity: 0.8; stroke: #cccccc; stroke-linejoin: miter"/>
    </g>
    <g id="line2d_93">
     <path d="M 551.85 232.429688 
L 561.85 232.429688 
L 571.85 232.429688 
" style="fill: none; stroke: #611f53; stroke-linecap: square"/>
    </g>
    <g id="text_26">
     <!-- Tuna -->
     <g transform="translate(579.85 235.929688)scale(0.1 -0.1)">
      <use xlink:href="#DejaVuSans-54"/>
      <use xlink:href="#DejaVuSans-75" x="45.958984"/>
      <use xlink:href="#DejaVuSans-6e" x="109.337891"/>
      <use xlink:href="#DejaVuSans-61" x="172.716797"/>
     </g>
    </g>
    <g id="line2d_94">
     <path d="M 551.85 247.107813 
L 561.85 247.107813 
L 571.85 247.107813 
" style="fill: none; stroke-dasharray: 3.7,1.6; stroke-dashoffset: 0; stroke: #611f53"/>
     <g>
      <use xlink:href="#mb95de7bfec" x="561.85" y="247.107813" style="fill: #611f53; stroke: #611f53; stroke-linejoin: miter"/>
     </g>
    </g>
    <g id="text_27">
     <!-- Avg Tuna -->
     <g transform="translate(579.85 250.607813)scale(0.1 -0.1)">
      <defs>
       <path id="DejaVuSans-76" d="M 191 3500 
L 800 3500 
L 1894 563 
L 2988 3500 
L 3597 3500 
L 2284 0 
L 1503 0 
L 191 3500 
z
" transform="scale(0.015625)"/>
       <path id="DejaVuSans-67" d="M 2906 1791 
Q 2906 2416 2648 2759 
Q 2391 3103 1925 3103 
Q 1463 3103 1205 2759 
Q 947 2416 947 1791 
Q 947 1169 1205 825 
Q 1463 481 1925 481 
Q 2391 481 2648 825 
Q 2906 1169 2906 1791 
z
M 3481 434 
Q 3481 -459 3084 -895 
Q 2688 -1331 1869 -1331 
Q 1566 -1331 1297 -1286 
Q 1028 -1241 775 -1147 
L 775 -588 
Q 1028 -725 1275 -790 
Q 1522 -856 1778 -856 
Q 2344 -856 2625 -561 
Q 2906 -266 2906 331 
L 2906 616 
Q 2728 306 2450 153 
Q 2172 0 1784 0 
Q 1141 0 747 490 
Q 353 981 353 1791 
Q 353 2603 747 3093 
Q 1141 3584 1784 3584 
Q 2172 3584 2450 3431 
Q 2728 3278 2906 2969 
L 2906 3500 
L 3481 3500 
L 3481 434 
z
" transform="scale(0.015625)"/>
      </defs>
      <use xlink:href="#DejaVuSans-41"/>
      <use xlink:href="#DejaVuSans-76" x="62.533203"/>
      <use xlink:href="#DejaVuSans-67" x="121.712891"/>
      <use xlink:href="#DejaVuSans-20" x="185.189453"/>
      <use xlink:href="#DejaVuSans-54" x="216.976562"/>
      <use xlink:href="#DejaVuSans-75" x="262.935547"/>
      <use xlink:href="#DejaVuSans-6e" x="326.314453"/>
      <use xlink:href="#DejaVuSans-61" x="389.693359"/>
     </g>
    </g>
    <g id="line2d_95">
     <path d="M 551.85 261.785938 
L 561.85 261.785938 
L 571.85 261.785938 
" style="fill: none; stroke: #cb1b4f; stroke-linecap: square"/>
    </g>
    <g id="text_28">
     <!-- Salmon -->
     <g transform="translate(579.85 265.285938)scale(0.1 -0.1)">
      <use xlink:href="#DejaVuSans-53"/>
      <use xlink:href="#DejaVuSans-61" x="63.476562"/>
      <use xlink:href="#DejaVuSans-6c" x="124.755859"/>
      <use xlink:href="#DejaVuSans-6d" x="152.539062"/>
      <use xlink:href="#DejaVuSans-6f" x="249.951172"/>
      <use xlink:href="#DejaVuSans-6e" x="311.132812"/>
     </g>
    </g>
    <g id="line2d_96">
     <path d="M 551.85 276.464063 
L 561.85 276.464063 
L 571.85 276.464063 
" style="fill: none; stroke-dasharray: 3.7,1.6; stroke-dashoffset: 0; stroke: #cb1b4f"/>
     <g>
      <use xlink:href="#m5366608303" x="561.85" y="276.464063" style="fill: #cb1b4f; stroke: #cb1b4f"/>
     </g>
    </g>
    <g id="text_29">
     <!-- Avg Salmon -->
     <g transform="translate(579.85 279.964063)scale(0.1 -0.1)">
      <use xlink:href="#DejaVuSans-41"/>
      <use xlink:href="#DejaVuSans-76" x="62.533203"/>
      <use xlink:href="#DejaVuSans-67" x="121.712891"/>
      <use xlink:href="#DejaVuSans-20" x="185.189453"/>
      <use xlink:href="#DejaVuSans-53" x="216.976562"/>
      <use xlink:href="#DejaVuSans-61" x="280.453125"/>
      <use xlink:href="#DejaVuSans-6c" x="341.732422"/>
      <use xlink:href="#DejaVuSans-6d" x="369.515625"/>
      <use xlink:href="#DejaVuSans-6f" x="466.927734"/>
      <use xlink:href="#DejaVuSans-6e" x="528.109375"/>
     </g>
    </g>
    <g id="line2d_97">
     <path d="M 551.85 291.142188 
L 561.85 291.142188 
L 571.85 291.142188 
" style="fill: none; stroke: #f58860; stroke-linecap: square"/>
    </g>
    <g id="text_30">
     <!-- Clown -->
     <g transform="translate(579.85 294.642188)scale(0.1 -0.1)">
      <defs>
       <path id="DejaVuSans-43" d="M 4122 4306 
L 4122 3641 
Q 3803 3938 3442 4084 
Q 3081 4231 2675 4231 
Q 1875 4231 1450 3742 
Q 1025 3253 1025 2328 
Q 1025 1406 1450 917 
Q 1875 428 2675 428 
Q 3081 428 3442 575 
Q 3803 722 4122 1019 
L 4122 359 
Q 3791 134 3420 21 
Q 3050 -91 2638 -91 
Q 1578 -91 968 557 
Q 359 1206 359 2328 
Q 359 3453 968 4101 
Q 1578 4750 2638 4750 
Q 3056 4750 3426 4639 
Q 3797 4528 4122 4306 
z
" transform="scale(0.015625)"/>
       <path id="DejaVuSans-77" d="M 269 3500 
L 844 3500 
L 1563 769 
L 2278 3500 
L 2956 3500 
L 3675 769 
L 4391 3500 
L 4966 3500 
L 4050 0 
L 3372 0 
L 2619 2869 
L 1863 0 
L 1184 0 
L 269 3500 
z
" transform="scale(0.015625)"/>
      </defs>
      <use xlink:href="#DejaVuSans-43"/>
      <use xlink:href="#DejaVuSans-6c" x="69.824219"/>
      <use xlink:href="#DejaVuSans-6f" x="97.607422"/>
      <use xlink:href="#DejaVuSans-77" x="158.789062"/>
      <use xlink:href="#DejaVuSans-6e" x="240.576172"/>
     </g>
    </g>
    <g id="line2d_98">
     <path d="M 551.85 305.820312 
L 561.85 305.820312 
L 571.85 305.820312 
" style="fill: none; stroke-dasharray: 3.7,1.6; stroke-dashoffset: 0; stroke: #f58860"/>
     <g>
      <use xlink:href="#m76f68b717e" x="561.85" y="305.820312" style="fill: #f58860; stroke: #f58860; stroke-linejoin: miter"/>
     </g>
    </g>
    <g id="text_31">
     <!-- Avg Clown -->
     <g transform="translate(579.85 309.320312)scale(0.1 -0.1)">
      <use xlink:href="#DejaVuSans-41"/>
      <use xlink:href="#DejaVuSans-76" x="62.533203"/>
      <use xlink:href="#DejaVuSans-67" x="121.712891"/>
      <use xlink:href="#DejaVuSans-20" x="185.189453"/>
      <use xlink:href="#DejaVuSans-43" x="216.976562"/>
      <use xlink:href="#DejaVuSans-6c" x="286.800781"/>
      <use xlink:href="#DejaVuSans-6f" x="314.583984"/>
      <use xlink:href="#DejaVuSans-77" x="375.765625"/>
      <use xlink:href="#DejaVuSans-6e" x="457.552734"/>
     </g>
    </g>
   </g>
  </g>
 </g>
 <defs>
  <clipPath id="p6fd7332c2b">
   <rect x="90" y="43.2" width="558" height="277.2"/>
  </clipPath>
 </defs>
</svg>
